<svg width="394" height="400" viewBox="0 0 394 400" fill="none" xmlns="http://www.w3.org/2000/svg">
<path d="M280.685 321.722H186.562V399.49H280.685V321.722Z" fill="#D8D8D8"/>
<path opacity="0.1" d="M280.685 321.722H186.562V399.49H280.685V321.722Z" fill="black"/>
<path d="M317.983 321.731H280.686V399.5H317.983V321.731Z" fill="#D8D8D8"/>
<path opacity="0.2" d="M317.983 321.731H280.686V399.5H317.983V321.731Z" fill="black"/>
<path d="M315.406 394.136C312.648 388.609 309.913 383.063 307.2 377.498L299.108 360.766L291.12 343.968C288.476 338.359 285.854 332.732 283.254 327.085C286.024 332.618 288.762 338.164 291.469 343.723L299.552 360.455L307.54 377.253C310.196 382.862 312.818 388.489 315.406 394.136Z" fill="#D8D8D8"/>
<path d="M315.406 327.085C312.812 332.75 310.19 338.378 307.54 343.968L299.552 360.766L291.469 377.498C288.756 383.057 286.017 388.603 283.254 394.136C285.854 388.471 288.476 382.843 291.12 377.253L299.108 360.455L307.2 343.732C309.913 338.161 312.648 332.612 315.406 327.085Z" fill="#D8D8D8"/>
<path d="M240.281 338.529H238.798H237.675L237.042 337.236L236.145 338.529L234.927 335.867L233.784 338.529H230.498H228.997L228.449 336.754L227.939 338.529H226.967V321.731H240.281V338.529Z" fill="white"/>
<path d="M286.359 243.963H216.135V321.722H286.359V243.963Z" fill="#D8D8D8"/>
<path d="M322.619 243.963H286.359V321.731H322.619V243.963Z" fill="#D8D8D8"/>
<path opacity="0.1" d="M322.619 243.963H286.359V321.731H322.619V243.963Z" fill="black"/>
<g opacity="0.1">
<path opacity="0.1" d="M281.214 316.368C276.058 310.835 270.947 305.289 265.879 299.73L250.743 282.96L235.833 266.162C230.885 260.553 225.988 254.926 221.141 249.279C226.303 254.812 231.414 260.361 236.475 265.926L251.583 282.649L266.493 299.447C271.46 305.081 276.367 310.721 281.214 316.368Z" fill="black"/>
<path opacity="0.1" d="M281.213 249.317C276.359 254.982 271.462 260.61 266.52 266.2L251.611 282.96L236.503 299.693C231.467 305.251 226.355 310.797 221.168 316.33C226.021 310.665 230.919 305.037 235.86 299.447L250.742 282.687L265.85 265.964C270.93 260.393 276.051 254.844 281.213 249.317Z" fill="black"/>
</g>
<path d="M317.521 308.568H311.166V317.539H317.521V308.568Z" fill="white"/>
<path d="M0 399.528L49.2331 399.292L98.4662 399.216L196.923 399.056L295.38 399.216L344.613 399.292L393.846 399.528L344.613 399.754L295.38 399.839L196.923 400L98.4662 399.839L49.2331 399.754L0 399.528Z" fill="#263238"/>
<path d="M111.94 313.469C111.94 313.469 91.8082 353.779 91.7987 353.779C90.1369 362.098 88.8338 369.435 88.5033 373.287C88.4984 373.309 88.4984 373.332 88.5033 373.353C88.329 374.246 88.3646 375.168 88.6072 376.045C88.6023 376.066 88.6023 376.089 88.6072 376.111C90.7506 378.282 156.905 393.513 159.426 393.268C161.947 393.022 161.409 385.912 159.312 383.278C157.216 380.643 134.488 363.448 134.488 363.448L154.166 323.072L111.94 313.469Z" fill="#CF8170"/>
<path d="M158.425 393.305C155.942 393.551 90.779 378.311 88.645 376.148C88.6419 376.126 88.6419 376.104 88.645 376.082C88.3979 375.206 88.3591 374.285 88.5317 373.391C88.5237 373.37 88.5237 373.346 88.5317 373.325C88.8527 369.473 90.1652 362.136 91.8177 353.807L96.6333 344.157L138.379 355.602L134.526 363.514C134.526 363.514 156.244 380.671 158.349 383.344C160.455 386.016 160.918 393.069 158.425 393.305Z" fill="#EBEBEB"/>
<path d="M159.33 392.248C156.809 392.437 90.4943 375.535 88.3792 373.287C87.5671 372.447 89.4651 362.636 92.0995 350.852L92.1845 350.484L135.091 360.918L134.893 361.635C134.893 361.635 157.375 379.463 159.443 382.182C161.511 384.901 161.842 392.068 159.33 392.248Z" fill="#263238"/>
<path d="M159.228 389.481C148.124 386.365 103.026 374.808 91.8085 372.56C91.7141 372.56 91.6952 372.608 91.8085 372.636C102.752 375.969 147.944 387.158 159.209 389.632C159.426 389.717 159.464 389.547 159.228 389.481Z" fill="white"/>
<path d="M138.453 362.683C134.261 360.738 128.709 360.04 124.554 362.325C124.394 362.41 124.554 362.636 124.667 362.627C129.218 362.341 133.786 362.544 138.293 363.231C138.359 363.235 138.425 363.217 138.479 363.178C138.533 363.14 138.573 363.085 138.591 363.021C138.61 362.958 138.607 362.89 138.581 362.828C138.556 362.767 138.511 362.716 138.453 362.683Z" fill="white"/>
<path d="M141.135 365.403C136.952 363.467 131.4 362.768 127.235 365.044C127.075 365.129 127.235 365.356 127.358 365.356C131.909 365.065 136.477 365.268 140.984 365.96C141.053 365.967 141.122 365.949 141.178 365.909C141.235 365.87 141.277 365.812 141.295 365.745C141.313 365.678 141.307 365.607 141.277 365.545C141.248 365.482 141.198 365.432 141.135 365.403Z" fill="white"/>
<path d="M143.826 368.132C139.634 366.186 134.082 365.488 129.927 367.763C129.766 367.858 129.927 368.084 130.05 368.075C134.597 367.79 139.162 367.992 143.666 368.679C143.732 368.683 143.797 368.665 143.852 368.627C143.906 368.588 143.946 368.533 143.964 368.469C143.983 368.406 143.979 368.338 143.954 368.276C143.929 368.215 143.884 368.164 143.826 368.132Z" fill="white"/>
<path d="M160.946 390.133C162.013 390.888 160.738 394.807 159.804 394.911C158.869 395.014 86.6432 376.262 85.5007 375.667C84.3581 375.072 85.9256 370.785 87.3892 370.946C88.8528 371.106 160.946 390.133 160.946 390.133Z" fill="#FDB839"/>
<path d="M101.242 360.701C97.0495 357.075 91.4029 363.59 95.5765 367.225C99.7501 370.861 105.444 364.336 101.242 360.701Z" fill="white"/>
<path d="M96.7559 340.937L145.139 353.137C145.139 353.137 190.236 271.752 189.226 251.064C187.838 222.529 154.336 134.789 154.336 134.789H114.224C114.224 134.789 140.843 229.639 141.211 245.597C141.372 253.944 96.7559 340.937 96.7559 340.937Z" fill="#1D3C58"/>
<path d="M147.208 343.317C144.63 342.288 121.6 335.64 104.415 331.986C104.396 331.992 104.379 332.004 104.368 332.02C104.356 332.036 104.35 332.056 104.35 332.076C104.35 332.095 104.356 332.115 104.368 332.131C104.379 332.147 104.396 332.159 104.415 332.165C109.825 334.054 143.969 343.052 147.17 343.496C147.246 343.525 147.321 343.392 147.208 343.317Z" fill="#263238"/>
<path d="M144.535 225.22C141.344 211.83 137.926 198.478 134.337 185.212C130.749 171.945 126.906 158.556 122.685 145.393C122.175 143.778 121.637 142.182 121.118 140.577C121.103 140.526 121.068 140.483 121.021 140.457C120.974 140.431 120.919 140.425 120.868 140.44C120.816 140.455 120.773 140.49 120.747 140.537C120.722 140.584 120.716 140.639 120.731 140.69C124.508 153.806 128.285 166.893 131.863 180.056C135.442 193.219 138.851 206.42 142.061 219.715C142.864 223.001 143.648 226.277 144.413 229.573C145.301 232.95 145.989 236.377 146.471 239.837C146.868 243.142 146.641 246.492 145.801 249.713C144.889 252.879 143.698 255.957 142.241 258.91C136.456 271.469 130.674 284.031 124.895 296.595C119.116 309.192 118.181 312.062 112.62 324.762C111.93 326.339 111.241 327.916 110.58 329.484C110.58 329.587 110.684 329.682 110.741 329.569C117.067 317.123 118.04 314.13 123.96 301.458C129.881 288.786 135.763 275.964 141.636 263.207C144.28 257.447 147.387 251.574 147.783 245.134C148.18 238.411 146.065 231.669 144.535 225.22Z" fill="#263238"/>
<path d="M146.725 329.408L148.273 373.788C148.528 382.286 148.896 389.717 149.453 393.541C149.449 393.563 149.449 393.586 149.453 393.608C149.485 394.515 149.724 395.403 150.152 396.204L150.209 396.261C152.787 397.894 220.669 397.857 223.039 397.054C225.409 396.251 223.313 389.453 220.678 387.347C218.044 385.241 192.039 373.637 192.039 373.637L190.066 329.304L146.725 329.408Z" fill="#CF8170"/>
<path d="M147.955 364.704C147.955 364.704 148.276 373.788 148.276 373.816C148.531 382.314 148.899 389.746 149.456 393.57C149.452 393.592 149.452 393.614 149.456 393.636C149.585 394.526 149.82 395.398 150.155 396.233L150.212 396.289C152.79 397.923 220.672 397.885 223.042 397.082C225.412 396.28 223.316 389.481 220.681 387.376C218.047 385.27 192.042 373.665 192.042 373.665L191.844 364.421L147.955 364.704Z" fill="#EBEBEB"/>
<path d="M223.076 397.007C220.678 397.772 152.258 396.714 149.67 395.015C148.726 394.382 148.254 384.411 148.084 372.353V371.975L192.237 372.164V372.919C192.237 372.919 218.251 385.034 220.886 387.196C223.52 389.358 225.484 396.27 223.076 397.007Z" fill="#263238"/>
<path d="M222.35 394.382C210.821 393.919 164.269 393.145 152.834 393.57C152.74 393.57 152.74 393.636 152.834 393.636C164.25 394.344 210.811 394.75 222.35 394.58C222.586 394.523 222.596 394.382 222.35 394.382Z" fill="white"/>
<path d="M195.922 373.089C191.399 372.145 185.828 372.777 182.315 375.922C182.174 376.045 182.315 376.233 182.504 376.196C186.864 374.865 191.352 374.001 195.894 373.618C195.948 373.6 195.996 373.567 196.032 373.521C196.067 373.476 196.087 373.421 196.09 373.363C196.093 373.306 196.079 373.249 196.049 373.2C196.019 373.151 195.974 373.112 195.922 373.089Z" fill="white"/>
<path d="M199.168 375.11C194.636 374.165 189.074 374.808 185.562 377.99C185.42 378.112 185.562 378.301 185.741 378.254C190.103 376.922 194.595 376.061 199.14 375.686C199.208 375.677 199.271 375.645 199.318 375.594C199.365 375.544 199.393 375.478 199.396 375.41C199.4 375.341 199.379 375.273 199.337 375.218C199.295 375.163 199.235 375.125 199.168 375.11Z" fill="white"/>
<path d="M202.406 377.14C197.883 376.196 192.322 376.828 188.8 379.973C188.667 380.095 188.8 380.284 188.988 380.246C193.348 378.917 197.836 378.053 202.378 377.669C202.433 377.651 202.481 377.617 202.516 377.572C202.551 377.526 202.571 377.471 202.574 377.414C202.577 377.357 202.563 377.3 202.533 377.251C202.503 377.202 202.459 377.163 202.406 377.14Z" fill="white"/>
<path d="M224.165 394.571C225.383 395.062 225.052 399.169 224.165 399.481C223.277 399.792 148.625 398.31 147.407 398.008C146.189 397.706 146.68 393.164 148.162 392.947C149.645 392.729 224.165 394.571 224.165 394.571Z" fill="#FDB839"/>
<path d="M159.266 379.793C154.346 377.234 150.361 384.883 155.29 387.442C160.219 390 164.195 382.352 159.266 379.793Z" fill="white"/>
<path d="M153.835 134.714C153.656 135.535 143.656 175.071 142.41 175.807C140.993 176.648 178.744 227.439 183.22 252.376C186.053 268.325 192.663 361.286 192.663 361.286H144.525C144.525 361.286 139.804 282.337 138.236 256.323C137.622 246.229 99.7581 199.565 96.1605 168.452C95.0274 158.65 102.071 134.676 102.071 134.676L153.835 134.714Z" fill="#1D3C58"/>
<path d="M143.308 323.724C142.741 310.646 142.222 297.54 141.268 284.481C140.73 277.078 139.672 269.911 138.936 262.536C138.936 262.149 138.586 262.055 138.596 262.452C138.936 275.586 140.022 288.579 140.72 301.704C141.419 314.829 142.09 317.888 142.836 330.976C143.251 338.379 143.619 345.781 144.195 353.175C144.202 353.194 144.214 353.21 144.23 353.222C144.246 353.234 144.265 353.24 144.285 353.24C144.305 353.24 144.324 353.234 144.34 353.222C144.356 353.21 144.368 353.194 144.375 353.175C144.403 340.031 143.884 336.849 143.308 323.724Z" fill="#263238"/>
<path d="M183.268 252.999C182.856 249.546 182.187 246.127 181.266 242.773C180.274 239.522 178.968 236.376 177.366 233.378C174.09 227.089 170.36 221.008 166.762 214.899C163.165 208.79 159.416 202.548 155.62 196.448C153.486 193.024 151.343 189.603 149.19 186.184C146.999 182.738 144.686 179.358 142.429 175.958C142.412 175.929 142.383 175.909 142.351 175.901C142.318 175.893 142.283 175.898 142.254 175.916C142.226 175.933 142.205 175.962 142.197 175.994C142.189 176.027 142.194 176.062 142.212 176.09C145.894 182.266 149.539 188.451 153.222 194.626C156.904 200.801 160.53 206.996 164.156 213.19C167.782 219.384 171.304 225.39 174.722 231.584C176.405 234.525 177.855 237.594 179.056 240.762C180.174 244.045 180.987 247.424 181.483 250.856C182.767 258.854 183.815 266.908 185.421 274.831C185.427 274.849 185.439 274.866 185.455 274.878C185.471 274.889 185.491 274.895 185.51 274.895C185.53 274.895 185.55 274.889 185.566 274.878C185.582 274.866 185.594 274.849 185.6 274.831C185.1 267.541 184.231 260.242 183.268 252.999Z" fill="#263238"/>
<path d="M188.423 353.033C185.676 352.674 164.704 351.947 147.16 352.703C147.046 352.703 147.056 352.873 147.16 352.882C152.872 353.383 185.175 353.609 188.395 353.232C188.48 353.222 188.518 353.052 188.423 353.033Z" fill="#263238"/>
<path d="M148.69 173.107C143.785 174.894 139.046 177.105 134.526 179.716C134.487 179.734 134.457 179.766 134.442 179.806C134.427 179.846 134.428 179.89 134.446 179.929C134.463 179.968 134.496 179.998 134.535 180.013C134.575 180.028 134.62 180.027 134.658 180.009C139.436 177.951 144.318 175.987 148.983 173.673C149.058 173.634 149.114 173.567 149.14 173.487C149.166 173.406 149.158 173.319 149.119 173.244C149.081 173.168 149.014 173.112 148.933 173.086C148.852 173.06 148.765 173.068 148.69 173.107Z" fill="#263238"/>
<path d="M150.135 140.379C150.135 140.219 149.833 140.181 149.833 140.379C149.834 145.715 149.566 151.047 149.03 156.356C148.803 158.82 146.821 172.408 142.553 171.464C141.835 171.294 141.476 170.595 141.363 169.509C141.375 168.1 141.565 166.697 141.929 165.336C142.401 162.503 142.779 159.67 143.025 156.752C143.525 151.391 143.468 145.993 142.855 140.643C142.847 140.613 142.829 140.587 142.804 140.567C142.779 140.548 142.749 140.538 142.718 140.538C142.687 140.538 142.656 140.548 142.631 140.567C142.607 140.587 142.589 140.613 142.581 140.643C142.705 148.075 142.269 155.505 141.278 162.871C140.74 166.412 138.955 171.747 142.666 172.314C146.377 172.88 148.879 163.938 149.332 161.492C150.513 154.519 150.783 147.422 150.135 140.379Z" fill="#263238"/>
<path d="M142.666 171.756C142.287 172.678 141.972 173.625 141.721 174.589C141.45 175.33 141.315 176.114 141.325 176.902C141.329 176.935 141.344 176.965 141.366 176.989C141.388 177.013 141.417 177.029 141.448 177.036C141.48 177.044 141.513 177.041 141.543 177.029C141.574 177.017 141.599 176.996 141.617 176.969C142.063 176.273 142.398 175.511 142.609 174.712C142.939 173.834 143.279 172.974 143.553 172.087C143.597 171.969 143.592 171.839 143.54 171.725C143.488 171.61 143.392 171.522 143.275 171.478C143.157 171.434 143.027 171.439 142.912 171.491C142.798 171.543 142.709 171.639 142.666 171.756Z" fill="#263238"/>
<path d="M144.677 269.014C144.224 262.291 144.252 255.2 141.391 248.968C139.872 245.931 138.123 243.014 136.16 240.243C134.209 237.259 132.282 234.259 130.381 231.244C122.827 219.186 115.538 206.882 108.9 194.277C105.699 188.205 102.753 181.935 101.147 175.231C99.5819 168.176 99.2846 160.899 100.269 153.74C100.496 151.955 100.741 150.18 101.034 148.405C101.035 148.381 101.028 148.357 101.013 148.338C100.998 148.319 100.978 148.306 100.954 148.3C100.931 148.294 100.906 148.297 100.885 148.308C100.863 148.318 100.846 148.336 100.836 148.358C99.2821 155.166 98.7506 162.167 99.2588 169.131C99.9854 175.79 101.861 182.272 104.802 188.29C107.729 194.626 111.213 200.726 114.65 206.797C118.194 213.092 121.842 219.296 125.594 225.409C129.371 231.508 133.261 237.486 137.161 243.491C139.15 246.323 140.7 249.44 141.759 252.735C142.618 256.174 143.112 259.693 143.232 263.235C144.177 278.098 147.954 327.51 149.295 342.297C149.455 344.186 149.625 346.074 149.804 347.963C149.799 347.982 149.798 348.003 149.802 348.023C149.806 348.043 149.814 348.062 149.827 348.078C149.839 348.094 149.855 348.107 149.873 348.116C149.891 348.125 149.912 348.13 149.932 348.13C149.952 348.13 149.972 348.125 149.991 348.116C150.009 348.107 150.025 348.094 150.037 348.078C150.049 348.062 150.058 348.043 150.062 348.023C150.066 348.003 150.065 347.982 150.059 347.963C149.493 333.119 145.65 283.829 144.677 269.014Z" fill="#263238"/>
<path d="M121.57 147.744C121.57 147.64 121.4 147.678 121.4 147.744C121.258 151.871 121.4 156.139 119.785 160.019C118.331 163.598 115.404 166.11 112.128 167.989C110.222 169.058 108.258 170.02 106.245 170.869C106.103 170.935 106.16 171.162 106.32 171.114C110.097 169.906 113.997 168.593 117.16 166.063C120.541 163.343 122.023 159.406 122.184 155.157C122.242 152.671 122.036 150.186 121.57 147.744Z" fill="#263238"/>
<path d="M142.525 80.4852C147.926 97.0662 162.514 125.309 167.727 128.717C172.344 131.73 194.071 128.368 203.608 126.074C207.159 125.214 199.17 98.1521 195.384 99.1436C190.842 100.333 177.311 103.383 176.329 102.628C175.347 101.872 161.702 85.0648 152.033 75.1691C143.233 66.2082 140.485 74.2154 142.525 80.4852Z" fill="#CF8170"/>
<path d="M201.519 126.281C203.341 126.055 218.761 125.337 225.833 121.494C229.61 119.445 239.251 112.665 238.288 110.229C237.41 108.01 234.313 109.219 234.313 109.219C234.313 109.219 238.571 106.131 237.325 103.053C236.078 99.9745 230.932 102.288 230.932 102.288C230.932 102.288 235.077 98.7942 233.614 95.8198C232.15 92.8454 227.372 96.0275 227.372 96.0275C227.372 96.0275 231.31 93.0154 229.072 91.0702C226.371 88.7285 219.733 95.1116 215.248 96.6035C214.228 96.9435 194.135 102.024 194.135 102.024L201.519 126.281Z" fill="#CF8170"/>
<path d="M227.204 95.9426C222.313 100.617 219.357 101.816 212.823 103.138C212.7 103.138 212.71 103.364 212.823 103.346C219.338 102.637 223.257 101.665 227.421 96.1693C227.648 95.8954 227.43 95.716 227.204 95.9426Z" fill="#263238"/>
<path d="M230.774 102.175C225.269 106.594 222.077 107.916 215.335 109.804C215.241 109.804 215.279 110.002 215.383 109.984C222.143 108.681 226.034 107.623 230.953 102.486C231.18 102.26 231.029 101.976 230.774 102.175Z" fill="#263238"/>
<path d="M233.983 109.294C228.317 113.185 224.908 114.799 218.129 115.791C218.096 115.791 218.065 115.804 218.042 115.827C218.019 115.85 218.006 115.881 218.006 115.914C218.006 115.946 218.019 115.977 218.042 116C218.065 116.023 218.096 116.036 218.129 116.036C225.144 115.696 229.46 113.723 234.058 109.483C234.398 109.219 234.332 109.058 233.983 109.294Z" fill="#263238"/>
<path d="M188.869 102.892C188.869 102.892 194.487 96.5376 197.566 94.2903C200.644 92.043 215.223 87.8883 216.3 90.9854C217.688 94.9891 209.746 99.0399 205.601 100.513C205.601 100.513 208.821 109.767 203.713 113.902C198.604 118.038 188.869 102.892 188.869 102.892Z" fill="#CF8170"/>
<path d="M216.327 92.2224C214.958 96.7831 209.386 98.3695 205.468 100.097C205.41 100.122 205.359 100.161 205.318 100.209C205.277 100.257 205.248 100.315 205.234 100.376C205.219 100.437 205.219 100.501 205.233 100.563C205.248 100.624 205.276 100.682 205.317 100.73C206.412 104.696 206.79 110.607 204.014 113.95C203.938 114.044 204.061 114.176 204.155 114.091C207.621 110.919 207.715 105.074 206.242 100.806C210.293 99.0965 215.807 97.2553 216.364 92.2413C216.374 92.2224 216.336 92.2224 216.327 92.2224Z" fill="#263238"/>
<path d="M201.512 130.937L194.393 98.5111L176.773 101.712C169.823 93.7521 155.933 77.8415 150.334 73.0636C143.724 67.4547 139.399 71.6661 141.836 80.1643C147.341 99.5875 163.44 128.104 167.651 130.795C173.761 134.714 201.512 130.937 201.512 130.937Z" fill="#FDB839"/>
<path opacity="0.1" d="M176.357 111.579C177.23 111.769 178.118 111.873 179.011 111.891C180.899 112.146 181.73 114.931 180.012 115.989C179.109 116.545 178.089 116.881 177.033 116.972C175.977 117.062 174.914 116.903 173.931 116.508C172.042 115.772 170.446 113.94 170.852 111.787C170.923 111.386 171.096 111.009 171.354 110.695C171.613 110.38 171.949 110.138 172.329 109.991C172.71 109.845 173.121 109.799 173.524 109.859C173.927 109.919 174.308 110.082 174.629 110.333C175.153 110.817 175.733 111.235 176.357 111.579ZM171.485 103.865C170.805 107.075 175.772 109.832 178.312 108.123C178.517 107.968 178.684 107.769 178.801 107.54C178.918 107.312 178.982 107.06 178.989 106.803C178.995 106.546 178.943 106.291 178.838 106.057C178.732 105.823 178.575 105.616 178.378 105.451C177.632 104.847 177.009 104.752 176.348 104.205C176.117 104.024 175.913 103.811 175.744 103.572C175.369 103.056 174.89 102.625 174.337 102.307C174.049 102.184 173.737 102.128 173.425 102.143C173.112 102.158 172.807 102.244 172.533 102.394C172.258 102.544 172.021 102.754 171.84 103.009C171.658 103.264 171.537 103.556 171.485 103.865ZM163.563 104.035C162.543 105.366 163.308 107.368 164.205 108.577C164.609 109.179 165.165 109.663 165.817 109.979C166.469 110.296 167.193 110.434 167.916 110.38C168.179 110.343 168.426 110.231 168.627 110.056C168.828 109.882 168.974 109.653 169.048 109.398C169.122 109.142 169.12 108.871 169.043 108.616C168.966 108.362 168.817 108.135 168.614 107.963C168.047 107.531 167.593 106.967 167.292 106.32C166.849 105.319 166.556 104.025 165.404 103.591C165.089 103.462 164.742 103.435 164.411 103.515C164.081 103.594 163.784 103.776 163.563 104.035ZM184.478 125.035C183.146 127.726 187.197 130.785 189.652 130.257C190.474 130.077 191.267 129.001 190.54 128.226C189.954 127.603 189.256 127.112 188.708 126.451C188.038 125.649 187.669 124.619 186.621 124.213C186.227 124.048 185.784 124.042 185.385 124.195C184.986 124.348 184.661 124.648 184.478 125.035ZM146.443 92.0333C146.211 91.5912 145.89 91.2022 145.499 90.8908C146.028 92.2442 146.585 93.6008 147.171 94.9605C147.202 93.9365 146.95 92.9236 146.443 92.0333ZM151.703 89.2006C151.518 86.8681 150.607 84.6522 149.097 82.8647C147.964 81.4011 146 79.0877 143.922 79.5881C143.702 79.6571 143.509 79.7954 143.373 79.9825C143.237 80.1696 143.165 80.3955 143.167 80.6268C143.035 82.2226 144.867 83.9317 145.66 85.2064C146.604 86.8116 147.35 88.5868 148.37 90.1826C148.583 90.5107 148.896 90.761 149.264 90.8962C149.631 91.0313 150.032 91.0441 150.407 90.9326C150.782 90.821 151.111 90.5911 151.344 90.2773C151.578 89.9634 151.704 89.5824 151.703 89.1911V89.2006ZM151.089 99.3513C151.458 99.3322 151.811 99.1954 152.097 98.9608C152.382 98.7263 152.585 98.4065 152.676 98.0482C152.822 97.3151 152.773 96.5563 152.534 95.8481C152.393 95.1737 152.066 94.5522 151.59 94.054C151.419 93.8963 151.211 93.7856 150.985 93.7327C150.758 93.6797 150.523 93.6864 150.3 93.7521C150.077 93.8178 149.875 93.9402 149.714 94.1073C149.553 94.2745 149.438 94.4806 149.38 94.7056C149.305 95.2569 149.305 95.8161 149.38 96.3674C149.38 96.6035 149.38 96.8396 149.38 97.0851C149.375 97.4409 149.413 97.7959 149.493 98.1426C149.595 98.4876 149.805 98.7906 150.093 99.0066C150.38 99.2227 150.73 99.3402 151.089 99.3418V99.3513Z" fill="#030402"/>
<path d="M195.345 128.104C194.533 126.215 192.512 117.83 192.068 115.743C191.625 113.657 189.982 105.215 189.5 103.072C189.5 102.949 189.632 102.883 189.661 102.996C190.17 105.111 192.446 113.439 192.947 115.517C193.447 117.594 195.326 125.97 195.458 128.075C195.46 128.083 195.46 128.091 195.459 128.098C195.458 128.106 195.456 128.113 195.452 128.12C195.444 128.133 195.431 128.142 195.416 128.146C195.401 128.15 195.385 128.148 195.372 128.14C195.358 128.132 195.349 128.119 195.345 128.104Z" fill="#263238"/>
<path opacity="0.1" d="M178.981 132.561C174.023 132.561 169.67 132.088 167.65 130.795C163.41 128.057 147.31 99.6346 141.768 80.1737C140.37 75.3013 141.211 71.8265 143.42 70.8162L178.981 132.561Z" fill="black"/>
<path d="M99.0799 139.161C99.2027 139.34 158.124 146.894 158.756 146.347C159.09 144.706 159.326 143.048 159.465 141.38C159.465 141.38 154.064 77.2277 151.269 73.4601C148.823 70.1742 141.401 67.7947 136.349 69.9381C125.746 74.4327 100.355 131.749 100.628 134.147C100.61 134.119 98.9288 138.934 99.0799 139.161Z" fill="#FDB839"/>
<path opacity="0.1" d="M120.325 131.352C121.233 131.793 122.182 132.147 123.157 132.41C125.121 133.193 125.301 136.47 123.157 137.131C122.018 137.492 120.81 137.582 119.629 137.394C118.449 137.205 117.329 136.743 116.359 136.045C114.47 134.723 113.252 132.268 114.272 130.077C114.459 129.66 114.75 129.299 115.118 129.027C115.485 128.755 115.916 128.583 116.369 128.526C116.823 128.469 117.283 128.53 117.706 128.702C118.129 128.875 118.501 129.153 118.785 129.511C119.314 130.124 119.635 130.936 120.325 131.352ZM117.095 121.598C115.481 124.931 120.155 129.284 123.393 128.104C123.665 127.995 123.907 127.825 124.102 127.607C124.296 127.389 124.437 127.129 124.514 126.847C124.591 126.565 124.602 126.269 124.545 125.983C124.488 125.696 124.365 125.427 124.187 125.195C123.544 124.336 122.883 124.062 122.298 123.307C122.096 123.046 121.934 122.756 121.816 122.448C121.537 121.788 121.13 121.191 120.617 120.691C119.494 119.605 117.69 120.37 117.095 121.598ZM111.637 118.047C109.872 118.708 109.418 121.088 109.551 122.769C109.578 123.585 109.821 124.38 110.256 125.072C110.69 125.763 111.301 126.327 112.025 126.706C112.298 126.828 112.6 126.869 112.896 126.822C113.192 126.776 113.467 126.645 113.69 126.445C113.913 126.245 114.073 125.985 114.151 125.697C114.229 125.408 114.222 125.103 114.13 124.818C113.831 124.063 113.727 123.244 113.828 122.438C113.989 121.23 114.47 119.813 113.668 118.727C113.444 118.414 113.128 118.18 112.763 118.058C112.398 117.936 112.004 117.932 111.637 118.047ZM130.995 129.284C130.548 129.246 130.103 129.38 129.752 129.659C129.401 129.938 129.17 130.341 129.106 130.785C129.058 131.263 129.178 131.742 129.445 132.14C129.712 132.538 130.11 132.83 130.57 132.967C131.214 133.179 131.909 133.179 132.553 132.967C132.882 132.836 133.154 132.592 133.317 132.277C133.507 131.973 133.584 131.612 133.535 131.258C133.482 130.926 133.331 130.619 133.1 130.376C132.869 130.133 132.569 129.966 132.241 129.898C132.182 129.819 132.112 129.749 132.033 129.69C131.734 129.457 131.373 129.316 130.995 129.284ZM116.519 106.499C114.933 108.123 115.575 111.815 117.388 113.062C117.621 113.239 117.897 113.353 118.188 113.39C118.479 113.428 118.774 113.39 119.045 113.278C119.316 113.166 119.554 112.986 119.733 112.754C119.913 112.522 120.029 112.247 120.07 111.957C120.098 111.583 120.098 111.207 120.07 110.833C120.07 110.427 120.013 110.172 120.07 109.889C120.211 109.082 120.239 108.259 120.155 107.444C120.081 107.057 119.9 106.699 119.631 106.412C119.362 106.124 119.017 105.919 118.636 105.82C118.255 105.721 117.854 105.733 117.479 105.853C117.104 105.973 116.772 106.197 116.519 106.499ZM106.274 129.992C104.093 132.579 107.691 137.017 110.514 137.102C111.458 137.102 112.62 136.158 112.034 135.119C111.562 134.289 110.929 133.552 110.514 132.693C110.004 131.635 109.881 130.398 108.843 129.681C108.455 129.396 107.974 129.27 107.497 129.328C107.019 129.385 106.582 129.623 106.274 129.992ZM158.368 129.171C158.013 129.224 157.681 129.382 157.416 129.624C157.15 129.866 156.962 130.181 156.876 130.53C156.574 131.579 156.537 132.513 155.753 133.363C154.905 134.03 154.143 134.801 153.487 135.658C153.377 135.872 153.325 136.11 153.335 136.35C153.345 136.59 153.418 136.824 153.545 137.027C153.673 137.231 153.851 137.398 154.063 137.512C154.274 137.626 154.512 137.684 154.752 137.678C156.401 137.476 157.91 136.652 158.973 135.374C158.784 133.58 158.595 131.475 158.378 129.133L158.368 129.171ZM153.647 121.381C153.118 122.665 153.213 124.119 152.769 125.46C152.379 126.689 151.916 127.894 151.381 129.067C150.984 129.917 151.777 131.258 152.807 130.804C154.481 130.162 155.85 128.91 156.64 127.301C157.358 125.819 158.151 123.326 157.462 121.749C156.773 120.172 154.431 119.483 153.628 121.343L153.647 121.381ZM148.265 134.251C147.48 135.265 146.476 136.088 145.328 136.659C145.055 136.744 144.802 136.886 144.588 137.075C144.373 137.265 144.202 137.499 144.084 137.76C143.967 138.021 143.906 138.304 143.907 138.591C143.907 138.877 143.968 139.16 144.086 139.421C144.204 139.682 144.376 139.915 144.591 140.104C144.806 140.294 145.059 140.435 145.332 140.52C145.606 140.604 145.895 140.629 146.179 140.593C146.463 140.558 146.736 140.462 146.981 140.313C147.958 139.894 148.831 139.266 149.539 138.473C150.247 137.68 150.773 136.742 151.079 135.724C151.523 134.09 149.313 133.023 148.246 134.213L148.265 134.251ZM139.634 87.9826C140.162 88.0942 140.712 87.9973 141.17 87.7121C141.628 87.427 141.957 86.9757 142.089 86.4529C142.618 84.4228 140.805 82.336 139.37 81.0707C137.935 79.8054 135.914 78.6534 133.903 79.305C133.635 79.3917 133.394 79.5455 133.202 79.7516C133.011 79.9577 132.875 80.2093 132.808 80.4827C132.74 80.756 132.744 81.042 132.819 81.3134C132.893 81.5849 133.035 81.8329 133.232 82.0338C134.111 83.1292 135.329 83.9223 136.263 84.9988C137.198 86.0752 137.973 87.671 139.616 87.9448L139.634 87.9826ZM146.877 95.9993C147.67 94.8567 147.056 93.1665 146.49 92.0807C146.188 91.4816 145.719 90.9831 145.139 90.6454C144.749 90.3958 144.277 90.3104 143.824 90.4076C143.371 90.5049 142.975 90.777 142.722 91.1647C142.465 91.7016 142.424 92.3172 142.609 92.8833C142.688 93.1794 142.795 93.4672 142.93 93.7425V93.8275V93.903C143.099 94.8048 143.481 95.653 144.044 96.377C144.239 96.5733 144.477 96.7219 144.739 96.8111C145.001 96.9003 145.28 96.9277 145.554 96.8911C145.829 96.8546 146.091 96.755 146.32 96.6003C146.55 96.4456 146.74 96.2399 146.877 95.9993ZM151.749 89.2385C151.564 86.9059 150.653 84.6901 149.143 82.9025C148.01 81.439 146.046 79.1256 143.969 79.626C143.748 79.695 143.555 79.8333 143.419 80.0203C143.283 80.2074 143.211 80.4334 143.213 80.6647C143.081 82.2605 144.913 83.9696 145.706 85.2443C146.65 86.8495 147.396 88.6247 148.416 90.2205C148.638 90.5305 148.953 90.7624 149.315 90.8834C149.676 91.0043 150.067 91.008 150.431 90.894C150.795 90.7799 151.114 90.554 151.342 90.2483C151.57 89.9426 151.696 89.5727 151.702 89.1912L151.749 89.2385ZM144.62 105.404C144.965 105.479 145.323 105.479 145.668 105.404C146.192 105.243 146.634 104.888 146.905 104.413C147.159 103.906 147.285 103.345 147.273 102.779C147.256 102.242 147.111 101.718 146.849 101.249L146.537 100.862L146.121 100.56C145.862 100.426 145.575 100.352 145.282 100.344C144.99 100.336 144.7 100.394 144.433 100.514C144.166 100.634 143.93 100.812 143.742 101.036C143.553 101.26 143.418 101.523 143.345 101.806C143.188 102.356 143.078 102.919 143.015 103.487L143.1 104.007C143.166 104.267 143.296 104.507 143.478 104.705C143.763 105.035 144.147 105.263 144.573 105.357L144.62 105.404ZM151.135 99.3891C151.504 99.3701 151.858 99.2332 152.143 98.9987C152.429 98.7642 152.631 98.4443 152.722 98.0861C152.868 97.353 152.82 96.5942 152.58 95.886C152.439 95.2116 152.112 94.5901 151.636 94.0919C151.465 93.9342 151.257 93.8234 151.031 93.7705C150.805 93.7176 150.569 93.7243 150.346 93.79C150.123 93.8557 149.921 93.9781 149.76 94.1452C149.599 94.3123 149.484 94.5185 149.426 94.7434C149.351 95.2948 149.351 95.8539 149.426 96.4053C149.426 96.6414 149.426 96.8774 149.426 97.1229C149.421 97.4787 149.46 97.8338 149.54 98.1805C149.645 98.5108 149.851 98.8001 150.129 99.0082C150.406 99.2163 150.741 99.3329 151.088 99.3419L151.135 99.3891Z" fill="#030402"/>
<path d="M147.822 83.5164C144.224 83.1859 139.616 75.4997 138.738 70.6179C138.681 70.278 140.117 67.4358 141.693 63.9043C142.638 61.7609 143.657 59.3436 144.413 57.0774L157.481 65.3018C155.718 67.8672 154.275 70.6387 153.185 73.5545C153.087 73.8624 153.018 74.1784 152.977 74.4988C152.981 74.5522 152.981 74.6059 152.977 74.6593C152.647 76.5478 151.306 83.8374 147.822 83.5164Z" fill="#CF8170"/>
<path d="M152.977 74.5177C152.98 74.5711 152.98 74.6247 152.977 74.6782C152.474 74.5797 151.978 74.4439 151.495 74.2722C143.318 71.3261 144.762 60.5995 145.338 57.6345L148.596 59.693L157.519 65.3585C155.757 67.9228 154.317 70.6946 153.232 73.6112C153.12 73.905 153.035 74.2084 152.977 74.5177Z" fill="#263238"/>
<path d="M145.783 41.941C143.082 46.8039 142.61 62.4218 145.603 66.567C149.928 72.5724 158.615 74.9142 164.12 69.3998C169.455 63.9987 169.7 43.6312 166.226 39.7031C161.089 33.8677 149.767 34.7553 145.783 41.941Z" fill="#CF8170"/>
<path d="M158.32 54.5657C158.32 54.5657 158.235 54.5657 158.235 54.6601C158.235 55.7365 158.046 56.9641 157.064 57.2851V57.3512C158.264 57.219 158.49 55.5855 158.32 54.5657Z" fill="#263238"/>
<path d="M157.405 53.4137C155.677 53.2249 155.422 56.6808 157.018 56.8602C158.613 57.0396 158.849 53.5742 157.405 53.4137Z" fill="#263238"/>
<path d="M164.514 54.9338C164.514 54.9338 164.589 54.9905 164.589 55.0377C164.466 56.1047 164.514 57.3511 165.448 57.776C165.448 57.776 165.448 57.8516 165.448 57.8421C164.268 57.5777 164.23 55.9253 164.514 54.9338Z" fill="#263238"/>
<path d="M165.565 53.8953C167.293 53.8953 167.151 57.3607 165.565 57.3607C163.978 57.3607 164.11 53.8858 165.565 53.8953Z" fill="#263238"/>
<path d="M158.803 52.715C158.321 52.8189 157.858 52.8284 157.386 52.885C156.897 53.0129 156.38 52.9764 155.913 52.7811C155.777 52.6917 155.675 52.5598 155.622 52.4061C155.569 52.2523 155.569 52.0854 155.62 51.9313C155.775 51.6497 156.002 51.414 156.277 51.2482C156.552 51.0824 156.867 50.9923 157.188 50.9871C157.84 50.8617 158.516 50.99 159.076 51.3459C159.193 51.4336 159.283 51.5525 159.335 51.6889C159.387 51.8252 159.399 51.9735 159.37 52.1166C159.342 52.2598 159.273 52.3919 159.173 52.4978C159.072 52.6036 158.944 52.679 158.803 52.715Z" fill="#263238"/>
<path d="M167.113 50.6754C166.654 50.5468 166.204 50.3923 165.763 50.2127C165.266 50.1191 164.814 49.8634 164.479 49.4857C164.395 49.3473 164.359 49.1848 164.378 49.024C164.397 48.8633 164.469 48.7134 164.582 48.5981C164.84 48.4009 165.147 48.2775 165.47 48.2409C165.792 48.2043 166.119 48.256 166.414 48.3903C167.052 48.5649 167.603 48.9683 167.963 49.5234C168.037 49.6552 168.072 49.8057 168.063 49.9569C168.054 50.108 168.002 50.2533 167.912 50.3752C167.822 50.497 167.698 50.5902 167.557 50.6435C167.415 50.6968 167.261 50.7079 167.113 50.6754Z" fill="#263238"/>
<path d="M157.537 63.0829C158.928 62.75 160.377 62.75 161.767 63.0829C161.89 63.0829 162.013 62.8374 162.041 62.7241L162.117 60.4579C162.41 60.6278 163.883 61.4021 163.883 60.9867C164.036 57.3034 163.812 53.6141 163.212 49.9767C163.206 49.9556 163.192 49.9371 163.174 49.924C163.157 49.9109 163.135 49.9038 163.113 49.9038C163.091 49.9038 163.069 49.9109 163.051 49.924C163.034 49.9371 163.02 49.9556 163.014 49.9767C162.863 53.3855 163.297 56.7847 163.193 60.2124C162.672 59.9236 162.113 59.7106 161.531 59.5797C161.409 59.5797 161.531 61.9876 161.531 62.3464C160.232 61.8987 158.809 61.9766 157.566 62.5635C157.075 62.8752 156.876 63.2906 157.537 63.0829Z" fill="#263238"/>
<path d="M154.743 65.3302C154.979 65.5946 155.215 65.9534 155.593 66.0101C155.99 66.029 156.386 65.9614 156.754 65.8118C156.754 65.8118 156.821 65.8118 156.754 65.8684C156.592 66.0689 156.377 66.2207 156.134 66.3073C155.891 66.3939 155.629 66.4119 155.376 66.3594C155.169 66.2934 154.987 66.1692 154.849 66.0017C154.712 65.8341 154.626 65.6305 154.602 65.4152C154.62 65.3113 154.705 65.2924 154.743 65.3302Z" fill="#263238"/>
<path opacity="0.2" d="M150.342 36.9839C150.2 39.4106 149.624 46.9363 148.453 48.466C147.283 49.9956 144.809 53.5555 143.553 54.1314C143.723 49.1175 144.497 44.349 145.791 41.8562C146.851 39.8589 148.421 38.1779 150.342 36.9839Z" fill="#263238"/>
<path d="M163.798 44.3394C163.138 45.0114 162.316 45.5031 161.412 45.7676C160.508 46.0321 159.551 46.0605 158.633 45.8502C157.693 45.6411 156.823 45.1932 156.107 44.5498C155.391 43.9063 154.853 43.0891 154.544 42.177C154.544 42.1204 154.44 42.177 154.459 42.177C154.699 43.1618 155.205 44.0619 155.921 44.7794C156.636 45.497 157.535 46.0045 158.52 46.2467C159.502 46.4343 160.517 46.3583 161.461 46.0266C162.404 45.6949 163.243 45.1193 163.892 44.3582C163.949 44.3677 163.873 44.2827 163.798 44.3394Z" fill="#263238"/>
<path d="M159.06 30.3457C157.608 30.2475 156.156 30.5161 154.836 31.1266C153.516 31.7372 152.37 32.6701 151.506 33.8394C150.769 35.0295 150.456 36.4338 150.618 37.8241H150.741C150.759 36.6042 151.106 35.4117 151.746 34.3729C152.386 33.334 153.295 32.4874 154.376 31.9226C155.558 31.2608 156.877 30.8815 158.23 30.8143C159.583 30.7472 160.934 30.994 162.176 31.5354C163.397 32.0391 164.401 32.959 165.008 34.1321C165.065 34.2549 165.31 34.1982 165.263 34.0755C164.489 32.017 161.987 30.4873 159.06 30.3457Z" fill="#263238"/>
<path d="M177.095 38.5796C176.684 36.981 175.721 35.5795 174.376 34.6232C172.487 33.273 170.278 33.2918 168.068 33.3674C168.002 33.3674 168.011 33.4618 168.068 33.4524C169.947 33.2562 171.842 33.6071 173.526 34.4627C174.896 35.2852 175.94 36.5562 176.481 38.0603C176.996 39.603 176.936 41.2797 176.313 42.782C175.691 44.2843 174.547 45.5113 173.091 46.2375C172.244 46.6356 171.325 46.856 170.39 46.8852C169.454 46.9145 168.523 46.7519 167.653 46.4075C167.586 46.4075 167.53 46.4735 167.596 46.5113C168.773 47.0314 170.073 47.2119 171.347 47.0324C172.622 46.853 173.821 46.3207 174.809 45.4957C175.797 44.6707 176.534 43.5859 176.938 42.3638C177.342 41.1417 177.397 39.8309 177.095 38.5796Z" fill="#263238"/>
<path d="M144.837 45.0098C144.837 45.0098 142.231 39.0705 145.017 35.9545C146.594 34.1982 151.334 34.8025 151.334 34.8025C152.75 33.005 154.822 31.8435 157.094 31.5731C161.145 30.9405 165.762 33.6788 165.762 33.6788C165.762 33.6788 169.709 31.7903 173.099 34.0849C177.82 37.2859 176.64 44.7738 171.484 46.8133C167.858 48.258 163.345 44.8021 163.345 44.8021C162.891 44.8021 158 47.2949 154.78 42.8569C154.78 42.8569 151.721 45.1892 149.275 43.2063C148.81 43.9262 148.135 44.4855 147.341 44.8082C146.547 45.1308 145.673 45.2012 144.837 45.0098Z" fill="#263238"/>
<path d="M146.376 54.8773C146.376 54.8773 143.902 49.3346 141.457 50.1561C139.011 50.9776 140.201 58.5127 142.618 59.9857C142.913 60.1906 143.246 60.3342 143.597 60.4081C143.948 60.4821 144.31 60.4848 144.663 60.4161C145.015 60.3474 145.35 60.2087 145.647 60.0083C145.945 59.8079 146.199 59.5497 146.395 59.2492L146.376 54.8773Z" fill="#CF8170"/>
<path d="M141.854 52.29V52.3561C143.534 53.442 144.167 55.3211 144.497 57.2001C144.426 56.9977 144.312 56.813 144.163 56.659C144.013 56.505 143.832 56.3852 143.632 56.308C143.432 56.2308 143.217 56.1979 143.003 56.2118C142.789 56.2256 142.58 56.2858 142.392 56.3881C142.335 56.3881 142.392 56.4919 142.392 56.4919C142.736 56.4522 143.083 56.5221 143.385 56.6916C143.687 56.8612 143.928 57.1218 144.073 57.4362C144.329 57.947 144.525 58.4856 144.658 59.0414C144.658 59.2208 145.017 59.1925 144.998 59.0414C145.479 56.6053 144.299 53.0077 141.854 52.29Z" fill="#263238"/>
<path d="M277.66 66L176 97.1389L194.329 156.979L295.99 125.841L277.66 66Z" fill="#D8D8D8"/>
<path opacity="0.05" d="M277.258 65.8782L175.598 97.0171L193.927 156.858L295.587 125.719L277.258 65.8782Z" fill="black"/>
<path opacity="0.2" d="M277.252 65.8788L243.088 76.3433L261.417 136.184L295.581 125.719L277.252 65.8788Z" fill="black"/>
<path d="M275.617 68.9277C274.465 74.2281 273.344 79.5285 272.255 84.8289L269.035 100.768L265.919 116.773C264.9 122.098 263.905 127.433 262.936 132.778C264.088 127.484 265.208 122.183 266.297 116.877L269.517 100.938L272.633 84.9705C273.653 79.6198 274.647 74.2722 275.617 68.9277Z" fill="#737373"/>
<path d="M292.394 123.713C288.617 119.835 284.806 115.973 280.959 112.127L269.439 100.645L257.844 89.248C253.966 85.471 250.07 81.694 246.154 77.917C249.931 81.801 253.743 85.663 257.589 89.5029L269.109 100.985L280.704 112.382C284.588 116.197 288.485 119.974 292.394 123.713Z" fill="#737373"/>
<path d="M195.122 104.729L195.682 104.557L193.273 96.6934L192.713 96.8648L195.122 104.729Z" fill="#263238"/>
<path d="M193.792 105.128L194.352 104.957L191.943 97.0928L191.383 97.2642L193.792 105.128Z" fill="#263238"/>
<path d="M192.45 105.556L193.01 105.385L190.601 97.521L190.041 97.6924L192.45 105.556Z" fill="#263238"/>
<path d="M191.122 105.942L191.682 105.77L189.274 97.9061L188.715 98.0774L191.122 105.942Z" fill="#263238"/>
<path d="M189.782 106.358L190.342 106.186L187.933 98.3225L187.373 98.494L189.782 106.358Z" fill="#263238"/>
<path d="M188.45 106.758L189.01 106.586L186.601 98.7224L186.041 98.8939L188.45 106.758Z" fill="#263238"/>
<path d="M187.1 107.198L187.66 107.026L185.251 99.1623L184.692 99.3338L187.1 107.198Z" fill="#263238"/>
<path d="M185.766 107.594L186.326 107.423L183.916 99.5595L183.356 99.731L185.766 107.594Z" fill="#263238"/>
<path d="M184.419 108.018L184.979 107.847L182.57 99.9832L182.01 100.155L184.419 108.018Z" fill="#263238"/>
<path d="M198.934 95.6122L196.611 95.6688L201.644 94.1108L199.68 95.3761L200.568 98.2655C202.164 97.9917 203.24 99.3231 204.052 101.967L199.019 103.553C198.207 100.919 198.349 99.2098 199.822 98.5394L198.934 95.6122Z" fill="#263238"/>
<path d="M203.994 97.6235L205.307 97.2175L204.126 93.3649L207.488 92.3357L208.668 96.1882L209.99 95.7822L208.215 100.711L203.994 97.6235Z" fill="#263238"/>
<path opacity="0.1" d="M175.6 97.019L177.101 101.929L247.372 90.3337L243.085 76.3494L175.6 97.019Z" fill="black"/>
<path d="M308.759 132.504L274.586 142.966L261.414 136.187L295.586 125.715L308.759 132.504Z" fill="#D8D8D8"/>
<path opacity="0.2" d="M308.759 132.504L274.586 142.966L261.414 136.187L295.586 125.715L308.759 132.504Z" fill="black"/>
<path d="M186.809 169.858L220.981 159.387L228.091 146.394L193.919 156.856L186.809 169.858Z" fill="#D8D8D8"/>
<path opacity="0.1" d="M186.809 169.858L220.981 159.387L228.091 146.394L193.919 156.856L186.809 169.858Z" fill="black"/>
<path d="M130.57 87.7844C135.565 104.488 149.455 133.108 154.61 136.602C159.152 139.728 180.955 136.885 190.492 134.817C194.061 134.053 186.715 106.802 182.938 107.699C178.368 108.784 164.761 111.476 163.798 110.73C162.835 109.984 149.634 92.7889 140.192 82.7043C131.618 73.5262 128.681 81.4674 130.57 87.7844Z" fill="#CF8170"/>
<path d="M180.973 109.918C180.973 109.918 188.196 101.778 193.314 98.6716C198.716 95.5795 204.789 93.8459 211.009 93.6199C217.723 93.3555 234.143 97.3402 233.813 102.269C233.52 106.735 216.949 101.806 216.949 101.806C216.949 101.806 234.672 104.044 233.331 109.36C231.99 114.677 213.077 107.85 213.077 107.85C213.077 107.85 231.235 110.55 229.025 115.829C227.326 119.804 209.848 114.592 209.848 114.592C209.848 114.592 225.447 117.028 223.87 121.201C222.132 125.8 205.693 122.004 205.693 122.004C199.924 131.9 193.116 134.279 188.083 135.346C186.827 135.563 180.973 109.918 180.973 109.918Z" fill="#CF8170"/>
<path d="M210.868 100.635C212.954 100.824 215.079 101.004 217.147 101.372C219.215 101.74 221.264 102.194 223.294 102.76C225.953 103.444 228.526 104.429 230.961 105.697C226.476 103.761 219.092 102.307 217.024 101.92C214.956 101.533 212.907 101.07 210.849 100.702C210.792 100.72 210.811 100.635 210.868 100.635Z" fill="#263238"/>
<path d="M209.386 108.086C212.039 108.435 214.702 108.69 217.346 109.162C219.99 109.634 222.435 110.314 225.032 110.966C225.23 111.013 225.136 111.107 224.938 111.06C222.313 110.512 219.858 110.21 217.233 109.7C214.608 109.19 212.002 108.567 209.367 108.142C209.329 108.142 209.339 108.076 209.386 108.086Z" fill="#263238"/>
<path d="M206.96 114.242C211.054 114.687 215.092 115.554 219.008 116.829C219.206 116.886 219.074 116.99 218.866 116.943C214.882 115.998 211.756 115.243 206.95 114.384C206.875 114.374 206.875 114.233 206.96 114.242Z" fill="#263238"/>
<path d="M188.329 139.652L181.984 107.056L164.298 109.832C157.538 101.712 144.035 85.4708 138.52 80.5607C132.052 74.7914 127.624 78.9083 129.843 87.4537C134.923 106.99 150.333 135.846 154.507 138.679C160.493 142.739 188.329 139.652 188.329 139.652Z" fill="#FDB839"/>
<path opacity="0.1" d="M176.357 111.579C177.229 111.769 178.117 111.873 179.01 111.891C180.898 112.146 181.729 114.931 180.011 115.989C179.108 116.545 178.088 116.881 177.032 116.972C175.976 117.062 174.913 116.903 173.93 116.508C172.041 115.772 170.446 113.94 170.852 111.787C170.922 111.386 171.095 111.009 171.354 110.695C171.613 110.38 171.948 110.138 172.329 109.991C172.709 109.845 173.121 109.799 173.524 109.859C173.927 109.919 174.307 110.082 174.629 110.333C175.152 110.817 175.732 111.236 176.357 111.579ZM174.468 108.237C175.06 108.522 175.713 108.661 176.37 108.641C177.028 108.622 177.671 108.444 178.245 108.123C178.457 107.982 178.626 107.786 178.736 107.557L174.468 108.237ZM165.28 109.672C166.032 110.221 166.96 110.473 167.887 110.38C168.206 110.336 168.5 110.182 168.717 109.944C168.935 109.706 169.062 109.399 169.076 109.077L165.28 109.672ZM185.299 124.223C184.925 124.379 184.622 124.669 184.449 125.035C183.656 126.631 184.76 128.349 186.337 129.378L185.299 124.223ZM156.858 130.493C156.556 131.541 156.518 132.476 155.734 133.325C154.89 134.005 154.135 134.789 153.487 135.658C153.377 135.872 153.325 136.11 153.335 136.35C153.346 136.59 153.418 136.824 153.546 137.027C153.673 137.231 153.851 137.398 154.063 137.512C154.274 137.626 154.512 137.684 154.752 137.678C156.397 137.476 157.906 136.663 158.98 135.4C160.054 134.137 160.614 132.517 160.55 130.861C160.497 130.436 160.301 130.043 159.995 129.744C159.689 129.445 159.29 129.259 158.865 129.216C158.439 129.173 158.012 129.276 157.652 129.508C157.293 129.74 157.023 130.087 156.886 130.493H156.858ZM153.6 121.343C153.071 122.627 153.166 124.081 152.722 125.422C152.332 126.651 151.869 127.856 151.334 129.029C150.937 129.879 151.731 131.22 152.76 130.766C154.434 130.124 155.803 128.873 156.593 127.263C157.311 125.781 158.104 123.288 157.415 121.711C156.726 120.134 154.431 119.483 153.628 121.343H153.6ZM139.587 87.9448C140.115 88.0564 140.665 87.9595 141.123 87.6743C141.581 87.3891 141.91 86.9379 142.043 86.4151C142.571 84.385 140.758 82.2982 139.323 81.0329C137.888 79.7676 135.867 78.6156 133.856 79.2671C133.588 79.3539 133.347 79.5076 133.155 79.7137C132.964 79.9198 132.828 80.1715 132.761 80.4448C132.693 80.7182 132.697 81.0041 132.772 81.2756C132.846 81.5471 132.988 81.795 133.185 81.996C134.064 83.0913 135.282 83.8845 136.217 84.9609C137.151 86.0374 137.973 87.6709 139.616 87.9448H139.587ZM146.877 95.9992C147.67 94.8567 147.056 93.1665 146.49 92.0806C146.188 91.4816 145.719 90.983 145.14 90.6453C144.75 90.3958 144.277 90.3103 143.824 90.4076C143.371 90.5048 142.975 90.7769 142.722 91.1647C142.465 91.7016 142.424 92.3171 142.609 92.8832C142.688 93.1793 142.795 93.4671 142.93 93.7425V93.8274V93.903C143.099 94.8047 143.481 95.6529 144.044 96.3769C144.239 96.5733 144.477 96.7219 144.739 96.811C145.001 96.9002 145.28 96.9276 145.554 96.8911C145.829 96.8545 146.091 96.7549 146.32 96.6002C146.55 96.4455 146.74 96.2398 146.877 95.9992ZM144.62 105.442C144.966 105.517 145.323 105.517 145.668 105.442C146.192 105.281 146.634 104.926 146.905 104.45C147.159 103.944 147.286 103.383 147.274 102.817C147.257 102.28 147.111 101.756 146.849 101.287L146.537 100.9L146.122 100.598C145.862 100.464 145.575 100.39 145.283 100.382C144.99 100.374 144.7 100.432 144.433 100.552C144.167 100.672 143.93 100.85 143.742 101.074C143.554 101.298 143.418 101.561 143.346 101.844C143.188 102.394 143.078 102.956 143.015 103.525L143.1 104.044C143.166 104.305 143.296 104.545 143.478 104.743C143.768 105.059 144.152 105.274 144.573 105.357L144.62 105.442ZM152.543 95.8576L150.654 93.733C150.352 93.6971 150.048 93.7734 149.799 93.9476C149.55 94.1218 149.374 94.3815 149.304 94.6773C149.228 95.2286 149.228 95.7878 149.304 96.3391C149.304 96.5752 149.304 96.8113 149.304 97.0568C149.299 97.4126 149.337 97.7676 149.417 98.1143C149.52 98.4737 149.741 98.7881 150.044 99.0072C150.347 99.2263 150.715 99.3375 151.088 99.323C151.457 99.3039 151.811 99.1671 152.096 98.9325C152.382 98.698 152.584 98.3782 152.675 98.0199C152.817 97.2997 152.771 96.5551 152.543 95.8576Z" fill="#030402"/>
<path d="M182.229 136.659C181.464 134.723 179.67 126.319 179.245 124.214C178.82 122.108 177.413 113.647 176.988 111.485C176.988 111.372 177.12 111.296 177.149 111.419C177.602 113.543 179.689 121.919 180.133 124.015C180.576 126.111 182.267 134.515 182.342 136.63C182.346 136.645 182.344 136.661 182.336 136.675C182.328 136.688 182.315 136.697 182.3 136.701C182.285 136.705 182.269 136.703 182.255 136.695C182.242 136.687 182.233 136.674 182.229 136.659Z" fill="#263238"/>
<path d="M176.393 140.568C173.495 140.738 170.596 140.804 167.697 140.785C164.787 140.798 161.88 140.631 158.991 140.285C157.511 140.138 156.063 139.756 154.704 139.152C153.482 138.289 152.421 137.218 151.569 135.988C149.858 133.625 148.309 131.149 146.933 128.576C144.1 123.486 141.664 118.189 139.285 112.92C136.905 107.651 134.743 102.231 132.76 96.7737C135.168 102.052 137.547 107.34 140.021 112.58C142.495 117.821 144.997 123.043 147.698 128.151C149.046 130.699 150.533 133.17 152.155 135.554C152.911 136.741 153.87 137.786 154.987 138.642C156.275 139.235 157.649 139.621 159.057 139.784C164.808 140.481 170.603 140.743 176.393 140.568Z" fill="#263238"/>
<path d="M134.601 101.381C134.213 100.99 133.863 100.563 133.553 100.107C133.233 99.6549 132.987 99.1543 132.826 98.6243C132.968 98.8588 133.123 99.0858 133.289 99.3041L133.752 99.9746C134.062 100.426 134.346 100.896 134.601 101.381Z" fill="#263238"/>
<path d="M149.512 92.6284C151.901 95.0268 154.044 97.6613 156.263 100.182C158.482 102.704 160.607 105.366 162.873 107.878L163.713 108.822C163.864 108.964 164.006 109.124 164.148 109.257C164.289 109.389 164.289 109.379 164.355 109.436C164.421 109.493 164.355 109.436 164.355 109.436C164.355 109.436 164.421 109.436 164.459 109.436C165.177 109.436 166.083 109.276 166.895 109.172L171.919 108.426C175.261 107.935 178.613 107.425 181.966 106.972L182.098 107.802L181.899 106.981H181.947C178.632 107.689 175.337 108.322 171.975 108.936C170.304 109.238 168.633 109.502 166.952 109.757C166.093 109.906 165.226 110.007 164.355 110.059C164.286 110.068 164.217 110.068 164.148 110.059C164.055 110.031 163.969 109.987 163.893 109.927C163.797 109.853 163.706 109.774 163.619 109.691L163.156 109.238C162.854 108.926 162.571 108.615 162.287 108.294C160.068 105.716 157.916 103.11 155.8 100.466L152.637 96.4904C151.599 95.2534 150.654 93.8937 149.512 92.6284Z" fill="#263238"/>
<path d="M150.748 92.9116C151.104 93.3485 151.42 93.8162 151.692 94.3091C151.958 94.7961 152.146 95.3218 152.249 95.8671C152.136 95.6122 151.994 95.3856 151.862 95.14L151.475 94.413C151.206 93.926 150.963 93.4248 150.748 92.9116Z" fill="#263238"/>
<path d="M37.4967 339.823C37.1472 330.988 37.2701 322.14 37.8649 313.318C39.1671 295.135 41.9429 277.088 46.1649 259.354C48.4783 249.364 51.3299 239.525 54.3043 229.724C54.3893 229.431 54.8614 229.516 54.7859 229.818C45.5983 264.415 38.0538 300.127 38.5731 336.084C38.7242 346.149 39.8856 356.036 40.8393 366.035C40.8393 366.309 40.4238 366.413 40.3672 366.139C38.4693 357.556 37.8555 348.567 37.4967 339.823Z" fill="#FDB839"/>
<path d="M54.7852 229.771C54.7852 229.771 68.7034 265.105 65.5874 273.404C62.4713 281.704 56.041 283.48 56.041 283.48C56.041 283.48 64.5392 295.642 58.6094 307.086C52.6795 318.53 39.4411 317.945 38.5535 330.881C38.5535 330.843 37.817 276.775 54.7852 229.771Z" fill="#FF6E41"/>
<path d="M40.0724 308.521C40.0492 308.46 40.0492 308.393 40.0724 308.332C41.908 284.211 46.4403 260.371 53.5846 237.259C53.5846 237.193 53.7168 237.211 53.6979 237.259C50.9407 247.589 48.5046 257.975 46.3894 268.419C48.2494 266.653 50.5217 265.38 52.9992 264.717C52.9992 264.717 53.0653 264.717 52.9992 264.783C50.3841 265.751 48.0351 267.324 46.1439 269.372C45.7411 271.412 45.3476 273.461 44.9636 275.52C48.0702 272.045 52.3854 270.317 56.7006 268.674C56.7573 268.674 56.7951 268.749 56.7006 268.768C52.206 270.6 47.7208 272.961 44.6803 276.832C43.6102 282.693 42.666 288.575 41.8476 294.48C44.0979 292.135 46.9816 290.494 50.1475 289.759C50.242 289.759 50.2986 289.882 50.1475 289.91C46.88 290.854 43.9571 292.727 41.7343 295.302H41.6776C41.4007 297.379 41.1394 299.459 40.8939 301.543C42.6875 300.062 44.7135 298.888 46.8899 298.068C46.9465 298.068 46.9749 298.134 46.8899 298.153C44.7585 299.098 42.8066 300.405 41.1205 302.015C41.1205 302.015 41.1205 302.015 41.045 302.015C40.8184 303.989 40.5823 305.972 40.384 307.954C43.5199 304.167 47.5876 301.261 52.1871 299.522C52.1964 299.519 52.2064 299.517 52.2164 299.517C52.2264 299.517 52.2363 299.519 52.2455 299.523C52.2547 299.527 52.263 299.533 52.27 299.54C52.277 299.547 52.2826 299.556 52.2863 299.565C52.29 299.574 52.2918 299.584 52.2917 299.594C52.2916 299.604 52.2895 299.614 52.2856 299.623C52.2816 299.632 52.2759 299.641 52.2687 299.648C52.2616 299.655 52.2531 299.66 52.2438 299.664C47.7006 301.665 43.7093 304.737 40.6106 308.615C40.5788 308.661 40.533 308.695 40.4801 308.712C40.4273 308.729 40.3703 308.728 40.3179 308.71C40.0158 311.75 39.7419 314.8 39.5248 317.85H39.4492C39.6003 314.763 39.8175 311.637 40.0724 308.521Z" fill="#263238"/>
<path d="M51.2538 261.243C53.7736 259.673 56.6541 258.775 59.6198 258.636C59.6859 258.636 59.6953 258.731 59.6198 258.74C56.7552 259.27 53.9737 260.179 51.3482 261.441C51.3235 261.446 51.2978 261.442 51.2753 261.431C51.2528 261.42 51.2347 261.401 51.2239 261.378C51.2131 261.356 51.2101 261.33 51.2155 261.305C51.2209 261.281 51.2344 261.259 51.2538 261.243Z" fill="#263238"/>
<path d="M49.5632 298.644C51.5013 297.538 53.6323 296.81 55.8425 296.501C55.918 296.501 55.9275 296.605 55.8425 296.614C53.6773 297.05 51.583 297.784 49.6199 298.795C49.5538 298.833 49.4782 298.692 49.5632 298.644Z" fill="#263238"/>
<path d="M0.906022 273.981C6.79112 278.052 12.1953 282.779 17.0149 288.069C21.9983 293.66 25.8468 300.167 28.3459 307.228C33.6273 321.942 36.4692 337.421 36.7591 353.052C36.9401 361.709 36.1066 370.357 34.2758 378.82C34.2597 378.88 34.2221 378.931 34.1704 378.963C34.1187 378.996 34.0565 379.009 33.9962 378.998C33.9358 378.987 33.8816 378.954 33.8443 378.906C33.8069 378.857 33.789 378.797 33.7942 378.735C36.0749 363.799 35.9984 348.598 33.5676 333.685C31.1692 319.068 27.4205 303.167 18.1291 291.289C13.0207 284.849 6.71315 279.74 0.518881 274.462C0.150624 274.198 0.566093 273.744 0.906022 273.981Z" fill="#FF6E41"/>
<path d="M34.6823 342.533C31.3347 337.112 27.3985 332.077 22.9452 327.519C15.9767 320.56 10.1129 315.612 9.20642 311.005C8.29995 306.397 16.1844 303.016 16.1844 303.016C16.1844 303.016 6.54364 304.744 3.90919 300.693C1.27474 296.643 0 273.235 0 273.235C0 273.235 17.5158 285.793 25.7024 303.29C33.8891 320.787 34.6823 342.533 34.6823 342.533Z" fill="#FF6E41"/>
<path d="M6.26152 295.236C7.41532 295.071 8.58372 295.033 9.7458 295.122C9.88744 295.122 9.878 295.368 9.7458 295.368C8.59382 295.368 7.44183 295.311 6.28041 295.368C6.18598 295.349 6.18598 295.236 6.26152 295.236Z" fill="#263238"/>
<path d="M18.8743 317.897C20.7279 317.936 22.5598 318.304 24.2848 318.983C24.2848 318.983 24.2848 319.068 24.2848 319.059C22.5002 318.634 20.6967 318.455 18.8932 318.162C18.7138 318.162 18.7232 317.897 18.8743 317.897Z" fill="#263238"/>
<path d="M22.6633 310.07C23.4331 310.063 24.2016 310.133 24.9578 310.277C25.0333 310.277 25.0239 310.419 24.9578 310.419C24.1911 310.457 23.4225 310.419 22.6633 310.306C22.6376 310.298 22.615 310.283 22.599 310.262C22.5829 310.24 22.5742 310.214 22.5742 310.188C22.5742 310.161 22.5829 310.135 22.599 310.114C22.615 310.093 22.6376 310.077 22.6633 310.07Z" fill="#263238"/>
<path d="M86.0686 298.843C80.367 300.775 74.9027 303.347 69.7803 306.51C64.4763 309.898 59.8756 314.278 56.2303 319.408C48.5549 330.098 42.6767 341.969 38.8278 354.553C36.6861 361.518 35.3615 368.708 34.8809 375.978C34.8809 376.033 34.9027 376.086 34.9417 376.125C34.9807 376.164 35.0335 376.186 35.0886 376.186C35.1437 376.186 35.1965 376.164 35.2355 376.125C35.2744 376.086 35.2963 376.033 35.2963 375.978C36.8919 363.381 40.4508 351.111 45.8436 339.615C51.1597 328.341 57.8733 316.34 68.1373 308.88C73.7272 304.81 80.0065 302.157 86.2669 299.343C86.6351 299.192 86.4463 298.729 86.0686 298.843Z" fill="#FDB839"/>
<path d="M42.8965 346.508C46.8563 342.892 51.2043 339.725 55.861 337.066C63.1128 333.043 68.9955 330.39 70.799 326.877C72.6025 323.365 67.022 318.795 67.022 318.795C67.022 318.795 74.4155 322.42 77.4843 319.739C80.5531 317.057 86.9929 298.408 86.9929 298.408C86.9929 298.408 69.9209 304.489 59.2509 316.802C48.5809 329.115 42.8965 346.508 42.8965 346.508Z" fill="#FDB839"/>
<path d="M57.0702 329.361C58.7461 329.243 60.4289 329.449 62.0275 329.965C62.0275 329.965 62.0275 330.05 62.0275 330.04C60.3938 329.766 58.7443 329.596 57.0891 329.531C57.0666 329.533 57.0439 329.527 57.0262 329.512C57.0085 329.498 56.9972 329.478 56.9947 329.455C56.9922 329.433 56.9987 329.41 57.0129 329.392C57.027 329.374 57.0477 329.363 57.0702 329.361Z" fill="#263238"/>
<path d="M71.971 309.815C72.7352 309.76 73.5034 309.804 74.2561 309.947C74.2706 309.952 74.283 309.962 74.2918 309.975C74.3007 309.987 74.3054 310.002 74.3054 310.018C74.3054 310.033 74.3007 310.048 74.2918 310.061C74.283 310.073 74.2706 310.083 74.2561 310.089C73.5102 310.004 72.7642 310.032 72.0088 310.013C71.9856 310.012 71.9634 310.003 71.9458 309.988C71.9283 309.972 71.9163 309.952 71.912 309.929C71.9076 309.906 71.9111 309.882 71.9218 309.861C71.9325 309.841 71.9498 309.824 71.971 309.815Z" fill="#263238"/>
<path d="M20.8672 399.528H59.4114L53.9159 359.256L52.509 348.935H27.7696L26.3627 359.256L20.8672 399.528Z" fill="#1D3C58"/>
<path d="M26.3633 359.256H53.9165L52.5095 348.935H27.7702L26.3633 359.256Z" fill="#263238"/>
<path d="M24.2202 354.091H56.0508V345.347H24.2202V354.091Z" fill="#1D3C58"/>
<path d="M226.194 21.1863C226.194 25.0722 225.114 28.8816 223.074 32.1895C221.035 35.4974 218.117 38.1736 214.645 39.9197C211.174 41.6657 207.285 42.4129 203.414 42.0779C199.543 41.7428 195.84 40.3387 192.72 38.0222L182.438 40.6472L186.715 31.082C185.209 28.2695 184.365 25.1508 184.246 21.963C184.127 18.7751 184.737 15.6021 186.028 12.6853C187.32 9.7684 189.26 7.18446 191.7 5.12995C194.14 3.07543 197.017 1.60444 200.111 0.828819C203.206 0.0532019 206.436 -0.0066115 209.557 0.653926C212.678 1.31446 215.607 2.67796 218.122 4.64073C220.637 6.6035 222.671 9.11386 224.07 11.9809C225.468 14.848 226.195 17.9962 226.194 21.1863Z" fill="white"/>
<path d="M226.194 21.1769C226.193 25.0677 225.122 28.8832 223.097 32.2057C222.605 33.0433 222.063 33.8505 221.473 34.623C220.847 35.3627 220.175 36.0628 219.462 36.7193C218.053 38.0473 216.464 39.1695 214.741 40.0525C213.012 40.9347 211.169 41.5703 209.264 41.9409C208.308 42.1313 207.339 42.2512 206.365 42.2998C205.394 42.38 204.418 42.38 203.448 42.2998C199.52 41.995 195.754 40.6057 192.57 38.2867L192.853 38.3434L182.599 41.0439L181.768 41.2611L182.117 40.4679L186.357 30.8838V31.2804C184.814 28.4133 183.953 25.2299 183.838 21.9764C183.723 18.7229 184.359 15.4866 185.696 12.5182C187.034 9.55803 189.026 6.93979 191.522 4.86031C194.014 2.81149 196.939 1.35381 200.075 0.596643C203.212 -0.160525 206.479 -0.197518 209.632 0.488442C212.757 1.1992 215.683 2.59935 218.197 4.58648C220.697 6.56756 222.716 9.08967 224.101 11.9632C225.486 14.8367 226.202 17.9869 226.194 21.1769ZM226.194 21.1769C226.193 16.3801 224.531 11.7316 221.491 8.0207C218.452 4.30981 214.222 1.76522 209.519 0.818931C206.425 0.20304 203.231 0.299914 200.18 1.10221C197.139 1.88762 194.319 3.36072 191.937 5.40798C189.577 7.4774 187.695 10.0357 186.423 12.9053C185.168 15.7668 184.58 18.8763 184.704 21.9984C184.85 25.0895 185.675 28.1104 187.121 30.846L187.225 31.0443L187.131 31.2426L182.816 40.7984L182.334 40.2319L192.636 37.6824H192.796L192.919 37.7768C195.973 40.0959 199.612 41.5183 203.429 41.8843C204.372 41.9537 205.318 41.9537 206.261 41.8843C209.147 41.7851 211.977 41.067 214.561 39.7786C216.285 38.9395 217.876 37.8514 219.283 36.5493C219.995 35.9026 220.667 35.2119 221.294 34.4814C221.895 33.7301 222.453 32.9451 222.965 32.1302C225.026 28.8447 226.144 25.0552 226.194 21.1769Z" fill="#263238"/>
<path d="M206.677 23.4525V25.7659C206.683 25.9971 206.643 26.2272 206.557 26.4421C206.472 26.657 206.343 26.8521 206.18 27.0157C206.016 27.1792 205.821 27.3076 205.606 27.3931C205.391 27.4786 205.161 27.5193 204.93 27.5128C204.701 27.5128 204.474 27.4676 204.263 27.3797C204.052 27.2918 203.86 27.1629 203.698 27.0006C203.537 26.8383 203.409 26.6456 203.322 26.4337C203.235 26.2218 203.191 25.9949 203.193 25.7659V22.0739C203.193 22.0739 203.193 22.0739 203.193 21.9984C203.193 21.9229 203.193 21.9984 203.193 21.9323C203.204 21.4744 203.391 21.0383 203.714 20.7135C204.037 20.3887 204.472 20.1997 204.93 20.1854C205.469 20.2117 206.008 20.1282 206.513 19.9401C207.019 19.7519 207.481 19.463 207.872 19.0908C208.263 18.7186 208.574 18.271 208.786 17.775C208.999 17.279 209.109 16.745 209.109 16.2054C209.109 15.6658 208.999 15.1318 208.786 14.6358C208.574 14.1399 208.263 13.6922 207.872 13.3201C207.481 12.9479 207.019 12.659 206.513 12.4708C206.008 12.2826 205.469 12.1992 204.93 12.2254C204.24 12.2232 203.562 12.4027 202.964 12.7459C202.365 13.089 201.868 13.5836 201.521 14.18C201.405 14.3812 201.25 14.5574 201.066 14.6986C200.881 14.8398 200.67 14.9432 200.446 15.0028C200.221 15.0625 199.987 15.0772 199.757 15.0462C199.527 15.0152 199.305 14.939 199.104 14.8221C198.907 14.7054 198.735 14.5509 198.598 14.3675C198.461 14.184 198.361 13.9753 198.305 13.7533C198.249 13.5313 198.237 13.3004 198.271 13.0738C198.304 12.8472 198.382 12.6295 198.5 12.4332C199.121 11.3635 199.998 10.4649 201.052 9.81799C202.106 9.17105 203.305 8.79603 204.539 8.72662C205.774 8.6572 207.007 8.89556 208.127 9.42028C209.247 9.945 210.22 10.7397 210.957 11.7329C211.694 12.7262 212.173 13.887 212.35 15.111C212.528 16.335 212.399 17.5841 211.974 18.7459C211.55 19.9077 210.844 20.946 209.919 21.7675C208.995 22.589 207.881 23.168 206.677 23.4525ZM206.677 31.2426V31.8847C206.682 32.1151 206.64 32.3441 206.554 32.5579C206.468 32.7717 206.34 32.9657 206.176 33.1282C206.013 33.2907 205.818 33.4183 205.604 33.5032C205.39 33.5881 205.16 33.6286 204.93 33.6221C204.469 33.6221 204.027 33.439 203.701 33.1132C203.376 32.7874 203.193 32.3455 203.193 31.8847V31.2426C203.197 30.7824 203.382 30.3424 203.706 30.0161C204.031 29.6898 204.47 29.5031 204.93 29.4957C205.16 29.4932 205.388 29.5367 205.601 29.6235C205.815 29.7104 206.008 29.839 206.171 30.0017C206.334 30.1644 206.462 30.358 206.549 30.5711C206.636 30.7842 206.679 31.0125 206.677 31.2426Z" fill="#FDB839"/>
</svg>
