<svg width="368" height="247" viewBox="0 0 368 247" fill="none" xmlns="http://www.w3.org/2000/svg">
<path d="M366.996 19.2652L367.537 224.498C367.544 227.225 367.013 229.926 365.975 232.448C364.938 234.97 363.414 237.262 361.49 239.195C359.567 241.128 357.281 242.663 354.764 243.712C352.248 244.762 349.549 245.305 346.822 245.311L21.3539 246.172C18.625 246.178 15.9217 245.646 13.3984 244.607C10.8751 243.568 8.58136 242.042 6.64834 240.116C4.71533 238.19 3.18095 235.901 2.13294 233.382C1.08492 230.862 0.543845 228.161 0.540623 225.432L1.57932e-05 20.2236C-0.00652772 15.0965 2.02052 10.1762 5.63665 6.54168C9.25277 2.90713 14.1627 0.855048 19.2897 0.835533L347.633 6.26891e-05C350.169 -0.00639945 352.682 0.486799 355.028 1.45147C357.374 2.41614 359.507 3.83339 361.305 5.62233C363.103 7.41127 364.531 9.53685 365.508 11.8777C366.484 14.2186 366.99 16.7288 366.996 19.2652Z" fill="#1D3C58"/>
<path d="M89.4722 35.901L41.2112 36.0274C35.5113 36.0423 30.9027 40.6751 30.9176 46.375L30.9882 73.3314C31.0031 79.0313 35.6359 83.6398 41.3358 83.6249L89.5969 83.4986C95.2968 83.4837 99.9053 78.8509 99.8904 73.151L99.8199 46.1946C99.8049 40.4947 95.1722 35.8861 89.4722 35.901Z" fill="#FDB839"/>
<path d="M28.5553 127.067L25.754 128.738C25.6531 128.81 25.5339 128.852 25.41 128.86C25.2866 128.861 25.1651 128.83 25.0574 128.77C24.9497 128.709 24.8595 128.622 24.7957 128.516C24.7488 128.438 24.7185 128.351 24.7067 128.261C24.6949 128.17 24.702 128.078 24.7273 127.991C24.7527 127.903 24.7959 127.822 24.8541 127.751C24.9124 127.681 24.9845 127.624 25.066 127.583L28.8994 125.125C29.0622 125.046 29.2482 125.026 29.4238 125.071C29.5995 125.117 29.7534 125.223 29.8577 125.371C29.9049 125.54 29.9049 125.718 29.8577 125.887V144.243C29.8611 144.334 29.8457 144.425 29.8124 144.51C29.779 144.595 29.7284 144.673 29.6639 144.737C29.5993 144.802 29.522 144.852 29.437 144.886C29.352 144.919 29.2609 144.935 29.1697 144.931C28.9872 144.931 28.8122 144.859 28.6832 144.73C28.5541 144.601 28.4816 144.426 28.4816 144.243L28.5553 127.067Z" fill="#F8F8F8"/>
<path d="M34.9181 143.801L44.2312 135.348C44.7627 134.86 45.1877 134.268 45.4795 133.608C45.7713 132.949 45.9235 132.236 45.9268 131.514C45.9198 130.247 45.4375 129.028 44.5752 128.099C44.1161 127.589 43.5609 127.176 42.9415 126.881C42.3222 126.587 41.6507 126.418 40.9658 126.384C40.2809 126.349 39.596 126.451 38.9504 126.682C38.3047 126.913 37.711 127.269 37.2034 127.73L36.2204 128.639C36.1585 128.704 36.0842 128.755 36.0018 128.791C35.9195 128.826 35.8308 128.844 35.7413 128.844C35.6517 128.844 35.5631 128.826 35.4808 128.791C35.3984 128.755 35.324 128.704 35.2621 128.639C35.1935 128.577 35.1387 128.501 35.1012 128.417C35.0637 128.332 35.0444 128.24 35.0444 128.148C35.0444 128.055 35.0637 127.964 35.1012 127.879C35.1387 127.795 35.1935 127.719 35.2621 127.656L36.2204 126.747C37.4347 125.655 39.0104 125.051 40.6436 125.052C41.547 125.041 42.4422 125.224 43.2688 125.588C44.0954 125.953 44.8342 126.491 45.4353 127.165C46.5462 128.352 47.1692 129.913 47.18 131.539C47.185 132.462 46.9975 133.376 46.6294 134.222C46.2612 135.068 45.7207 135.828 45.0421 136.454L37.0805 143.703H46.5165C46.7012 143.709 46.8762 143.787 47.0046 143.92C47.1329 144.053 47.2046 144.23 47.2045 144.415C47.2045 144.598 47.1321 144.773 47.003 144.902C46.874 145.031 46.699 145.103 46.5165 145.103H35.385H35.2621C35.1685 145.108 35.0751 145.091 34.9897 145.052C34.9042 145.014 34.8291 144.955 34.7706 144.882C34.7008 144.805 34.6487 144.714 34.6179 144.614C34.5871 144.515 34.5784 144.41 34.5925 144.307C34.6065 144.204 34.643 144.105 34.6992 144.018C34.7555 143.93 34.8302 143.856 34.9181 143.801Z" fill="#F8F8F8"/>
<path d="M63.7911 126.207L58.6554 131.539C59.8512 131.784 60.9581 132.349 61.8586 133.173C62.7592 133.997 63.4197 135.05 63.77 136.219C64.1203 137.389 64.1473 138.631 63.8482 139.815C63.549 140.998 62.9349 142.078 62.071 142.941C61.4465 143.579 60.7011 144.085 59.8783 144.431C59.0555 144.777 58.1719 144.956 57.2793 144.956C56.3916 144.962 55.5116 144.79 54.6924 144.448C53.8732 144.105 53.1316 143.601 52.5122 142.965C52.3818 142.835 52.3086 142.658 52.3086 142.474C52.3086 142.29 52.3818 142.113 52.5122 141.982C52.6425 141.852 52.8193 141.779 53.0036 141.779C53.1879 141.779 53.3647 141.852 53.4951 141.982C54.5148 142.956 55.8693 143.502 57.2793 143.506C57.9837 143.509 58.6818 143.373 59.3331 143.105C59.9845 142.837 60.5764 142.442 61.0745 141.944C61.5726 141.446 61.967 140.854 62.2351 140.203C62.5031 139.552 62.6394 138.853 62.6362 138.149C62.6402 137.449 62.503 136.755 62.2328 136.109C61.9626 135.463 61.5649 134.878 61.0635 134.389C60.5724 133.886 59.983 133.489 59.3321 133.223C58.6812 132.956 57.9825 132.826 57.2793 132.841C57.1694 132.836 57.062 132.807 56.9644 132.756C56.8668 132.705 56.7815 132.634 56.7141 132.546C56.6443 132.48 56.5886 132.4 56.5506 132.311C56.5126 132.222 56.493 132.127 56.493 132.03C56.493 131.934 56.5126 131.838 56.5506 131.75C56.5886 131.661 56.6443 131.581 56.7141 131.514L61.6287 126.403H53.9865C53.892 126.407 53.7978 126.391 53.7098 126.356C53.6218 126.321 53.5419 126.269 53.475 126.202C53.4081 126.135 53.3557 126.055 53.3212 125.967C53.2866 125.879 53.2705 125.785 53.2739 125.691C53.2705 125.596 53.2866 125.502 53.3212 125.414C53.3557 125.326 53.4081 125.246 53.475 125.179C53.5419 125.112 53.6218 125.06 53.7098 125.025C53.7978 124.991 53.892 124.975 53.9865 124.978H63.2997C63.3953 124.975 63.4906 124.991 63.5799 125.025C63.6693 125.059 63.7507 125.111 63.8195 125.178C63.8883 125.244 63.943 125.324 63.9804 125.412C64.0177 125.5 64.0369 125.595 64.0369 125.691C64.0767 125.793 64.0767 125.907 64.0369 126.01C64.0129 126.059 63.9785 126.102 63.936 126.136C63.8935 126.17 63.844 126.194 63.7911 126.207Z" fill="#F8F8F8"/>
<path d="M80.6251 140.803H69.7148C69.5537 140.814 69.3948 140.761 69.2725 140.655C69.2039 140.593 69.1491 140.517 69.1116 140.433C69.0741 140.348 69.0547 140.257 69.0547 140.164C69.0547 140.071 69.0741 139.98 69.1116 139.895C69.1491 139.811 69.2039 139.735 69.2725 139.673L80.7971 125.273C80.8571 125.205 80.9308 125.15 81.0134 125.113C81.0961 125.076 81.1857 125.057 81.2763 125.057C81.367 125.057 81.4566 125.076 81.5392 125.113C81.6218 125.15 81.6955 125.205 81.7555 125.273C81.8783 125.273 81.9275 125.494 82.0012 125.617C82.0749 125.74 82.0012 125.617 82.0012 125.617V139.427H83.3527C83.5352 139.427 83.7102 139.499 83.8392 139.628C83.9683 139.757 84.0408 139.932 84.0408 140.115C84.0408 140.297 83.9683 140.472 83.8392 140.601C83.7102 140.73 83.5352 140.803 83.3527 140.803H82.0012V144.243C81.9705 144.406 81.8837 144.554 81.7558 144.66C81.6279 144.766 81.467 144.824 81.3009 144.824C81.1347 144.824 80.9738 144.766 80.8459 144.66C80.7181 144.554 80.6313 144.406 80.6005 144.243L80.6251 140.803ZM80.6251 139.427V127.706L71.2137 139.451L80.6251 139.427Z" fill="#F8F8F8"/>
<path d="M124.658 129.18C125.322 127.892 126.321 126.807 127.548 126.038C128.776 125.268 130.188 124.843 131.636 124.806C131.817 124.805 131.991 124.874 132.124 124.997C132.256 125.12 132.337 125.289 132.349 125.469C132.349 125.657 132.279 125.837 132.151 125.974C132.023 126.111 131.848 126.194 131.661 126.207C130.459 126.244 129.288 126.601 128.269 127.24C127.25 127.879 126.419 128.777 125.862 129.843C125.177 131.094 124.695 132.446 124.437 133.849C125.451 132.701 126.834 131.942 128.347 131.703C129.86 131.465 131.41 131.761 132.728 132.542C134.046 133.323 135.051 134.538 135.569 135.98C136.088 137.422 136.087 138.999 135.568 140.44C135.049 141.882 134.043 143.097 132.725 143.877C131.406 144.657 129.857 144.953 128.344 144.713C126.83 144.474 125.448 143.714 124.434 142.566C123.421 141.417 122.839 139.951 122.79 138.419C122.765 137.986 122.765 137.551 122.79 137.117C122.731 134.356 123.374 131.625 124.658 129.18ZM124.191 138.296C124.165 138.426 124.165 138.56 124.191 138.69C124.213 138.753 124.213 138.823 124.191 138.886C124.28 140.274 124.906 141.573 125.936 142.508C126.965 143.443 128.319 143.941 129.709 143.896C131.099 143.852 132.417 143.268 133.385 142.269C134.353 141.27 134.894 139.933 134.894 138.542C134.894 137.151 134.353 135.815 133.385 134.816C132.417 133.816 131.099 133.233 129.709 133.188C128.319 133.143 126.965 133.641 125.936 134.576C124.906 135.511 124.28 136.81 124.191 138.198V138.296Z" fill="#F8F8F8"/>
<path d="M143.311 143.776L150.683 126.231H141.026C140.843 126.231 140.668 126.159 140.539 126.03C140.41 125.901 140.338 125.726 140.338 125.543C140.338 125.361 140.41 125.186 140.539 125.057C140.668 124.928 140.843 124.855 141.026 124.855H151.592C151.729 124.819 151.873 124.819 152.01 124.855C152.097 124.895 152.175 124.953 152.238 125.025C152.302 125.097 152.35 125.181 152.379 125.273C152.379 125.273 152.379 125.42 152.379 125.494C152.376 125.634 152.333 125.77 152.256 125.887L144.564 144.292C144.508 144.41 144.422 144.511 144.314 144.584C144.206 144.658 144.08 144.701 143.95 144.71C143.853 144.734 143.752 144.734 143.655 144.71C143.492 144.625 143.366 144.483 143.302 144.31C143.238 144.137 143.242 143.947 143.311 143.776Z" fill="#F8F8F8"/>
<path d="M162.994 124.708C163.837 124.741 164.65 125.03 165.325 125.536C166 126.043 166.504 126.743 166.771 127.544C167.038 128.345 167.055 129.207 166.819 130.018C166.583 130.828 166.106 131.547 165.451 132.079C166.64 132.569 167.657 133.4 168.374 134.467C169.091 135.534 169.476 136.79 169.481 138.075C169.38 139.724 168.653 141.271 167.45 142.402C166.247 143.534 164.658 144.163 163.006 144.163C161.355 144.163 159.765 143.534 158.562 142.402C157.359 141.271 156.633 139.724 156.531 138.075C156.532 136.795 156.91 135.544 157.618 134.477C158.326 133.411 159.333 132.577 160.512 132.079C159.993 131.685 159.572 131.176 159.282 130.592C158.992 130.008 158.841 129.365 158.841 128.713C158.873 127.635 159.326 126.613 160.102 125.864C160.878 125.116 161.916 124.701 162.994 124.708ZM162.994 143.309C163.665 143.313 164.33 143.182 164.95 142.926C165.57 142.67 166.133 142.294 166.607 141.818C167.08 141.342 167.454 140.778 167.707 140.156C167.96 139.535 168.087 138.869 168.081 138.198C168.081 137.186 167.78 136.197 167.217 135.356C166.655 134.515 165.855 133.86 164.92 133.474C163.984 133.088 162.955 132.988 161.963 133.187C160.971 133.386 160.06 133.876 159.347 134.593C158.633 135.31 158.148 136.223 157.953 137.216C157.759 138.209 157.864 139.238 158.254 140.171C158.645 141.105 159.304 141.901 160.148 142.46C160.991 143.019 161.982 143.314 162.994 143.309ZM162.994 131.662C163.362 131.659 163.725 131.583 164.064 131.439C164.403 131.295 164.71 131.086 164.968 130.824C165.225 130.562 165.429 130.251 165.567 129.91C165.705 129.569 165.774 129.204 165.771 128.836C165.771 128.099 165.478 127.393 164.957 126.872C164.437 126.352 163.73 126.059 162.994 126.059C162.258 126.059 161.551 126.352 161.031 126.872C160.51 127.393 160.217 128.099 160.217 128.836C160.214 129.206 160.284 129.573 160.423 129.915C160.563 130.258 160.769 130.57 161.029 130.833C161.289 131.095 161.599 131.304 161.941 131.446C162.282 131.588 162.649 131.662 163.019 131.662H162.994Z" fill="#F8F8F8"/>
<path d="M198.524 124.609C200.139 124.598 201.702 125.184 202.913 126.254C204.124 127.324 204.897 128.804 205.085 130.409C205.089 130.458 205.089 130.507 205.085 130.556C205.085 131.097 205.085 131.662 205.085 132.276C205.149 135.049 204.497 137.791 203.192 140.238C202.518 141.517 201.517 142.595 200.291 143.363C199.066 144.132 197.659 144.562 196.214 144.612C196.123 144.615 196.033 144.6 195.949 144.569C195.864 144.537 195.786 144.489 195.72 144.428C195.654 144.366 195.6 144.292 195.563 144.21C195.525 144.127 195.504 144.039 195.501 143.948C195.498 143.855 195.513 143.761 195.546 143.674C195.579 143.586 195.628 143.505 195.692 143.437C195.756 143.369 195.833 143.313 195.918 143.275C196.003 143.236 196.096 143.214 196.189 143.211C197.39 143.169 198.559 142.81 199.577 142.171C200.595 141.533 201.427 140.637 201.988 139.574C202.693 138.332 203.175 136.977 203.414 135.569C202.684 136.404 201.757 137.041 200.716 137.424C199.676 137.806 198.556 137.92 197.459 137.757C196.363 137.593 195.326 137.156 194.442 136.486C193.559 135.816 192.858 134.935 192.405 133.924C191.951 132.912 191.759 131.803 191.847 130.698C191.934 129.593 192.298 128.528 192.905 127.6C193.512 126.673 194.342 125.912 195.32 125.39C196.297 124.867 197.391 124.599 198.499 124.609H198.524ZM203.758 131.17C203.758 130.14 203.452 129.133 202.88 128.276C202.307 127.419 201.494 126.752 200.542 126.357C199.59 125.963 198.542 125.86 197.532 126.061C196.521 126.262 195.593 126.758 194.865 127.487C194.136 128.215 193.64 129.143 193.439 130.154C193.238 131.165 193.341 132.212 193.735 133.164C194.13 134.116 194.797 134.929 195.654 135.502C196.511 136.074 197.518 136.38 198.548 136.38C199.233 136.383 199.912 136.251 200.546 135.99C201.179 135.729 201.755 135.346 202.239 134.861C202.723 134.377 203.107 133.801 203.368 133.168C203.628 132.534 203.761 131.855 203.758 131.17Z" fill="#F8F8F8"/>
<path d="M210.222 134.586C210.165 132.115 210.831 129.68 212.139 127.583C212.646 126.714 213.36 125.983 214.218 125.456C215.075 124.929 216.049 124.621 217.053 124.56C218.053 124.629 219.022 124.937 219.877 125.459C220.732 125.98 221.45 126.701 221.968 127.558C223.278 129.648 223.961 132.07 223.934 134.537C223.964 136.997 223.3 139.416 222.017 141.515C221.505 142.38 220.79 143.107 219.933 143.634C219.077 144.161 218.106 144.471 217.103 144.538C216.1 144.48 215.128 144.176 214.271 143.653C213.414 143.13 212.698 142.405 212.188 141.54C210.875 139.461 210.192 137.045 210.222 134.586ZM211.623 134.586C211.593 136.772 212.19 138.921 213.343 140.778C213.721 141.48 214.271 142.073 214.942 142.503C215.612 142.933 216.381 143.185 217.176 143.236C217.962 143.162 218.718 142.9 219.381 142.472C220.044 142.045 220.594 141.464 220.985 140.778C222.083 138.917 222.662 136.796 222.662 134.635C222.662 132.474 222.083 130.353 220.985 128.492C220.632 127.777 220.086 127.175 219.408 126.754C218.731 126.333 217.949 126.11 217.152 126.11C216.354 126.11 215.573 126.333 214.895 126.754C214.218 127.175 213.672 127.777 213.318 128.492C212.199 130.318 211.612 132.42 211.623 134.561V134.586Z" fill="#F8F8F8"/>
<path d="M233.295 126.551L230.469 128.222C230.356 128.25 230.238 128.25 230.125 128.222C230.004 128.226 229.885 128.196 229.78 128.135C229.676 128.074 229.591 127.985 229.535 127.878C229.484 127.802 229.449 127.716 229.433 127.626C229.418 127.536 229.422 127.443 229.445 127.355C229.468 127.266 229.51 127.184 229.568 127.113C229.626 127.042 229.699 126.984 229.781 126.944L233.639 124.486C233.8 124.405 233.986 124.388 234.159 124.438C234.332 124.488 234.48 124.602 234.573 124.757C234.631 124.924 234.631 125.106 234.573 125.273V143.629C234.573 143.811 234.5 143.986 234.371 144.115C234.242 144.244 234.067 144.317 233.885 144.317C233.704 144.311 233.533 144.236 233.405 144.109C233.277 143.981 233.203 143.809 233.197 143.629L233.295 126.551Z" fill="#F8F8F8"/>
<path d="M239.61 143.26L248.923 134.807C249.684 134.11 250.216 133.199 250.452 132.194C250.687 131.19 250.614 130.138 250.243 129.175C249.872 128.212 249.219 127.383 248.37 126.797C247.521 126.211 246.515 125.894 245.483 125.887C244.197 125.888 242.955 126.36 241.994 127.214L241.035 128.099C240.973 128.167 240.897 128.222 240.813 128.26C240.728 128.297 240.636 128.317 240.544 128.317C240.451 128.317 240.36 128.297 240.275 128.26C240.191 128.222 240.115 128.167 240.052 128.099C239.987 128.035 239.935 127.958 239.9 127.874C239.864 127.789 239.846 127.699 239.846 127.607C239.846 127.516 239.864 127.425 239.9 127.341C239.935 127.256 239.987 127.18 240.052 127.116L241.035 126.207C242.256 125.124 243.827 124.522 245.458 124.511C247.177 124.524 248.823 125.211 250.04 126.424C251.258 127.637 251.951 129.28 251.97 130.998C251.982 131.92 251.799 132.833 251.435 133.68C251.071 134.526 250.534 135.287 249.857 135.913L241.871 143.285H251.331C251.514 143.297 251.686 143.377 251.813 143.508C251.94 143.64 252.014 143.814 252.019 143.997C252.013 144.178 251.939 144.349 251.811 144.477C251.683 144.605 251.512 144.679 251.331 144.685H240.077C239.982 144.693 239.886 144.68 239.797 144.646C239.707 144.612 239.627 144.558 239.561 144.489C239.472 144.412 239.401 144.315 239.354 144.207C239.307 144.098 239.285 143.981 239.29 143.863C239.294 143.745 239.326 143.629 239.381 143.525C239.437 143.421 239.515 143.33 239.61 143.26Z" fill="#F8F8F8"/>
<path d="M285.634 125.641L280.474 130.974C281.771 131.217 282.963 131.851 283.89 132.792C284.563 133.41 285.105 134.157 285.482 134.989C285.859 135.822 286.065 136.722 286.086 137.635C286.107 138.549 285.943 139.457 285.604 140.306C285.265 141.154 284.758 141.926 284.113 142.574C283.469 143.222 282.7 143.732 281.853 144.076C281.006 144.419 280.099 144.588 279.185 144.571C278.271 144.555 277.37 144.354 276.536 143.981C275.702 143.608 274.952 143.07 274.331 142.4C274.261 142.336 274.206 142.258 274.169 142.171C274.131 142.084 274.111 141.991 274.111 141.896C274.111 141.802 274.131 141.708 274.169 141.622C274.206 141.535 274.261 141.457 274.331 141.393C274.467 141.265 274.647 141.194 274.834 141.194C275.022 141.194 275.202 141.265 275.338 141.393C276.338 142.385 277.689 142.942 279.098 142.941C280.515 142.926 281.872 142.362 282.882 141.368C283.382 140.873 283.778 140.284 284.048 139.634C284.318 138.984 284.457 138.287 284.455 137.584C284.462 136.883 284.326 136.189 284.055 135.542C283.785 134.896 283.386 134.311 282.882 133.824C282.389 133.322 281.8 132.924 281.149 132.654C280.499 132.384 279.802 132.247 279.098 132.252C278.882 132.238 278.679 132.141 278.533 131.981C278.463 131.915 278.407 131.835 278.369 131.746C278.331 131.657 278.312 131.562 278.312 131.465C278.312 131.369 278.331 131.273 278.369 131.184C278.407 131.096 278.463 131.016 278.533 130.949L283.447 125.813H275.805C275.616 125.813 275.435 125.738 275.301 125.605C275.168 125.471 275.092 125.29 275.092 125.101C275.089 125.006 275.105 124.912 275.14 124.824C275.174 124.736 275.227 124.656 275.294 124.589C275.36 124.522 275.44 124.47 275.528 124.435C275.616 124.401 275.711 124.385 275.805 124.388H285.143C285.332 124.388 285.513 124.463 285.647 124.597C285.78 124.731 285.855 124.912 285.855 125.101C285.891 125.204 285.891 125.317 285.855 125.42C285.801 125.511 285.725 125.587 285.634 125.641Z" fill="#F8F8F8"/>
<path d="M302.442 140.213H291.483C291.322 140.224 291.163 140.171 291.041 140.066C290.973 140.006 290.918 139.932 290.881 139.849C290.844 139.767 290.824 139.677 290.824 139.587C290.824 139.496 290.844 139.406 290.881 139.324C290.918 139.241 290.973 139.167 291.041 139.107L302.565 124.683C302.629 124.618 302.706 124.566 302.79 124.53C302.875 124.495 302.965 124.477 303.057 124.477C303.148 124.477 303.239 124.495 303.323 124.53C303.408 124.566 303.484 124.618 303.548 124.683C303.639 124.786 303.713 124.902 303.769 125.027C303.764 125.068 303.764 125.109 303.769 125.15V138.935H305.121C305.306 138.935 305.483 139.007 305.616 139.135C305.749 139.264 305.827 139.439 305.833 139.623C305.833 139.716 305.815 139.807 305.779 139.892C305.743 139.978 305.69 140.055 305.623 140.119C305.557 140.183 305.478 140.233 305.392 140.266C305.305 140.299 305.213 140.315 305.121 140.311H303.769V143.727C303.769 143.82 303.751 143.911 303.715 143.996C303.679 144.081 303.626 144.158 303.559 144.222C303.493 144.287 303.414 144.337 303.328 144.37C303.241 144.403 303.149 144.418 303.057 144.415C302.878 144.415 302.707 144.346 302.579 144.222C302.45 144.099 302.375 143.93 302.369 143.752L302.442 140.213ZM302.442 138.837V127.14L293.031 138.862L302.442 138.837Z" fill="#F8F8F8"/>
<path d="M329.351 128.639C330.025 127.356 331.03 126.276 332.261 125.512C333.493 124.747 334.906 124.325 336.355 124.29C336.533 124.283 336.707 124.346 336.84 124.465C336.973 124.584 337.055 124.751 337.067 124.929C337.068 125.119 336.998 125.302 336.871 125.443C336.744 125.584 336.568 125.672 336.379 125.691C335.17 125.726 333.993 126.084 332.969 126.728C331.945 127.372 331.112 128.278 330.556 129.352C329.871 130.601 329.397 131.954 329.155 133.357C330.166 132.216 331.544 131.462 333.052 131.226C334.559 130.99 336.101 131.287 337.413 132.065C338.725 132.843 339.725 134.055 340.24 135.49C340.756 136.926 340.755 138.496 340.238 139.932C339.721 141.367 338.721 142.577 337.408 143.354C336.095 144.131 334.553 144.426 333.046 144.189C331.539 143.952 330.162 143.197 329.151 142.054C328.14 140.912 327.56 139.453 327.509 137.928C327.471 137.486 327.471 137.042 327.509 136.601C327.453 133.835 328.087 131.099 329.351 128.639ZM328.909 137.78C328.896 137.903 328.896 138.027 328.909 138.149C328.923 138.214 328.923 138.281 328.909 138.346C328.999 139.734 329.624 141.033 330.654 141.968C331.684 142.903 333.037 143.4 334.427 143.356C335.817 143.311 337.136 142.727 338.103 141.728C339.071 140.729 339.612 139.393 339.612 138.002C339.612 136.611 339.071 135.274 338.103 134.275C337.136 133.276 335.817 132.692 334.427 132.647C333.037 132.603 331.684 133.101 330.654 134.036C329.624 134.971 328.999 136.27 328.909 137.658V137.78Z" fill="#F8F8F8"/>
<path d="M205.532 178.857L31.2617 179.313L31.2842 187.889L205.555 187.433L205.532 178.857Z" fill="#FF6E41"/>
<path d="M153.261 199.68H29.8809V208.256H153.261V199.68Z" fill="#FF6E41"/>
<path d="M256.119 57.7977L169.205 58.0253L169.215 61.6761L256.129 61.4485L256.119 57.7977Z" fill="#FF6E41"/>
<path d="M331.981 76.9284L330.36 75.3066C330.04 74.9872 329.721 74.6923 329.426 74.3729C331.514 72.3152 333.171 69.8631 334.303 67.159C335.435 64.455 336.017 61.5529 336.017 58.6216C336.017 55.6903 335.435 52.7883 334.303 50.0842C333.171 47.3802 331.514 44.928 329.426 42.8704L330.335 41.9858L331.957 40.364V40.4868C332.571 41.1749 333.21 41.8383 333.8 42.5509C334.998 44.0685 336.02 45.7172 336.847 47.4655C337.839 49.4632 338.55 51.5884 338.96 53.7807C339.157 54.8374 339.255 55.894 339.378 56.9507C339.378 57.3193 339.378 59.6537 339.378 59.7274C339.378 60.44 339.378 61.1772 339.23 61.8898C339.001 63.8726 338.53 65.82 337.83 67.689C337.341 69.0549 336.724 70.3714 335.987 71.6207C335.235 72.9569 334.355 74.2161 333.357 75.3804C332.866 75.9701 332.325 76.5353 331.809 77.1005L331.981 76.9284Z" fill="#FF6E41"/>
<path d="M324.285 48.0553L326.742 45.4752C328.474 47.1989 329.847 49.2477 330.785 51.5037C331.722 53.7597 332.204 56.1786 332.204 58.6216C332.204 61.0646 331.722 63.4836 330.785 65.7396C329.847 67.9957 328.474 70.0444 326.742 71.7682L324.285 69.188C325.673 67.8006 326.774 66.1534 327.525 64.3404C328.276 62.5274 328.663 60.5841 328.663 58.6216C328.663 56.6592 328.276 54.716 327.525 52.903C326.774 51.09 325.673 49.4427 324.285 48.0553Z" fill="#FF6E41"/>
<path d="M321.707 66.6078L319.127 64.1505C319.846 63.4466 320.417 62.6054 320.806 61.6768C321.194 60.7482 321.392 59.751 321.388 58.7445C321.38 56.7142 320.567 54.7701 319.127 53.3385L321.584 50.7583C323.691 52.8499 324.886 55.6892 324.909 58.6578C324.932 61.6264 323.781 64.4838 321.707 66.6078Z" fill="#FF6E41"/>
</svg>
