<svg width="557" height="379" viewBox="0 0 557 379" fill="none" xmlns="http://www.w3.org/2000/svg">
<path d="M86.1071 123.758L75.7012 200.021L195.957 216.429L206.363 140.167L86.1071 123.758Z" fill="#FF6E41"/>
<path d="M86.1094 123.744C90.3336 129.074 94.6778 134.178 98.942 139.415C103.206 144.652 107.604 149.715 111.974 154.806C116.518 160.136 121.103 165.466 125.673 170.677C125.82 170.836 125.94 171.01 126.086 171.183C130.146 175.82 134.219 180.453 138.306 185.082L138.906 185.748L139.652 185.268C144.822 181.901 149.984 178.516 155.136 175.114C155.32 175.008 155.498 174.892 155.669 174.768C161.524 170.93 167.351 167.052 173.152 163.134C178.696 159.403 184.266 155.605 189.796 151.807C195.326 148.01 200.87 144.132 206.36 140.148C200.657 143.426 195.006 146.904 189.343 150.288C183.68 153.673 178.03 157.204 172.393 160.749C166.121 164.649 159.849 168.616 153.577 172.649C148.878 175.634 144.178 178.636 139.479 181.657C135.787 177.499 132.069 173.315 128.338 169.197C123.381 163.672 118.402 158.173 113.4 152.7C108.905 147.796 104.397 142.91 99.8748 138.042C95.2241 133.298 90.72 128.434 86.1094 123.744Z" fill="white"/>
<path d="M153.137 174.367C153.184 174.413 153.229 174.462 153.27 174.514L154.949 176.379C157.614 179.338 160.373 182.189 163.184 184.988C166.622 188.426 170.154 191.77 173.712 195.089C177.269 198.407 180.894 201.605 184.612 204.75C188.33 207.894 192.074 211.013 195.992 213.918C192.78 210.226 189.329 206.735 185.958 203.257C182.586 199.779 178.975 196.474 175.444 193.17C171.913 189.865 168.235 186.627 164.53 183.469C161.585 180.95 158.574 178.471 155.469 176.1C154.758 175.54 154.038 174.993 153.31 174.46L153.137 174.367Z" fill="white"/>
<path d="M76.3184 197.607C80.8891 195.848 85.3531 193.863 89.7506 191.824C94.1481 189.785 98.5055 187.6 102.85 185.414C107.194 183.229 111.471 180.91 115.696 178.512C119.147 176.566 122.558 174.514 125.903 172.435C126.636 171.982 127.342 171.529 128.048 171.103L128.208 170.996C128.143 171.013 128.074 171.013 128.009 170.996L125.477 172.022C121.865 173.475 118.321 175.074 114.816 176.699C110.405 178.752 106.061 180.91 101.73 183.122C97.3995 185.334 93.122 187.626 88.8844 190.038C84.6469 192.45 80.4093 194.902 76.3184 197.607Z" fill="white"/>
<path d="M116.753 13.3979L17.2988 38.6377L33.3048 101.707L132.759 76.4677L116.753 13.3979Z" fill="#FF6E41"/>
<path d="M17.2949 38.6322C22.292 41.4573 27.3158 44.0957 32.3262 46.8408C37.3367 49.5859 42.3738 52.1711 47.4109 54.8362C52.6612 57.5813 57.9248 60.2597 63.1884 62.9382L63.6681 63.2047L77.6467 70.2273L78.3263 70.5605L78.7661 69.9475C81.751 65.6699 84.7093 61.3791 87.6809 57.0882C87.7908 56.9426 87.8931 56.7913 87.9874 56.6352C91.3633 51.7846 94.7035 46.8986 98.0083 41.977C101.18 37.2997 104.338 32.5557 107.469 27.8251C110.601 23.0945 113.719 18.2973 116.797 13.4468C113.359 17.8176 110.041 22.335 106.67 26.7724C103.299 31.2099 100.007 35.7805 96.7024 40.3379C93.0245 45.3928 89.36 50.492 85.7087 55.6357C82.9814 59.4646 80.2497 63.3069 77.5135 67.1624C73.2493 65.0303 69.0117 62.9648 64.7875 60.9127C59.1374 58.141 53.4873 55.4048 47.8373 52.7041C42.7735 50.2922 37.6965 47.8935 32.6194 45.5482C27.5423 43.2029 22.412 40.8443 17.2949 38.6322Z" fill="white"/>
<path d="M85.8965 57.0352C85.9424 57.0669 85.9915 57.0936 86.0431 57.1151L87.9486 58.0479C90.978 59.5137 94.0384 60.8907 97.13 62.1789C100.914 63.8046 104.739 65.2971 108.577 66.7629C112.415 68.2287 116.279 69.6012 120.183 70.8938C124.088 72.1864 128.019 73.439 132.017 74.4784C128.325 72.5995 124.567 70.9338 120.796 69.3214C117.025 67.709 113.161 66.2165 109.336 64.7507C105.512 63.2849 101.621 61.899 97.7163 60.6064C94.6115 59.567 91.4666 58.5676 88.2818 57.6881C87.5489 57.4749 86.816 57.2883 86.0697 57.0885L85.8965 57.0352Z" fill="white"/>
<path d="M33.0332 99.6775C36.0581 96.8658 38.9231 93.8942 41.7215 90.8826C44.5199 87.871 47.265 84.8061 49.9701 81.7279C52.6752 78.6496 55.3003 75.4515 57.8455 72.24C59.9377 69.5749 61.9898 66.9098 63.9354 64.2446L65.1746 62.499C65.1746 62.499 65.1746 62.4057 65.2679 62.3657L65.1347 62.4856C64.575 63.0187 64.0153 63.5384 63.469 64.0847C61.097 66.3634 58.8183 68.7354 56.5663 71.1473C53.7546 74.1456 51.0361 77.2238 48.3444 80.3154C45.6526 83.4069 43.0141 86.5784 40.4689 89.8032C37.9237 93.028 35.3785 96.2128 33.0332 99.6775Z" fill="white"/>
<path d="M369.784 213.379L267.875 225.332L275.455 289.958L377.364 278.005L369.784 213.379Z" fill="#FDB839"/>
<path d="M267.865 225.36C272.449 228.812 277.087 232.09 281.684 235.488C286.281 238.886 290.945 242.084 295.596 245.335C300.247 248.587 305.31 252.092 310.174 255.436L310.614 255.756C314.905 258.697 319.213 261.633 323.54 264.564L324.179 264.977L324.686 264.431C328.239 260.584 331.748 256.724 335.213 252.851C335.347 252.728 335.472 252.594 335.586 252.451C339.557 248.081 343.51 243.674 347.446 239.232C351.204 235.021 354.948 230.731 358.679 226.453C362.411 222.176 366.128 217.831 369.78 213.407C365.782 217.298 361.918 221.403 357.987 225.307C354.055 229.211 350.191 233.302 346.313 237.447C342.005 241.96 337.709 246.53 333.427 251.159C330.216 254.597 327.018 258.061 323.806 261.513C319.889 258.848 315.971 256.249 312.053 253.664C306.829 250.173 301.588 246.717 296.329 243.297C291.638 240.232 286.925 237.202 282.19 234.209C277.353 231.264 272.636 228.225 267.865 225.36Z" fill="white"/>
<path d="M333.414 252.678L333.547 252.771C334.134 253.171 334.733 253.571 335.32 253.944C338.131 255.809 340.983 257.568 343.888 259.274C347.419 261.366 351.017 263.352 354.628 265.324C358.24 267.296 361.891 269.135 365.595 270.934C369.3 272.733 373.018 274.492 376.842 276.038C373.444 273.692 369.926 271.547 366.395 269.468C362.864 267.389 359.239 265.377 355.641 263.418C352.043 261.459 348.365 259.58 344.674 257.781C341.729 256.342 338.731 254.943 335.693 253.651C335 253.348 334.294 253.055 333.574 252.771L333.414 252.678Z" fill="white"/>
<path d="M275.447 287.896C278.819 285.498 282.11 282.926 285.215 280.328C288.32 277.729 291.505 274.997 294.543 272.332C297.581 269.667 300.646 266.829 303.604 263.964C306.016 261.645 308.388 259.286 310.68 256.834L312.146 255.262C312.185 255.225 312.22 255.185 312.253 255.142C312.21 255.182 312.161 255.214 312.106 255.235L310.254 256.568C307.589 258.527 305.03 260.566 302.472 262.658C299.287 265.323 296.195 267.988 293.144 270.653C290.092 273.318 287.041 276.157 284.082 279.022C281.124 281.887 278.219 284.818 275.447 287.896Z" fill="white"/>
<path d="M330.724 121.81L313.227 122.183L304.352 122.33C301.381 122.396 298.396 122.33 295.424 122.41H294.838V121.81L294.758 106.899V106.232H295.424L313.067 106.312C318.944 106.312 324.834 106.472 330.71 106.539H331.083V106.899C331.083 109.431 330.977 111.949 330.91 114.428L330.724 121.81ZM330.724 121.81L330.55 114.321C330.484 111.829 330.404 109.377 330.377 106.939L330.737 107.298C324.86 107.365 318.97 107.512 313.094 107.525L295.451 107.605L296.117 106.939V121.85L295.517 121.25C298.422 121.25 301.327 121.25 304.246 121.33L313.014 121.477L330.724 121.81Z" fill="#D8D8D8"/>
<path d="M311.043 140.613L293.546 140.986L284.671 141.133C281.713 141.133 278.728 141.133 275.756 141.213H275.17V140.613L275.104 125.702V124.982H275.77L293.413 125.062C299.29 125.062 305.179 125.222 311.056 125.288H311.429V125.648C311.429 128.18 311.323 130.699 311.256 133.177L311.043 140.613ZM311.043 140.613L310.856 133.084C310.79 130.592 310.71 128.14 310.683 125.702L311.043 126.061C305.166 126.128 299.276 126.275 293.4 126.288L275.756 126.368L276.423 125.702L276.343 140.613L275.756 140.013C278.661 140.013 281.566 140.013 284.471 140.093L293.24 140.24L311.043 140.613Z" fill="#D8D8D8"/>
<path d="M350.406 140.613L332.923 140.986L324.048 141.133C321.077 141.133 318.092 141.133 315.12 141.213H314.56V140.613L314.48 125.702V124.982H315.147L332.79 125.062C338.68 125.062 344.556 125.222 350.433 125.288H350.806V125.648C350.806 128.18 350.686 130.699 350.62 133.177L350.406 140.613ZM350.406 140.613L350.22 133.084C350.22 130.592 350.073 128.14 350.047 125.702L350.406 126.061C344.53 126.128 338.653 126.275 332.763 126.288L315.12 126.368L315.786 125.702L315.72 140.613L315.12 140.013C318.025 140.013 320.93 140.013 323.848 140.093L332.617 140.24L350.406 140.613Z" fill="#D8D8D8"/>
<path d="M473.224 228.956L455.727 229.329L446.853 229.476C443.881 229.476 440.909 229.476 437.938 229.556H437.338V228.956L437.271 214.045V213.378H437.951L455.594 213.458C461.471 213.458 467.347 213.618 473.237 213.685H473.597V214.045C473.597 216.577 473.477 219.095 473.424 221.574L473.224 228.956ZM473.224 228.956L473.024 221.427C473.024 218.935 472.878 216.483 472.851 214.045L473.224 214.404C467.334 214.471 461.457 214.618 455.581 214.631L437.938 214.711L438.591 214.045L438.524 228.956L437.938 228.356C440.843 228.356 443.734 228.356 446.653 228.436L455.434 228.57L473.224 228.956Z" fill="#D8D8D8"/>
<path d="M492.91 247.758L475.427 248.131L466.552 248.278C463.594 248.278 460.609 248.278 457.637 248.358H457.037V247.758L456.971 232.847V232.181H457.637L475.28 232.261C481.157 232.261 487.033 232.421 492.923 232.487H493.283V232.847C493.283 235.379 493.163 237.897 493.11 240.376L492.91 247.758ZM492.91 247.758L492.75 240.229C492.683 237.737 492.59 235.286 492.563 232.847L492.937 233.207C487.047 233.273 481.17 233.42 475.293 233.433L457.65 233.513L458.317 232.847L458.237 247.758L457.65 247.159C460.555 247.159 463.447 247.159 466.365 247.239L475.134 247.385L492.91 247.758Z" fill="#D8D8D8"/>
<path d="M35.9526 16.1255L18.4693 16.4986L9.59446 16.6452C6.62284 16.7118 3.6379 16.6452 0.666282 16.7252H0.0799506V16.1255L0 1.21413V0.547852H0.666282L18.3094 0.641131C24.1994 0.641131 30.076 0.787712 35.9526 0.854341H36.3257V1.21413C36.3257 3.746 36.2057 6.26455 36.1391 8.75644L35.9526 16.1255ZM35.9526 16.1255L35.766 8.59654C35.766 6.11797 35.6194 3.65272 35.5928 1.21413L35.9526 1.58725C30.076 1.58725 24.1994 1.78713 18.3094 1.80046L0.666282 1.88042L1.33256 1.21413L1.26594 16.1255L0.666282 15.5392C3.57127 15.5392 6.47626 15.5392 9.39457 15.5392L18.1495 15.7258L35.9526 16.1255Z" fill="#D8D8D8"/>
<path d="M520.049 362.872L537.532 362.499L546.407 362.352C549.379 362.285 552.364 362.352 555.335 362.272H555.922V362.872L556.001 377.783V378.449H555.335L537.692 378.356C531.802 378.356 525.926 378.209 520.049 378.143H519.676V377.783C519.676 375.251 519.796 372.733 519.849 370.241L520.049 362.872ZM520.049 362.872L520.235 370.401C520.235 372.879 520.382 375.344 520.409 377.783L520.049 377.41C525.926 377.343 531.802 377.21 537.692 377.197L555.335 377.117L554.669 377.783L554.736 362.872L555.335 363.458C552.43 363.458 549.525 363.458 546.607 363.391L537.839 363.245L520.049 362.872Z" fill="#D8D8D8"/>
<path d="M101.793 289.249L119.276 288.876L128.151 288.729C131.11 288.663 134.095 288.729 137.066 288.649H137.666V289.249V304.16V304.827H137L119.356 304.733C113.48 304.733 107.603 304.587 101.713 304.52H101.354V304.16C101.354 301.629 101.473 299.11 101.527 296.618L101.793 289.249ZM101.793 289.249L101.98 296.778C101.98 299.257 102.14 301.722 102.166 304.16L101.793 303.787C107.683 303.721 113.56 303.587 119.436 303.574L137.08 303.494L136.413 304.16L136.493 289.249L137.08 289.835C134.175 289.835 131.283 289.835 128.365 289.769L119.596 289.622L101.793 289.249Z" fill="#D8D8D8"/>
<path d="M121.475 270.447L138.972 270.074L147.846 269.927C150.818 269.86 153.79 269.927 156.761 269.847H157.361V270.447V285.358V286.024H156.681L139.118 285.905C133.242 285.905 127.365 285.758 121.475 285.691H121.115V285.332C121.115 282.8 121.235 280.281 121.288 277.789L121.475 270.447ZM121.475 270.447L121.675 277.976C121.675 280.454 121.821 282.92 121.848 285.358L121.475 284.985C127.365 284.918 133.242 284.785 139.118 284.772L156.761 284.692L156.108 285.358V270.447L156.695 271.033C153.79 271.033 150.898 271.033 147.98 271.033L139.265 270.82L121.475 270.447Z" fill="#D8D8D8"/>
</svg>
