<svg width="457" height="223" viewBox="0 0 457 223" fill="none" xmlns="http://www.w3.org/2000/svg">
<path d="M28.1211 178.224C28.1211 178.224 34.2369 156.277 39.1195 148.828C44.0021 141.379 53.1078 133.191 53.1078 133.191C53.1078 133.191 52.8927 167.018 28.1211 178.224Z" fill="#FDB839"/>
<path d="M28.5589 177.844C30.6216 174.408 32.484 170.855 34.137 167.204C34.8368 163.284 35.851 159.426 37.1698 155.668C37.1712 155.66 37.1743 155.652 37.179 155.645C37.1837 155.638 37.1897 155.633 37.1968 155.628C37.2039 155.624 37.2119 155.621 37.2201 155.621C37.2283 155.62 37.2366 155.621 37.2445 155.623C37.2523 155.626 37.2595 155.63 37.2656 155.636C37.2716 155.641 37.2764 155.648 37.2795 155.656C37.2826 155.664 37.284 155.672 37.2837 155.68C37.2833 155.688 37.2811 155.696 37.2774 155.704C36.4672 159.174 35.5279 162.608 34.6676 166.064C37.134 160.723 39.4785 155.309 42.4181 150.291C43.1069 147.85 44.069 145.496 45.286 143.271C45.286 143.207 45.4222 143.271 45.3935 143.307C44.6387 145.017 43.9921 146.772 43.4577 148.563C44.8403 146.297 46.3935 144.14 48.1037 142.11C48.2113 141.981 48.4192 142.11 48.3188 142.26C44.3898 147.279 41.6724 152.979 39.0913 158.751C41.8666 155.736 44.43 152.534 46.763 149.165C46.763 149.129 46.8347 149.165 46.8132 149.201C44.3824 152.977 41.6336 156.539 38.5966 159.848C36.7181 164.085 34.8683 168.337 32.6242 172.359C37.1053 168.574 40.5539 163.669 43.9668 158.937C43.982 158.915 44.0056 158.899 44.0325 158.893C44.0594 158.888 44.0873 158.894 44.1101 158.909C44.133 158.924 44.1488 158.948 44.1542 158.974C44.1596 159.001 44.154 159.029 44.1388 159.052C40.726 164.243 37.1913 169.133 32.2729 172.976C31.2763 174.746 30.1824 176.46 28.9963 178.109C28.954 178.149 28.8999 178.174 28.8421 178.18C28.7844 178.186 28.7262 178.173 28.6765 178.143C28.6269 178.113 28.5885 178.068 28.5672 178.014C28.546 177.96 28.543 177.9 28.5589 177.844Z" fill="#263238"/>
<path d="M26.2274 180.196C26.2274 180.196 37.2187 159.963 34.021 140.339C30.8232 120.715 27.4104 113.739 27.4104 113.739C27.4104 113.739 10.1384 144.261 26.2274 180.196Z" fill="#FDB839"/>
<path d="M22.5078 145.257C22.8718 147.019 23.1114 148.804 23.2248 150.599C23.2207 150.61 23.2134 150.619 23.2038 150.626C23.1942 150.633 23.1827 150.636 23.171 150.636C23.1593 150.636 23.1479 150.633 23.1383 150.626C23.1287 150.619 23.1213 150.61 23.1173 150.599C22.6904 148.847 22.3885 147.067 22.2139 145.272C22.2139 145.143 22.4433 145.121 22.5078 145.257Z" fill="#263238"/>
<path d="M28.8958 130.466C28.8958 130.402 28.9962 130.423 29.0033 130.466C28.9846 131.714 28.7989 132.953 28.4513 134.151C28.4513 134.252 28.2792 134.202 28.3007 134.108C28.5373 132.904 28.6879 131.685 28.8958 130.466Z" fill="#263238"/>
<path d="M22.2205 181.744C22.2205 181.744 22.665 160.622 16.6066 150.126C10.5481 139.629 0.496094 134.273 0.496094 134.273C0.496094 134.273 4.58286 171.506 22.2205 181.744Z" fill="#FDB839"/>
<path d="M11.1786 163.684C13.6136 167.371 16.355 170.846 19.3737 174.073C18.1691 169.771 16.771 165.526 15.1793 161.339C11.788 158.357 8.41824 155.274 6.33184 151.194C6.32423 151.181 6.32222 151.165 6.32626 151.15C6.33029 151.135 6.34004 151.123 6.35335 151.115C6.36666 151.108 6.38244 151.105 6.39723 151.11C6.41202 151.114 6.42461 151.123 6.43221 151.137C8.66918 154.722 11.6661 157.632 14.8209 160.414C12.3928 154.123 9.57688 147.988 6.38919 142.045C6.37897 142.016 6.37928 141.983 6.39006 141.954C6.40085 141.925 6.42146 141.9 6.44842 141.884C6.47537 141.868 6.50703 141.862 6.53803 141.866C6.56904 141.871 6.5975 141.886 6.61863 141.909C8.5569 145.025 10.3233 148.244 11.9099 151.552C11.3363 149.294 10.8846 146.985 10.3039 144.741C10.3076 144.732 10.314 144.724 10.3224 144.718C10.3307 144.713 10.3405 144.71 10.3505 144.71C10.3605 144.71 10.3703 144.713 10.3786 144.718C10.3869 144.724 10.3934 144.732 10.3971 144.741C11.5877 147.616 12.4232 150.626 12.885 153.703C15.0025 158.378 16.7804 163.199 18.205 168.129C18.0544 164.96 17.8537 161.812 17.5239 158.651C17.5239 158.593 17.6242 158.579 17.6314 158.651C18.309 162.155 18.6166 165.721 18.5491 169.29C19.4238 172.438 20.1552 175.629 20.7503 178.833C20.7503 178.92 20.6355 178.963 20.614 178.869C20.2842 177.526 19.9353 176.19 19.5672 174.861C19.5438 174.868 19.519 174.868 19.4955 174.861C16.2476 171.606 13.1575 167.892 11.1284 163.741L11.1786 163.684Z" fill="#263238"/>
<path d="M40.2225 179.17L39.4553 189.172L37.1538 219.422H17.0784L14.7698 189.172L14.0098 179.17H40.2225Z" fill="#1D3C58"/>
<path d="M40.2251 179.17L39.4579 189.172H14.7795L14.0195 179.17H40.2251Z" fill="#1D3C58"/>
<path d="M12.2399 181.931H42.0088V174.259H12.2399V181.931Z" fill="#1D3C58"/>
<path d="M0 222.416L57.0275 222.146L114.055 222.06L228.11 221.876L342.165 222.06L399.193 222.146L456.22 222.416L399.193 222.675L342.165 222.772L228.11 222.956L114.055 222.772L57.0275 222.675L0 222.416Z" fill="#263238"/>
<path d="M287.862 53.6409C287.507 57.0906 286.235 60.3725 284.187 63.1254C283.676 63.8072 283.126 64.4573 282.541 65.0722C281.936 65.6708 281.295 66.23 280.622 66.7464C277.926 68.8393 274.721 70.1239 271.361 70.4584C270.52 70.5366 269.675 70.5543 268.832 70.5114C267.991 70.4885 267.153 70.3973 266.326 70.2387C262.981 69.6118 259.871 68.038 257.344 65.6934L257.557 65.7616L248.501 67.1631L247.84 67.2616L248.178 66.6631L252.691 58.5574V58.8755C251.628 56.1944 251.177 53.2979 251.37 50.4087C251.564 47.5195 252.398 44.7145 253.808 42.2095C255.224 39.7156 257.169 37.5842 259.497 35.9749C261.822 34.3701 264.472 33.3337 267.245 32.9447C269.997 32.5517 272.8 32.8167 275.437 33.7192C278.075 34.6216 280.475 36.1374 282.452 38.1491C284.433 40.1409 285.949 42.5701 286.886 45.2537C287.823 47.9372 288.157 50.805 287.862 53.6409Z" fill="#FF6E41"/>
<path d="M262.345 95.1827C261.186 95.6015 259.929 95.7043 258.713 95.4797C258.411 95.4238 258.113 95.3497 257.821 95.2577C257.53 95.1576 257.245 95.041 256.969 94.9085C256.415 94.6452 255.903 94.3079 255.448 93.9065C254.988 93.5079 254.587 93.0499 254.257 92.5455C254.094 92.2919 253.951 92.0268 253.829 91.7523C253.692 91.4834 253.579 91.2039 253.49 90.9168C253.14 89.76 253.134 88.5321 253.473 87.3722V87.4506L251.518 84.8003L251.379 84.6077H251.623L254.956 84.7905L254.851 84.8329C255.532 84.0837 256.384 83.4952 257.34 83.1126C258.295 82.7301 259.329 82.5638 260.363 82.6266C261.405 82.6906 262.419 82.9831 263.325 83.4817C264.215 83.9734 264.977 84.6527 265.554 85.4685C266.132 86.2842 266.509 87.2152 266.658 88.1915C266.796 89.1642 266.707 90.1544 266.397 91.0898C266.088 92.0225 265.562 92.8755 264.86 93.5845C264.158 94.2935 263.298 94.84 262.345 95.1827Z" fill="#FDB839"/>
<path d="M188.829 36.5862C192.74 36.5862 195.91 33.4159 195.91 29.505C195.91 25.5942 192.74 22.4239 188.829 22.4239C184.918 22.4239 181.748 25.5942 181.748 29.505C181.748 33.4159 184.918 36.5862 188.829 36.5862Z" fill="#1D3C58"/>
<path d="M192.78 30.4071C191.601 32.7655 188.83 34.1629 188.83 34.1629C188.83 34.1629 186.047 32.7655 184.88 30.4071C183.907 28.4379 184.526 26.3153 186.059 25.8495C188.258 25.1832 188.824 29.0216 188.824 29.0216C188.824 29.0216 189.414 25.1832 191.595 25.8495C193.134 26.3153 193.753 28.4379 192.78 30.4071Z" fill="white"/>
<path d="M318.997 20.7174C320.159 13.7254 315.432 7.11585 308.44 5.95457C301.448 4.79328 294.838 9.52001 293.677 16.512C292.516 23.5041 297.242 30.1137 304.234 31.275C311.226 32.4362 317.836 27.7095 318.997 20.7174Z" fill="#FF6E41"/>
<path fill-rule="evenodd" clip-rule="evenodd" d="M304.388 24.3177C304.01 24.0693 303.676 23.7236 303.168 23.7776C302.963 23.7776 303.006 23.6372 303.006 23.5291C303.006 21.5954 303.006 19.6725 303.006 17.7497C303.006 17.6092 303.006 17.4904 303.168 17.4148C304.637 16.6694 305.264 15.2542 306.16 13.9579C306.618 13.3452 306.949 12.6477 307.134 11.9058C307.32 11.164 307.356 10.3927 307.24 9.63683C307.176 9.20472 307.381 9.01027 307.77 8.92385C307.962 8.86165 308.17 8.86044 308.363 8.92038C308.556 8.98032 308.726 9.09848 308.85 9.25873C309.275 10.0464 309.56 10.9017 309.693 11.7866C309.692 12.5145 309.605 13.2397 309.433 13.9471C309.369 14.4764 309.25 15.0274 309.152 15.5351C309.282 15.6323 309.423 15.5351 309.563 15.5351H314.446C315.137 15.5351 315.526 15.7296 315.526 16.1833C315.58 16.4635 315.54 16.7534 315.413 17.0089C315.286 17.2644 315.079 17.4715 314.824 17.5984C314.694 17.6632 314.478 17.5984 314.467 17.7929C314.457 17.9873 314.673 17.9657 314.792 18.0413C315.375 18.4518 315.267 19.2837 314.597 19.7698C314.424 19.8778 314.111 19.8346 314.1 20.0723C314.089 20.3099 314.403 20.2559 314.532 20.3963C314.641 20.5297 314.716 20.6871 314.752 20.8554C314.787 21.0237 314.782 21.198 314.737 21.3639C314.691 21.5298 314.607 21.6825 314.49 21.8092C314.374 21.9359 314.229 22.033 314.068 22.0924C313.981 22.0924 313.862 22.0924 313.787 22.2112C313.711 22.33 313.625 22.3192 313.787 22.438C313.946 22.5164 314.081 22.6378 314.175 22.7887C314.269 22.9395 314.319 23.1137 314.319 23.2915C314.319 23.4692 314.269 23.6434 314.175 23.7942C314.081 23.9451 313.946 24.0666 313.787 24.1449L313.571 24.3069C313.314 24.4587 313.014 24.5231 312.717 24.4906H305.069C304.828 24.5219 304.585 24.4601 304.388 24.3177Z" fill="white"/>
<path fill-rule="evenodd" clip-rule="evenodd" d="M297.129 20.9363C297.129 19.7156 297.129 18.4949 297.129 17.2742C297.129 17.0257 297.129 16.8961 297.464 16.8961C298.955 16.8961 300.445 16.8961 301.936 16.8961C302.228 16.8961 302.271 16.9933 302.271 17.2526C302.271 19.7156 302.271 22.1786 302.271 24.6417C302.271 24.9549 302.185 25.0413 301.871 25.0413C300.424 25.0413 298.976 25.0413 297.55 25.0413C297.194 25.0413 297.14 24.9225 297.14 24.6092C297.15 23.3885 297.129 22.1678 297.129 20.9363Z" fill="white"/>
<path d="M214.239 118.809C214.239 120.093 213.857 121.349 213.142 122.416C212.428 123.483 211.412 124.313 210.225 124.802C209.037 125.291 207.731 125.416 206.473 125.162C205.214 124.907 204.059 124.285 203.155 123.373C202.25 122.461 201.637 121.301 201.393 120.04C201.149 118.779 201.286 117.474 201.784 116.291C202.283 115.108 203.122 114.099 204.195 113.393C205.268 112.688 206.527 112.317 207.811 112.327C209.521 112.342 211.155 113.031 212.359 114.245C213.563 115.459 214.239 117.099 214.239 118.809Z" fill="#FDB839"/>
<path d="M207.702 114.369C208.289 114.336 208.871 114.5 209.355 114.834C209.758 115.13 210.057 115.546 210.208 116.022C210.254 116.196 210.283 116.373 210.295 116.552C210.295 116.811 210.295 117.07 210.295 117.329C210.295 117.556 210.295 117.772 210.295 117.988C210.295 118.204 210.295 118.086 210.381 118.129C210.504 118.172 210.637 118.172 210.759 118.129L210.954 118.053C211.035 118.017 211.125 118.008 211.212 118.025C211.299 118.042 211.379 118.086 211.44 118.15C211.48 118.191 211.502 118.245 211.502 118.302C211.502 118.358 211.48 118.412 211.44 118.453C211.331 118.554 211.202 118.631 211.062 118.68C210.954 118.68 210.846 118.745 210.738 118.799C210.668 118.826 210.603 118.862 210.543 118.907C210.467 118.959 210.411 119.035 210.383 119.123C210.356 119.212 210.359 119.306 210.392 119.393C210.463 119.613 210.569 119.821 210.705 120.008C210.936 120.378 211.246 120.691 211.613 120.927C211.85 121.077 212.114 121.18 212.391 121.229C212.477 121.229 212.509 121.305 212.477 121.391C212.439 121.469 212.374 121.531 212.293 121.564C212.105 121.666 211.9 121.735 211.688 121.769L211.343 121.845C211.314 121.847 211.287 121.857 211.264 121.875C211.241 121.892 211.223 121.915 211.213 121.942C211.213 122.072 211.213 122.201 211.116 122.32C211.019 122.439 211.051 122.482 210.911 122.461C210.77 122.439 210.587 122.461 210.414 122.396C210.213 122.37 210.01 122.385 209.815 122.439C209.62 122.492 209.438 122.584 209.279 122.709C209.11 122.838 208.933 122.957 208.75 123.066C208.441 123.24 208.088 123.321 207.733 123.3C207.379 123.279 207.038 123.157 206.752 122.947C206.568 122.817 206.406 122.688 206.222 122.579C206.04 122.475 205.837 122.412 205.628 122.396C205.359 122.383 205.09 122.408 204.829 122.471C204.645 122.471 204.623 122.471 204.58 122.309C204.537 122.147 204.58 122.093 204.505 121.985C204.498 121.946 204.478 121.91 204.449 121.883C204.42 121.855 204.382 121.838 204.343 121.834C204.041 121.8 203.746 121.719 203.468 121.596C203.411 121.574 203.36 121.541 203.316 121.499C203.272 121.466 203.239 121.421 203.219 121.37C203.212 121.355 203.208 121.338 203.209 121.322C203.21 121.305 203.215 121.289 203.223 121.275C203.232 121.261 203.244 121.25 203.258 121.242C203.273 121.234 203.289 121.229 203.306 121.229C203.922 121.113 204.469 120.76 204.829 120.246C205.013 120.019 205.165 119.768 205.282 119.501C205.31 119.439 205.329 119.373 205.336 119.306C205.349 119.223 205.337 119.139 205.3 119.063C205.263 118.988 205.204 118.926 205.131 118.885C205.026 118.811 204.909 118.756 204.786 118.723C204.632 118.677 204.486 118.607 204.353 118.518C204.322 118.492 204.293 118.463 204.267 118.431C204.244 118.412 204.226 118.388 204.213 118.361C204.201 118.334 204.194 118.304 204.194 118.275C204.194 118.245 204.201 118.215 204.213 118.188C204.226 118.161 204.244 118.137 204.267 118.118C204.326 118.065 204.401 118.031 204.48 118.021C204.559 118.011 204.639 118.026 204.71 118.064C204.836 118.13 204.978 118.164 205.12 118.161C205.2 118.16 205.279 118.138 205.347 118.096C205.353 118.086 205.356 118.075 205.356 118.064C205.356 118.053 205.353 118.041 205.347 118.032C205.347 117.729 205.347 117.437 205.347 117.135C205.331 116.912 205.331 116.688 205.347 116.465C205.352 116.292 205.385 116.12 205.444 115.957C205.561 115.625 205.75 115.324 205.999 115.075C206.248 114.827 206.549 114.637 206.881 114.521C207.146 114.428 207.422 114.377 207.702 114.369Z" fill="white"/>
<path d="M300.465 85.5908C304.015 85.5908 306.892 82.713 306.892 79.1632C306.892 75.6133 304.015 72.7355 300.465 72.7355C296.915 72.7355 294.037 75.6133 294.037 79.1632C294.037 82.713 296.915 85.5908 300.465 85.5908Z" fill="#263238"/>
<path d="M302.647 76.7325C302.647 77.1598 302.521 77.5775 302.283 77.9328C302.046 78.2881 301.708 78.5651 301.314 78.7286C300.919 78.8921 300.484 78.9349 300.065 78.8515C299.646 78.7682 299.261 78.5624 298.959 78.2602C298.657 77.9581 298.451 77.5731 298.368 77.154C298.284 76.7349 298.327 76.3005 298.491 75.9057C298.654 75.5109 298.931 75.1735 299.286 74.9361C299.642 74.6987 300.059 74.572 300.487 74.572C301.06 74.572 301.609 74.7996 302.014 75.2048C302.42 75.6099 302.647 76.1595 302.647 76.7325Z" fill="white"/>
<path d="M304.172 82.631V83.4196H296.762V82.631C296.762 81.6482 297.152 80.7058 297.847 80.0109C298.542 79.316 299.484 78.9256 300.467 78.9256C301.45 78.9256 302.392 79.316 303.087 80.0109C303.782 80.7058 304.172 81.6482 304.172 82.631Z" fill="white"/>
<path d="M200.071 52.4217C201.047 51.4748 202.32 50.8921 203.676 50.7717C205.032 50.6513 206.388 51.0005 207.517 51.7606C208.645 52.5208 209.477 53.6454 209.872 54.9456C210.268 56.2457 210.202 57.642 209.687 58.8998V58.8011L211.145 61.3478L211.254 61.5356L211.04 61.5006L208.109 61.0517L208.179 61.0295C207.363 61.7663 206.358 62.2623 205.276 62.462C204.739 62.5498 204.192 62.5723 203.65 62.5288C203.103 62.4793 202.566 62.3528 202.055 62.1532C201.548 61.959 201.071 61.6943 200.639 61.3669C200.421 61.2061 200.215 61.0318 200.02 60.8448C199.83 60.6516 199.653 60.4475 199.487 60.2336C198.608 59.0887 198.181 57.6617 198.287 56.2235C198.393 54.7852 199.024 53.4358 200.061 52.4313L200.071 52.4217Z" fill="#FDB839"/>
<path d="M227.855 27.2242C232.867 22.2124 232.867 14.0866 227.855 9.07475C222.843 4.06291 214.717 4.06291 209.706 9.07476C204.694 14.0866 204.694 22.2124 209.706 27.2242C214.717 32.2361 222.843 32.2361 227.855 27.2242Z" fill="#FDB839"/>
<g opacity="0.5">
<path opacity="0.5" d="M224.721 14.6004C224.721 15.1153 224.568 15.6187 224.282 16.0468C223.996 16.4749 223.589 16.8086 223.113 17.0057C222.638 17.2027 222.114 17.2543 221.609 17.1538C221.104 17.0534 220.64 16.8054 220.276 16.4413C219.912 16.0772 219.664 15.6133 219.564 15.1083C219.463 14.6033 219.515 14.0798 219.712 13.6041C219.909 13.1284 220.243 12.7218 220.671 12.4357C221.099 12.1496 221.602 11.9969 222.117 11.9969C222.459 11.9969 222.798 12.0643 223.113 12.1951C223.429 12.326 223.716 12.5177 223.958 12.7595C224.2 13.0012 224.392 13.2882 224.522 13.6041C224.653 13.92 224.721 14.2585 224.721 14.6004Z" fill="black"/>
<path opacity="0.5" d="M226.612 21.7842V22.7348H217.613V21.7842C217.67 20.629 218.169 19.5399 219.006 18.7424C219.844 17.9448 220.956 17.5 222.113 17.5C223.269 17.5 224.381 17.9448 225.219 18.7424C226.057 19.5399 226.555 20.629 226.612 21.7842Z" fill="black"/>
</g>
<path d="M234.957 13.8067C234.957 14.3216 234.804 14.825 234.518 15.2531C234.232 15.6813 233.825 16.0149 233.35 16.212C232.874 16.409 232.351 16.4606 231.846 16.3602C231.341 16.2597 230.877 16.0117 230.513 15.6476C230.148 15.2835 229.9 14.8196 229.8 14.3146C229.7 13.8096 229.751 13.2861 229.948 12.8104C230.145 12.3347 230.479 11.9281 230.907 11.642C231.335 11.356 231.839 11.2033 232.353 11.2033C233.044 11.2033 233.706 11.4776 234.194 11.9658C234.683 12.454 234.957 13.1162 234.957 13.8067Z" fill="white"/>
<path d="M219.946 23.3401V24.3016H210.947V23.3401C211.004 22.185 211.503 21.0958 212.34 20.2983C213.178 19.5008 214.29 19.0559 215.447 19.0559C216.603 19.0559 217.715 19.5008 218.553 20.2983C219.391 21.0958 219.889 22.185 219.946 23.3401Z" fill="white"/>
<path d="M191.305 86.7575C191.305 88.0394 190.925 89.2926 190.213 90.3585C189.501 91.4244 188.488 92.2551 187.304 92.7457C186.119 93.2363 184.816 93.3647 183.559 93.1146C182.302 92.8645 181.147 92.2472 180.24 91.3407C179.334 90.4342 178.716 89.2793 178.466 88.022C178.216 86.7647 178.345 85.4614 178.835 84.2771C179.326 83.0927 180.157 82.0804 181.222 81.3682C182.288 80.656 183.541 80.2758 184.823 80.2758C186.542 80.2758 188.191 80.9587 189.407 82.1743C190.622 83.3898 191.305 85.0384 191.305 86.7575Z" fill="#FF6E41"/>
<path d="M182.393 88.9072H181.864C181.706 88.9072 181.555 88.8446 181.444 88.7332C181.332 88.6217 181.27 88.4706 181.27 88.313C181.27 88.1555 181.332 88.0043 181.444 87.8929C181.555 87.7815 181.706 87.7189 181.864 87.7189H182.598L182.933 85.742H182.274C182.118 85.7391 181.97 85.6753 181.861 85.5642C181.752 85.4531 181.691 85.3036 181.691 85.1478C181.694 84.9929 181.755 84.845 181.864 84.7344C181.973 84.6239 182.119 84.5592 182.274 84.5537H183.138L183.365 83.2033C183.389 83.0641 183.462 82.9382 183.571 82.8488C183.68 82.7594 183.818 82.7126 183.959 82.7172C184.046 82.7179 184.131 82.737 184.209 82.7733C184.288 82.8097 184.357 82.8624 184.414 82.9279C184.47 82.9934 184.512 83.0702 184.536 83.1531C184.56 83.236 184.566 83.3231 184.554 83.4086L184.348 84.5537H186.131L186.358 83.2033C186.381 83.0622 186.456 82.9347 186.568 82.8451C186.679 82.7555 186.82 82.7099 186.963 82.7172C187.049 82.7176 187.133 82.7367 187.211 82.7731C187.289 82.8096 187.358 82.8625 187.414 82.9282C187.469 82.9939 187.51 83.071 187.533 83.1539C187.555 83.2368 187.56 83.3237 187.546 83.4086L187.351 84.5537H187.881C188.036 84.5565 188.185 84.6204 188.294 84.7315C188.403 84.8426 188.464 84.9921 188.464 85.1478C188.464 85.3036 188.403 85.4531 188.294 85.5642C188.185 85.6753 188.036 85.7391 187.881 85.742H187.146L186.811 87.7189H187.459C187.537 87.7189 187.614 87.7343 187.685 87.7643C187.757 87.7943 187.822 87.8382 187.876 87.8935C187.93 87.9489 187.973 88.0144 188.002 88.0865C188.03 88.1585 188.044 88.2355 188.043 88.313C188.043 88.4688 187.982 88.6183 187.873 88.7294C187.764 88.8405 187.615 88.9044 187.459 88.9072H186.606L186.358 90.3007C186.337 90.44 186.266 90.5671 186.159 90.6584C186.052 90.7497 185.915 90.7992 185.774 90.7977C185.687 90.7972 185.601 90.7779 185.521 90.7409C185.442 90.7039 185.372 90.6502 185.315 90.5835C185.259 90.5167 185.218 90.4386 185.194 90.3543C185.171 90.2701 185.166 90.1818 185.18 90.0955L185.396 88.9072H183.603L183.365 90.3007C183.352 90.378 183.323 90.4519 183.281 90.5182C183.239 90.5845 183.184 90.6418 183.12 90.687C183.056 90.7321 182.984 90.7642 182.907 90.7813C182.83 90.7984 182.751 90.8003 182.674 90.7868C182.597 90.7734 182.523 90.7448 182.456 90.7028C182.39 90.6607 182.333 90.606 182.288 90.5418C182.243 90.4776 182.21 90.4052 182.193 90.3286C182.176 90.252 182.174 90.1728 182.188 90.0955L182.393 88.9072ZM185.634 87.7189L185.98 85.742H184.197L183.851 87.7189H185.634Z" fill="white"/>
<path d="M242.167 50.0355C243.766 46.8661 242.493 43.0006 239.324 41.4017C236.154 39.8028 232.289 41.076 230.69 44.2454C229.091 47.4148 230.364 51.2803 233.534 52.8792C236.703 54.4781 240.569 53.2049 242.167 50.0355Z" fill="#1D3C58"/>
<path d="M235.92 42.8985C235.366 42.9645 234.83 43.1389 234.344 43.4118C233.857 43.6848 233.429 44.0509 233.084 44.4892C232.739 44.9276 232.484 45.4296 232.333 45.9667C232.181 46.5038 232.138 47.0653 232.204 47.6193C232.27 48.1732 232.444 48.7088 232.717 49.1954C232.99 49.6819 233.356 50.11 233.794 50.455C234.233 50.8001 234.735 51.0555 235.272 51.2065C235.809 51.3576 236.37 51.4014 236.924 51.3354C237.27 51.3027 237.608 51.2189 237.929 51.0869C237.977 51.0741 238.023 51.0509 238.061 51.0189C238.1 50.9869 238.131 50.9469 238.152 50.9017C238.174 50.8565 238.185 50.8072 238.186 50.7571C238.187 50.707 238.176 50.6573 238.156 50.6116C238.146 50.5704 238.127 50.5318 238.101 50.4983C238.075 50.4648 238.042 50.4372 238.005 50.4172C237.954 50.3932 237.899 50.3807 237.843 50.3807C237.787 50.3807 237.731 50.3932 237.681 50.4172C237.409 50.5157 237.126 50.5774 236.838 50.6008C236.383 50.6547 235.921 50.6184 235.48 50.4939C235.038 50.3695 234.626 50.1593 234.266 49.8754C233.906 49.5915 233.605 49.2395 233.381 48.8394C233.157 48.4393 233.014 47.999 232.96 47.5436C232.906 47.0883 232.942 46.6267 233.067 46.1854C233.191 45.744 233.401 45.3315 233.685 44.9714C233.969 44.6113 234.321 44.3106 234.721 44.0865C235.121 43.8625 235.562 43.7194 236.017 43.6655C236.471 43.6112 236.931 43.647 237.371 43.7708C237.812 43.8945 238.223 44.1039 238.582 44.3868C238.941 44.6698 239.241 45.0207 239.465 45.4197C239.688 45.8186 239.831 46.2577 239.884 46.7118C239.965 47.2632 239.898 47.826 239.69 48.343C239.594 48.6178 239.397 48.8457 239.139 48.9804H239.063C239.014 48.9954 238.961 48.9954 238.912 48.9804C238.869 48.91 238.836 48.8335 238.815 48.7536C238.718 48.3431 238.61 47.0467 238.61 47.0359V46.8631C238.542 46.2901 238.25 45.7673 237.797 45.4097C237.345 45.0521 236.768 44.8891 236.195 44.9564C235.622 45.0237 235.099 45.3159 234.742 45.7687C234.384 46.2215 234.221 46.7978 234.289 47.3708C234.346 47.9692 234.637 48.5209 235.098 48.9069C235.558 49.2929 236.152 49.4823 236.752 49.4341C237.289 49.3689 237.781 49.0979 238.124 48.6779V48.8724C238.152 49.0897 238.246 49.2932 238.394 49.4557C238.493 49.5612 238.617 49.6409 238.755 49.688C238.892 49.735 239.039 49.748 239.182 49.7258C239.265 49.7348 239.348 49.7348 239.431 49.7258C239.886 49.5039 240.241 49.1181 240.424 48.6455C240.655 48.0136 240.729 47.3354 240.641 46.6686C240.582 46.1097 240.412 45.5681 240.142 45.0752C239.872 44.5823 239.507 44.1479 239.068 43.7972C238.629 43.4465 238.124 43.1864 237.584 43.0322C237.044 42.8779 236.478 42.8325 235.92 42.8985ZM236.6 48.6455C236.199 48.682 235.799 48.5602 235.486 48.3061C235.174 48.052 234.972 47.6857 234.926 47.2854C234.879 46.8851 234.991 46.4824 235.237 46.1633C235.484 45.8443 235.845 45.6341 236.244 45.5776C236.635 45.5563 237.018 45.6874 237.315 45.9433C237.611 46.1991 237.796 46.5598 237.832 46.9495C237.891 47.3374 237.795 47.733 237.564 48.0505C237.334 48.368 236.987 48.5818 236.6 48.6455Z" fill="white"/>
<path d="M390.767 220.225C388.412 221.132 320.02 222.386 317.309 220.852C317.017 220.679 317.093 217.611 316.088 209.844C316.088 209.476 314.478 208.029 312.048 205.987C302.898 198.317 281.4 182.156 281.4 182.156L315.613 152.503L348.691 185.008L357.333 193.467C357.333 193.467 385.279 208.59 388.045 210.546C390.81 212.501 393.122 219.274 390.767 220.225Z" fill="#CF8170"/>
<path d="M390.769 220.225C388.414 221.133 320.012 222.386 317.311 220.852C317.019 220.679 317.106 217.665 316.09 209.844C316.09 209.477 314.481 208.029 312.039 205.976C308.863 203.319 307.351 202.098 302.619 198.415L346.014 182.459L348.617 185.019L357.259 193.467C357.259 193.467 385.206 208.591 387.971 210.546C390.737 212.501 393.124 219.275 390.769 220.225Z" fill="#EBEBEB"/>
<path d="M395.488 221.176C393.111 221.997 320.236 222.796 317.611 221.176C316.995 220.797 316.423 216.574 315.969 210.773C315.915 210.038 308.537 204.14 307.521 203.049L352.18 188.011L357.819 193.315C357.819 193.315 390.681 208.612 393.371 210.686C396.061 212.76 397.854 220.355 395.488 221.176Z" fill="#263238"/>
<path d="M394.473 218.453C383.022 218.302 332.239 218.788 320.907 219.534C320.82 219.534 320.82 219.609 320.907 219.609C332.249 219.998 383.033 219.145 394.473 218.659C394.711 218.626 394.711 218.453 394.473 218.453Z" fill="#FDB839"/>
<path d="M361.459 193.801C356.954 193.013 351.445 193.801 348.042 197.042C347.913 197.172 348.096 197.356 348.237 197.312C352.524 195.872 356.953 194.894 361.448 194.396C361.527 194.397 361.603 194.367 361.66 194.312C361.717 194.258 361.749 194.183 361.751 194.104C361.752 194.025 361.722 193.949 361.668 193.892C361.613 193.836 361.538 193.803 361.459 193.801Z" fill="#FDB839"/>
<path d="M364.735 195.714C360.23 194.925 354.72 195.714 351.318 198.954C351.188 199.084 351.372 199.268 351.512 199.225C355.798 197.779 360.228 196.801 364.724 196.308C364.803 196.309 364.879 196.279 364.935 196.225C364.992 196.17 365.025 196.095 365.026 196.016C365.028 195.937 364.998 195.861 364.943 195.804C364.888 195.748 364.813 195.715 364.735 195.714Z" fill="#FDB839"/>
<path d="M368.017 197.669C363.501 196.88 358.003 197.669 354.589 200.91C354.459 201.039 354.643 201.223 354.784 201.18C359.073 199.733 363.506 198.755 368.006 198.263C368.085 198.264 368.161 198.234 368.218 198.18C368.274 198.125 368.307 198.05 368.309 197.971C368.31 197.892 368.28 197.816 368.225 197.76C368.171 197.703 368.096 197.67 368.017 197.669Z" fill="#FDB839"/>
<path d="M371.292 199.559C366.777 198.771 361.278 199.559 357.864 202.8C357.735 202.93 357.918 203.114 358.059 203.06C362.35 201.622 366.783 200.647 371.281 200.154C371.36 200.155 371.436 200.125 371.493 200.07C371.55 200.016 371.582 199.941 371.584 199.862C371.585 199.783 371.555 199.707 371.501 199.65C371.446 199.594 371.371 199.561 371.292 199.559Z" fill="#FDB839"/>
<path d="M369.627 183.28C367.834 180.871 364.55 182.005 362.692 183.604C359.541 186.408 357.189 189.998 355.875 194.007C355.875 194.093 355.875 194.147 355.983 194.169C355.981 194.256 356 194.343 356.038 194.422C356.076 194.501 356.132 194.57 356.201 194.623C356.27 194.677 356.351 194.713 356.437 194.73C356.523 194.747 356.612 194.743 356.696 194.72C360.391 193.294 364.528 192.235 367.682 189.718C369.562 188.249 371.366 185.57 369.627 183.28ZM361.86 191.414C360.056 192.159 358.23 192.808 356.458 193.575C357.726 191.51 359.1 189.512 360.574 187.59C361.293 186.664 362.08 185.794 362.929 184.986C364.247 183.744 369.53 181.087 368.795 186.067C368.417 188.811 364.053 190.528 361.892 191.414H361.86Z" fill="#FDB839"/>
<path d="M344.445 192.959C348.172 194.504 352.439 194.374 356.393 194.709C356.481 194.708 356.568 194.687 356.646 194.646C356.725 194.606 356.792 194.547 356.844 194.476C356.895 194.404 356.929 194.322 356.943 194.235C356.957 194.147 356.95 194.058 356.923 193.975C356.94 193.968 356.956 193.958 356.969 193.944C356.981 193.931 356.991 193.914 356.996 193.896C357.001 193.878 357.002 193.86 356.999 193.841C356.995 193.823 356.988 193.806 356.977 193.791C354.598 190.309 351.346 187.515 347.546 185.689C345.31 184.673 341.842 184.49 340.783 187.32C339.725 190.15 342.263 192.062 344.445 192.959ZM342.371 189.772C340.286 185.224 346.087 186.305 347.708 187.126C348.744 187.677 349.743 188.294 350.7 188.973C352.699 190.366 354.47 192.008 356.318 193.586C354.384 193.294 352.439 193.186 350.506 192.97C348.194 192.721 343.516 192.268 342.371 189.772Z" fill="#FDB839"/>
<path d="M349.102 183.193L306.971 205.058C306.971 205.058 263.015 165.272 258.985 164.98C254.956 164.688 195.822 204.809 166.082 204.95C135.24 205.08 133.674 172.779 133.674 172.779L178.656 162.452C211.065 146.464 244.845 117.772 266.936 120.451C290.875 123.335 349.102 183.193 349.102 183.193Z" fill="#FF6E41"/>
<path d="M338.807 177.63C331.688 181.152 333.686 180.05 326.6 183.636C323.132 185.397 305.686 194.201 302.726 196.384C302.661 196.384 302.726 196.546 302.801 196.524C306.28 195.357 323.532 186.175 326.967 184.349C333.989 180.633 331.936 181.627 338.915 177.868C338.931 177.861 338.945 177.85 338.956 177.838C338.968 177.825 338.977 177.811 338.983 177.795C338.989 177.779 338.992 177.762 338.991 177.744C338.991 177.727 338.987 177.71 338.98 177.695C338.973 177.679 338.963 177.665 338.95 177.653C338.937 177.642 338.923 177.633 338.907 177.627C338.891 177.621 338.874 177.618 338.856 177.618C338.839 177.619 338.822 177.623 338.807 177.63Z" fill="#263238"/>
<path d="M299.409 194.979C291.166 187.709 264.138 164.029 263.036 163.154C262.187 162.327 261.245 161.602 260.227 160.994C259.806 160.828 259.352 160.762 258.901 160.799C258.449 160.836 258.012 160.977 257.624 161.21C256.371 161.793 255.15 162.43 253.908 163.035L246.594 166.6C237.142 171.224 227.744 175.955 218.216 180.417C209.055 184.738 202.519 188.746 192.948 192.041C183.441 195.399 173.607 197.745 163.608 199.041C162.366 199.192 161.134 199.322 159.903 199.441C159.891 199.436 159.879 199.434 159.866 199.436C159.854 199.437 159.842 199.441 159.832 199.448C159.822 199.455 159.813 199.464 159.808 199.475C159.802 199.486 159.799 199.498 159.799 199.511C159.799 199.523 159.802 199.535 159.808 199.546C159.813 199.557 159.822 199.566 159.832 199.573C159.842 199.58 159.854 199.585 159.866 199.586C159.879 199.587 159.891 199.586 159.903 199.581C169.718 198.985 179.421 197.171 188.789 194.18C198.263 191.274 204.691 187.482 213.7 183.377C223.023 179.056 232.216 174.486 241.42 169.917C246.27 167.508 251.142 165.077 255.982 162.69C257.062 162.15 258.661 160.972 259.925 161.555C260.452 161.851 260.939 162.214 261.372 162.636L262.993 163.986C265.089 165.725 298.21 194.234 299.301 195.076C299.409 195.163 299.538 195.055 299.409 194.979Z" fill="#263238"/>
<path d="M133.535 172.758C133.535 172.758 128.49 201.925 143.074 213.387C157.658 224.849 264.518 223.466 280.733 218.194C296.948 212.922 297.456 186.791 279.728 180.73C262.876 174.962 191.146 172.153 189.385 171.451C188.942 171.278 195.737 167.195 195.715 166.946L179.393 162.02L133.535 172.758Z" fill="#FF6E41"/>
<path d="M155.668 172.023C155.668 171.894 155.462 171.937 155.462 172.023C155.46 175.414 154.263 178.696 152.081 181.292C149.607 184.155 145.945 185.764 142.629 187.439C142.305 187.601 142.542 188.098 142.877 188.001C144.916 187.376 146.88 186.528 148.732 185.473C150.437 184.568 151.938 183.321 153.14 181.811C154.217 180.444 154.998 178.868 155.433 177.183C155.868 175.498 155.948 173.741 155.668 172.023Z" fill="#263238"/>
<path d="M188.208 168.404C187.463 167.465 186.664 166.557 185.886 165.639C184.06 163.478 182.224 161.318 180.312 159.157C180.128 158.963 179.771 159.244 179.944 159.46C181.23 161.145 182.591 162.776 183.941 164.418C184.622 165.261 185.313 166.103 186.015 166.935C186.737 167.688 187.385 168.51 187.949 169.387C188.055 169.575 188.11 169.788 188.108 170.004C188.106 170.219 188.047 170.431 187.938 170.617C187.828 170.803 187.672 170.957 187.484 171.063C187.297 171.17 187.085 171.225 186.869 171.224C186.01 171.251 185.174 170.946 184.535 170.371C183.086 169.087 181.763 167.669 180.582 166.136C179.804 165.272 179.037 164.407 178.259 163.554C177.481 162.701 176.541 161.782 175.71 160.875C175.71 160.821 175.558 160.875 175.602 160.961C176.325 161.955 176.995 162.992 177.762 163.986C178.529 164.98 179.22 165.963 179.977 166.946C180.733 167.929 181.413 168.772 182.137 169.658C182.764 170.442 183.516 171.117 184.363 171.656C185.745 172.466 188.154 172.65 188.9 170.857C189.007 170.423 189 169.969 188.879 169.539C188.758 169.109 188.527 168.718 188.208 168.404Z" fill="#263238"/>
<path d="M278.517 218.324C272.932 218.432 267.358 218.756 261.773 218.875C256.188 218.994 250.69 219.015 245.159 218.972C234.032 218.864 222.916 218.432 211.811 217.676C200.597 216.898 188.498 215.774 177.361 214.24C172.035 213.495 166.623 212.879 161.362 211.745C156.62 210.836 152.237 208.586 148.733 205.263C141.517 198.263 138.719 187.979 137.563 178.138C137.412 176.82 137.283 175.502 137.175 174.173C137.175 174.156 137.168 174.14 137.156 174.127C137.143 174.115 137.127 174.108 137.11 174.108C137.093 174.108 137.076 174.115 137.064 174.127C137.052 174.14 137.045 174.156 137.045 174.173C137.693 184.252 139.259 194.763 145.601 202.865C148.28 206.398 151.842 209.162 155.928 210.881C160.919 212.879 166.45 213.344 171.722 214.068C182.902 215.58 195.045 216.747 206.29 217.622C217.536 218.497 228.976 219.048 240.308 219.221C251.64 219.393 262.994 219.221 274.358 218.67C275.741 218.594 277.124 218.518 278.507 218.4C278.593 218.443 278.593 218.324 278.517 218.324Z" fill="#263238"/>
<path d="M243.323 175.448C239.801 174.929 236.301 174.368 232.769 174.054C229.236 173.741 225.628 173.363 222.052 173.06C214.977 172.466 207.89 171.926 200.803 171.591C196.774 171.408 192.755 171.386 188.726 171.44C188.596 171.44 188.607 171.624 188.726 171.634C195.813 172.272 202.91 172.715 210.007 173.19C217.105 173.665 224.159 174.27 231.235 174.962C235.243 175.34 239.25 175.642 243.258 175.966C243.561 175.988 243.615 175.491 243.323 175.448Z" fill="#263238"/>
<path d="M196.547 166.622C193.719 167.832 190.998 169.278 188.412 170.943C185.771 172.52 183.244 174.282 180.851 176.215C180.786 176.269 180.851 176.355 180.937 176.323C183.692 175.048 186.338 173.449 188.974 171.915C191.644 170.425 194.22 168.773 196.687 166.968C196.882 166.871 196.785 166.525 196.547 166.622Z" fill="#263238"/>
<path d="M227.183 74.9501L216.974 103.685C216.872 103.842 216.813 104.023 216.803 104.21C216.792 104.396 216.83 104.583 216.912 104.75C216.995 104.918 217.12 105.061 217.275 105.166C217.429 105.271 217.609 105.334 217.795 105.349L232.994 106.786C233.462 106.793 233.921 106.667 234.321 106.425C234.72 106.182 235.043 105.832 235.252 105.414L245.461 76.6786C245.861 75.8359 245.461 75.0906 244.64 75.0149L229.44 73.5782C228.973 73.5688 228.512 73.6929 228.112 73.9358C227.712 74.1788 227.39 74.5306 227.183 74.9501Z" fill="#1D3C58"/>
<path d="M228.987 75.1121L218.778 103.869C218.679 104.026 218.622 104.205 218.613 104.39C218.603 104.576 218.642 104.76 218.724 104.926C218.807 105.092 218.93 105.234 219.084 105.338C219.237 105.443 219.414 105.506 219.599 105.522L234.798 106.926C235.265 106.935 235.724 106.812 236.124 106.571C236.523 106.33 236.847 105.982 237.056 105.565L247.265 76.8081C247.665 75.9655 247.265 75.2309 246.444 75.1445L231.244 73.7077C230.773 73.7026 230.311 73.832 229.911 74.0808C229.511 74.3295 229.19 74.6873 228.987 75.1121Z" fill="#FF6E41"/>
<path d="M233.027 76.8515C232.976 77.1836 232.798 77.4826 232.529 77.6845C232.26 77.8864 231.924 77.9752 231.59 77.9318C231.415 77.9208 231.243 77.874 231.086 77.7944C230.928 77.7148 230.789 77.604 230.676 77.4687C230.563 77.3335 230.479 77.1766 230.429 77.0077C230.379 76.8388 230.363 76.6615 230.384 76.4865C230.404 76.3115 230.461 76.1425 230.549 75.9899C230.637 75.8373 230.755 75.7043 230.896 75.5989C231.037 75.4936 231.199 75.4181 231.37 75.3771C231.541 75.3362 231.719 75.3306 231.893 75.3607C232.067 75.3789 232.236 75.4327 232.389 75.5188C232.542 75.6048 232.676 75.7212 232.782 75.8609C232.889 76.0005 232.965 76.1605 233.007 76.3308C233.049 76.5012 233.056 76.6784 233.027 76.8515Z" fill="#263238"/>
<path d="M172.716 120.624C181.661 138.881 201.452 162.452 209.446 162.431C213.27 162.431 220.097 163.208 225.034 158.736C235.837 149.014 245.365 131.254 247.72 121.423C248.595 117.74 228.696 108.46 226.114 111.571C219.913 118.809 212.859 132.853 211.747 132.853C207.588 132.55 191.383 119.447 179.976 110.167C166.17 98.997 169.141 113.408 172.716 120.624Z" fill="#CF8170"/>
<path d="M249.599 103.988C248.465 96.264 246.985 94.4491 249.502 87.4274C251.144 82.8146 248.908 79.779 245.181 83.2359C239.055 88.8749 238.418 99.1483 239.218 102.778L249.599 103.988Z" fill="#CF8170"/>
<path d="M245.947 126.252C245.947 126.252 250.397 116.108 250.009 107.747C249.738 101.979 247.751 89.469 232.487 81.3993C228.868 79.4872 222.354 79.3252 227.085 84.6401C230.477 88.3887 233.761 89.739 235.338 92.2777C235.338 92.2777 227.031 93.0555 225.249 96.7608C223.699 99.9951 222.378 103.334 221.295 106.753C221.88 107.095 222.486 107.398 223.11 107.661C223.11 107.661 221.554 111.182 223.715 116.627L245.947 126.252Z" fill="#CF8170"/>
<path d="M248.864 102.281C246.768 100.121 242.252 95.5294 237.251 93.0772C231.698 90.3657 220.269 86.5956 218.303 90.7438C216.866 93.7686 221.101 95.5726 221.101 95.5726C221.101 95.5726 216.056 95.0217 215.353 98.0356C214.705 100.78 218.065 101.989 218.065 101.989C218.065 101.989 214.954 102.184 214.824 104.949C214.695 108.266 221.252 107.315 224.028 110.804C224.676 111.582 248.864 102.281 248.864 102.281Z" fill="#CF8170"/>
<path d="M235.361 99.429C231.154 96.7096 226.217 95.3378 221.21 95.4968C221.08 95.4968 221.026 95.6048 221.134 95.6264C226.004 96.3313 230.771 97.6263 235.329 99.483C235.329 99.483 235.383 99.4398 235.361 99.429Z" fill="#263238"/>
<path d="M232.433 104.949C228.01 102.654 223.05 101.594 218.076 101.881C217.946 101.881 217.892 102 218.011 102.011C222.917 102.457 227.755 103.461 232.433 105.003C232.433 105.003 232.433 104.971 232.433 104.949Z" fill="#263238"/>
<path d="M178.506 134.527L201.192 125.485C201.192 125.485 180.786 107.942 173.332 104.474C164.938 100.574 164.776 105.716 167.725 114.013C170.674 122.309 178.506 134.527 178.506 134.527Z" fill="#FDB839"/>
<path d="M178.506 134.527L201.192 125.485C201.192 125.485 180.786 107.942 173.332 104.474C164.938 100.574 164.776 105.716 167.725 114.013C170.674 122.309 178.506 134.527 178.506 134.527Z" fill="#FDB839"/>
<path d="M196.448 122.72C195.606 122.914 188.476 125.615 186.942 126.241C185.408 126.868 179.089 129.342 177.555 130.109C177.543 130.114 177.533 130.122 177.526 130.133C177.519 130.143 177.516 130.156 177.516 130.168C177.516 130.181 177.519 130.193 177.526 130.204C177.533 130.214 177.543 130.223 177.555 130.228C179.197 129.752 185.57 127.278 187.147 126.673C188.725 126.069 195.725 123.238 196.448 122.828C196.463 122.828 196.477 122.822 196.487 122.812C196.497 122.802 196.503 122.788 196.503 122.774C196.503 122.759 196.497 122.746 196.487 122.735C196.477 122.725 196.463 122.72 196.448 122.72Z" fill="#263238"/>
<path d="M187.278 131.038L178.506 134.516C178.506 134.516 170.728 122.298 167.779 113.991C165.618 107.931 165.132 103.545 168.297 103.188L187.278 131.038Z" fill="#263238"/>
<path d="M194.202 166.103L132.205 178.224C132.108 176.939 136.353 138.481 141.528 123.876C148.16 105.165 152.46 103.232 155.009 101.978C158.25 100.369 164.408 100.282 165.931 100.801C167.648 101.384 173.871 109.864 176.485 116.314C181.735 129.255 194.947 165.196 194.202 166.103Z" fill="#FDB839"/>
<path opacity="0.1" d="M167.736 102.357L150.332 105.738C150.746 105.226 151.186 104.735 151.65 104.269L166.774 101.352C167.113 101.669 167.434 102.004 167.736 102.357ZM169.442 104.398L148.399 108.471C148.14 108.881 147.869 109.335 147.599 109.821L170.22 105.446C169.95 105.079 169.702 104.766 169.442 104.398ZM171.679 107.52L146.206 112.446L145.579 113.775L172.359 108.59C172.143 108.222 171.938 107.877 171.679 107.52ZM173.656 110.707L144.434 116.368C144.251 116.789 144.067 117.232 143.894 117.686L174.271 111.798C174.098 111.442 173.872 111.064 173.656 110.707ZM175.416 113.948L142.868 120.246C142.706 120.667 142.555 121.088 142.382 121.531L175.935 115.05C175.773 114.682 175.6 114.304 175.416 113.948ZM176.864 117.189L141.463 124.048C141.312 124.459 141.172 124.88 141.031 125.334L177.339 118.334C177.145 117.956 176.994 117.578 176.864 117.221V117.189ZM178.171 120.505L140.286 127.84C140.178 128.261 140.048 128.683 139.94 129.115L178.603 121.629C178.42 121.283 178.312 120.905 178.171 120.538V120.505ZM179.457 123.822L139.335 131.6C139.227 131.999 139.13 132.421 139.033 132.853L179.878 124.934C179.727 124.599 179.597 124.21 179.5 123.854L179.457 123.822ZM180.721 127.149L138.449 135.359L138.19 136.612L181.12 128.305C181.001 127.916 180.872 127.548 180.721 127.181V127.149ZM181.984 130.476L137.693 139.043L137.456 140.296L182.373 131.654C182.265 131.265 182.114 130.876 181.984 130.508V130.476ZM183.227 133.803L137.034 142.748C136.959 143.148 136.894 143.569 136.829 143.99L183.648 134.916C183.497 134.581 183.367 134.203 183.227 133.836V133.803ZM184.458 137.12L136.397 146.442C136.321 146.853 136.257 147.263 136.181 147.674L184.901 138.254C184.739 137.908 184.599 137.541 184.458 137.174V137.12ZM185.69 140.458L135.792 150.18C135.727 150.601 135.652 151.012 135.587 151.423L186.1 141.635C185.981 141.225 185.819 140.857 185.69 140.49V140.458ZM186.91 143.785L135.209 153.832C135.144 154.231 135.079 154.653 135.025 155.063L187.289 144.941C187.181 144.574 187.062 144.185 186.91 143.817V143.785ZM188.099 147.123L134.679 157.472C134.679 157.893 134.561 158.293 134.506 158.704L188.52 148.247C188.369 147.912 188.239 147.534 188.142 147.155L188.099 147.123ZM189.298 150.461L134.204 161.145C134.204 161.555 134.085 161.966 134.031 162.366L189.719 151.563C189.568 151.217 189.428 150.872 189.298 150.493V150.461ZM190.465 153.799L133.685 164.829C133.628 165.254 133.574 165.664 133.523 166.06L190.853 154.955C190.735 154.577 190.594 154.21 190.465 153.832V153.799ZM191.62 157.148L133.221 168.502C133.221 168.912 133.124 169.333 133.081 169.722L192.009 158.315C191.88 157.947 191.761 157.558 191.62 157.18V157.148ZM192.701 160.497L132.767 172.11C132.767 172.542 132.659 172.942 132.627 173.33L193.122 161.62L192.701 160.497ZM193.781 163.867L132.411 175.75C132.411 176.226 132.335 176.647 132.303 176.982L194.083 165.012C193.997 164.721 193.9 164.332 193.77 163.9L193.781 163.867Z" fill="#030402"/>
<path d="M149.923 106.267C128.728 128.337 97.8213 184.22 93.9971 192.268C91.4044 197.669 119.837 212.037 121.004 208.083C122.549 203.016 147.319 140.479 153.909 116.886C157.571 103.837 154.309 101.708 149.923 106.267Z" fill="#CF8170"/>
<path d="M122.386 204.312C121.392 207.024 118.065 218.529 115.656 219.966C113.247 221.402 100.899 221.046 94.6552 221.046C88.4113 221.046 87.1797 219.307 87.2878 217.157C87.3958 215.007 100.489 214.597 100.489 214.597C100.489 214.597 82.9883 219.609 78.5808 220.43C74.1733 221.251 64.0403 223.811 62.5712 220.16C61.9122 218.518 64.7317 216.844 64.7317 216.844C64.7317 216.844 60.4754 218.097 59.7949 215.979C59.0279 213.57 62.4091 212.242 62.4091 212.242C62.4091 212.242 59.7516 212.771 59.6868 210.816C59.5464 206.43 76.1934 204.269 76.1934 204.269C76.1934 204.269 63.4462 210.481 63.0357 206.894C62.4307 201.99 88.5517 196.589 91.274 194.428C93.0401 192.914 94.5059 191.082 95.5951 189.027L122.386 204.312Z" fill="#CF8170"/>
<path d="M87.3754 218.291C87.3315 217.985 87.3627 217.673 87.4662 217.381C87.5697 217.089 87.7424 216.827 87.9695 216.617C88.4183 216.206 88.9332 215.873 89.4927 215.634C90.6455 215.134 91.8426 214.743 93.0684 214.467C95.5314 213.841 98.0593 213.387 100.566 212.75C97.9677 212.712 95.3757 213.006 92.8524 213.625C91.5669 213.914 90.3299 214.387 89.1794 215.029C88.5802 215.359 88.0545 215.807 87.6347 216.347C87.4317 216.623 87.3015 216.946 87.2562 217.286C87.2109 217.626 87.2519 217.972 87.3754 218.291Z" fill="#263238"/>
<path d="M64.6895 216.887C66.4827 216.455 68.2652 215.947 70.0908 215.429C71.9165 214.91 73.6233 214.348 75.3841 213.841L80.6559 212.188C82.4131 211.64 84.1776 211.1 85.9492 210.567C84.1072 210.767 82.2809 211.092 80.483 211.54C78.679 211.95 76.8965 212.469 75.0817 213.009C73.2668 213.549 71.56 214.089 69.8316 214.791C68.1031 215.493 66.3639 216.109 64.6895 216.887Z" fill="#263238"/>
<path d="M81.6697 206.192C79.9695 206.302 78.2797 206.537 76.614 206.895C74.9474 207.229 73.2996 207.651 71.6772 208.158C70.0491 208.665 68.4513 209.263 66.8916 209.952C65.3294 210.621 63.8168 211.401 62.3652 212.285C63.9748 211.723 65.5412 211.108 67.14 210.578C68.7388 210.049 70.3809 209.498 71.9364 209.001C73.492 208.504 75.1773 208.018 76.7761 207.543C78.3749 207.067 80.0277 206.635 81.6697 206.192Z" fill="#263238"/>
<path d="M79.0904 201.99C76.3488 202.203 73.6468 202.773 71.0531 203.686C68.4427 204.551 65.9581 205.757 63.6641 207.273C66.2459 206.355 68.763 205.372 71.334 204.518C73.905 203.665 76.4869 202.854 79.0904 201.99Z" fill="#263238"/>
<path d="M128.65 129.137L152.503 129.979C154.212 123.992 155.611 117.919 156.694 111.787C157.893 103.005 154.912 100.499 146.713 107.628C141.214 112.403 128.65 129.137 128.65 129.137Z" fill="#FDB839"/>
<path d="M149.598 129.882C150.559 129.833 151.522 129.833 152.482 129.882C152.828 128.51 153.163 127.138 153.563 125.777C153.743 125.1 153.937 124.419 154.146 123.735C154.373 123 154.589 122.136 154.794 121.477C154.794 121.38 154.956 121.402 154.935 121.477C154.762 122.363 154.6 123.011 154.449 123.778C154.297 124.545 154.157 125.139 153.984 125.809C153.628 127.235 153.303 128.769 152.904 130.13C151.819 130.116 150.736 130.029 149.663 129.871C149.663 129.871 149.555 129.882 149.598 129.882Z" fill="#263238"/>
<path d="M131.148 126.954C134.626 126.836 138.105 126.771 141.583 126.857C143.322 126.857 145.062 126.976 146.79 127.073C148.519 127.17 150.247 127.44 151.986 127.505C152.006 127.505 152.026 127.513 152.04 127.527C152.054 127.542 152.062 127.561 152.062 127.581C152.062 127.601 152.054 127.62 152.04 127.634C152.026 127.649 152.006 127.657 151.986 127.657C150.269 127.495 148.508 127.57 146.779 127.505C145.051 127.44 143.301 127.376 141.572 127.322C138.105 127.224 134.626 127.127 131.159 127.106C131.04 127.106 131.061 126.965 131.148 126.954Z" fill="#263238"/>
<path d="M166.914 113.58C163.295 114.488 157.073 109.087 154.566 104.765C154.625 102.27 154.809 99.7782 155.117 97.3008C155.29 94.9134 155.441 92.2451 155.398 89.8037C155.398 89.2959 170.781 93.2497 170.781 93.2497C169.961 96.317 169.522 99.4735 169.474 102.648C169.484 102.986 169.524 103.322 169.593 103.653C169.6 103.707 169.6 103.761 169.593 103.815C169.96 105.662 170.371 112.695 166.914 113.58Z" fill="#CF8170"/>
<path d="M156.338 89.7929C157.116 93.9088 159.87 103.836 168.048 103.836C168.572 103.842 169.096 103.805 169.614 103.728C169.621 103.671 169.621 103.613 169.614 103.556C169.547 103.228 169.504 102.896 169.485 102.562C169.54 99.3799 169.983 96.2166 170.803 93.1418C170.803 93.1418 159.676 90.3439 156.338 89.7929Z" fill="#263238"/>
<path d="M153.412 84.3701C153.412 84.3701 147.092 77.5212 149.253 70.4562C150.484 66.3188 156.566 64.9252 156.393 64.5687C156.393 64.5687 166.354 55.6997 171.722 60.2476C176.8 64.5687 177.556 77.8777 177.556 77.8777L153.412 84.3701Z" fill="#263238"/>
<path d="M157.895 63.3696C157.895 63.3696 166.051 56.5315 169.994 56.7908C173.937 57.0501 168.276 60.5501 168.276 60.5501L157.895 63.3696Z" fill="#263238"/>
<path d="M163.49 62.1489C163.49 62.1489 170.717 57.601 173.818 59.3942C176.918 61.1875 166.947 62.1597 163.49 62.1489Z" fill="#263238"/>
<path d="M155.896 65.2494C155.896 65.2494 159.289 59.5023 161.827 58.2384C164.366 56.9745 163.296 61.3172 155.896 65.2494Z" fill="#263238"/>
<path d="M156.402 64.7954C152.438 66.2106 148.073 68.598 147.76 73.2864C147.447 77.5318 150.266 81.2804 153.518 83.6894C153.542 83.701 153.568 83.7045 153.594 83.6994C153.62 83.6943 153.643 83.6808 153.66 83.6611C153.677 83.6414 153.688 83.6165 153.689 83.5904C153.691 83.5642 153.684 83.5383 153.669 83.5166C150.785 80.8699 147.976 77.8451 148.117 73.6429C148.268 68.7276 152.654 66.7939 156.5 65.0007C156.575 64.9359 156.521 64.7954 156.402 64.7954Z" fill="#263238"/>
<path d="M170.92 56.1533C167.247 55.8076 163.78 58.0114 161.565 60.7985C161.558 60.8173 161.557 60.838 161.562 60.8577C161.567 60.8773 161.578 60.895 161.593 60.908C161.608 60.9211 161.628 60.9291 161.648 60.9307C161.668 60.9324 161.688 60.9277 161.706 60.9173C164.385 58.2166 167.01 56.499 170.91 56.2505L170.92 56.1533Z" fill="#263238"/>
<path d="M168.947 59.837C170.541 58.8963 172.421 58.5626 174.241 58.8972C173.342 58.6709 172.406 58.6377 171.493 58.7997C170.581 58.9617 169.713 59.3153 168.947 59.837Z" fill="#263238"/>
<path d="M152.492 72.5088C151.055 78.0074 154.544 93.5741 158.541 96.9122C164.342 101.763 173.525 101.881 177.565 94.9785C181.486 88.2916 176.571 68.0797 172.163 65.0766C165.628 60.6474 154.652 64.396 152.492 72.5088Z" fill="#CF8170"/>
<path d="M168.633 91.6188C168.947 91.8025 169.271 92.0942 169.649 92.0401C170.04 91.9472 170.408 91.7743 170.729 91.5324C170.729 91.5324 170.794 91.5324 170.783 91.5324C170.678 91.7724 170.511 91.9795 170.298 92.1317C170.084 92.2839 169.834 92.3755 169.573 92.3966C169.347 92.3851 169.129 92.3072 168.946 92.1728C168.764 92.0383 168.625 91.8532 168.547 91.6404C168.547 91.6404 168.59 91.5864 168.633 91.6188Z" fill="#263238"/>
<path d="M169.053 88.2266C169.409 88.5856 169.836 88.867 170.307 89.0529C170.777 89.2388 171.281 89.3253 171.786 89.3068C172.227 89.2902 172.663 89.2139 173.083 89.08C173.164 89.0629 173.244 89.0376 173.32 89.0044L173.547 88.9179C173.601 88.895 173.646 88.8552 173.675 88.8045C173.704 88.7539 173.716 88.6951 173.709 88.6371V88.529V88.4426C173.558 87.6324 173.212 86.4117 173.212 86.4117C173.536 86.4981 175.189 86.8546 175.081 86.4117C174.192 82.7863 172.936 79.2609 171.333 75.8899C171.323 75.8655 171.303 75.8461 171.279 75.836C171.255 75.8259 171.227 75.8258 171.203 75.8359C171.179 75.8459 171.159 75.8652 171.149 75.8895C171.139 75.9138 171.139 75.9411 171.149 75.9655C171.948 79.3143 173.309 82.4471 174.195 85.8608C173.604 85.7265 172.996 85.6791 172.391 85.7203C172.283 85.7203 173.104 88.0429 173.147 88.421C172.5 88.6353 171.816 88.7162 171.136 88.6586C170.457 88.6011 169.796 88.4063 169.194 88.0861C169.042 88.0753 168.978 88.1618 169.053 88.2266Z" fill="#263238"/>
<path d="M172.521 88.7775C172.203 89.452 171.715 90.0325 171.106 90.4627C170.767 90.6858 170.367 90.799 169.961 90.7868C169.075 90.7868 168.881 89.9874 168.881 89.296C168.886 88.9311 168.937 88.5682 169.032 88.2158C170.106 88.7692 171.328 88.9659 172.521 88.7775Z" fill="#263238"/>
<path d="M171.106 90.4628C170.767 90.6859 170.367 90.799 169.961 90.7869C169.075 90.7869 168.881 89.9875 168.881 89.2961C169.329 89.2087 169.794 89.2766 170.198 89.4887C170.603 89.7008 170.923 90.0443 171.106 90.4628Z" fill="#FF98B9"/>
<path d="M167.768 81.3021C167.768 81.3021 167.692 81.367 167.703 81.4102C167.952 82.4904 168.06 83.6895 167.174 84.2297C167.174 84.2297 167.174 84.3053 167.174 84.2297C168.319 83.8948 168.168 82.2528 167.768 81.3021Z" fill="#263238"/>
<path d="M166.601 80.3839C164.884 80.6 165.435 84.0245 167.033 83.8192C168.632 83.614 168.049 80.2111 166.601 80.3839Z" fill="#263238"/>
<path d="M174.001 80.0703C174.001 80.0703 174.087 80.0704 174.098 80.146C174.239 81.2262 174.574 82.4037 175.589 82.609C174.39 82.6846 173.958 81.0966 174.001 80.0703Z" fill="#263238"/>
<path d="M174.768 78.839C176.453 78.4393 177.134 81.8313 175.578 82.2094C174.023 82.5875 173.353 79.1415 174.768 78.839Z" fill="#263238"/>
<path d="M164.775 79.4116C165.22 79.243 165.656 79.0519 166.082 78.8391C166.567 78.6985 166.992 78.4024 167.292 77.9964C167.362 77.8507 167.382 77.686 167.349 77.5278C167.315 77.3696 167.231 77.2267 167.108 77.1214C166.83 76.957 166.513 76.8703 166.19 76.8703C165.867 76.8703 165.55 76.957 165.272 77.1214C164.65 77.3492 164.134 77.7995 163.824 78.3853C163.772 78.5213 163.758 78.6694 163.785 78.8127C163.812 78.9561 163.88 79.0888 163.979 79.1958C164.078 79.3029 164.205 79.3799 164.346 79.418C164.487 79.4562 164.635 79.4539 164.775 79.4116Z" fill="#263238"/>
<path d="M175.469 77.1754C175.041 77.1289 174.615 77.0604 174.194 76.9702C173.735 76.957 173.293 76.7981 172.93 76.5164C172.84 76.4007 172.791 76.2581 172.791 76.1113C172.791 75.9646 172.84 75.822 172.93 75.7062C173.13 75.4924 173.385 75.3364 173.666 75.2546C173.947 75.1729 174.245 75.1684 174.529 75.2417C175.128 75.293 175.684 75.5713 176.085 76.0195C176.177 76.1268 176.235 76.2595 176.251 76.4003C176.267 76.5411 176.239 76.6834 176.173 76.8084C176.106 76.9335 176.003 77.0354 175.878 77.1009C175.752 77.1664 175.61 77.1924 175.469 77.1754Z" fill="#263238"/>
<path d="M155.259 84.9749C155.929 84.9749 157.333 80.3406 157.689 78.3529C158.046 76.3652 156.609 73.8806 158.554 70.791C160.023 68.4684 167.595 69.5487 169.356 69.419C172.143 69.2138 174.196 67.5394 176.454 72.271C176.454 72.271 174.002 57.6009 158.273 64.2877C146.271 69.3974 151.553 85.1046 155.259 84.9749Z" fill="#263238"/>
<path d="M156.382 85.1586C156.382 85.1586 152.537 80.2974 150.322 81.7017C148.108 83.1061 151.197 90.2899 153.963 91.1325C154.309 91.2653 154.678 91.3266 155.049 91.3126C155.419 91.2986 155.783 91.2097 156.118 91.0512C156.454 90.8927 156.753 90.6679 156.999 90.3903C157.245 90.1128 157.432 89.7883 157.549 89.4365L156.382 85.1586Z" fill="#CF8170"/>
<path d="M151.262 83.7435C151.262 83.7435 151.208 83.7975 151.262 83.8083C152.154 84.1923 152.956 84.7574 153.618 85.4678C154.281 86.1781 154.788 87.0183 155.108 87.9349C154.987 87.7522 154.827 87.5981 154.64 87.4832C154.453 87.3684 154.243 87.2956 154.025 87.2699C153.808 87.2442 153.587 87.2662 153.378 87.3344C153.17 87.4026 152.978 87.5154 152.818 87.6649C152.818 87.6649 152.818 87.7729 152.872 87.7621C153.197 87.6341 153.554 87.6111 153.893 87.6963C154.232 87.7816 154.536 87.9708 154.762 88.2374C155.135 88.6701 155.461 89.1408 155.735 89.6418C155.832 89.8038 156.134 89.6958 156.059 89.5121C155.94 87.0923 153.866 83.8299 151.262 83.7435Z" fill="#263238"/>
</svg>
