<svg width="614" height="335" viewBox="0 0 614 335" fill="none" xmlns="http://www.w3.org/2000/svg">
<path d="M162.23 96.1226H19.4658V192.329H162.23V96.1226Z" fill="white"/>
<path d="M162.686 192.794H19V95.6562H162.686V192.794ZM19.9311 191.863H161.755V96.5874H19.9311V191.863Z" fill="#EBEBEB"/>
<path d="M33.2565 103.404C33.2565 104.054 33.0638 104.689 32.7026 105.23C32.3414 105.77 31.8281 106.192 31.2274 106.44C30.6268 106.689 29.9659 106.754 29.3283 106.627C28.6907 106.501 28.105 106.188 27.6453 105.728C27.1857 105.268 26.8726 104.683 26.7458 104.045C26.6189 103.407 26.684 102.746 26.9328 102.146C27.1816 101.545 27.6029 101.032 28.1434 100.671C28.684 100.309 29.3195 100.117 29.9696 100.117C30.8413 100.117 31.6774 100.463 32.2938 101.079C32.9102 101.696 33.2565 102.532 33.2565 103.404Z" fill="#37474F"/>
<path d="M46.6823 103.404C46.6823 104.054 46.4895 104.689 46.1284 105.23C45.7672 105.77 45.2538 106.192 44.6532 106.44C44.0526 106.689 43.3917 106.754 42.7541 106.627C42.1165 106.501 41.5308 106.188 41.0711 105.728C40.6114 105.268 40.2984 104.683 40.1716 104.045C40.0447 103.407 40.1098 102.746 40.3586 102.146C40.6074 101.545 41.0287 101.032 41.5692 100.671C42.1098 100.309 42.7453 100.117 43.3954 100.117C44.2671 100.117 45.1032 100.463 45.7196 101.079C46.336 101.696 46.6823 102.532 46.6823 103.404Z" fill="#EBEBEB"/>
<path d="M60.1189 103.404C60.1207 104.056 59.9287 104.695 59.5673 105.238C59.2058 105.782 58.6911 106.206 58.0884 106.457C57.4857 106.707 56.8221 106.773 56.1818 106.646C55.5416 106.519 54.9534 106.205 54.4918 105.744C54.0303 105.282 53.7161 104.694 53.5893 104.054C53.4624 103.413 53.5284 102.75 53.7791 102.147C54.0297 101.545 54.4536 101.03 54.9971 100.668C55.5406 100.307 56.1792 100.115 56.8319 100.117C57.7037 100.117 58.5397 100.463 59.1562 101.079C59.7726 101.696 60.1189 102.532 60.1189 103.404Z" fill="#FDB839"/>
<path d="M162.23 110.154H19.4658V111.085H162.23V110.154Z" fill="#EBEBEB"/>
<path d="M592.41 163.239H449.646V259.446H592.41V163.239Z" fill="white"/>
<path d="M592.878 259.912H449.183V162.774H592.878V259.912ZM450.114 258.981H591.946V163.706H450.114V258.981Z" fill="#EBEBEB"/>
<path d="M463.437 170.521C463.437 171.171 463.244 171.806 462.883 172.347C462.522 172.888 462.009 173.309 461.408 173.558C460.807 173.806 460.147 173.871 459.509 173.745C458.871 173.618 458.286 173.305 457.826 172.845C457.366 172.385 457.053 171.8 456.926 171.162C456.8 170.524 456.865 169.864 457.113 169.263C457.362 168.662 457.784 168.149 458.324 167.788C458.865 167.427 459.5 167.234 460.15 167.234C461.022 167.234 461.858 167.58 462.474 168.197C463.091 168.813 463.437 169.649 463.437 170.521Z" fill="#37474F"/>
<path d="M476.865 170.521C476.865 171.17 476.673 171.804 476.313 172.344C475.953 172.884 475.441 173.305 474.842 173.555C474.243 173.805 473.584 173.871 472.947 173.747C472.31 173.622 471.724 173.312 471.264 172.855C470.803 172.398 470.488 171.815 470.358 171.179C470.228 170.543 470.289 169.883 470.533 169.282C470.778 168.681 471.195 168.166 471.732 167.801C472.268 167.437 472.901 167.24 473.55 167.234C473.984 167.23 474.414 167.313 474.816 167.476C475.219 167.64 475.584 167.881 475.892 168.187C476.201 168.492 476.445 168.856 476.612 169.257C476.779 169.657 476.865 170.087 476.865 170.521Z" fill="#EBEBEB"/>
<path d="M490.31 170.521C490.31 171.171 490.117 171.806 489.756 172.347C489.395 172.888 488.882 173.309 488.281 173.558C487.681 173.806 487.02 173.871 486.382 173.745C485.744 173.618 485.159 173.305 484.699 172.845C484.239 172.385 483.926 171.8 483.799 171.162C483.673 170.524 483.738 169.864 483.987 169.263C484.235 168.662 484.657 168.149 485.197 167.788C485.738 167.427 486.373 167.234 487.023 167.234C487.895 167.234 488.731 167.58 489.348 168.197C489.964 168.813 490.31 169.649 490.31 170.521Z" fill="#FDB839"/>
<path d="M592.41 177.271H449.646V178.203H592.41V177.271Z" fill="#EBEBEB"/>
<path d="M119.788 190.541C119.79 192.526 119.399 194.492 118.64 196.326C117.881 198.16 116.768 199.826 115.365 201.23C113.961 202.634 112.295 203.747 110.461 204.506C108.626 205.265 106.661 205.655 104.676 205.654C104.406 205.654 104.154 205.654 103.903 205.654L77.0113 205.71C73.0669 205.612 69.317 203.976 66.5619 201.152C63.8068 198.327 62.2646 194.538 62.2646 190.592C62.2646 186.647 63.8068 182.857 66.5619 180.033C69.317 177.209 73.0669 175.573 77.0113 175.475H103.651C103.996 175.475 104.331 175.475 104.676 175.475C108.675 175.478 112.511 177.064 115.343 179.888C118.175 182.711 119.774 186.542 119.788 190.541Z" fill="#A6A6A6"/>
<path d="M77.1787 191.034C77.2059 190.471 77.3897 189.926 77.7095 189.461C77.8398 189.247 77.9888 189.042 78.1285 188.837L79.0596 187.906C79.4041 187.654 79.758 187.384 80.1118 187.152C81.572 186.221 83.2017 185.588 84.9072 185.289C88.8354 184.507 92.8792 184.507 96.8073 185.289C98.487 185.597 100.091 186.23 101.528 187.152C101.91 187.403 102.264 187.682 102.627 187.943L103.558 188.818C103.791 189.157 104.006 189.508 104.201 189.871C104.353 190.24 104.48 190.62 104.582 191.007H104.312H96.798C96.7326 191.029 96.6617 191.029 96.5961 191.007C96.5305 190.985 96.4739 190.943 96.4349 190.886C96.2245 190.473 95.9085 190.124 95.5192 189.874C95.1299 189.624 94.6811 189.481 94.2187 189.461C91.9552 189.317 89.6849 189.317 87.4214 189.461C86.9585 189.479 86.5089 189.621 86.1193 189.871C85.7296 190.122 85.4141 190.472 85.2052 190.886C85.14 190.988 85.0935 191.062 84.9445 191.062H77.188L77.1787 191.034Z" fill="white"/>
<path d="M77.1693 195.429V192.748C77.1693 192.683 77.1693 192.617 77.1693 192.571H84.8699C84.8699 192.738 84.8699 192.934 84.8699 193.129C84.8699 193.884 84.8699 194.638 84.8699 195.392C84.8905 195.525 84.8795 195.661 84.8376 195.789C84.7958 195.917 84.7243 196.034 84.6291 196.129C84.5339 196.224 84.4175 196.296 84.2895 196.338C84.1614 196.379 84.0253 196.391 83.8922 196.37H78.1563C78.026 196.391 77.8927 196.381 77.7666 196.342C77.6406 196.303 77.5253 196.235 77.4298 196.144C77.3342 196.053 77.261 195.941 77.2158 195.817C77.1707 195.693 77.1547 195.561 77.1693 195.429Z" fill="white"/>
<path d="M96.7802 195.467C96.7802 194.535 96.7803 193.539 96.8547 192.58H104.444C104.444 192.627 104.444 192.692 104.444 192.748C104.444 193.679 104.444 194.545 104.444 195.448C104.459 195.574 104.445 195.702 104.403 195.821C104.362 195.941 104.294 196.05 104.204 196.14C104.114 196.229 104.006 196.297 103.886 196.339C103.766 196.38 103.638 196.394 103.512 196.379H97.7021C97.5783 196.394 97.4528 196.381 97.3349 196.34C97.217 196.3 97.1097 196.233 97.0211 196.145C96.9325 196.057 96.8648 195.951 96.8231 195.833C96.7814 195.716 96.7668 195.591 96.7802 195.467Z" fill="white"/>
<path d="M584.254 166.238C583.85 165.576 583.636 164.816 583.636 164.041C583.636 163.265 583.85 162.505 584.254 161.843C584.477 161.48 584.691 161.098 584.896 160.717C585.101 160.335 585.296 159.944 585.483 159.553C585.802 158.85 586.309 158.249 586.948 157.817C587.587 157.385 588.334 157.138 589.105 157.104L594.505 156.936L593.956 139.356L588.527 139.514C587.762 139.526 587.009 139.325 586.351 138.933C585.694 138.542 585.158 137.976 584.803 137.298C584.392 136.548 583.941 135.821 583.453 135.119C583.003 134.484 582.736 133.737 582.682 132.96C582.627 132.183 582.788 131.407 583.145 130.715L585.697 125.966L570.184 117.642L567.642 122.39C567.265 123.074 566.706 123.64 566.027 124.026C565.349 124.413 564.577 124.604 563.796 124.579C562.942 124.56 562.087 124.588 561.235 124.662C560.473 124.743 559.702 124.612 559.009 124.284C558.316 123.955 557.726 123.442 557.306 122.8L554.438 118.144L539.484 127.456L542.342 132.112C542.742 132.758 542.954 133.503 542.954 134.263C542.954 135.023 542.742 135.767 542.342 136.414C542.11 136.805 541.886 137.196 541.672 137.605C541.458 138.015 541.244 138.416 541.057 138.825C540.736 139.519 540.228 140.109 539.59 140.53C538.952 140.951 538.209 141.186 537.445 141.209L532.044 141.377L532.584 158.966L537.975 158.789C538.732 158.771 539.479 158.96 540.135 159.335C540.792 159.711 541.333 160.26 541.7 160.921C542.147 161.742 542.638 162.538 543.171 163.305C543.606 163.93 543.858 164.663 543.899 165.423C543.94 166.183 543.768 166.939 543.404 167.607L540.862 172.356L556.421 180.587L558.963 175.838C559.34 175.155 559.899 174.59 560.578 174.205C561.257 173.82 562.029 173.631 562.809 173.66C563.667 173.678 564.525 173.65 565.379 173.576C566.146 173.5 566.92 173.638 567.614 173.975C568.307 174.312 568.894 174.834 569.309 175.485L572.167 180.094L587.121 170.782L584.254 166.238ZM558.181 162.607C555.371 161.533 552.967 159.608 551.306 157.099C549.645 154.591 548.81 151.625 548.919 148.619C549.028 145.612 550.076 142.715 551.914 140.334C553.752 137.952 556.29 136.206 559.17 135.339C562.051 134.472 565.131 134.528 567.979 135.499C570.826 136.471 573.298 138.309 575.048 140.756C576.798 143.203 577.739 146.136 577.738 149.144C577.738 152.153 576.796 155.086 575.044 157.532C573.19 160.117 570.532 162.017 567.485 162.935C564.439 163.853 561.174 163.737 558.2 162.607H558.181Z" fill="#EBEBEB"/>
<path d="M522.063 114.224C521.597 113.947 521.216 113.546 520.963 113.067C520.71 112.587 520.594 112.046 520.629 111.505C520.629 111.198 520.629 110.9 520.629 110.574C520.629 110.248 520.629 109.959 520.629 109.643C520.592 109.103 520.705 108.564 520.957 108.086C521.209 107.607 521.588 107.208 522.054 106.933L525.331 105.071L519.177 94.3998L515.899 96.2621C515.426 96.5286 514.889 96.6592 514.347 96.6395C513.804 96.6198 513.278 96.4505 512.826 96.1503C512.313 95.8111 511.781 95.5003 511.234 95.2192C510.749 94.9791 510.341 94.6089 510.055 94.1501C509.769 93.6913 509.616 93.162 509.614 92.6213V88.8408H497.285V92.6213C497.283 93.162 497.13 93.6913 496.844 94.1501C496.558 94.6089 496.149 94.9791 495.665 95.2192C495.12 95.4982 494.591 95.8092 494.082 96.1503C493.629 96.4523 493.101 96.6227 492.557 96.6424C492.013 96.6621 491.474 96.5305 491 96.2621L487.732 94.3998L481.567 105.08L484.854 106.942C485.321 107.217 485.702 107.616 485.955 108.094C486.208 108.573 486.324 109.112 486.288 109.652C486.288 109.95 486.288 110.248 486.288 110.583C486.288 110.918 486.288 111.188 486.288 111.514C486.323 112.057 486.207 112.598 485.952 113.078C485.697 113.558 485.314 113.958 484.845 114.233L481.567 116.096L487.732 126.767L490.991 124.904C491.462 124.634 491.999 124.501 492.542 124.519C493.084 124.537 493.611 124.706 494.063 125.007C494.581 125.344 495.116 125.655 495.665 125.938C496.15 126.18 496.557 126.552 496.843 127.013C497.129 127.473 497.282 128.003 497.285 128.545V132.316H509.614V128.498C509.616 127.957 509.769 127.426 510.055 126.966C510.341 126.506 510.749 126.134 511.234 125.891C511.784 125.61 512.319 125.299 512.835 124.96C513.288 124.659 513.815 124.49 514.357 124.472C514.9 124.454 515.437 124.588 515.908 124.858L519.177 126.72L525.331 116.049L522.063 114.224ZM503.44 120.742C501.446 120.733 499.499 120.134 497.845 119.02C496.19 117.906 494.903 116.328 494.144 114.484C493.385 112.64 493.189 110.612 493.58 108.657C493.972 106.701 494.933 104.905 496.343 103.495C497.753 102.085 499.549 101.124 501.504 100.733C503.46 100.341 505.487 100.537 507.331 101.296C509.176 102.055 510.754 103.343 511.868 104.997C512.981 106.651 513.58 108.598 513.59 110.592C513.59 111.922 513.327 113.238 512.818 114.465C512.308 115.693 511.562 116.808 510.621 117.746C509.68 118.685 508.562 119.428 507.334 119.934C506.105 120.441 504.788 120.699 503.459 120.695L503.44 120.742Z" fill="#EBEBEB"/>
<path d="M74.8975 85.6657L81.0524 96.3366L84.3207 94.4743C84.7934 94.2078 85.3306 94.0772 85.8729 94.0969C86.4151 94.1166 86.9414 94.2859 87.3935 94.5861C87.91 94.9253 88.4447 95.2362 88.9951 95.5172C89.4789 95.7582 89.8864 96.1285 90.1724 96.5871C90.4584 97.0457 90.6117 97.5747 90.6153 98.1151V101.896H102.953V98.1151C102.957 97.5747 103.11 97.0457 103.396 96.5871C103.682 96.1285 104.089 95.7582 104.573 95.5172C105.122 95.2341 105.657 94.9233 106.175 94.5861C106.627 94.2859 107.153 94.1166 107.695 94.0969C108.238 94.0772 108.775 94.2078 109.248 94.4743L112.516 96.3366L118.661 85.6657L115.384 83.8034C114.903 83.5227 114.512 83.111 114.256 82.6164C114.001 82.1217 113.891 81.5645 113.941 81.0099C113.941 80.7026 113.941 80.4047 113.941 80.0788C113.941 79.7529 113.941 79.4735 113.941 79.1476C113.905 78.6075 114.021 78.0682 114.274 77.5898C114.527 77.1114 114.908 76.7126 115.375 76.438L118.661 74.5757L112.507 63.8954L109.229 65.7577C108.756 66.0242 108.219 66.1548 107.677 66.1351C107.134 66.1154 106.608 65.9461 106.156 65.6459C105.643 65.3067 105.111 64.9959 104.564 64.7148C104.08 64.4738 103.673 64.1035 103.387 63.6449C103.101 63.1863 102.947 62.6574 102.944 62.1169V58.3364H90.6153V62.1169C90.6117 62.6574 90.4584 63.1863 90.1724 63.6449C89.8864 64.1035 89.4789 64.4738 88.9951 64.7148C88.4477 64.9959 87.9162 65.3067 87.4028 65.6459C86.9507 65.9461 86.4244 66.1154 85.8822 66.1351C85.3399 66.1548 84.8027 66.0242 84.33 65.7577L81.0524 63.8954L74.8975 74.5757L78.1751 76.438C78.6405 76.713 79.0203 77.1122 79.2719 77.5907C79.5235 78.0692 79.637 78.6083 79.5998 79.1476C79.5998 79.4456 79.5998 79.7529 79.5998 80.0788C79.5998 80.4047 79.5998 80.684 79.5998 81.0099C79.6346 81.5513 79.5191 82.0917 79.2661 82.5715C79.013 83.0514 78.6322 83.4519 78.1658 83.7289L74.8975 85.6657ZM86.6765 80.0788C86.6765 78.0802 87.2693 76.1265 88.3798 74.4649C89.4904 72.8033 91.0688 71.5083 92.9154 70.744C94.762 69.9796 96.7939 69.78 98.7539 70.1706C100.714 70.5612 102.514 71.5243 103.927 72.9382C105.339 74.352 106.301 76.1531 106.689 78.1135C107.078 80.0739 106.877 82.1055 106.111 83.9515C105.345 85.7974 104.048 87.3746 102.386 88.4836C100.723 89.5926 98.7687 90.1836 96.7702 90.1817C95.4439 90.1817 94.1306 89.9203 92.9053 89.4125C91.6801 88.9047 90.567 88.1604 89.6296 87.2221C88.6922 86.2838 87.9489 85.17 87.4422 83.9443C86.9355 82.7186 86.6753 81.4051 86.6765 80.0788Z" fill="#EBEBEB"/>
<path d="M320.849 95.3905C328.155 66.0427 310.287 36.3287 280.939 29.0223C251.592 21.716 221.877 39.5841 214.571 68.9319C207.265 98.2797 225.133 127.994 254.481 135.3C283.828 142.606 313.543 124.738 320.849 95.3905Z" fill="#EBEBEB"/>
<path d="M308.218 92.2793C313.826 69.8857 300.219 47.1858 277.825 41.5776C255.432 35.9693 232.732 49.5765 227.123 71.97C221.515 94.3635 235.122 117.063 257.516 122.672C279.909 128.28 302.609 114.673 308.218 92.2793Z" fill="white"/>
<path d="M296.672 89.4562C300.705 73.4593 291.006 57.2219 275.009 53.1889C259.012 49.1559 242.775 58.8545 238.742 74.8514C234.709 90.8483 244.408 107.086 260.404 111.119C276.401 115.152 292.639 105.453 296.672 89.4562Z" fill="#EBEBEB"/>
<path d="M283.689 86.1981C285.932 77.3605 280.586 68.378 271.748 66.1351C262.91 63.8923 253.928 69.2384 251.685 78.0761C249.442 86.9138 254.788 95.8963 263.626 98.1391C272.464 100.382 281.446 95.0358 283.689 86.1981Z" fill="white"/>
<path d="M274.945 84.0033C275.964 80.0069 273.551 75.9408 269.555 74.9214C265.558 73.902 261.492 76.3153 260.473 80.3117C259.453 84.3081 261.867 88.3742 265.863 89.3937C269.859 90.4131 273.926 87.9997 274.945 84.0033Z" fill="#EBEBEB"/>
<path d="M333.981 14.3429L271.253 77.0708L272.761 78.5786L335.489 15.8507L333.981 14.3429Z" fill="#C7C7C7"/>
<path d="M275.886 79.9483L267.691 82.1458L269.88 73.9424L275.886 79.9483Z" fill="#A6A6A6"/>
<path d="M345.228 11.0152L333.468 22.7756L324.24 25.5877L327.052 16.3693L338.822 4.59961L336.001 13.8273L345.228 11.0152Z" fill="#A6A6A6"/>
<path d="M0 306.366L76.7547 306.143L153.5 306.059L307 305.901L460.5 306.059L537.245 306.143L614 306.366L537.245 306.599L460.5 306.674L307 306.832L153.5 306.674L76.7547 306.59L0 306.366Z" fill="#263238"/>
<path d="M194.257 311.861H65.9354L56 224.706H184.322L194.257 311.861Z" fill="#37474F"/>
<path d="M187.264 306.014H71.597L62.9932 230.553H178.661L187.264 306.014Z" fill="white"/>
<path d="M266.794 306.014H135.083V311.861H266.794V306.014Z" fill="#37474F"/>
<path d="M266.785 306.014H200.496V311.861H266.785V306.014Z" fill="#263238"/>
<path d="M146.405 230.553L71.5316 305.427L69.2969 285.845L124.579 230.553H146.405Z" fill="#EBEBEB"/>
<path d="M185.308 288.824L168.119 306.013H146.293L183.073 269.233L185.308 288.824Z" fill="#EBEBEB"/>
<path d="M77.3229 230.553L64.4637 243.412L63.7002 236.736L69.883 230.553H77.3229Z" fill="#EBEBEB"/>
<path d="M181.64 256.644L132.27 306.014H124.821L180.876 249.958L181.64 256.644Z" fill="#EBEBEB"/>
<path d="M87.0256 230.553L65.4509 252.128L65.2646 250.452L85.1633 230.553H87.0256Z" fill="#EBEBEB"/>
<path d="M157.105 230.553L81.6445 306.014H79.7822L155.243 230.553H157.105Z" fill="#EBEBEB"/>
<path d="M180.382 245.61L119.979 306.013H118.116L180.196 243.934L180.382 245.61Z" fill="#EBEBEB"/>
<path d="M419.056 311.861H547.387L557.313 224.706H428.991L419.056 311.861Z" fill="#37474F"/>
<path d="M426.049 306.014H541.726L550.32 230.553H434.653L426.049 306.014Z" fill="white"/>
<path d="M478.239 306.014H346.528V311.861H478.239V306.014Z" fill="#37474F"/>
<path d="M412.817 306.014H346.528V311.861H412.817V306.014Z" fill="#263238"/>
<path d="M546.995 259.782L544.183 284.42L522.59 306.013H500.764L546.995 259.782Z" fill="#EBEBEB"/>
<path d="M505.979 230.553L430.528 306.014H426.049L428.284 286.431L484.162 230.553H505.979Z" fill="#EBEBEB"/>
<path d="M456.822 230.553L431.802 255.573L432.761 247.165L449.373 230.553H456.822Z" fill="#EBEBEB"/>
<path d="M539.127 230.553L463.667 306.014H456.218L531.678 230.553H539.127Z" fill="#EBEBEB"/>
<path d="M548.066 250.377L547.834 252.481L494.302 306.013H492.439L548.066 250.377Z" fill="#EBEBEB"/>
<path d="M546.939 230.553L471.488 306.014H469.626L545.086 230.553H546.939Z" fill="#EBEBEB"/>
<path d="M476.656 230.553L429.242 277.967L429.484 275.863L474.794 230.553H476.656Z" fill="#EBEBEB"/>
<path d="M184.508 180.643C200.421 212.777 223.988 244.892 230.302 250.908C247.267 267.184 292.558 278.889 305.911 279.261C311.675 279.419 319.645 241.13 315.39 236.67C311.135 232.21 255.219 220.04 252.221 217.749C250.144 216.12 223.504 190.765 205.812 175.708C183.809 157.001 180.327 172.17 184.508 180.643Z" fill="#F7A9A0"/>
<path d="M303.043 231.316L288.601 276.896C288.601 276.896 241.28 264.447 228.616 252.267C215.953 240.088 189.722 196.491 184.601 182.114C179.48 167.737 182.813 156.387 206.017 175.038C229.222 193.688 248.897 212.768 253.003 215.841C257.11 218.913 303.043 231.316 303.043 231.316Z" fill="#455A64"/>
<path d="M288.386 233.141C288.456 233.597 288.659 234.021 288.97 234.36C289.281 234.7 289.686 234.94 290.133 235.049C290.581 235.159 291.05 235.133 291.483 234.976C291.916 234.819 292.292 234.536 292.564 234.165C292.837 233.794 292.993 233.35 293.013 232.89C293.033 232.43 292.916 231.974 292.677 231.58C292.438 231.187 292.088 230.873 291.671 230.678C291.253 230.484 290.788 230.417 290.332 230.488C289.723 230.582 289.175 230.914 288.81 231.412C288.445 231.909 288.293 232.531 288.386 233.141Z" fill="#263238"/>
<path d="M276.794 229.798C276.863 230.254 277.064 230.68 277.375 231.021C277.685 231.362 278.089 231.603 278.536 231.714C278.984 231.825 279.454 231.8 279.888 231.644C280.321 231.487 280.698 231.205 280.972 230.834C281.245 230.463 281.402 230.019 281.422 229.558C281.443 229.098 281.326 228.642 281.087 228.248C280.848 227.853 280.498 227.539 280.08 227.344C279.662 227.15 279.196 227.083 278.741 227.154C278.439 227.199 278.149 227.304 277.888 227.461C277.627 227.619 277.4 227.827 277.219 228.072C277.038 228.318 276.907 228.597 276.835 228.893C276.762 229.189 276.748 229.497 276.794 229.798Z" fill="#263238"/>
<path d="M253.692 265.601C243.329 261.579 233.449 256.895 228.617 252.267C215.953 240.162 189.722 196.491 184.601 182.114C181.323 172.924 181.5 164.972 188.112 165.298L253.692 265.601Z" fill="#263238"/>
<path d="M109.028 305.994H228.494C228.979 301.627 204.396 179.898 192.692 164.636C190.187 161.368 181.928 160.465 174.916 161.34C173.084 161.549 171.274 161.916 169.506 162.439C169.45 162.464 169.39 162.483 169.329 162.495C167.9 162.905 166.554 163.564 165.353 164.441C145.827 180.056 108.088 304.923 109.028 305.994Z" fill="#455A64"/>
<path d="M182.971 192.18L188.055 182.291L194.61 189.442L193.008 196.566L186.528 197.394L182.971 192.18Z" fill="#263238"/>
<path d="M186.529 197.394L183.438 270.145L197.07 294.206L204.146 267.128L193.01 196.565L186.529 197.394Z" fill="#263238"/>
<path d="M186.342 180.969C184.48 180.895 171.984 171.136 168.148 163.529C167.887 163.007 168.855 157.644 169.721 151.061C170.224 147.066 170.653 142.606 170.839 138.509C170.839 137.661 173.679 139.31 173.679 139.31L178.94 140.762L196.352 145.613C196.352 145.613 193.559 154.124 193.335 161.275C193.327 161.843 193.368 162.41 193.456 162.97C193.463 163.063 193.463 163.156 193.456 163.249C193.903 166.462 189.424 181.09 186.342 180.969Z" fill="#F7A9A0"/>
<path d="M193.456 162.951C193.463 163.044 193.463 163.137 193.456 163.23C192.578 163.317 191.693 163.333 190.812 163.277C173.502 162.346 172.077 140.222 172.077 140.222L178.912 140.743L196.324 145.594C196.324 145.594 193.531 154.105 193.307 161.256C193.309 161.824 193.358 162.391 193.456 162.951Z" fill="#263238"/>
<path d="M166.797 108.377C164.181 117.548 169.507 143.816 176.109 149.571C185.671 157.951 201.091 158.435 208.112 146.982C214.919 135.892 207.386 101.784 200.03 96.5789C189.21 88.9155 170.652 94.819 166.797 108.377Z" fill="#F7A9A0"/>
<path d="M192.777 123.666C192.777 123.601 192.656 123.778 192.674 123.843C193.075 125.603 193.252 127.689 191.743 128.592C191.697 128.592 191.743 128.713 191.743 128.694C193.708 128.024 193.475 125.268 192.777 123.666Z" fill="#263238"/>
<path d="M190.858 122.13C187.972 122.474 188.875 128.229 191.547 127.912C194.22 127.596 193.279 121.832 190.858 122.13Z" fill="#263238"/>
<path d="M203.177 122.335C203.177 122.26 203.326 122.391 203.335 122.465C203.559 124.262 204.118 126.274 205.822 126.609C205.877 126.609 205.887 126.711 205.822 126.711C203.81 126.748 203.103 124.067 203.177 122.335Z" fill="#263238"/>
<path d="M204.472 120.22C207.265 119.55 208.438 125.267 205.812 125.881C203.187 126.496 202.088 120.779 204.472 120.22Z" fill="#263238"/>
<path d="M188.176 119.848C188.898 119.51 189.601 119.131 190.28 118.712C191.078 118.418 191.755 117.868 192.208 117.148C192.305 116.894 192.315 116.615 192.238 116.354C192.161 116.093 191.999 115.865 191.779 115.705C191.296 115.455 190.754 115.338 190.211 115.368C189.667 115.397 189.142 115.571 188.688 115.872C187.677 116.341 186.875 117.167 186.435 118.191C186.348 118.431 186.333 118.69 186.392 118.938C186.45 119.187 186.58 119.412 186.764 119.588C186.949 119.764 187.181 119.882 187.431 119.928C187.682 119.974 187.941 119.947 188.176 119.848Z" fill="#263238"/>
<path d="M206.24 116.97C205.42 116.97 204.666 116.821 203.865 116.738C203.014 116.774 202.175 116.525 201.482 116.03C201.29 115.837 201.17 115.584 201.139 115.314C201.109 115.044 201.171 114.771 201.314 114.54C201.663 114.123 202.118 113.807 202.63 113.623C203.142 113.44 203.694 113.397 204.229 113.497C205.344 113.538 206.405 113.989 207.208 114.764C207.378 114.953 207.49 115.187 207.531 115.438C207.571 115.689 207.539 115.947 207.436 116.18C207.334 116.412 207.167 116.611 206.955 116.751C206.742 116.892 206.494 116.968 206.24 116.97Z" fill="#263238"/>
<path d="M193.755 140.473C194.248 140.817 194.77 141.329 195.421 141.283C196.089 141.168 196.724 140.911 197.284 140.529C197.295 140.524 197.308 140.523 197.32 140.526C197.332 140.529 197.344 140.535 197.352 140.544C197.361 140.553 197.367 140.564 197.37 140.576C197.373 140.588 197.372 140.601 197.367 140.612C197.169 141.003 196.868 141.331 196.498 141.564C196.127 141.797 195.701 141.925 195.263 141.935C194.884 141.896 194.524 141.747 194.229 141.505C193.934 141.263 193.717 140.94 193.606 140.575C193.559 140.482 193.708 140.417 193.755 140.473Z" fill="#263238"/>
<path d="M200.552 136.088C199.952 137.187 199.08 138.114 198.019 138.779C197.432 139.124 196.75 139.274 196.073 139.207C194.583 139.058 194.35 137.764 194.434 136.6C194.484 135.986 194.606 135.379 194.797 134.793C196.529 135.826 198.545 136.279 200.552 136.088Z" fill="white"/>
<path d="M194.797 134.84C195.366 135.471 196.059 135.978 196.833 136.329C197.607 136.679 198.445 136.867 199.294 136.879C200.038 136.902 200.781 136.817 201.501 136.627C201.641 136.605 201.778 136.567 201.911 136.516C202.032 136.516 202.153 136.451 202.293 136.395C202.384 136.361 202.461 136.297 202.514 136.215C202.566 136.133 202.589 136.036 202.581 135.938C202.576 135.877 202.56 135.817 202.535 135.762V135.603C202.358 134.225 201.892 132.158 201.892 132.158C202.432 132.335 205.17 133.089 205.021 132.372C203.736 126.487 202.302 119.951 199.778 114.364C199.761 114.327 199.731 114.297 199.693 114.281C199.656 114.264 199.614 114.262 199.575 114.275C199.536 114.287 199.503 114.314 199.482 114.349C199.461 114.384 199.454 114.426 199.462 114.466C200.467 120.165 202.479 125.64 203.596 131.366C202.619 131.084 201.606 130.94 200.589 130.938C200.402 131.031 201.52 134.923 201.585 135.547V135.613C199.322 136.274 197.469 135.845 194.992 134.681C194.787 134.57 194.638 134.709 194.797 134.84Z" fill="#263238"/>
<path d="M169.889 128.861C176.155 127.93 175.708 116.356 175.708 116.356C175.708 116.356 186.221 113.013 186.603 104.679C186.603 104.679 197.777 109.717 205.393 105.61C213.01 101.504 209.993 92.6766 208.82 90.8609C207.647 89.0451 203.717 93.3098 203.717 93.3098C203.717 93.3098 202.451 88.235 201.008 87.9091C199.564 87.5832 198.512 90.9168 198.512 90.9168C198.512 90.9168 187.646 88.9613 178.288 90.6002C168.93 92.239 165.661 102.426 165.661 102.426C165.661 102.426 160.791 104.223 159.683 108.013C158.575 111.802 165.885 129.429 169.889 128.861Z" fill="#263238"/>
<path d="M173.221 116.804C181.713 116.692 186.434 110.351 186.481 102.194C186.487 102.178 186.497 102.163 186.512 102.153C186.526 102.143 186.543 102.138 186.56 102.138C186.577 102.138 186.594 102.143 186.609 102.153C186.623 102.163 186.633 102.178 186.639 102.194C187.477 109.643 181.751 118.955 173.193 117.195C172.951 117.139 172.961 116.804 173.221 116.804Z" fill="#263238"/>
<path d="M165.866 102.222C165.885 102.218 165.906 102.22 165.924 102.228C165.943 102.237 165.958 102.251 165.967 102.269C165.977 102.287 165.98 102.308 165.977 102.328C165.974 102.348 165.964 102.366 165.949 102.38C163.77 103.805 161.219 104.997 159.888 107.362C158.286 110.22 159.199 113.526 160.372 116.338C162.169 120.686 165.363 126.217 169.786 128.285C170.046 128.406 169.851 128.778 169.599 128.676C164.329 126.525 160.4 119.318 158.956 114.094C157.336 108.246 160.549 104.289 165.866 102.222Z" fill="#263238"/>
<path d="M196.072 105.676C200.067 107.352 205.523 106.607 208.754 103.609C212.684 99.884 211.017 94.9954 208.503 91.0567C208.382 90.8704 208.652 90.6004 208.82 90.7773C211.958 94.1015 212.991 99.6977 209.872 103.404C206.752 107.11 200.197 108.059 195.793 106.197C195.43 106.076 195.7 105.517 196.072 105.676Z" fill="#263238"/>
<path d="M191.323 134.086C189.877 134.142 188.444 133.791 187.188 133.072C185.932 132.354 184.902 131.298 184.217 130.023C183.531 128.749 183.218 127.307 183.311 125.863C183.405 124.419 183.902 123.031 184.746 121.855C185.59 120.68 186.747 119.765 188.085 119.215C189.424 118.664 190.89 118.501 192.316 118.743C193.743 118.985 195.073 119.623 196.155 120.584C197.237 121.545 198.028 122.79 198.437 124.178C199.014 126.143 198.788 128.256 197.809 130.054C196.83 131.852 195.177 133.188 193.213 133.769C192.598 133.951 191.963 134.057 191.323 134.086ZM190.773 119.671C190.219 119.698 189.669 119.789 189.135 119.941C187.503 120.424 186.118 121.511 185.26 122.98C184.402 124.449 184.136 126.189 184.516 127.847C184.897 129.505 185.895 130.956 187.308 131.904C188.72 132.852 190.441 133.225 192.12 132.949C193.798 132.672 195.308 131.766 196.342 130.415C197.376 129.064 197.856 127.37 197.684 125.678C197.513 123.985 196.702 122.422 195.418 121.306C194.134 120.19 192.473 119.605 190.773 119.671Z" fill="#455A64"/>
<path d="M208.82 131.292C205.868 131.404 203.075 128.498 202.451 124.504C202.123 122.606 202.397 120.652 203.233 118.917C203.572 118.164 204.087 117.504 204.736 116.993C205.384 116.483 206.147 116.136 206.958 115.984C207.774 115.88 208.604 115.977 209.374 116.265C210.145 116.554 210.834 117.026 211.381 117.641C212.703 119.042 213.559 120.818 213.83 122.725C214.482 126.934 212.47 130.761 209.342 131.245C209.169 131.276 208.995 131.291 208.82 131.292ZM207.498 116.962H207.107C206.461 117.096 205.856 117.382 205.343 117.797C204.83 118.211 204.422 118.742 204.155 119.345C203.418 120.889 203.18 122.624 203.475 124.308C204.043 127.949 206.585 130.594 209.165 130.193C211.744 129.793 213.364 126.469 212.796 122.846C212.565 121.154 211.813 119.576 210.645 118.33C210.243 117.897 209.756 117.551 209.215 117.314C208.673 117.077 208.089 116.954 207.498 116.952V116.962Z" fill="#455A64"/>
<path d="M198.363 125.128L197.59 124.448C198.595 123.294 201.063 121.571 203.242 123.275L202.609 124.085C200.616 122.558 198.409 125.025 198.363 125.128Z" fill="#455A64"/>
<path d="M164.619 132.39L163.688 132.064C163.836 131.608 165.243 127.586 167.412 126.859C169.582 126.133 183.372 125.332 183.959 125.295L184.024 126.328C180.038 126.571 169.34 127.316 167.738 127.837C166.136 128.358 164.991 131.292 164.619 132.39Z" fill="#455A64"/>
<path d="M173.874 130.026C173.874 130.026 167.589 121.739 163.799 124.02C160.009 126.301 164.982 138.462 169.591 139.98C170.169 140.208 170.786 140.318 171.407 140.304C172.028 140.289 172.639 140.151 173.206 139.897C173.773 139.643 174.283 139.278 174.706 138.823C175.129 138.369 175.458 137.835 175.671 137.252L173.874 130.026Z" fill="#F7A9A0"/>
<path d="M165.316 127.474C165.242 127.474 165.232 127.567 165.316 127.595C168.557 128.759 170.344 131.646 171.639 134.653C170.642 133.517 169.33 132.921 167.793 134.104C167.78 134.12 167.771 134.139 167.769 134.16C167.767 134.181 167.772 134.202 167.782 134.22C167.792 134.238 167.807 134.253 167.826 134.262C167.845 134.271 167.866 134.275 167.886 134.272C168.44 134.073 169.041 134.05 169.608 134.207C170.175 134.364 170.679 134.692 171.052 135.147C171.673 135.907 172.207 136.735 172.644 137.614C172.812 137.894 173.315 137.717 173.194 137.391V137.326C173.054 133.266 169.683 127.707 165.316 127.474Z" fill="#263238"/>
<path d="M193.549 163.585L187.329 178.846L168.482 159.571L163.109 165.745C163.109 165.745 181.528 196.342 181.639 194.964L187.934 181.872L196.957 191.007L196.277 168.119L193.549 163.585Z" fill="#455A64"/>
<path d="M197.265 179.711C197.022 175.931 196.883 172.123 196.473 168.37C196.473 168.23 196.25 168.174 196.212 168.37C195.449 172.011 196.445 186.444 196.417 189.898C196.045 189.507 188.037 181.862 187.972 181.983C186.612 184.06 181.994 193.595 181.677 194.461C178.763 189.6 167.607 171.927 164.153 167.327C164.134 167.302 164.106 167.285 164.075 167.278C164.043 167.272 164.011 167.278 163.984 167.294C163.956 167.31 163.936 167.335 163.926 167.365C163.916 167.395 163.917 167.428 163.929 167.457C166.499 172.597 181.267 196.388 181.5 196.323C183.926 191.826 186.12 187.208 188.074 182.486C189.424 184.144 197.488 192.729 197.516 192.207C197.654 188.041 197.57 183.869 197.265 179.711Z" fill="#263238"/>
<path d="M232.602 322.792L139.57 332.001L139.272 259.884L232.304 250.666L232.602 322.792Z" fill="#FDB839"/>
<path d="M169.637 248.896L139.188 251.913L139.272 259.884L171.853 256.652L169.637 248.896Z" fill="#FDB839"/>
<g opacity="0.1">
<path opacity="0.1" d="M232.601 322.792L139.569 332.001L139.271 259.884L232.303 250.666L232.601 322.792Z" fill="black"/>
<path opacity="0.1" d="M169.637 248.896L139.188 251.913L139.272 259.884L171.853 256.652L169.637 248.896Z" fill="black"/>
</g>
<path d="M232.535 322.802L142.81 331.685L129.979 259.362L225.617 251.336L232.535 322.802Z" fill="#EBEBEB"/>
<path d="M232.535 322.801L140.528 331.908L126.775 262.397L223.494 252.825L232.535 322.801Z" fill="white"/>
<path d="M232.369 322.82L139.143 332.048L125.529 264.037L218.765 254.809L232.369 322.82Z" fill="#FDB839"/>
<path d="M152.848 175.335C121.049 204.201 98.0959 253.924 98.8409 267.324C99.772 285.015 131.841 315.296 152.726 324.059C158.006 326.275 178.436 283.032 170.707 280.779C162.55 278.404 143.704 261.308 142.773 260.526C140.817 258.869 156.013 221.036 162.373 198.074C169.496 172.142 166.228 163.193 152.848 175.335Z" fill="#F7A9A0"/>
<path d="M140.883 317.447C161.117 332.047 188.604 335.213 193.344 334.729C197.394 334.329 199.471 334.087 199.471 334.087C206.743 333.519 209.35 330.073 209.35 330.073C209.35 330.073 217.954 331.88 219.909 326.87C222.126 321.283 209.611 319.803 203.223 314.765C188.576 303.303 170.959 282.911 167.067 279.186L140.883 317.447Z" fill="#F7A9A0"/>
<path d="M179.433 313.573C183.809 316.86 188.027 320.203 192.823 322.885C198.093 325.818 203.652 327.764 209.267 329.887C209.297 329.903 209.32 329.93 209.333 329.961C209.346 329.993 209.348 330.028 209.338 330.061C209.329 330.094 209.308 330.122 209.279 330.141C209.251 330.16 209.217 330.169 209.183 330.166C197.874 327.605 187.482 321.995 179.135 313.946C178.939 313.797 179.209 313.415 179.433 313.573Z" fill="#263238"/>
<path d="M171.23 321.414C175.663 324.375 183.494 329.534 199.519 333.919C199.575 333.919 199.565 334.022 199.519 334.012C189.058 332.703 179.168 328.512 170.951 321.908C170.681 321.665 170.932 321.246 171.23 321.414Z" fill="#263238"/>
<path d="M186.445 299.877C185.132 297.623 186.305 296.915 190.607 298.61C194.909 300.305 210.543 310.715 213.699 304.923C216.856 299.132 194.639 284.857 187.19 282.585C179.74 280.313 167.049 279.224 167.049 279.224C170.839 282.883 179.135 292.614 186.445 299.877Z" fill="#F7A9A0"/>
<path d="M141.609 320.697L166.946 278.172C166.946 278.172 143.239 261.541 143.127 259.884C143.015 258.226 159.785 212.395 164.851 189.843C169.916 167.29 167.412 156.536 145.213 181.677C123.014 206.818 94.5491 249.12 96.0575 267.249C97.566 285.379 141.609 320.697 141.609 320.697Z" fill="#455A64"/>
<path d="M160.643 211.371C159.711 212.982 158.734 214.565 157.905 216.222C157.626 216.762 157.356 217.302 157.086 217.842C157.291 217.191 157.505 216.548 157.719 215.896C159.013 211.809 160.27 207.702 161.369 203.549C161.378 203.526 161.377 203.5 161.366 203.477C161.356 203.454 161.337 203.437 161.313 203.428C161.29 203.42 161.264 203.421 161.241 203.431C161.218 203.442 161.201 203.461 161.192 203.484C158.268 210.524 155.847 217.777 153.445 225.012C151.042 232.247 148.789 239.631 146.592 246.987C145.381 251.103 144.133 255.237 143.184 259.418C143.189 259.432 143.198 259.445 143.211 259.453C143.223 259.462 143.238 259.467 143.253 259.467C143.269 259.467 143.283 259.462 143.296 259.453C143.308 259.445 143.318 259.432 143.323 259.418C144.72 255.833 145.903 252.155 147.113 248.505C148.324 244.855 149.553 241.214 150.735 237.564C152.598 231.735 154.46 225.903 156.322 220.068C157.118 218.974 157.799 217.801 158.352 216.567C159.218 214.872 159.907 213.103 160.671 211.371H160.643Z" fill="#263238"/>
<path d="M137.112 310.017C136.969 310.455 136.959 310.925 137.083 311.369C137.208 311.812 137.461 312.209 137.81 312.509C138.16 312.808 138.591 312.998 139.048 313.052C139.505 313.107 139.969 313.025 140.379 312.817C140.79 312.608 141.129 312.282 141.355 311.881C141.58 311.479 141.682 311.02 141.646 310.56C141.61 310.101 141.439 309.663 141.154 309.301C140.869 308.939 140.483 308.67 140.046 308.527C139.459 308.339 138.822 308.39 138.272 308.669C137.723 308.948 137.306 309.433 137.112 310.017Z" fill="#263238"/>
<path d="M128.257 301.832C128.116 302.27 128.107 302.74 128.233 303.183C128.359 303.626 128.613 304.022 128.963 304.32C129.314 304.618 129.745 304.806 130.202 304.86C130.659 304.913 131.122 304.83 131.532 304.62C131.942 304.411 132.28 304.085 132.505 303.683C132.729 303.281 132.829 302.822 132.793 302.363C132.756 301.904 132.585 301.466 132.299 301.105C132.014 300.744 131.628 300.475 131.19 300.333C130.899 300.239 130.592 300.203 130.288 300.227C129.983 300.251 129.685 300.336 129.413 300.475C129.141 300.614 128.898 300.806 128.7 301.039C128.502 301.271 128.351 301.541 128.257 301.832Z" fill="#263238"/>
<path d="M112.334 293.442C115.267 295.938 118.023 298.62 120.714 301.32C122.074 302.679 123.424 304.039 124.756 305.417C126.087 306.795 127.4 308.21 128.713 309.616C125.681 307.273 122.818 304.718 120.146 301.972C117.388 299.274 114.78 296.426 112.334 293.442Z" fill="#263238"/>
<path d="M436.738 101.495C438.731 95.0888 447.446 81.0098 461.516 85.2465C481.545 91.299 480.782 131.022 489.814 144.328C506.165 168.352 504.712 190.457 489.218 192.552C471.889 194.889 457.112 175.14 461.46 135.827C464.179 111.244 458.266 99.6793 453.294 99.9494C448.322 100.219 445.026 106.151 445.026 106.151L436.738 101.495Z" fill="#263238"/>
<path d="M437.603 99.0834C438.902 96.1343 440.556 93.3545 442.528 90.8055C444.51 88.18 447.019 85.9979 449.894 84.3992C452.855 82.7744 456.253 82.1228 459.606 82.5369C462.95 82.9463 466.145 84.1604 468.917 86.0753C471.59 88.045 473.812 90.5624 475.435 93.4593C477.035 96.3031 478.304 99.3212 479.216 102.454C480.918 108.657 481.918 115.032 482.195 121.459C481.225 115.152 479.781 108.926 477.875 102.836C476.869 99.8642 475.561 97.0031 473.973 94.2973C472.426 91.6271 470.336 89.3113 467.837 87.4999C465.323 85.7441 462.429 84.6081 459.391 84.185C456.365 83.7394 453.275 84.23 450.536 85.5911C447.747 87.0056 445.259 88.9472 443.208 91.3083C442.14 92.4903 441.142 93.7339 440.219 95.0329C439.3 96.3676 438.428 97.7177 437.603 99.0834Z" fill="#263238"/>
<path d="M462.605 122.204C462.447 126.134 461.851 130.026 461.413 133.918C460.976 137.81 460.426 141.684 460.054 145.567C459.681 149.45 459.439 153.342 459.467 157.225C459.425 161.088 459.765 164.946 460.482 168.743C461.139 172.507 462.504 176.112 464.505 179.367C466.626 182.55 469.289 185.336 472.373 187.599C475.459 189.897 479.046 191.432 482.839 192.078C484.745 192.41 486.685 192.491 488.612 192.32C489.578 192.23 490.536 192.074 491.48 191.854C492.452 191.659 493.392 191.33 494.274 190.876C492.561 191.889 490.66 192.542 488.687 192.795C486.719 193.107 484.719 193.163 482.737 192.962C480.744 192.731 478.786 192.259 476.908 191.556C475.032 190.829 473.246 189.892 471.581 188.763C469.91 187.636 468.351 186.351 466.926 184.926L465.892 183.837L464.896 182.71C464.221 181.95 463.598 181.144 463.033 180.299C460.877 176.887 459.395 173.094 458.666 169.125C457.177 161.238 457.633 153.23 458.62 145.446C459.113 141.535 459.793 137.661 460.482 133.806C461.171 129.951 462.046 126.087 462.605 122.204Z" fill="#263238"/>
<path d="M435.508 101.495C435.452 99.6331 436.783 97.2773 437.975 96.9514C439.167 96.6255 447.994 100.415 448.758 102.687C449.521 104.959 445.583 106.952 445.583 106.952L435.508 101.495Z" fill="#455A64"/>
<path d="M442.324 182.785C437.072 194.201 398.038 247.863 378.661 249.325C358.38 250.861 309.756 217.721 305.1 214.956C292.315 207.395 327.969 172.496 334.133 178.641C344.432 189.005 369.061 208.522 375.104 207.209C387.767 204.415 414.128 182.291 432.835 170.764C444.046 163.882 448.125 170.149 442.324 182.785Z" fill="#AD6359"/>
<path d="M308.127 216.735C305.929 215.273 288.181 205.412 281.524 195.914C278.004 190.886 269.875 175.987 272.668 173.417C275.22 171.108 278.451 174.656 278.451 174.656C278.451 174.656 274.922 167.942 278.507 164.776C282.092 161.61 287.241 167.877 287.241 167.877C287.241 167.877 284.122 160.717 287.921 157.821C291.72 154.925 295.835 162.076 295.835 162.076C295.835 162.076 292.679 155.67 296.813 154.627C301.795 153.333 306.283 165.801 311.106 170.605C312.196 171.695 334.879 191.091 334.879 191.091L308.127 216.735Z" fill="#AD6359"/>
<path d="M296.133 162.076C299.457 171.238 302.492 174.674 310.1 180.559C310.249 180.671 310.1 180.922 309.942 180.81C301.999 175.726 297.567 171.965 295.704 162.187C295.574 161.731 295.956 161.638 296.133 162.076Z" fill="#263238"/>
<path d="M287.519 167.83C291.793 177.049 295.062 180.801 302.548 187.552C302.651 187.645 302.502 187.831 302.39 187.747C294.484 181.742 290.155 177.896 287.082 168.119C286.942 167.681 287.324 167.411 287.519 167.83Z" fill="#263238"/>
<path d="M278.824 174.972C283.61 183.595 287.008 187.869 295.119 193.483C295.159 193.508 295.189 193.548 295.2 193.594C295.211 193.641 295.204 193.689 295.179 193.73C295.155 193.771 295.115 193.8 295.068 193.812C295.022 193.823 294.973 193.815 294.932 193.791C286.105 188.865 281.822 183.548 278.572 175.168C278.358 174.572 278.526 174.423 278.824 174.972Z" fill="#263238"/>
<path d="M342.56 188.269C342.56 188.269 337.532 177.141 334.236 172.737C330.94 168.333 312.652 156.451 309.859 160.26C306.255 165.167 315.445 174.115 320.548 177.905C320.548 177.905 312.168 189.265 317.419 197.115C322.671 204.964 342.56 188.269 342.56 188.269Z" fill="#AD6359"/>
<path d="M309.309 161.926C309.253 168.78 316.246 173.333 320.902 177.374C320.976 177.429 321.035 177.502 321.074 177.586C321.113 177.67 321.13 177.762 321.125 177.855C321.119 177.947 321.091 178.036 321.042 178.115C320.994 178.194 320.926 178.259 320.846 178.305C317.671 183.305 314.635 191.276 317.038 197.049C317.055 197.083 317.058 197.121 317.047 197.157C317.036 197.193 317.011 197.223 316.977 197.24C316.944 197.257 316.905 197.261 316.869 197.249C316.834 197.238 316.804 197.213 316.786 197.18C313.369 191.341 315.706 183.268 319.58 178.017C314.738 173.947 307.922 169.078 309.281 161.936C309.253 161.889 309.309 161.889 309.309 161.926Z" fill="#263238"/>
<path d="M441.794 186.025C435.713 198.13 400.274 249.818 381.129 250.638C361.985 251.457 321.89 235.125 321.89 235.125L351.593 189.88C351.593 189.88 372.162 204.723 375.393 204.835C378.625 204.946 421.839 176.425 431.896 170.149C441.952 163.873 451.636 166.322 441.794 186.025Z" fill="#FDB839"/>
<path d="M349.013 235.46C348.869 234.083 348.904 232.693 349.115 231.325C349.287 229.953 349.631 228.608 350.139 227.321C350.283 228.698 350.248 230.088 350.037 231.456C349.863 232.828 349.519 234.173 349.013 235.46Z" fill="white"/>
<path d="M408.151 226.399C408.012 225.023 408.047 223.634 408.253 222.265C408.424 220.892 408.771 219.546 409.287 218.261C409.522 221.025 409.133 223.806 408.151 226.399Z" fill="white"/>
<path d="M411.428 191.975C410.051 192.116 408.662 192.078 407.294 191.863C405.92 191.699 404.574 191.354 403.29 190.839C404.667 190.701 406.056 190.735 407.424 190.942C408.798 191.113 410.143 191.461 411.428 191.975Z" fill="white"/>
<path d="M363.763 207.591C362.388 207.726 361.003 207.689 359.638 207.479C358.264 207.316 356.917 206.972 355.634 206.455C357.008 206.316 358.394 206.35 359.759 206.557C361.132 206.728 362.478 207.075 363.763 207.591Z" fill="white"/>
<path d="M370.719 249.623C370.665 249.698 370.606 249.77 370.542 249.837H370.3L370.719 249.623Z" fill="white"/>
<path d="M337.104 219.211C338.883 217.096 341.109 215.404 343.623 214.257C342.748 215.33 341.74 216.287 340.624 217.106C339.546 217.956 338.363 218.663 337.104 219.211Z" fill="white"/>
<path d="M386.669 208.931C387.546 207.861 388.553 206.903 389.667 206.082C390.759 205.233 391.954 204.526 393.224 203.978C392.352 205.053 391.344 206.01 390.226 206.827C389.134 207.676 387.939 208.383 386.669 208.931Z" fill="white"/>
<path d="M370.226 223.122C372.352 224.889 374.046 227.118 375.179 229.64C373.059 227.867 371.365 225.639 370.226 223.122Z" fill="white"/>
<path d="M417.285 201.901C419.403 203.673 421.093 205.902 422.23 208.419C421.158 207.55 420.203 206.545 419.39 205.43C418.541 204.348 417.834 203.162 417.285 201.901Z" fill="white"/>
<path d="M358.027 197.227C354.302 203.996 350.68 210.831 346.639 217.423C342.733 224.007 338.481 230.379 333.9 236.512C333.88 236.531 333.853 236.543 333.825 236.546C333.797 236.549 333.768 236.542 333.744 236.528C333.72 236.513 333.701 236.491 333.691 236.464C333.68 236.438 333.679 236.409 333.686 236.382C337.262 229.631 341.35 223.113 345.326 216.595C349.302 210.077 353.604 203.615 357.598 197.041C357.757 196.78 358.166 196.966 358.027 197.227Z" fill="#263238"/>
<path d="M441.792 186.025C435.712 198.13 400.272 249.818 381.128 250.637C376.472 250.833 370.597 250.023 364.367 248.673C379.266 232.759 420.86 187.878 440.126 167.104C445.964 166.75 448.841 172.039 441.792 186.025Z" fill="#263238"/>
<path d="M406.475 305.994H518.837C518.837 305.994 475.147 195.383 451.878 173.128C445.556 167.085 429.931 167.541 422.277 177.737C416.001 186.118 398.579 219.397 397.788 231.381C396.996 243.365 406.391 255.181 406.391 255.181L406.475 305.994Z" fill="#FDB839"/>
<path d="M420.834 264.548C420.695 263.174 420.729 261.789 420.936 260.423C421.106 259.05 421.454 257.704 421.97 256.419C422.11 257.794 422.072 259.18 421.858 260.544C421.686 261.917 421.342 263.262 420.834 264.548Z" fill="white"/>
<path d="M498.045 285.369C497.918 283.981 497.968 282.583 498.194 281.207C498.364 279.833 498.711 278.488 499.227 277.203C499.367 278.58 499.33 279.97 499.115 281.337C498.931 282.721 498.571 284.076 498.045 285.369Z" fill="white"/>
<path d="M449.568 303.555C449.429 302.181 449.463 300.795 449.67 299.43C449.841 298.056 450.188 296.71 450.704 295.426C450.844 296.8 450.807 298.186 450.592 299.551C450.42 300.923 450.076 302.268 449.568 303.555Z" fill="white"/>
<path d="M438.395 220.067C438.26 218.693 438.297 217.307 438.507 215.942C438.67 214.568 439.014 213.222 439.531 211.938C439.777 214.699 439.389 217.48 438.395 220.067Z" fill="white"/>
<path d="M468.256 253.692C468.129 252.31 468.176 250.918 468.396 249.548C468.563 248.175 468.908 246.829 469.42 245.544C469.668 248.308 469.279 251.092 468.284 253.683L468.256 253.692Z" fill="white"/>
<path d="M408.151 226.399C408.012 225.023 408.047 223.634 408.253 222.265C408.424 220.892 408.771 219.546 409.287 218.261C409.522 221.025 409.133 223.806 408.151 226.399Z" fill="white"/>
<path d="M447.669 259.456C444.905 259.7 442.123 259.314 439.53 258.329C440.907 258.186 442.297 258.22 443.665 258.431C445.037 258.604 446.382 258.948 447.669 259.456Z" fill="white"/>
<path d="M481.563 227.322C480.186 227.46 478.797 227.426 477.429 227.219C476.055 227.049 474.709 226.701 473.425 226.186C476.188 225.951 478.969 226.339 481.563 227.322Z" fill="white"/>
<path d="M421.084 297.251C419.71 297.387 418.324 297.349 416.959 297.139C415.585 296.976 414.239 296.632 412.955 296.115C414.329 295.976 415.715 296.01 417.08 296.217C418.454 296.388 419.8 296.735 421.084 297.251Z" fill="white"/>
<path d="M484.132 269.409C482.756 269.553 481.366 269.518 479.998 269.307C478.626 269.134 477.281 268.79 475.994 268.283C477.371 268.139 478.76 268.174 480.128 268.385C481.501 268.558 482.846 268.902 484.132 269.409Z" fill="white"/>
<path d="M430.936 284.68C431.813 283.612 432.82 282.658 433.934 281.84C435.024 280.988 436.219 280.281 437.491 279.736C435.715 281.85 433.488 283.54 430.973 284.68H430.936Z" fill="white"/>
<path d="M473.425 292.8C474.297 291.725 475.305 290.767 476.423 289.951C477.515 289.102 478.71 288.394 479.98 287.846C478.208 289.967 475.98 291.66 473.462 292.8H473.425Z" fill="white"/>
<path d="M484.672 253.049C485.549 251.982 486.556 251.028 487.67 250.209C488.76 249.357 489.956 248.65 491.227 248.105C490.357 249.179 489.349 250.134 488.229 250.945C487.139 251.797 485.944 252.505 484.672 253.049Z" fill="white"/>
<path d="M417.583 238.765C418.46 237.694 419.467 236.737 420.581 235.915C421.673 235.066 422.868 234.359 424.138 233.811C423.266 234.886 422.258 235.844 421.14 236.66C420.048 237.509 418.853 238.216 417.583 238.765Z" fill="white"/>
<path d="M461.03 211.371C461.907 210.301 462.915 209.343 464.029 208.522C465.12 207.673 466.316 206.966 467.586 206.417C466.713 207.493 465.705 208.45 464.587 209.267C463.495 210.116 462.3 210.823 461.03 211.371Z" fill="white"/>
<path d="M409.37 271.485C408.507 272.537 407.515 273.475 406.418 274.279V273.143C407.334 272.478 408.325 271.921 409.37 271.485Z" fill="white"/>
<path d="M438.896 193.884C439.774 192.813 440.781 191.856 441.895 191.035C442.987 190.186 444.182 189.478 445.452 188.93C443.68 191.051 441.452 192.744 438.934 193.884H438.896Z" fill="white"/>
<path d="M401.847 244.436C402.917 245.313 403.874 246.32 404.696 247.434C405.545 248.526 406.252 249.721 406.8 250.991C404.68 249.219 402.986 246.991 401.847 244.473V244.436Z" fill="white"/>
<path d="M417.285 201.901C419.403 203.673 421.093 205.902 422.23 208.419C421.158 207.55 420.203 206.545 419.39 205.43C418.541 204.348 417.834 203.162 417.285 201.901Z" fill="white"/>
<path d="M456.292 270.685C458.407 272.46 460.096 274.688 461.236 277.203C460.183 276.325 459.244 275.317 458.443 274.204C457.577 273.129 456.854 271.946 456.292 270.685Z" fill="white"/>
<path d="M496.703 297.697C497.774 298.574 498.731 299.582 499.552 300.696C500.401 301.788 501.109 302.983 501.657 304.253C500.58 303.383 499.622 302.374 498.807 301.254C497.956 300.164 497.249 298.968 496.703 297.697Z" fill="white"/>
<path d="M455.5 181.816C457.618 183.589 459.308 185.817 460.444 188.334C458.326 186.562 456.636 184.334 455.5 181.816Z" fill="white"/>
<path d="M448.246 234.24C449.321 235.112 450.279 236.12 451.095 237.238C451.949 238.327 452.657 239.523 453.2 240.795C451.079 239.023 449.386 236.795 448.246 234.277V234.24Z" fill="white"/>
<path d="M444.411 174.199C443.796 175.866 434.168 185.913 426.412 184.525C423.879 184.069 425.741 170.148 425.741 170.148L425.648 169.087L424.298 154.263L442.632 145.594L445.267 144.477C445.267 144.477 445.37 148.555 445.444 153.639C445.444 153.881 445.444 154.114 445.444 154.365C445.444 154.617 445.444 154.924 445.444 155.194C445.444 155.948 445.444 156.73 445.444 157.503C445.444 158.09 445.444 158.658 445.444 159.282V161.144C445.405 165.515 445.06 169.877 444.411 174.199Z" fill="#AD6359"/>
<path d="M445.444 153.639C443.465 157.497 440.668 160.878 437.249 163.546C433.831 166.213 429.872 168.104 425.648 169.087L424.298 154.263L442.632 145.594L445.267 144.477C445.267 144.477 445.37 148.555 445.444 153.639Z" fill="#263238"/>
<path d="M405.432 132.419C403.365 158.491 418.729 162.653 424.353 163.091C429.446 163.491 446.868 164.208 451.617 138.508C456.366 112.809 444.913 103.618 433.301 102.082C421.69 100.545 407.509 106.365 405.432 132.419Z" fill="#AD6359"/>
<path d="M409.827 126.878C410.423 126.793 411.014 126.675 411.596 126.524C412.237 126.489 412.847 126.24 413.328 125.817C413.453 125.654 413.521 125.454 413.521 125.249C413.521 125.043 413.453 124.843 413.328 124.681C413.035 124.394 412.671 124.192 412.273 124.093C411.875 123.995 411.458 124.005 411.065 124.122C410.231 124.24 409.468 124.661 408.924 125.304C408.808 125.459 408.739 125.644 408.727 125.837C408.716 126.029 408.76 126.222 408.857 126.389C408.953 126.557 409.096 126.692 409.268 126.779C409.441 126.866 409.635 126.9 409.827 126.878Z" fill="#263238"/>
<path d="M427.165 127.251C426.56 127.176 426.001 126.999 425.405 126.869C424.765 126.817 424.159 126.555 423.683 126.124C423.557 125.961 423.489 125.762 423.489 125.556C423.489 125.351 423.557 125.151 423.683 124.988C423.982 124.707 424.352 124.511 424.753 124.421C425.155 124.331 425.573 124.35 425.964 124.476C426.795 124.601 427.549 125.033 428.078 125.687C428.187 125.843 428.25 126.027 428.258 126.217C428.266 126.408 428.219 126.597 428.123 126.761C428.027 126.926 427.886 127.06 427.716 127.146C427.546 127.233 427.355 127.269 427.165 127.251Z" fill="#263238"/>
<path d="M423.086 133.825C423.086 133.75 423.226 133.908 423.216 133.983C423.105 135.761 423.272 137.81 424.865 138.452C424.911 138.452 424.865 138.564 424.865 138.555C422.891 138.21 422.695 135.482 423.086 133.825Z" fill="#263238"/>
<path d="M424.734 132.018C427.602 131.888 427.64 137.605 424.986 137.754C422.332 137.903 422.332 132.121 424.734 132.018Z" fill="#263238"/>
<path d="M425.861 132.317C426.373 132.633 426.866 133.248 427.472 133.248C428.077 133.248 428.691 132.708 429.148 132.13C429.148 132.074 429.241 132.13 429.25 132.196C429.25 133.294 428.85 134.43 427.677 134.598C426.503 134.765 425.814 133.788 425.535 132.68C425.488 132.484 425.665 132.223 425.861 132.317Z" fill="#263238"/>
<path d="M413.208 133.425C413.208 133.359 413.078 133.518 413.078 133.592C413.161 135.371 412.956 137.419 411.355 138.034C411.299 138.034 411.308 138.136 411.355 138.127C413.329 137.81 413.571 135.101 413.208 133.425Z" fill="#263238"/>
<path d="M411.596 131.59C408.728 131.413 408.589 137.177 411.243 137.326C413.896 137.475 413.999 131.739 411.596 131.59Z" fill="#263238"/>
<path d="M410.386 131.944C409.93 132.232 409.455 132.772 408.924 132.8C408.393 132.828 407.844 132.186 407.462 131.581C407.416 131.525 407.369 131.581 407.369 131.646C407.313 132.744 407.649 133.89 408.691 134.132C409.734 134.374 410.377 133.424 410.665 132.335C410.721 132.139 410.572 131.823 410.386 131.944Z" fill="#263238"/>
<path d="M423.217 147.903C422.817 148.341 422.416 148.937 421.774 149.021C421.115 149.041 420.458 148.924 419.846 148.676C419.834 148.673 419.821 148.673 419.809 148.677C419.797 148.681 419.787 148.689 419.779 148.698C419.771 148.708 419.766 148.72 419.765 148.733C419.764 148.745 419.766 148.758 419.772 148.769C420.044 149.104 420.401 149.359 420.806 149.508C421.21 149.657 421.648 149.695 422.072 149.617C422.433 149.508 422.753 149.292 422.989 148.998C423.226 148.704 423.367 148.345 423.394 147.968C423.413 147.866 423.273 147.838 423.217 147.903Z" fill="#263238"/>
<path d="M415.815 141.423C415.815 141.423 415.433 144.086 415.424 145.334C415.424 145.455 415.731 145.511 416.15 145.539C416.15 145.539 416.15 145.539 416.206 145.539C417.28 145.743 418.388 145.646 419.41 145.26C420.432 144.874 421.328 144.213 421.998 143.35C422.012 143.326 422.017 143.297 422.013 143.269C422.009 143.241 421.996 143.216 421.976 143.196C421.956 143.176 421.93 143.163 421.902 143.159C421.874 143.155 421.846 143.16 421.821 143.173C420.214 144.256 418.3 144.792 416.365 144.701C416.281 144.356 417.175 140.175 416.97 140.157C415.997 140.244 415.039 140.457 414.121 140.79C414.763 135.203 416.281 129.83 416.83 124.29C416.841 124.247 416.835 124.201 416.812 124.162C416.789 124.124 416.752 124.096 416.709 124.085C416.666 124.074 416.62 124.08 416.582 124.103C416.543 124.126 416.515 124.163 416.504 124.206C414.512 129.793 413.636 136.134 412.836 141.898C412.724 142.568 415.322 141.637 415.815 141.423Z" fill="#263238"/>
<path d="M416.42 145.259C417.172 146.262 418.169 147.054 419.316 147.559C419.945 147.814 420.639 147.866 421.299 147.708C422.752 147.345 422.798 146.023 422.547 144.915C422.406 144.312 422.197 143.728 421.923 143.173C420.359 144.439 418.43 145.17 416.42 145.259Z" fill="#263238"/>
<path d="M419.314 147.578C419.944 147.833 420.637 147.885 421.298 147.727C422.75 147.363 422.797 146.041 422.546 144.933C421 145.045 419.463 146.078 419.314 147.578Z" fill="#EB9481"/>
<path d="M450.462 141.106C448.795 140.289 447.37 139.052 446.325 137.518C445.28 135.983 444.652 134.204 444.503 132.353C439.964 130.345 436.045 127.159 433.152 123.126C433.32 123.666 434.558 127.539 435.256 129.495C418.775 126.338 413.728 113.665 413.728 113.665C408.356 118.982 407.275 122.39 406.493 124.085C406.493 124.085 406.419 113.972 411.652 107.222C418.058 98.953 439.586 96.8114 449.466 107.678C460.127 119.42 450.462 141.106 450.462 141.106Z" fill="#263238"/>
<path d="M422.77 126.711C425.413 128.172 428.26 129.229 431.216 129.849C426.571 128.571 422.377 126.016 419.111 122.474C417.724 120.967 416.535 119.29 415.572 117.483C414.444 115.548 413.71 113.409 413.412 111.188C413.412 111.154 413.398 111.121 413.374 111.096C413.349 111.072 413.316 111.058 413.282 111.058C413.247 111.058 413.214 111.072 413.19 111.096C413.165 111.121 413.151 111.154 413.151 111.188C413.212 113.418 413.646 115.621 414.436 117.707C415.301 119.741 416.535 121.598 418.077 123.182C419.455 124.58 421.022 125.777 422.733 126.739" fill="#263238"/>
<path d="M447.325 140.184C447.325 140.184 452.967 131.981 456.636 133.992C460.305 136.004 456.143 147.857 451.813 149.505C451.271 149.755 450.685 149.892 450.088 149.909C449.492 149.926 448.899 149.822 448.344 149.603C447.789 149.385 447.284 149.057 446.859 148.638C446.434 148.22 446.099 147.72 445.872 147.168L447.325 140.184Z" fill="#AD6359"/>
<path d="M455.36 137.363C455.435 137.363 455.444 137.447 455.36 137.475C452.325 138.732 450.704 141.572 449.634 144.505C450.565 143.369 451.766 142.745 453.284 143.816C453.358 143.872 453.284 143.993 453.2 143.974C452.666 143.802 452.093 143.799 451.558 143.966C451.023 144.133 450.552 144.461 450.211 144.905C449.659 145.666 449.185 146.48 448.796 147.335C448.656 147.615 448.162 147.466 448.265 147.158V147.084C448.246 143.238 451.226 137.81 455.36 137.363Z" fill="#263238"/>
<path d="M448.229 148.909C448.229 149.278 448.338 149.638 448.542 149.944C448.747 150.25 449.038 150.489 449.378 150.63C449.718 150.771 450.093 150.808 450.454 150.736C450.815 150.664 451.147 150.486 451.408 150.226C451.668 149.966 451.845 149.634 451.917 149.272C451.989 148.911 451.952 148.537 451.811 148.197C451.67 147.856 451.432 147.565 451.125 147.361C450.819 147.156 450.459 147.047 450.091 147.047C449.601 147.059 449.134 147.259 448.787 147.605C448.44 147.952 448.24 148.419 448.229 148.909Z" fill="white"/>
<path d="M417.267 179.516C417.267 179.516 411.941 194.656 421.578 195.727C431.216 196.798 456.384 178.184 456.384 178.184C456.384 178.184 449.401 166.88 438.246 168.091C428.981 169.087 417.267 179.516 417.267 179.516Z" fill="#AD6359"/>
<path d="M462.81 197.245C462.81 215.943 452.065 272.007 441.747 279.559C421.104 294.671 372.693 293.628 359.341 293.861C353.577 293.954 346.007 255.582 350.299 251.168C354.592 246.754 413.617 245.115 416.597 242.853C418.692 241.279 435.341 213.987 444.978 196.444C457.977 172.728 462.81 187.822 462.81 197.245Z" fill="#AD6359"/>
<path d="M360.541 249.119C360.541 249.119 343.119 247.192 331.676 246.475C325.279 246.065 314.263 246.353 309.43 248.197C302.205 250.991 273.758 267.165 277.529 274.148C280.946 280.461 289.634 273.478 289.634 273.478C289.634 273.478 279.391 280.219 284.736 285.452C290.081 290.685 300.566 280.517 300.566 280.517C300.566 280.517 289.215 286.924 295.426 291.97C300.817 296.338 314.114 285.89 314.114 285.89C314.114 285.89 301.469 291.319 306.553 296.338C312.14 301.924 334.069 288.721 334.069 288.721C348.324 293.47 357.524 294.391 368.437 293.702C370.411 293.581 360.541 249.119 360.541 249.119Z" fill="#AD6359"/>
<path d="M297.363 282.818L299.942 280.546C301.585 279.032 303.313 277.614 305.12 276.3C306.907 275.043 308.742 273.879 310.613 272.771C312.485 271.663 314.701 270.61 316.647 269.381C316.662 269.37 316.679 269.362 316.697 269.358C316.715 269.354 316.734 269.353 316.752 269.357C316.77 269.361 316.787 269.368 316.802 269.379C316.817 269.389 316.83 269.403 316.839 269.419C316.848 269.435 316.854 269.453 316.856 269.471C316.858 269.49 316.856 269.508 316.85 269.526C316.844 269.543 316.835 269.559 316.822 269.573C316.81 269.587 316.795 269.597 316.778 269.605C314.844 270.796 312.979 272.096 311.191 273.497C309.394 274.81 307.606 276.151 305.818 277.482C304.03 278.814 302.261 279.968 300.483 281.207C299.551 281.831 298.732 282.501 297.875 283.162C297.098 283.853 296.263 284.476 295.38 285.025C295.296 285.071 295.212 284.95 295.268 284.876C295.893 284.119 296.595 283.429 297.363 282.818Z" fill="#263238"/>
<path d="M287.531 274.922C288.713 273.385 295.222 268.078 296.963 266.821C300.329 264.374 303.932 262.271 307.718 260.545C307.745 260.537 307.774 260.539 307.801 260.549C307.827 260.56 307.849 260.578 307.864 260.603C307.879 260.627 307.885 260.655 307.882 260.683C307.879 260.712 307.867 260.738 307.848 260.759C304.487 263.217 301.088 265.619 297.689 268.031C296.023 269.204 288.648 274.782 287.801 275.266C287.596 275.387 287.409 275.089 287.531 274.922Z" fill="#263238"/>
<path d="M306.376 290.519C309.208 287.838 312.217 285.35 315.38 283.069C318.815 281.034 322.397 279.26 326.098 277.762C326.237 277.715 326.349 277.901 326.228 277.976C322.801 280.015 319.356 281.98 315.985 284.177C314.365 285.248 308.164 289.895 306.525 290.779C306.45 290.826 306.301 290.612 306.376 290.519Z" fill="#263238"/>
<path d="M372.292 296.683L356.369 246.084C356.369 246.084 414.305 242.36 416.186 241.428C418.067 240.497 438.72 203.968 446.914 189.778C455.108 175.587 467.735 181.397 463.014 213.457C458.274 245.665 453.06 270.694 445.843 278.144C437.053 287.157 405.022 296.469 372.292 296.683Z" fill="#FDB839"/>
<path d="M420.834 264.548C420.695 263.174 420.729 261.789 420.936 260.423C421.106 259.05 421.454 257.704 421.97 256.419C422.11 257.794 422.072 259.18 421.858 260.544C421.686 261.917 421.342 263.262 420.834 264.548Z" fill="white"/>
<path d="M388.82 293.508C388.677 292.131 388.711 290.742 388.923 289.374C389.097 288.002 389.441 286.657 389.947 285.37C390.09 286.746 390.056 288.136 389.844 289.504C389.673 290.876 389.329 292.222 388.82 293.508Z" fill="white"/>
<path d="M438.395 220.067C438.26 218.693 438.297 217.307 438.507 215.942C438.67 214.568 439.014 213.222 439.531 211.938C439.777 214.699 439.389 217.48 438.395 220.067Z" fill="white"/>
<path d="M447.669 259.456C444.905 259.7 442.123 259.314 439.53 258.329C440.907 258.186 442.297 258.22 443.665 258.431C445.037 258.604 446.382 258.948 447.669 259.456Z" fill="white"/>
<path d="M392.042 261.047C390.665 261.191 389.275 261.156 387.907 260.945C386.535 260.773 385.19 260.429 383.903 259.921C385.28 259.777 386.67 259.812 388.038 260.023C389.41 260.197 390.755 260.541 392.042 261.047Z" fill="white"/>
<path d="M430.936 284.68C431.813 283.612 432.82 282.658 433.934 281.84C435.024 280.988 436.219 280.281 437.491 279.736C435.715 281.85 433.488 283.54 430.973 284.68H430.936Z" fill="white"/>
<path d="M364.164 254.567C365.041 253.499 366.049 252.545 367.162 251.727C368.252 250.875 369.448 250.167 370.719 249.623C369.849 250.697 368.841 251.652 367.721 252.463C366.631 253.315 365.436 254.022 364.164 254.567Z" fill="white"/>
<path d="M424.139 233.811C423.267 234.886 422.259 235.844 421.141 236.66C420.296 237.302 419.399 237.872 418.459 238.364C418.748 237.917 419.064 237.433 419.39 236.893C419.772 236.558 420.172 236.232 420.573 235.962C421.665 235.096 422.863 234.373 424.139 233.811Z" fill="white"/>
<path d="M463.544 208.94C463.544 209.332 463.47 209.723 463.423 210.123C462.671 210.631 461.869 211.062 461.03 211.408C461.773 210.494 462.617 209.666 463.544 208.94Z" fill="white"/>
<path d="M402.815 276.439C403.693 275.368 404.7 274.411 405.814 273.59C406.906 272.741 408.101 272.034 409.371 271.485C408.498 272.56 407.49 273.518 406.372 274.335C405.28 275.184 404.085 275.891 402.815 276.439Z" fill="white"/>
<path d="M401.847 244.436C402.917 245.313 403.874 246.32 404.696 247.434C405.545 248.526 406.252 249.721 406.8 250.991C404.68 249.219 402.986 246.991 401.847 244.473V244.436Z" fill="white"/>
<path d="M460.444 188.362C459.375 187.49 458.42 186.486 457.604 185.373C456.907 184.47 456.302 183.5 455.798 182.477C455.968 182.467 456.139 182.467 456.31 182.477C457.048 183.188 457.726 183.957 458.34 184.777C459.192 185.876 459.9 187.081 460.444 188.362Z" fill="white"/>
<path d="M448.246 234.24C449.321 235.112 450.279 236.12 451.095 237.238C451.949 238.327 452.657 239.523 453.2 240.795C451.079 239.023 449.386 236.795 448.246 234.277V234.24Z" fill="white"/>
<path d="M434.326 211.166C432.464 213.959 430.685 216.92 428.944 219.835L428.795 220.077C428.879 219.853 428.972 219.63 429.056 219.416C429.624 217.963 430.127 216.483 430.741 215.058C430.741 214.974 430.657 214.9 430.62 214.984C429.987 216.39 429.289 217.777 428.693 219.183C428.292 220.114 427.929 221.111 427.585 222.088C426.29 224.249 424.996 226.409 423.72 228.606C422.007 231.53 420.303 234.473 418.58 237.396C418.152 238.113 417.742 238.83 417.305 239.547C416.998 240.182 416.462 240.678 415.805 240.935C415.027 241.12 414.231 241.226 413.431 241.251C412.584 241.335 411.736 241.438 410.889 241.54C407.034 242.015 403.207 242.648 399.352 243.151C399.259 243.151 399.259 243.309 399.352 243.3C402.89 243.03 406.438 242.899 409.976 242.611C411.727 242.471 413.478 242.35 415.21 242.127C415.88 242.091 416.526 241.865 417.072 241.475C417.551 241.039 417.946 240.518 418.236 239.938C421.743 233.867 425.25 227.793 428.758 221.716C430.741 218.271 432.752 214.844 434.577 211.315C434.597 211.282 434.603 211.242 434.593 211.204C434.584 211.167 434.56 211.134 434.526 211.115C434.493 211.095 434.453 211.089 434.416 211.099C434.378 211.108 434.346 211.133 434.326 211.166Z" fill="#263238"/>
<path d="M463.098 224.677C462.919 225.837 462.642 226.98 462.269 228.094C461.99 229.09 461.72 230.087 461.422 231.074C461.124 232.061 460.686 233.299 460.305 234.407C461.087 229.478 461.707 224.512 462.167 219.509C462.167 219.36 461.925 219.332 461.897 219.509C460.966 226.464 459.69 233.392 458.228 240.245C456.766 247.099 454.997 253.943 452.995 260.675C452.008 263.99 450.965 267.295 449.81 270.554C448.908 273.409 447.536 276.093 445.751 278.497C443.639 280.896 440.996 282.768 438.031 283.963C434.945 285.383 431.78 286.627 428.552 287.687C421.215 290.09 413.654 291.617 406.149 293.414C406.065 293.414 406.084 293.572 406.149 293.563C413.036 292.601 419.859 291.22 426.578 289.429C429.982 288.522 433.325 287.402 436.588 286.077C439.577 284.829 442.659 283.479 445.071 281.263C447.278 279.088 448.982 276.456 450.062 273.553C451.319 270.508 452.306 267.342 453.284 264.241C455.425 257.369 457.213 250.441 458.675 243.393C459.091 241.35 459.479 239.305 459.839 237.256C460.676 235.309 461.355 233.298 461.869 231.241C462.148 230.17 462.418 229.1 462.632 228.01C462.847 226.921 462.912 225.785 463.219 224.732C463.266 224.593 463.107 224.565 463.098 224.677Z" fill="#263238"/>
<path d="M382.367 292.604C379.741 285.332 376.966 278.116 374.666 270.741C372.281 263.464 370.283 256.067 368.679 248.58C368.679 248.551 368.689 248.524 368.706 248.501C368.724 248.479 368.748 248.463 368.775 248.456C368.803 248.448 368.832 248.45 368.858 248.461C368.884 248.471 368.906 248.49 368.921 248.514C371.649 255.647 373.865 263.012 376.156 270.294C378.446 277.576 380.476 285.071 382.795 292.409C382.879 292.688 382.478 292.884 382.367 292.604Z" fill="#263238"/>
<path d="M372.609 244.892C371.223 244.818 369.833 244.818 368.447 244.892C367.059 244.892 365.653 244.985 364.285 245.041C361.491 245.162 358.744 245.367 355.979 245.6C355.925 245.602 355.872 245.616 355.824 245.642C355.776 245.668 355.735 245.704 355.704 245.748C355.672 245.792 355.651 245.843 355.642 245.896C355.634 245.95 355.637 246.004 355.653 246.056C355.99 247.082 356.466 248.056 357.068 248.952C357.115 248.999 357.208 248.952 357.208 248.906C357.086 247.998 356.842 247.112 356.482 246.27C359.126 246.093 361.771 245.935 364.415 245.73L368.568 245.432C369.918 245.321 371.296 245.283 372.637 245.069C372.749 245.069 372.702 244.892 372.609 244.892Z" fill="#263238"/>
<path d="M310.102 234.053C313.556 235.767 329.339 236.418 333.939 242.08C337.002 245.804 336.732 249.65 338.483 260.889C340.038 270.647 331.965 268.338 329.628 263.329C325.978 255.479 322.84 246.875 322.84 246.875C320.146 246.742 317.446 246.782 314.757 246.996L310.102 234.053Z" fill="#F7A9A0"/>
<path d="M321.442 270.964C326.908 267.5 344.386 289.587 335.652 295.407C326.918 301.226 315.25 274.875 321.442 270.964Z" fill="#F7A9A0"/>
<path d="M312.587 275.62C318.044 272.156 335.531 294.243 326.796 300.063C318.062 305.882 306.376 279.577 312.587 275.62Z" fill="#F7A9A0"/>
<path d="M306.311 276.551C311.758 274.158 324.58 296.646 315.827 300.761C307.075 304.877 300.147 279.224 306.311 276.551Z" fill="#F7A9A0"/>
<path d="M299.859 275.9C305.586 275.22 311.154 299.709 301.87 301.041C292.587 302.372 293.406 276.672 299.859 275.9Z" fill="#F7A9A0"/>
<path d="M320.194 278.591C321.196 279.697 322.106 280.883 322.913 282.138C323.844 283.451 324.71 284.783 325.492 286.18C326.255 287.51 326.939 288.885 327.541 290.295C328.155 291.794 328.584 293.396 329.245 294.877C329.253 294.893 329.258 294.911 329.259 294.929C329.26 294.947 329.257 294.965 329.25 294.982C329.244 294.999 329.234 295.015 329.221 295.028C329.208 295.041 329.192 295.051 329.175 295.057C329.158 295.064 329.14 295.067 329.122 295.066C329.104 295.065 329.086 295.06 329.07 295.052C329.053 295.043 329.039 295.032 329.027 295.018C329.016 295.004 329.007 294.987 329.003 294.97C328.366 293.527 327.625 292.133 326.787 290.798C326.014 289.448 325.315 288.061 324.561 286.701C323.807 285.342 323.127 284.038 322.373 282.725C321.619 281.412 320.715 280.109 320.017 278.721C320.006 278.698 320.003 278.671 320.009 278.646C320.015 278.62 320.03 278.598 320.051 278.582C320.072 278.567 320.098 278.559 320.124 278.561C320.15 278.562 320.175 278.573 320.194 278.591Z" fill="#263238"/>
<path d="M311.098 278.469C311.657 280.127 313.538 286.459 314.171 288.097C314.804 289.736 315.502 291.375 316.219 292.995C316.936 294.615 317.551 296.375 318.482 297.968C318.49 297.996 318.488 298.026 318.476 298.054C318.465 298.081 318.444 298.103 318.419 298.117C318.393 298.131 318.363 298.136 318.334 298.131C318.305 298.126 318.278 298.111 318.259 298.089C317.383 296.506 316.396 295.035 315.558 293.433C314.72 291.831 314.059 290.183 313.417 288.507C312.359 285.242 311.504 281.914 310.856 278.544C310.809 278.339 311.033 278.33 311.098 278.469Z" fill="#263238"/>
<path d="M304.235 280.043C304.672 282.408 304.961 284.801 305.408 287.167C305.622 288.331 305.855 289.494 306.069 290.668C306.171 291.226 306.264 291.794 306.367 292.362C306.421 293.019 306.543 293.668 306.73 294.299C306.795 294.458 306.497 294.532 306.479 294.299C306.307 293.591 306.083 292.897 305.808 292.223C305.65 291.673 305.492 291.133 305.352 290.575C305.063 289.42 304.831 288.265 304.644 287.083C304.226 284.764 303.983 282.417 303.918 280.062C303.918 279.913 304.207 279.866 304.235 280.043Z" fill="#263238"/>
<path d="M338.346 123.461C340.652 120.035 341.899 116.007 341.931 111.877C341.931 97.2023 325.813 85.3115 305.952 85.3115C286.09 85.3115 270 97.2023 270 111.877C270 126.552 286.09 138.443 305.952 138.443C315.589 138.443 324.314 135.649 330.767 131.096L343.16 134.243L338.346 123.461Z" fill="#FDB839"/>
<path d="M293.018 111.877C293.018 112.614 292.799 113.334 292.39 113.947C291.981 114.559 291.399 115.037 290.718 115.319C290.038 115.6 289.289 115.674 288.566 115.53C287.844 115.387 287.18 115.032 286.659 114.511C286.138 113.99 285.784 113.327 285.64 112.604C285.496 111.882 285.57 111.133 285.852 110.452C286.134 109.772 286.611 109.19 287.224 108.781C287.836 108.371 288.556 108.153 289.293 108.153C290.281 108.153 291.228 108.545 291.927 109.244C292.625 109.942 293.018 110.89 293.018 111.877Z" fill="#263238"/>
<path d="M305.961 115.611C308.024 115.611 309.695 113.939 309.695 111.877C309.695 109.815 308.024 108.143 305.961 108.143C303.899 108.143 302.228 109.815 302.228 111.877C302.228 113.939 303.899 115.611 305.961 115.611Z" fill="#263238"/>
<path d="M326.353 111.877C326.353 112.614 326.135 113.334 325.726 113.947C325.317 114.559 324.735 115.037 324.054 115.319C323.374 115.6 322.625 115.674 321.902 115.53C321.18 115.387 320.516 115.032 319.995 114.511C319.474 113.99 319.12 113.327 318.976 112.604C318.832 111.882 318.906 111.133 319.188 110.452C319.47 109.772 319.947 109.19 320.56 108.781C321.172 108.371 321.892 108.153 322.629 108.153C323.617 108.153 324.564 108.545 325.263 109.244C325.961 109.942 326.353 110.89 326.353 111.877Z" fill="#263238"/>
<path d="M333.828 43.764C331.752 61.1299 320.587 64.2493 318.707 68.905C317.757 71.8194 316.974 74.7852 316.36 77.7882H298.203C297.6 74.7834 296.82 71.8172 295.865 68.905C294.003 64.2493 282.829 61.0461 280.874 43.6616C279.561 32.2457 288.193 14.2372 307.402 14.2838C326.612 14.3303 335.179 32.3574 333.828 43.764Z" fill="#FDB839"/>
<path d="M297.957 49.996L297.041 50.1646L302.359 79.0569L303.275 78.8883L297.957 49.996Z" fill="white"/>
<path d="M316.726 50.0285L311.276 78.8965L312.191 79.0692L317.641 50.2013L316.726 50.0285Z" fill="white"/>
<path d="M307.337 59.7054C305.913 59.7054 304.479 58.5694 303.306 56.5116C303.25 56.4185 303.194 56.3254 303.147 56.2322C302.96 56.4728 302.726 56.6722 302.458 56.818C302.19 56.9638 301.896 57.0528 301.592 57.0796C298.873 57.0796 297.793 51.4927 297.756 51.2227L298.212 51.1389C298.212 51.1947 299.255 56.6047 301.592 56.614C301.859 56.5768 302.114 56.4838 302.342 56.3409C302.57 56.1981 302.765 56.0088 302.914 55.7853C301.769 53.4202 301.127 50.3288 301.983 48.9227C302.106 48.697 302.288 48.5091 302.509 48.3795C302.731 48.2498 302.984 48.1833 303.24 48.1871C303.545 48.1773 303.846 48.2522 304.111 48.4034C304.376 48.5546 304.593 48.7763 304.739 49.0438C305.559 50.4684 304.954 53.4109 303.874 55.2638C303.759 55.4624 303.635 55.6551 303.501 55.8412C303.576 55.9901 303.659 56.1391 303.743 56.2788C304.376 57.3869 305.689 59.2399 307.375 59.2399C308.501 59.2399 309.628 58.3087 310.559 56.7537C310.641 56.6211 310.715 56.4844 310.783 56.344C310.541 56.0557 310.329 55.7438 310.149 55.4128C309.023 53.4574 308.799 50.5615 309.656 49.0903C309.792 48.8153 310.002 48.5829 310.261 48.4187C310.521 48.2545 310.82 48.1647 311.127 48.1592C311.365 48.1597 311.598 48.2261 311.8 48.351C312.002 48.4759 312.166 48.6545 312.272 48.8669C313.073 50.2636 312.626 53.5878 311.341 56.2043C311.586 56.4486 311.876 56.642 312.196 56.773C312.516 56.9041 312.858 56.9703 313.204 56.9679C314.861 56.9679 316.342 53.0105 316.77 51.4834L317.217 51.6044C317.152 51.8465 315.55 57.4334 313.204 57.4334C312.452 57.4317 311.728 57.1494 311.174 56.642L311.006 56.9399C310.205 58.2249 308.995 59.7054 307.337 59.7054ZM311.062 48.6713C310.837 48.6753 310.618 48.7419 310.429 48.8637C310.24 48.9854 310.088 49.1574 309.991 49.3604C309.228 50.6826 309.46 53.4202 310.485 55.2173C310.619 55.4549 310.774 55.6793 310.95 55.8877C312.086 53.4481 312.515 50.3846 311.807 49.1462C311.74 49.0048 311.635 48.8852 311.503 48.8012C311.371 48.7172 311.218 48.6722 311.062 48.6713ZM303.166 48.6713C302.99 48.6657 302.816 48.71 302.665 48.799C302.513 48.8879 302.39 49.018 302.309 49.1741C301.667 50.2915 302.086 53.0105 303.194 55.3756L303.399 55.0497C304.386 53.3457 304.982 50.5615 304.265 49.2952C304.159 49.0979 304 48.9346 303.806 48.8242C303.611 48.7138 303.389 48.6608 303.166 48.6713Z" fill="white"/>
<path d="M318.478 77.0645L296.084 77.0098L296.073 81.3862L318.467 81.4409L318.478 77.0645Z" fill="#455A64"/>
<path d="M318.458 82.1485L296.063 82.0938L296.053 86.4701L318.447 86.5249L318.458 82.1485Z" fill="#455A64"/>
<path d="M318.47 87.1919L296.076 87.1411L296.066 91.5175L318.46 91.5683L318.47 87.1919Z" fill="#455A64"/>
<path d="M308.269 0C308.853 2.38129 308.815 4.87292 308.157 7.23503C307.573 4.85369 307.612 2.36217 308.269 0Z" fill="#263238"/>
<path d="M287.96 4.97217C288.822 5.83934 289.553 6.82742 290.13 7.90529C290.742 8.9646 291.2 10.1059 291.489 11.2947C290.639 10.4313 289.917 9.44969 289.347 8.38018C288.722 7.31737 288.255 6.16937 287.96 4.97217Z" fill="#263238"/>
<path d="M272.866 19.4238C275.224 20.1069 277.364 21.3903 279.077 23.1484C277.896 22.823 276.767 22.3307 275.725 21.6865C274.668 21.0736 273.705 20.3115 272.866 19.4238Z" fill="#263238"/>
<path d="M267 39.4806C269.381 38.8967 271.873 38.9351 274.235 39.5923C271.854 40.1763 269.362 40.1378 267 39.4806Z" fill="#263238"/>
<path d="M271.973 59.7893C272.84 58.9275 273.828 58.1966 274.906 57.6197C275.963 57.005 277.105 56.55 278.295 56.2695C276.521 57.9606 274.345 59.172 271.973 59.7893Z" fill="#263238"/>
<path d="M341.883 61.3349C339.529 60.6422 337.391 59.3602 335.672 57.6104C338.03 58.2934 340.17 59.5768 341.883 61.3349Z" fill="#263238"/>
<path d="M347.739 41.2686C346.554 41.575 345.331 41.7129 344.107 41.6783C342.887 41.6832 341.673 41.5075 340.504 41.1568C341.685 40.8463 342.905 40.7083 344.126 40.7471C345.349 40.7514 346.565 40.9269 347.739 41.2686Z" fill="#263238"/>
<path d="M342.777 20.9692C341.907 21.8253 340.919 22.5527 339.843 23.1295C338.786 23.7456 337.644 24.2036 336.454 24.489C337.323 23.6371 338.311 22.9157 339.387 22.3473C340.445 21.7284 341.587 21.2643 342.777 20.9692Z" fill="#263238"/>
<path d="M328.326 5.8667C327.643 8.22441 326.36 10.3644 324.602 12.0775C324.927 10.8992 325.419 9.77359 326.063 8.73463C326.679 7.6767 327.44 6.71115 328.326 5.8667Z" fill="#263238"/>
</svg>
