<svg width="475" height="477" viewBox="0 0 475 477" fill="none" xmlns="http://www.w3.org/2000/svg">
<path d="M386.734 49.518L429.691 49.518V36.8614L386.734 36.8614V49.518Z" fill="#EBEBEB"/>
<path d="M410.689 20.902C417.849 20.7889 435.9 20.4949 442.823 20.427H453.647H454.167V20.9473V33.6039V34.1694H453.602L432.111 34.0903C426.762 34.0903 415.982 33.9319 410.621 33.8527H410.463V33.6039L410.712 20.9473L410.689 20.902ZM410.689 20.902L410.949 33.5587L410.689 33.2985C416.05 33.2306 426.818 33.1175 432.179 33.0723L453.67 32.9931L453.104 33.5587L453.161 20.902L453.67 21.4223H443.026C436.24 21.3545 417.758 21.0717 410.712 20.9586L410.689 20.902Z" fill="#EBEBEB"/>
<path d="M362.756 20.902C369.915 20.7889 387.978 20.4949 394.889 20.427H405.725H406.234V20.9473V33.6039V34.1694H405.668L384.178 34.0903C378.828 34.0903 368.038 33.9319 362.688 33.8527H362.428V33.6039L362.677 20.9473L362.756 20.902ZM362.756 20.902L363.016 33.5587L362.756 33.2985C368.117 33.2306 378.885 33.1175 384.246 33.0723L405.736 32.9931L405.171 33.5587V20.902L405.691 21.4223H395.036C388.25 21.3545 369.768 21.0717 362.722 20.9586L362.756 20.902Z" fill="#EBEBEB"/>
<path d="M21.1737 20.902C28.322 20.7889 46.3851 20.4949 53.2959 20.427H64.1315H64.6518V20.9473V33.6039V34.1694H64.0863L42.5961 34.0903C37.2461 34.0903 26.4671 33.9319 21.1058 33.8527H20.8457V33.6039L21.1058 20.9473L21.1737 20.902ZM21.1737 20.902L21.3773 33.5587L21.1285 33.2985C26.4897 33.2306 37.2461 33.1175 42.6187 33.0723L64.1089 32.9931L63.5434 33.5587V20.902L64.0636 21.4223H53.409C46.6226 21.3545 28.1411 21.0717 21.1058 20.9586L21.1737 20.902Z" fill="#EBEBEB"/>
<path d="M45.1418 405.283H88.0996V392.626H45.1418V405.283Z" fill="#EBEBEB"/>
<path d="M21.1737 376.678C28.322 376.553 46.3851 376.271 53.2959 376.203H64.1315H64.6518V376.723V389.38V389.945H64.0863L42.5961 389.866C37.2461 389.866 26.4671 389.708 21.1058 389.629H20.8457V389.38L21.1058 376.723L21.1737 376.678ZM21.1737 376.678L21.3773 389.334L21.1285 389.074C26.4897 389.006 37.2461 388.893 42.6187 388.848L64.1089 388.769L63.5434 389.334V376.678L64.0636 377.187H53.409C46.6226 377.119 28.1411 376.836 21.1058 376.723L21.1737 376.678Z" fill="#EBEBEB"/>
<path d="M108.469 118.241C115.629 118.128 133.681 117.845 140.603 117.778L151.427 117.721H151.947V118.241V130.898V131.464H151.45L129.959 131.384C124.609 131.384 113.83 131.226 108.469 131.158H108.209V130.909L108.469 118.241ZM108.469 118.241L108.718 130.898L108.469 130.649C113.83 130.57 124.587 130.457 129.959 130.412L151.45 130.332L150.884 130.898V118.241L151.404 118.762H140.761C133.975 118.694 115.493 118.4 108.446 118.287L108.469 118.241Z" fill="#EBEBEB"/>
<path d="M410.689 392.615C417.849 392.502 435.9 392.219 442.823 392.151H453.647H454.167V392.671V405.328V405.905H453.602L432.111 405.826C426.762 405.826 415.982 405.667 410.621 405.599H410.463V405.339L410.712 392.683L410.689 392.615ZM410.689 392.615L410.949 405.271L410.689 405.023C416.05 404.943 426.818 404.83 432.179 404.785L453.67 404.706L453.104 405.271L453.161 392.615L453.67 393.135H443.026C436.24 393.067 417.758 392.773 410.712 392.66L410.689 392.615Z" fill="#EBEBEB"/>
<path d="M280.186 186.671H237.229V199.327H280.186V186.671Z" fill="#EBEBEB"/>
<path d="M256.218 215.286C249.059 215.411 231.007 215.694 224.096 215.762H213.261H212.74V215.241V202.585V202.019H213.306L234.796 202.087C240.146 202.087 250.925 202.245 256.286 202.324H256.546V202.573L256.286 215.23L256.218 215.286ZM256.218 215.286L255.969 202.63L256.218 202.89C250.857 202.969 240.101 203.071 234.728 203.116L213.238 203.195L213.803 202.63V215.286L213.283 214.778H223.938C230.724 214.845 249.194 215.139 256.241 215.241L256.218 215.286Z" fill="#EBEBEB"/>
<path d="M0 476.088C152.094 475.398 322.726 475.398 474.821 476.088C322.726 476.789 152.094 476.789 0 476.088Z" fill="#263238"/>
<path d="M93.1211 150.658C93.1211 150.658 120.911 290.446 122.925 300.773C123.377 303.125 121.794 428.255 121.794 428.255H173.517C173.517 428.255 178.505 318.949 176.005 298.329C173.506 277.71 141.983 150.658 141.983 150.658H93.1211Z" fill="#CF8170"/>
<path opacity="0.1" d="M93.1211 150.658C93.1211 150.658 106.694 218.691 115.539 263.346L141.972 150.658H93.1211Z" fill="black"/>
<path d="M159.515 220.557L104.511 227.163L93.1211 150.658H141.96L159.515 220.557Z" fill="#1D3C58"/>
<path d="M106.568 216.644C112.439 215.513 118.411 214.744 124.36 214.065C130.309 213.387 136.157 212.753 142.05 212.154C145.443 211.803 148.836 211.464 152.229 211.294C152.271 211.294 152.312 211.311 152.341 211.341C152.371 211.37 152.388 211.411 152.388 211.453C152.388 211.495 152.371 211.535 152.341 211.565C152.312 211.594 152.271 211.611 152.229 211.611C146.336 212.742 140.364 213.398 134.426 214.178C128.488 214.959 122.663 215.683 116.759 216.316C113.366 216.678 109.973 216.961 106.58 217.097C106.55 217.097 106.52 217.092 106.493 217.082C106.465 217.071 106.44 217.055 106.418 217.034C106.396 217.014 106.379 216.989 106.367 216.962C106.355 216.935 106.348 216.906 106.348 216.876C106.347 216.846 106.352 216.817 106.363 216.789C106.373 216.761 106.389 216.736 106.41 216.714C106.43 216.693 106.455 216.676 106.482 216.664C106.509 216.652 106.539 216.645 106.568 216.644Z" fill="#263238"/>
<path d="M100.732 155.115C104.826 169.766 108.728 184.469 112.438 199.226C112.958 201.296 113.456 203.366 113.954 205.447C114.526 207.563 114.987 209.707 115.334 211.871C115.334 211.898 115.323 211.924 115.304 211.943C115.285 211.962 115.259 211.973 115.232 211.973C115.205 211.973 115.179 211.962 115.16 211.943C115.141 211.924 115.13 211.898 115.13 211.871C113.867 208.239 112.795 204.543 111.918 200.798C110.934 197.134 109.995 193.469 109.045 189.793C107.156 182.464 105.267 175.089 103.48 167.76C102.462 163.552 101.455 159.349 100.46 155.149C100.456 155.113 100.466 155.076 100.488 155.048C100.51 155.019 100.543 155 100.579 154.996C100.615 154.991 100.651 155.001 100.68 155.024C100.708 155.046 100.727 155.079 100.732 155.115Z" fill="#263238"/>
<path d="M211.769 475.658C208.907 476.608 127.335 476.371 124.224 474.403C123.093 473.667 122.392 461.769 121.962 447.393C121.872 444.286 121.804 441.096 121.758 437.824C121.691 433.967 121.645 430.053 121.623 426.264C121.521 409.231 122.132 394.221 122.132 394.221H174.862V426.264V437.824L174.59 447.393C174.59 447.393 205.774 461.463 208.941 463.997C212.108 466.53 214.608 474.731 211.769 475.658Z" fill="#CF8170"/>
<path d="M211.769 475.658C208.907 476.608 127.335 476.37 124.224 474.402C123.093 473.667 122.392 461.768 121.962 447.392C121.872 444.286 121.804 441.096 121.759 437.823C121.691 433.967 121.646 430.053 121.623 426.264H174.84V437.823L174.568 447.392C174.568 447.392 205.752 461.463 208.919 463.996C212.086 466.53 214.608 474.73 211.769 475.658Z" fill="#DBDBDB"/>
<path d="M212.005 475.782C210.15 476.393 175.404 476.518 150.102 475.997C144.254 475.873 138.893 475.715 134.584 475.522C128.623 475.251 124.63 474.923 123.986 474.516C122.549 473.588 121.859 456.147 121.531 437.733H174.906L174.635 447.381C174.635 447.381 205.999 461.52 209.189 464.065C212.378 466.609 214.867 474.821 212.005 475.782Z" fill="#FDB839"/>
<path d="M210.841 472.502C197.087 472.129 141.597 471.903 127.979 472.57C127.866 472.57 127.866 472.649 127.979 472.661C141.552 473.328 197.087 473.102 210.841 472.728C211.135 472.717 211.135 472.513 210.841 472.502Z" fill="#263238"/>
<path d="M176.579 444.305C171.173 443.287 164.556 444.09 160.405 447.935C160.247 448.082 160.461 448.309 160.631 448.252C165.809 446.603 171.147 445.511 176.557 444.995C176.638 444.983 176.713 444.943 176.768 444.881C176.822 444.82 176.854 444.741 176.857 444.659C176.859 444.577 176.833 444.496 176.782 444.431C176.732 444.367 176.66 444.322 176.579 444.305Z" fill="#263238"/>
<path d="M180.482 446.668C175.076 445.65 168.448 446.453 164.308 450.299C164.15 450.446 164.308 450.672 164.534 450.627C169.71 448.975 175.05 447.886 180.46 447.381C180.554 447.384 180.646 447.349 180.715 447.285C180.784 447.22 180.824 447.13 180.827 447.036C180.83 446.942 180.796 446.85 180.731 446.781C180.666 446.712 180.577 446.671 180.482 446.668Z" fill="#263238"/>
<path d="M184.374 449.032C178.967 448.014 172.351 448.829 168.2 452.663C168.041 452.81 168.256 453.036 168.437 452.991C173.609 451.332 178.944 450.236 184.351 449.722C184.433 449.711 184.507 449.67 184.562 449.609C184.617 449.548 184.649 449.469 184.651 449.387C184.654 449.305 184.628 449.224 184.577 449.159C184.526 449.094 184.454 449.05 184.374 449.032Z" fill="#263238"/>
<path d="M188.276 451.408C182.87 450.379 176.253 451.193 172.102 455.027C171.944 455.186 172.159 455.412 172.328 455.355C177.504 453.698 182.843 452.602 188.254 452.087C188.298 452.088 188.343 452.081 188.385 452.065C188.426 452.049 188.464 452.026 188.497 451.995C188.53 451.965 188.556 451.928 188.574 451.888C188.593 451.847 188.603 451.803 188.604 451.759C188.606 451.714 188.599 451.67 188.583 451.628C188.567 451.586 188.543 451.548 188.513 451.515C188.483 451.483 188.446 451.457 188.405 451.438C188.365 451.42 188.321 451.409 188.276 451.408Z" fill="#263238"/>
<path d="M186.613 431.818C184.498 428.888 180.528 430.189 178.266 432.089C174.444 435.408 171.558 439.67 169.896 444.452C169.887 444.473 169.883 444.497 169.885 444.52C169.887 444.543 169.894 444.566 169.906 444.586C169.918 444.605 169.935 444.622 169.955 444.634C169.975 444.646 169.997 444.654 170.021 444.656C170.021 445.063 170.405 445.504 170.869 445.334C175.393 443.694 180.325 442.484 184.159 439.52C186.398 437.79 188.615 434.6 186.613 431.818ZM177.146 441.455C174.963 442.314 172.758 443.061 170.609 444.011C172.17 441.553 173.854 439.175 175.653 436.885C176.543 435.794 177.502 434.763 178.526 433.797C180.144 432.338 186.523 429.273 185.55 435.177C185.019 438.446 179.725 440.425 177.146 441.455Z" fill="#263238"/>
<path d="M156.142 443.004C160.598 444.915 165.733 444.836 170.472 445.266C170.578 445.268 170.683 445.244 170.778 445.197C170.873 445.15 170.955 445.081 171.018 444.996C171.081 444.911 171.123 444.812 171.14 444.707C171.157 444.603 171.149 444.496 171.117 444.395C171.139 444.39 171.16 444.38 171.177 444.365C171.195 444.35 171.208 444.331 171.216 444.309C171.224 444.288 171.226 444.265 171.222 444.242C171.219 444.22 171.21 444.198 171.196 444.18C168.398 439.954 164.536 436.541 159.999 434.283C157.341 433.017 153.212 432.745 151.855 436.116C150.611 439.351 153.552 441.884 156.142 443.004ZM153.71 439.136C151.278 433.639 158.234 435.041 160.168 436.059C161.404 436.729 162.59 437.485 163.72 438.321C166.04 440.085 168.264 441.973 170.382 443.977C168.12 443.592 165.744 443.422 163.414 443.128C160.655 442.778 155.056 442.178 153.71 439.136Z" fill="#263238"/>
<path opacity="0.1" d="M167.723 476.325L150.101 476.009C144.242 475.873 138.892 475.715 134.583 475.522C128.634 475.251 124.63 474.923 123.974 474.516C122.843 473.814 122.232 463.612 121.836 450.695L167.723 476.325Z" fill="black"/>
<path d="M107.902 421.808L54.7422 421.13C54.7422 421.13 65.1706 239.696 69.7288 201.941C69.7288 201.941 61.0988 181.491 77.239 150.613H142.015C142.015 150.613 137.672 180.021 130.241 198.627C130.241 198.627 125.422 199.927 116.668 204.746L107.902 421.808Z" fill="#CF8170"/>
<path d="M115.74 227.571H64.8418L68.7213 201.941C68.7213 201.941 60.9962 175.926 76.0959 150.613H142.014C142.014 150.613 139.277 178.177 131.19 198.909L122.922 202.585L115.74 227.571Z" fill="#1D3C58"/>
<path d="M122.923 202.585C122.98 202.257 123.647 202.257 123.591 202.585C120.91 217.708 116.68 225.026 116.386 225.693C116.386 225.783 116.227 225.795 116.193 225.693C115.945 225.003 121.702 208.863 122.923 202.585Z" fill="#263238"/>
<path d="M132.695 197.88C126.857 200.022 121.218 202.672 115.842 205.797C115.814 205.803 115.787 205.815 115.764 205.833C115.741 205.851 115.723 205.873 115.71 205.899C115.697 205.925 115.69 205.954 115.689 205.983C115.689 206.012 115.695 206.04 115.707 206.067C115.72 206.093 115.738 206.116 115.76 206.134C115.783 206.153 115.809 206.166 115.837 206.172C115.865 206.179 115.895 206.179 115.923 206.173C115.951 206.167 115.978 206.154 116.001 206.136C121.656 203.705 127.47 201.363 132.967 198.615C133.064 198.579 133.143 198.506 133.187 198.411C133.23 198.317 133.234 198.209 133.198 198.112C133.162 198.014 133.089 197.935 132.995 197.891C132.9 197.848 132.793 197.844 132.695 197.88Z" fill="#263238"/>
<path d="M134.481 158.96C134.481 158.767 134.119 158.722 134.119 158.96C134.119 165.746 133.735 171.628 133.169 177.928C132.909 180.857 130.545 197.02 125.478 195.844C124.63 195.651 124.2 194.815 124.064 193.582C124.085 191.906 124.309 190.238 124.731 188.616C125.297 185.223 125.749 181.83 126.043 178.437C126.632 172.071 126.564 165.662 125.84 159.31C125.83 159.274 125.809 159.242 125.779 159.219C125.75 159.197 125.713 159.184 125.676 159.184C125.638 159.184 125.602 159.197 125.572 159.219C125.543 159.242 125.521 159.274 125.512 159.31C125.658 168.136 125.14 176.961 123.962 185.709C123.329 189.906 121.214 196.24 125.614 196.884C130.013 197.529 132.988 186.942 133.531 184.047C134.932 175.761 135.251 167.328 134.481 158.96Z" fill="#263238"/>
<path d="M125.638 196.217C125.183 197.321 124.805 198.455 124.507 199.61C124.182 200.49 124.021 201.421 124.032 202.359C124.037 202.397 124.054 202.433 124.081 202.462C124.107 202.491 124.142 202.511 124.18 202.519C124.218 202.528 124.258 202.525 124.294 202.51C124.33 202.496 124.361 202.47 124.382 202.438C124.895 201.608 125.277 200.704 125.513 199.757C125.909 198.717 126.316 197.687 126.645 196.647C126.663 196.523 126.64 196.397 126.579 196.287C126.518 196.178 126.422 196.092 126.307 196.043C126.192 195.994 126.064 195.984 125.943 196.016C125.822 196.047 125.714 196.118 125.638 196.217Z" fill="#263238"/>
<path d="M78.4278 178.697C83.2235 178.211 88.1549 178.279 92.6 176.13C97.0451 173.981 99.9858 169.683 102.293 165.385C103.708 162.719 104.776 159.884 105.472 156.947C105.479 156.922 105.495 156.9 105.517 156.884C105.538 156.868 105.564 156.86 105.59 156.86C105.617 156.86 105.643 156.868 105.664 156.884C105.685 156.9 105.701 156.922 105.709 156.947C105.524 159.68 104.862 162.36 103.752 164.864C102.755 167.349 101.48 169.712 99.9519 171.911C98.5273 174.005 96.6581 175.758 94.4776 177.046C92.2513 178.249 89.804 178.988 87.284 179.218C84.3372 179.546 81.3632 179.546 78.4165 179.218C78.3659 179.195 78.3232 179.158 78.2936 179.111C78.264 179.064 78.2489 179.009 78.2501 178.954C78.2513 178.898 78.2688 178.844 78.3004 178.799C78.332 178.753 78.3763 178.718 78.4278 178.697Z" fill="#263238"/>
<path d="M71.8338 207.336C72.5021 204.995 72.9824 202.605 73.2702 200.188C73.3946 197.79 72.1392 195.663 71.404 193.492C68.5876 184.884 69.73 175.462 72.7952 167.093C74.6301 162.328 76.8427 157.717 79.4119 153.305C79.4798 153.192 79.6381 153.305 79.5816 153.407C75.3853 161.596 71.6641 170.373 70.8611 179.613C70.4151 184.077 70.8298 188.585 72.0826 192.892C72.7047 194.928 73.8697 196.896 74.0507 199.034C74.0401 201.302 73.6854 203.556 72.9988 205.718C72.388 208.399 70.5104 216.497 69.6848 219.212C69.6169 219.45 69.1984 219.404 69.2436 219.144C69.6169 216.712 71.2909 209.858 71.8338 207.336Z" fill="#263238"/>
<path d="M68.1688 220.931C74.1521 220.49 80.1581 220.501 86.1527 220.558C92.1474 220.614 98.0176 220.705 103.944 220.829C107.338 220.897 110.731 220.976 114.124 221.214C114.166 221.214 114.206 221.23 114.236 221.26C114.266 221.29 114.282 221.33 114.282 221.372C114.282 221.414 114.266 221.454 114.236 221.484C114.206 221.514 114.166 221.53 114.124 221.53C108.152 221.892 102.135 221.847 96.1513 221.904C90.168 221.96 84.2865 221.904 78.3597 221.904C74.9665 221.847 71.5733 221.723 68.1801 221.44C68.1126 221.441 68.0473 221.416 67.9985 221.369C67.9497 221.323 67.9215 221.258 67.92 221.191C67.9185 221.123 67.9439 221.058 67.9905 221.009C68.0372 220.961 68.1013 220.932 68.1688 220.931Z" fill="#263238"/>
<path d="M145.318 475.963C142.467 476.936 60.8949 477.513 57.7732 475.568C56.5856 474.844 55.8052 462.956 55.2736 448.58C55.1605 445.481 55.07 442.28 54.9795 439.012C54.8777 435.155 54.7985 431.252 54.7306 427.463C54.6619 416.259 55.4598 405.065 57.1172 393.984L107.653 394.889L107.947 426.932L108.049 438.491L107.868 448.06C107.868 448.06 139.199 461.814 142.399 464.347C145.6 466.881 148.157 475.002 145.318 475.963Z" fill="#CF8170"/>
<path d="M145.319 475.963C142.469 476.936 60.8967 477.513 57.775 475.568C56.5874 474.844 55.8069 462.956 55.2753 448.58C55.1622 445.481 55.0717 442.28 54.9813 439.012C54.8795 435.155 54.8003 431.252 54.7324 427.463L107.949 426.932L108.051 438.491L107.87 448.06C107.87 448.06 139.2 461.814 142.401 464.347C145.602 466.881 148.158 475.002 145.319 475.963Z" fill="#DBDBDB"/>
<path d="M145.566 476.076C143.711 476.71 108.965 477.207 83.6627 476.913C77.8038 476.845 72.4538 476.732 68.1332 476.585C62.1725 476.37 58.1798 476.088 57.5238 475.68C56.0873 474.776 55.2617 457.335 54.7188 438.932L108.082 438.401L107.901 448.026C107.901 448.026 139.401 461.848 142.625 464.37C145.849 466.892 148.416 475.092 145.566 476.076Z" fill="#FDB839"/>
<path d="M144.366 472.808C130.613 472.57 75.1228 472.898 61.5048 473.701C61.3916 473.701 61.3916 473.781 61.5048 473.792C75.0775 474.323 130.624 473.543 144.366 473.034C144.661 473.023 144.661 472.819 144.366 472.808Z" fill="#263238"/>
<path d="M109.825 444.961C104.407 443.988 97.7906 444.859 93.6848 448.75C93.5265 448.897 93.6848 449.123 93.9224 449.066C99.0651 447.376 104.373 446.238 109.757 445.673C109.852 445.682 109.946 445.653 110.019 445.593C110.092 445.532 110.138 445.445 110.147 445.351C110.156 445.256 110.128 445.162 110.067 445.089C110.007 445.016 109.92 444.97 109.825 444.961Z" fill="#263238"/>
<path d="M113.749 447.279C108.331 446.307 101.714 447.189 97.6087 451.068C97.4503 451.227 97.6087 451.442 97.8462 451.385C102.989 449.693 108.297 448.556 113.681 447.992C113.776 448.001 113.87 447.972 113.943 447.912C114.016 447.851 114.062 447.764 114.071 447.67C114.08 447.575 114.051 447.481 113.991 447.408C113.93 447.335 113.843 447.288 113.749 447.279Z" fill="#263238"/>
<path d="M117.677 449.643C112.248 448.671 105.642 449.553 101.537 453.432C101.378 453.579 101.537 453.806 101.763 453.749C106.924 452.054 112.251 450.917 117.654 450.356C117.749 450.359 117.841 450.324 117.91 450.259C117.978 450.195 118.019 450.105 118.022 450.011C118.025 449.916 117.99 449.825 117.926 449.756C117.861 449.687 117.771 449.646 117.677 449.643Z" fill="#263238"/>
<path d="M121.589 451.905C116.171 450.933 109.565 451.803 105.46 455.694C105.29 455.841 105.46 456.068 105.686 456.011C110.847 454.316 116.174 453.179 121.577 452.618C121.672 452.619 121.763 452.583 121.831 452.517C121.899 452.452 121.938 452.362 121.939 452.267C121.941 452.173 121.905 452.081 121.839 452.014C121.773 451.946 121.683 451.907 121.589 451.905Z" fill="#263238"/>
<path d="M119.778 432.372C117.629 429.454 113.682 430.8 111.431 432.723C107.642 436.078 104.799 440.368 103.186 445.164C103.186 445.277 103.186 445.334 103.321 445.357C103.317 445.462 103.338 445.566 103.382 445.662C103.427 445.758 103.493 445.841 103.576 445.906C103.658 445.971 103.755 446.016 103.858 446.036C103.962 446.057 104.068 446.053 104.17 446.024C108.626 444.339 113.603 443.083 117.403 440.086C119.586 438.333 121.758 435.132 119.778 432.372ZM110.402 442.099C108.23 442.981 106.025 443.751 103.887 444.712C105.504 442.291 107.009 439.803 108.863 437.541C109.745 436.443 110.697 435.404 111.714 434.431C113.309 432.949 119.631 429.793 118.749 435.731C118.206 439.011 112.992 441.047 110.356 442.099H110.402Z" fill="#263238"/>
<path d="M89.3742 443.852C93.8985 445.73 98.977 445.594 103.727 446.024C103.834 446.024 103.938 445.999 104.033 445.951C104.128 445.902 104.209 445.832 104.271 445.746C104.333 445.659 104.374 445.56 104.389 445.454C104.405 445.349 104.395 445.242 104.361 445.142C104.383 445.137 104.404 445.126 104.421 445.111C104.438 445.096 104.452 445.077 104.459 445.056C104.467 445.034 104.47 445.011 104.466 444.989C104.463 444.966 104.454 444.945 104.44 444.927C101.592 440.731 97.6913 437.358 93.1294 435.143C90.4488 433.899 86.2751 433.673 84.997 437.054C83.7981 440.255 86.7615 442.766 89.3742 443.852ZM86.9085 440.018C84.4315 434.532 91.4328 435.878 93.333 436.862C94.5773 437.535 95.7752 438.291 96.9184 439.124C99.3163 440.81 101.443 442.789 103.637 444.689C101.375 444.339 98.9883 444.191 96.6583 443.92C93.8872 443.581 88.2771 443.038 86.9085 440.018Z" fill="#263238"/>
<path d="M139.007 90.2477C164.434 106.083 180.608 119.327 183.91 130.242C188.435 145.353 183.628 150.081 179.33 150.941C167.6 153.271 142.005 117.608 131.927 100.97C122.143 84.8186 133.442 86.7641 139.007 90.2477Z" fill="#CF8170"/>
<path opacity="0.1" d="M170.993 148.305C158.111 139.913 140.059 114.317 131.949 100.97C125.264 89.9764 128.375 87.3975 132.809 87.9178L170.993 148.305Z" fill="black"/>
<path d="M175.202 150.624C166.086 148.181 162.839 130.332 155.725 101.694C154.481 96.672 181.649 71.8904 184.386 76.6974C187.779 82.7599 195.075 115.007 195.188 123.557C195.324 140.399 185.789 153.463 175.202 150.624Z" fill="#CF8170"/>
<path d="M163.009 130.683C159.683 121.058 156.562 111.15 155.668 100.97C158.088 110.878 161.165 120.628 163.009 130.683Z" fill="#263238"/>
<path d="M186.252 85.0334C185.675 81.0746 181.423 63.2038 179.127 58.4873C176.831 53.7708 169.241 40.707 165.452 42.0982C161.663 43.4894 163.586 47.4933 163.586 47.4933C163.586 47.4933 159.503 42.4827 155.815 44.2359C152.128 45.989 155.318 52.1533 155.318 52.1533C155.318 52.1533 150.793 47.3124 147.208 49.3257C143.622 51.339 147.898 56.9604 147.898 56.9604C147.898 56.9604 143.928 52.3343 141.7 55.2185C139.019 58.6909 147.355 66.3821 149.436 71.7773C149.923 72.9988 157.546 97.2828 157.546 97.2828L186.252 85.0334Z" fill="#CF8170"/>
<path d="M147.536 56.4292C153.61 62.0845 155.295 65.6361 157.365 73.5422C157.365 73.7006 157.648 73.6779 157.614 73.5422C156.29 65.6248 154.831 60.8743 147.796 56.1465C147.457 55.8863 147.253 56.1578 147.536 56.4292Z" fill="#263238"/>
<path d="M154.842 51.6675C160.633 58.1146 162.488 61.9376 165.27 70.0586C165.274 70.072 165.281 70.0845 165.289 70.0954C165.298 70.1064 165.308 70.1155 165.32 70.1223C165.332 70.1291 165.346 70.1335 165.359 70.1352C165.373 70.1369 165.387 70.1359 165.401 70.1321C165.414 70.1284 165.426 70.1221 165.437 70.1136C165.448 70.105 165.457 70.0944 165.464 70.0823C165.471 70.0703 165.475 70.057 165.477 70.0432C165.479 70.0294 165.478 70.0154 165.474 70.0021C163.416 61.8019 161.843 57.1079 155.215 51.43C154.899 51.1699 154.559 51.3734 154.842 51.6675Z" fill="#263238"/>
<path d="M163.708 47.9118C168.866 54.5624 171.072 58.6569 172.757 66.891C172.766 66.9245 172.786 66.954 172.814 66.975C172.841 66.996 172.875 67.0074 172.91 67.0074C172.944 67.0074 172.978 66.996 173.006 66.975C173.033 66.954 173.053 66.9245 173.062 66.891C172.157 58.3289 169.432 53.1938 163.912 47.8213C163.55 47.4141 163.38 47.4933 163.708 47.9118Z" fill="#263238"/>
<path d="M157.035 102.248C157.035 102.248 149.322 95.2584 146.607 91.4354C143.893 87.6124 139.018 69.6624 142.841 68.3843C147.761 66.7443 152.624 76.5619 154.377 81.6743C154.377 81.6743 165.767 77.8627 170.778 84.1514C175.789 90.4401 157.035 102.248 157.035 102.248Z" fill="#CF8170"/>
<path d="M144.335 68.3844C149.923 70.1262 151.778 76.9918 153.847 81.8214C153.874 81.8946 153.919 81.9602 153.976 82.0126C154.034 82.0651 154.104 82.1029 154.179 82.1229C154.255 82.1428 154.334 82.1444 154.41 82.1273C154.486 82.1103 154.557 82.0752 154.617 82.025C159.503 80.7469 166.764 80.3623 170.825 83.8234C170.848 83.8369 170.876 83.8422 170.903 83.8385C170.93 83.8349 170.955 83.8225 170.974 83.8032C170.993 83.784 171.006 83.7589 171.009 83.7319C171.013 83.7049 171.008 83.6774 170.994 83.6537C167.149 79.3444 159.978 79.1295 154.718 80.8826C152.671 75.8946 150.499 69.0856 144.358 68.3278C144.324 68.3278 144.301 68.3731 144.335 68.3844Z" fill="#263238"/>
<path d="M143.622 141.101L141.96 150.658H76.0977C76.0977 150.658 88.4715 112.507 109.453 89.6713C118.501 79.831 130.468 84.3892 135.852 92.4085C137.209 94.4331 149.956 117.552 150.148 128.094C150.318 137.346 143.622 141.101 143.622 141.101Z" fill="#FF6E41"/>
<path d="M142.729 146.247L142.616 146.869H77.3984L77.636 146.247H142.729ZM79.6832 140.863C79.604 141.078 79.5135 141.281 79.4457 141.485H143.532L143.6 141.078L143.95 140.863H79.6832ZM81.9453 135.502L81.6739 136.124H148.271C148.384 135.931 148.497 135.716 148.599 135.502H81.9453ZM84.2866 130.14C84.1961 130.355 84.0943 130.559 84.0039 130.762H150.047L150.115 130.14H84.2866ZM149.888 124.779H86.741L86.4356 125.413H149.888C149.866 125.232 149.82 125.028 149.775 124.802L149.888 124.779ZM148.497 119.418H89.433C89.3198 119.633 89.2067 119.836 89.1049 120.051H148.588C148.531 119.87 148.463 119.655 148.384 119.44L148.497 119.418ZM146.586 114.057H92.3172L91.9665 114.69H146.71L146.586 114.057ZM144.323 108.707H95.4389C95.3038 108.907 95.1792 109.115 95.0657 109.329H144.493L144.323 108.707ZM141.813 103.345H98.8321L98.4249 103.968H142.016L141.813 103.345ZM139.098 97.9842H102.599C102.429 98.1878 102.282 98.4027 102.135 98.6063H139.324L139.098 97.9842ZM136.135 92.623H106.806C106.636 92.8266 106.455 93.0301 106.286 93.245H136.406C136.259 93.0188 136.135 92.8039 136.033 92.6456L136.135 92.623ZM130.977 87.2617H111.998C111.738 87.454 111.477 87.6689 111.217 87.8951H131.712C131.446 87.6748 131.166 87.4708 130.875 87.2843L130.977 87.2617Z" fill="white"/>
<path d="M121.861 136.746C125.015 136.456 128.188 136.403 131.35 136.587C132.922 136.701 134.472 136.882 136.033 137.096C136.813 137.21 137.594 137.289 138.363 137.368C139.178 137.47 140.002 137.47 140.817 137.368C140.896 137.368 140.908 137.47 140.817 137.481C140.073 137.661 139.317 137.785 138.555 137.854C137.802 137.906 137.046 137.906 136.293 137.854C134.698 137.752 133.115 137.583 131.52 137.47C128.308 137.244 125.095 137.006 121.872 137.006C121.725 137.006 121.714 136.757 121.861 136.746Z" fill="#263238"/>
<path d="M114.701 140.863C117.205 140.127 119.751 139.538 122.324 139.098C123.613 138.884 124.903 138.737 126.203 138.623L128.081 138.499C128.76 138.499 129.45 138.499 130.14 138.499C130.155 138.499 130.169 138.505 130.18 138.516C130.19 138.526 130.196 138.541 130.196 138.556C130.196 138.571 130.19 138.585 130.18 138.596C130.169 138.606 130.155 138.612 130.14 138.612C129.506 138.669 128.861 138.838 128.228 138.94L126.294 139.246C125.005 139.438 123.726 139.664 122.437 139.845C119.847 140.23 117.291 140.637 114.723 141.1C114.587 141.123 114.565 140.931 114.701 140.863Z" fill="#263238"/>
<path d="M113.185 86.1762C77.6925 94.3312 59.8217 103.979 58.8263 107.474C54.155 123.784 57.6953 133.002 59.7085 133.489C72.7271 136.882 97.1694 115.392 115.719 96.7065C122.958 89.4676 121.657 84.2195 113.185 86.1762Z" fill="#CF8170"/>
<path d="M120.277 86.9903C120.334 88.3589 124.983 98.0408 131.011 98.8891C132.979 99.1606 134.947 88.4946 134.947 88.4946L135.275 87.7368L139.799 77.1727L128.41 66.4163L126.747 64.9685C126.747 64.9685 125.695 67.9319 124.417 71.6531C124.36 71.8227 124.304 71.9924 124.236 72.1734L124.021 72.7842C123.829 73.3271 123.625 73.9152 123.444 74.4694C123.263 75.0237 123.15 75.3177 123.015 75.7702C122.879 76.2226 122.743 76.675 122.596 77.1274C121.593 80.3566 120.818 83.6524 120.277 86.9903Z" fill="#CF8170"/>
<path d="M124.439 71.6531C124.976 74.9532 126.223 78.0974 128.094 80.8685C129.965 83.6395 132.415 85.9714 135.275 87.7029L139.799 77.1388L128.409 66.3823L126.747 64.9346C126.747 64.9346 125.718 67.9319 124.439 71.6531Z" fill="#263238"/>
<path d="M124.597 60.5572C121.758 70.929 107.337 79.8871 106.262 99.9748C105.776 109.023 117.912 122.042 112.008 138.239C110.481 142.435 139.606 124.462 128.816 86.73C125.434 74.8538 124.597 60.5572 124.597 60.5572Z" fill="#263238"/>
<path d="M114.735 75.6117C117.642 72.1054 120.798 68.7235 122.924 64.663H123.004C119.701 71.3476 113.853 76.2904 110.223 82.76C106.72 88.7967 105.043 95.7191 105.393 102.689C105.656 106.398 106.591 110.027 108.153 113.401C108.153 113.514 108.04 113.604 107.983 113.491C105.133 107.858 104.166 101.459 105.223 95.2357C106.366 87.8838 110.008 81.3349 114.735 75.6117Z" fill="#263238"/>
<path d="M125.105 68.3394C125.199 71.6884 125.806 75.0031 126.904 78.1684C127.967 81.3014 129.302 84.3327 130.41 87.4544C132.672 94.0033 134.086 101.027 133.215 107.983C132.716 111.95 131.427 115.776 129.426 119.237C133.034 112.835 133.679 105.009 132.604 97.8489C132.071 94.4607 131.227 91.1288 130.082 87.8955C128.951 84.819 127.741 81.7991 126.689 78.7C125.438 75.3989 124.82 71.8918 124.868 68.3621C124.865 68.3306 124.874 68.2992 124.895 68.2748C124.915 68.2504 124.944 68.235 124.975 68.232C125.007 68.229 125.038 68.2386 125.063 68.2588C125.087 68.2789 125.102 68.3079 125.105 68.3394Z" fill="#263238"/>
<path d="M122.143 66.132L125.536 67.5464C126.089 67.7772 126.529 68.2186 126.757 68.7734C126.985 69.3282 126.984 69.951 126.753 70.5048L126.705 70.6196C126.474 71.1734 126.033 71.6127 125.478 71.8411C124.923 72.0694 124.301 72.068 123.747 71.8372L120.354 70.4227C119.8 70.1919 119.361 69.7505 119.132 69.1957C118.904 68.6409 118.906 68.0181 119.136 67.4643L119.184 67.3495C119.415 66.7957 119.857 66.3564 120.411 66.128C120.966 65.8997 121.589 65.9011 122.143 66.132Z" fill="#FDB839"/>
<path d="M159.366 65.7035C155.022 85.4066 142.728 85.0333 138.475 84.0832C134.618 83.2236 121.599 79.8191 123.884 59.7767C126.169 39.7342 136.722 35.5154 145.646 37.0084C154.57 38.5014 163.664 45.989 159.366 65.7035Z" fill="#CF8170"/>
<path d="M157.488 60.3536C157.125 60.0555 156.748 59.7761 156.357 59.5166C156.004 59.1688 155.547 58.9463 155.056 58.8832C154.899 58.8948 154.75 58.9574 154.631 59.0616C154.513 59.1657 154.432 59.3056 154.4 59.4601C154.387 59.7773 154.459 60.0923 154.608 60.3726C154.757 60.6529 154.978 60.8884 155.248 61.0549C155.742 61.4765 156.375 61.6984 157.024 61.677C157.172 61.6642 157.312 61.6091 157.429 61.5182C157.546 61.4274 157.634 61.3048 157.683 61.1651C157.732 61.0254 157.74 60.8745 157.705 60.7305C157.67 60.5866 157.595 60.4557 157.488 60.3536Z" fill="#263238"/>
<path d="M143.156 58.7251C143.621 58.732 144.085 58.7622 144.547 58.8156C145.042 58.7793 145.535 58.9064 145.95 59.1775C146.066 59.2846 146.142 59.4277 146.167 59.5837C146.192 59.7397 146.163 59.8995 146.085 60.0371C145.89 60.2885 145.63 60.483 145.334 60.6003C145.037 60.7177 144.715 60.7536 144.4 60.7045C143.754 60.7035 143.13 60.4662 142.647 60.0371C142.542 59.9317 142.469 59.7978 142.438 59.6519C142.408 59.506 142.42 59.3543 142.474 59.2153C142.528 59.0762 142.621 58.9559 142.742 58.8689C142.863 58.7818 143.007 58.7319 143.156 58.7251Z" fill="#263238"/>
<path d="M144.82 63.9505C144.82 63.9505 144.695 63.9505 144.684 64.041C144.367 65.3756 143.779 66.8573 142.422 66.9704C142.422 66.9704 142.422 67.0383 142.422 67.0496C143.971 67.2193 144.729 65.2399 144.82 63.9505Z" fill="#263238"/>
<path d="M144.006 62.2202C141.914 61.485 140.613 65.7152 142.525 66.4052C144.436 67.0951 145.793 62.8197 144.006 62.2202Z" fill="#263238"/>
<path d="M143.1 62.186C142.663 62.4019 142.184 62.5178 141.697 62.5254C141.166 62.4123 140.917 61.8467 140.713 61.3151C140.713 61.3151 140.646 61.3151 140.623 61.3151C140.439 61.6827 140.401 62.1061 140.517 62.5004C140.632 62.8947 140.892 63.2309 141.245 63.4415C142.003 63.7922 142.795 63.2606 143.258 62.5027C143.337 62.4009 143.281 62.1295 143.1 62.186Z" fill="#263238"/>
<path d="M152.5 66.213C152.5 66.1564 152.579 66.3035 152.568 66.36C152.104 67.6494 151.799 69.2103 152.84 70.0247C152.84 70.0247 152.84 70.1151 152.84 70.0925C151.448 69.4365 151.856 67.344 152.5 66.213Z" fill="#263238"/>
<path d="M154.106 65.2289C156.266 65.7379 155.079 70.0133 153.077 69.5383C151.075 69.0632 152.296 64.7991 154.106 65.2289Z" fill="#263238"/>
<path d="M154.922 65.7603C155.193 66.077 155.419 66.5746 155.815 66.7217C156.211 66.8687 156.743 66.5181 157.173 66.1562C157.173 66.1562 157.229 66.1562 157.173 66.1562C156.969 66.9818 156.46 67.7623 155.634 67.6944C154.809 67.6265 154.503 66.8009 154.582 65.9299C154.628 65.8282 154.843 65.6246 154.922 65.7603Z" fill="#263238"/>
<path d="M141.27 72.1961C143.393 72.5529 145.438 73.2803 147.309 74.3452L148.135 71.2347C148.452 71.5401 150.092 72.9992 150.228 72.4563C151.493 68.0669 152.286 63.5547 152.591 58.9966C152.583 58.9686 152.566 58.944 152.543 58.9266C152.519 58.9091 152.491 58.8997 152.461 58.8997C152.432 58.8997 152.404 58.9091 152.38 58.9266C152.357 58.944 152.34 58.9686 152.331 58.9966C151.076 63.272 150.782 66.9141 149.583 71.3026C149.009 70.7714 148.361 70.3257 147.66 69.9792C147.348 70.9683 147.102 71.9772 146.925 72.9992C145.226 72.2854 143.406 71.9016 141.564 71.8681C140.738 71.9586 140.387 72.0378 141.27 72.1961Z" fill="#263238"/>
<path d="M140.805 71.9812C139.9 72.1508 138.927 72.9426 139.357 73.3611C139.787 73.7796 141.461 73.8361 142.693 74.085C143.598 74.2772 144.661 74.9898 145.114 74.4017C145.566 73.8135 144.186 71.3478 140.805 71.9812Z" fill="#263238"/>
<path d="M143.394 74.2996C143.164 74.2161 142.93 74.1443 142.692 74.0847C141.46 73.8358 139.786 73.7793 139.299 73.3608C138.813 72.9423 139.661 72.3202 140.43 72.0601C141.209 72.0937 141.954 72.3885 142.545 72.8971C142.986 73.2484 143.287 73.7459 143.394 74.2996Z" fill="#FF99BA"/>
<path d="M145.996 83.8118C158.031 79.7286 161.831 61.3715 159.761 50.1852C160.526 53.3943 160.808 56.6994 160.598 59.9916C159.953 69.0401 155.78 81.2556 145.996 83.8118Z" fill="#263238"/>
<path d="M123.171 58.3633C126.247 59.8789 129.652 53.511 129.652 53.511C129.652 53.511 136.11 56.1125 141.958 47.6748C140.659 50.3868 138.595 52.6594 136.02 54.2123C136.02 54.2123 147.907 57.6055 156.526 49.9482C156.526 49.9482 152.658 54.0426 150.181 55.0493C150.181 55.0493 155.485 55.6261 159.376 52.6741C159.376 52.6741 159.173 58.9854 160.1 61.1231C160.1 61.1231 167.61 40.9902 148.281 35.7081C148.281 35.7081 136.404 31.8512 128.589 39.3501C120.773 46.8491 123.171 58.3633 123.171 58.3633Z" fill="#263238"/>
<path d="M126.633 61.9709C126.633 61.9709 124.314 54.6416 121.113 55.2863C117.913 55.931 118.342 65.6356 121.113 67.8298C121.455 68.139 121.856 68.3753 122.292 68.5245C122.727 68.6738 123.189 68.7327 123.648 68.6978C124.107 68.6629 124.555 68.5348 124.963 68.3214C125.371 68.108 125.732 67.8138 126.022 67.4566L126.633 61.9709Z" fill="#CF8170"/>
<path d="M121.305 58.0693C121.305 58.0693 121.226 58.0693 121.305 58.1484C123.261 59.7659 123.793 62.2203 123.94 64.6294C123.879 64.3645 123.762 64.1157 123.596 63.9003C123.43 63.6848 123.22 63.5076 122.979 63.3809C122.739 63.2542 122.474 63.1809 122.202 63.1661C121.931 63.1512 121.659 63.1951 121.407 63.2948C121.339 63.2948 121.407 63.4305 121.407 63.4418C121.841 63.4395 122.266 63.572 122.623 63.8212C122.979 64.0703 123.25 64.4238 123.397 64.833C123.637 65.5185 123.804 66.2275 123.895 66.9481C123.895 67.1743 124.325 67.1856 124.325 66.9481C125.252 64.03 124.302 59.3248 121.305 58.0693Z" fill="#263238"/>
<path d="M59.7079 133.522C68.598 134.246 80.5647 115.425 104.034 88.6641C107.247 84.9769 91.061 53.669 87.0683 56.9943C82.0012 61.2132 64.447 86.7526 63.316 88.2004C53.0459 100.427 52.0167 132.945 59.7079 133.522Z" fill="#CF8170"/>
<path d="M79.6602 69.7529C79.6602 69.7529 83.5963 57.4696 87.6681 51.6559C92.0481 45.7153 97.804 40.9259 104.442 37.6986C111.601 34.1923 131.316 30.6634 133.329 36.1716C135.139 41.1483 114.802 43.7385 114.802 43.7385C114.802 43.7385 135.161 37.676 136.191 44.0778C137.22 50.4796 113.49 52.1423 113.49 52.1423C113.49 52.1423 134.177 46.6227 134.426 52.8096C134.641 57.922 113.174 60.9985 113.174 60.9985C113.174 60.9985 131.271 56.1689 131.542 61.4396C131.859 67.2533 112.201 71.0084 112.201 71.0084C110.674 84.5133 104.43 90.3157 99.4877 93.9125C98.2888 94.7721 79.6602 69.7529 79.6602 69.7529Z" fill="#CF8170"/>
<path d="M107.641 45.3787C110.005 44.5757 112.38 43.75 114.812 43.1166C117.243 42.4832 119.675 41.9855 122.141 41.6688C125.354 41.1362 128.618 40.973 131.868 41.1825C126.066 41.1825 117.368 43.1958 114.902 43.7839C112.436 44.3721 110.039 44.8358 107.618 45.4126C107.596 45.4805 107.584 45.4013 107.641 45.3787Z" fill="#263238"/>
<path d="M109.6 54.1668C112.653 53.2733 115.662 52.278 118.761 51.5201C121.86 50.7623 124.824 50.3325 127.957 49.7896C128.194 49.7896 128.138 49.8914 127.957 49.948C124.858 50.604 122.041 51.4523 118.908 52.1535C115.775 52.8548 112.699 53.4316 109.645 54.2347C109.6 54.246 109.6 54.1781 109.6 54.1668Z" fill="#263238"/>
<path d="M109.928 62.0054C114.581 60.522 119.376 59.5289 124.236 59.042C124.473 59.042 124.383 59.189 124.134 59.2343C119.361 60.1278 115.606 60.7951 109.984 62.1637C109.894 62.1863 109.826 62.0393 109.928 62.0054Z" fill="#263238"/>
<path d="M73.4613 124.643C82.5098 114.735 90.7665 104.092 99.1477 93.6071C101.014 92.3273 102.703 90.806 104.17 89.0828C108.431 83.7453 111.051 77.2858 111.714 70.4881C114.428 69.9452 117.132 69.2553 119.79 68.4862C123.443 67.3551 127.447 66.224 130.309 63.6226C133.623 59.6186 125.682 59.449 123.262 59.596L118.738 59.7996C123.545 58.4084 129.347 57.4357 133.261 54.1443C133.589 53.9062 133.832 53.5682 133.952 53.1808C134.072 52.7934 134.064 52.3775 133.928 51.9953C132.684 49.5408 128.906 50.0385 126.542 50.2534L126.429 49.6766C127.964 49.3431 129.475 48.9085 130.953 48.3759C133.374 47.5841 138.294 45.0618 134.991 42.3247C133.64 41.47 132.065 41.0369 130.467 41.0805C133.532 40.809 138.531 42.9694 135.251 46.4078C132.786 48.5342 129.596 49.439 126.508 50.2534L126.395 49.6766C129.2 49.1789 135.444 48.9866 134.663 53.3752C133.589 55.7278 130.885 56.6892 128.77 57.6958C126.991 58.4283 125.166 59.0442 123.307 59.5394L123.149 58.5894C125.931 58.5894 128.804 58.3518 131.225 60.0597C133.917 62.729 129.867 65.6359 127.594 66.6538C122.704 68.8731 117.561 70.4874 112.279 71.4609L112.72 70.9632C111.943 77.8239 109.219 84.319 104.871 89.6823C103.413 91.4019 101.705 92.8927 99.8037 94.1048C91.2529 104.465 82.8378 115.007 73.416 124.576L73.4613 124.643Z" fill="#263238"/>
<path d="M339.274 210.491C337.663 210.035 336.158 209.263 334.848 208.22C333.539 207.176 332.45 205.882 331.645 204.413C330.841 202.945 330.337 201.33 330.163 199.665C329.989 197.999 330.149 196.316 330.633 194.713L356.263 103.967C357.159 100.718 359.306 97.9559 362.232 96.2838C365.159 94.6117 368.628 94.1657 371.883 95.0432C375.141 95.9941 377.896 98.1861 379.554 101.148C381.213 104.109 381.642 107.603 380.75 110.878L355.12 201.612C354.668 203.238 353.898 204.759 352.855 206.087C351.812 207.414 350.517 208.523 349.044 209.348C347.572 210.173 345.95 210.699 344.273 210.895C342.597 211.091 340.898 210.954 339.274 210.491ZM318.836 236.505L320.103 231.981C321 228.732 323.145 225.968 326.071 224.295C328.997 222.621 332.467 222.172 335.723 223.046C338.979 223.999 341.732 226.192 343.39 229.152C345.048 232.113 345.479 235.606 344.59 238.881L343.323 243.405C342.869 245.029 342.099 246.547 341.056 247.873C340.014 249.198 338.72 250.305 337.248 251.129C335.777 251.953 334.157 252.478 332.483 252.674C330.808 252.87 329.11 252.734 327.488 252.272C325.876 251.818 324.371 251.047 323.06 250.004C321.75 248.96 320.66 247.666 319.855 246.197C319.051 244.728 318.547 243.113 318.374 241.447C318.201 239.781 318.362 238.097 318.847 236.494L318.836 236.505Z" fill="#FF6E41"/>
<path d="M302.526 142.163C301.217 142.199 299.915 141.974 298.695 141.501C297.475 141.028 296.361 140.316 295.42 139.407C294.478 138.498 293.727 137.41 293.211 136.207C292.695 135.005 292.424 133.711 292.414 132.402L290.401 58.7586C290.309 56.1249 291.264 53.562 293.057 51.6309C294.851 49.6998 297.336 48.5577 299.969 48.4546C302.618 48.423 305.174 49.4247 307.096 51.2472C309.018 53.0697 310.153 55.5694 310.262 58.2157L312.275 131.814C312.322 133.136 312.106 134.453 311.64 135.691C311.174 136.928 310.467 138.061 309.561 139.024C308.654 139.986 307.565 140.759 306.358 141.298C305.15 141.837 303.848 142.131 302.526 142.163ZM293.33 166.312L293.24 162.669C293.148 160.036 294.103 157.473 295.896 155.542C297.69 153.611 300.175 152.469 302.808 152.365C305.457 152.334 308.013 153.336 309.935 155.158C311.857 156.981 312.992 159.48 313.101 162.127L313.192 165.746C313.231 167.063 313.009 168.376 312.54 169.607C312.071 170.839 311.363 171.966 310.457 172.923C309.551 173.881 308.465 174.65 307.261 175.186C306.057 175.723 304.759 176.016 303.442 176.05C302.136 176.085 300.836 175.859 299.618 175.387C298.4 174.914 297.288 174.204 296.347 173.298C295.406 172.391 294.655 171.307 294.137 170.108C293.619 168.908 293.345 167.618 293.33 166.312Z" fill="#FDB839"/>
<path d="M142.141 23.1642L136.361 12.1816L141.134 10.6999L137.255 1.493L142.333 0L143.51 12.2947L139.155 13.1769L142.141 23.1642Z" fill="#FF6E41"/>
<path d="M146.135 27.7787L148.691 18.0629L151.473 19.4993L155.172 13.3916L158.181 14.862L152.254 22.5532L149.879 20.4834L146.135 27.7787Z" fill="#FF6E41"/>
<path d="M139.597 28.0956L130.888 24.3971L132.788 21.6033L125.934 18.1423L127.291 14.636L135.163 21.0944L133.286 23.4809L139.597 28.0956Z" fill="#FF6E41"/>
<g opacity="0.5">
<path opacity="0.5" d="M413.27 117.223C416.753 122.607 413.473 129.077 411.562 134.393C409.877 139.008 408.994 142.627 414.039 145.183C423.268 149.821 434.002 151.302 442.768 157.127C446.651 159.534 449.84 162.911 452.022 166.925C454.203 170.939 455.302 175.452 455.21 180.02C453.977 197.529 431.593 198.23 418.382 195.663C414.717 194.871 411.437 193.016 407.841 192.269C406.325 192.077 405.522 192.688 406.415 194.158C407.965 196.635 410.555 198.174 413.032 199.633C418.167 203.15 424.569 209.654 422.691 216.452C420.429 222.548 412.67 224.471 407.026 222.344C400.851 220.331 395.987 216.056 390.852 212.482C388.918 211.441 388.748 217.006 388.726 218.137C388.729 224.031 390.022 229.852 392.515 235.193C393.73 237.848 395.509 240.207 397.729 242.104C402.423 245.667 408.881 245.882 414.503 245.068C423.642 243.507 432.034 238.179 439.997 246.131C443.249 249.291 445.637 253.233 446.932 257.58C448.228 261.926 448.386 266.532 447.394 270.958C446.184 276.92 442.776 282.209 437.848 285.775C426.639 293.522 412.761 294.947 399.901 298.216C398.193 298.748 396.292 299.087 395.014 300.343C393.315 302.246 392.405 304.725 392.469 307.276C393.001 313.848 400.568 315.046 405.397 317.58C415.984 322.376 427.125 330.191 429.048 342.463C430.643 360.244 417.477 377.244 403.825 387.231C384.371 401.347 359.284 404.955 335.814 402.591C359.261 404.853 384.326 401.211 403.678 387.061C417.251 377.074 430.258 360.187 428.652 342.52C426.707 330.361 415.656 322.738 405.16 318.021C400.149 315.51 392.356 314.108 391.87 307.287C391.789 304.586 392.744 301.956 394.539 299.935C395.919 298.533 397.932 298.148 399.72 297.605C412.501 294.371 426.367 292.923 437.441 285.243C442.231 281.764 445.541 276.613 446.715 270.811C447.671 266.502 447.507 262.021 446.24 257.794C444.973 253.567 442.644 249.735 439.476 246.662C431.819 238.96 423.483 244.4 414.593 245.825C408.779 246.685 402.05 246.425 397.209 242.726C394.893 240.759 393.033 238.312 391.757 235.555C389.204 230.122 387.868 224.197 387.843 218.193C387.843 215.694 388.352 209.145 392.187 212.436C396.948 215.886 401.597 219.709 407.241 221.541C416.29 224.799 426.469 217.526 420.135 208.127C418.16 205.051 415.554 202.429 412.489 200.436C409.662 198.705 406.178 196.85 405.092 193.468C404.73 190.573 408.485 191.274 410.148 191.919C412.9 192.994 415.705 193.93 418.552 194.724C435.405 198.117 460.288 194.373 452.812 171.424C445.154 147.389 405.873 152.761 409.345 138.42C410.781 131.418 416.787 124.428 413.224 117.223H413.27Z" fill="#263238"/>
<path opacity="0.5" d="M356.173 398.983C378.579 396.981 396.79 382.334 401.054 359.871C402.117 354.555 402.185 349.058 398.791 344.556C392.525 335.847 383.341 329.773 374.451 324.027C369.927 321.245 365.289 318.372 361.512 314.594C357.734 310.816 354.85 305.749 355.132 300.275C355.607 291.588 361.274 284.791 370.074 283.852C378.048 282.721 386.135 284.621 393.996 282.529C399.108 281.398 404.458 279.916 408.417 276.353C412.376 272.79 413.891 266.716 411.55 262.102C408.654 257.577 402.434 257.012 397.547 255.994C392.853 255.1 386.237 254.603 381.712 252.963C371.374 248.981 365.346 238.508 362.575 228.283C360.505 220.512 359.804 212.188 361.794 204.316C363.434 197.201 368.004 185.902 377.211 188.944C379.763 189.932 382.077 191.451 383.997 193.401C385.828 195.308 387.819 197.057 389.947 198.626C390.448 198.976 391.018 199.215 391.618 199.328C392.219 199.441 392.836 199.425 393.43 199.282C398.814 197.484 393.962 193.22 391.7 190.89C389.822 188.922 387.73 187.078 386.7 184.454C386.268 183.067 386.377 181.568 387.006 180.258C388.386 176.299 392.774 173.098 397.004 174.602C399.674 175.496 401.348 177.781 403.61 179.308C407.727 182.248 412.828 185.167 418.008 184.216C423.189 183.266 426.356 177.43 426.016 172.51C425.812 169.923 424.83 167.459 423.2 165.441C421.552 163.414 419.421 161.835 417.002 160.849C412.217 158.507 406.754 156.652 403.497 152.106C398.113 144.392 405.849 136.486 409.016 129.665C413.484 119.746 409.729 115.437 399.334 114.373C410.645 113.853 414.74 119.78 409.966 130.106C407.014 136.746 399.3 144.12 404.311 151.529C409.028 158.315 418.913 158.44 423.946 164.841C425.054 166.181 425.882 167.729 426.384 169.393C426.886 171.057 427.05 172.804 426.868 174.533C426.686 176.261 426.16 177.936 425.323 179.459C424.485 180.982 423.352 182.323 421.99 183.402C414.66 188.56 405.612 182.407 399.923 177.475C397.151 174.614 392.605 174.241 389.856 177.317C388.523 178.707 387.637 180.464 387.311 182.362C387.074 184.273 388.442 185.902 389.573 187.338C391.553 190.155 399.753 195.459 395.568 199.033C394.724 199.737 393.672 200.143 392.575 200.19C391.478 200.237 390.395 199.922 389.494 199.294C384.156 195.765 380.299 188.639 373.162 189.261C366.59 190.55 364.057 198.751 362.518 204.451C360.55 212.21 361.229 220.365 363.253 228.045C365.968 238.055 371.838 248.404 381.927 252.261C386.214 253.856 393.023 254.41 397.581 255.281C402.648 256.344 409.005 256.921 412.025 261.74C414.513 266.671 412.771 273.152 408.745 276.76C404.718 280.368 399.255 281.929 394.041 283.049C386.124 285.13 378.014 283.185 370.062 284.248C361.455 285.085 355.845 291.792 355.359 300.252C355.053 305.636 357.847 310.669 361.591 314.391C365.335 318.112 369.904 321.064 374.44 323.858C383.341 329.637 392.537 335.711 398.791 344.454C402.185 348.979 402.128 354.543 401.054 359.837C396.756 382.288 378.534 396.97 356.094 398.938L356.173 398.983Z" fill="#263238"/>
</g>
<g opacity="0.4">
<path opacity="0.4" d="M290.727 471.02C225.567 490.067 186.432 444.644 186.432 444.644C175.347 444.44 148.971 448.704 148.971 448.704L122.188 378.386C122.188 378.386 144.707 364.033 152.839 356.489C152.839 356.489 151.833 296.542 213.148 267.406C255.744 247.16 332.611 253.709 360.695 327.352L360.978 328.11C389.028 401.765 335.993 457.798 290.727 471.02Z" fill="#FDB839"/>
</g>
<g opacity="0.4">
<path opacity="0.4" d="M287.597 463.645C227.232 481.313 191.038 439.203 191.038 439.203C180.756 439.011 147.412 444.711 147.412 444.711L123.66 382.503C123.66 382.503 152.344 364.553 159.854 357.563C159.854 357.563 158.927 302.028 215.729 274.995C255.192 256.242 326.415 262.305 352.418 330.531L352.689 331.243C378.67 399.469 329.536 451.385 287.597 463.645Z" fill="#FDB839"/>
</g>
<path d="M225.033 334.465L122.18 397.296L123.949 400.191L226.802 337.36L225.033 334.465Z" fill="#A6A6A6"/>
<path d="M254.433 409.704L135.85 431.254L136.456 434.593L255.04 413.042L254.433 409.704Z" fill="#A6A6A6"/>
<path d="M241.856 413.336C234.346 413.336 223.159 412.318 220.931 406.482C219.843 403.51 219.94 400.233 221.203 397.331C220.558 397.252 219.924 397.162 219.291 397.06C213.568 396.144 206.239 393.746 203.875 387.525C201.85 382.209 204.056 375.185 210.107 367.754C210.503 367.268 210.91 366.793 211.317 366.317C208.275 365.243 206.239 363.637 205.469 361.624C201.613 351.444 221.304 339.285 222.085 338.765L222.673 339.726C222.481 339.851 203.004 351.953 206.533 361.216C207.211 363.015 209.168 364.451 212.188 365.401C220.105 356.771 230.907 350.584 236.868 351.535C237.848 351.659 238.775 352.052 239.546 352.671C240.317 353.29 240.901 354.11 241.234 355.041C241.69 356.128 241.837 357.321 241.657 358.487C241.477 359.653 240.979 360.746 240.216 361.646C236.053 366.747 224.075 368.704 215.491 367.302C214.5 367.144 213.518 366.932 212.55 366.668C212.03 367.245 211.521 367.799 211.023 368.444C207.63 372.561 202.438 380.456 204.972 387.106C206.668 391.552 211.837 394.685 219.517 395.929C220.241 396.042 220.988 396.144 221.779 396.223C224.584 390.443 230.964 385.331 237.874 382.65C245.385 379.788 251.119 380.773 252.816 385.24C253.137 386.089 253.216 387.01 253.044 387.9C252.872 388.791 252.457 389.616 251.843 390.285C247.715 395.363 234.266 398.485 222.435 397.377C221.811 398.723 221.461 400.181 221.405 401.664C221.348 403.148 221.587 404.628 222.107 406.018C225.139 413.935 248.552 411.877 248.778 411.854L248.891 412.985C248.439 413.076 245.611 413.336 241.856 413.336ZM222.843 396.37C234.153 397.309 247.07 394.345 250.882 389.651C251.366 389.136 251.696 388.495 251.834 387.801C251.972 387.107 251.913 386.388 251.662 385.727C249.932 381.202 243.564 381.757 238.191 383.804C232.536 385.93 225.829 390.669 222.843 396.347V396.37ZM213.364 365.775C214.066 365.956 214.823 366.103 215.626 366.238C223.895 367.562 235.375 365.752 239.288 360.945C239.929 360.201 240.347 359.293 240.495 358.322C240.643 357.352 240.515 356.36 240.125 355.459C239.865 354.715 239.4 354.059 238.784 353.567C238.167 353.075 237.425 352.766 236.642 352.677C231.212 351.772 220.942 357.699 213.364 365.752V365.775Z" fill="#A6A6A6"/>
<path d="M152.3 457.652L118.73 369.557L70.2493 388.032L103.819 476.127L152.3 457.652Z" fill="#FF6E41"/>
<path d="M99.9859 466.1C88.8336 464.426 76.8217 457.617 69.6055 438.672C62.3893 419.727 66.8231 406.663 74.0393 397.954L99.9859 466.1Z" fill="#FF6E41"/>
<path d="M99.9851 466.1C96.6585 465.605 93.4205 464.634 90.3711 463.215L71.9121 400.792C72.5717 399.81 73.2854 398.866 74.0498 397.964L99.9851 466.1Z" fill="#37474F"/>
<path d="M144.007 463.725L99.8613 373.76L104.092 372.142L148.237 462.107L144.007 463.725Z" fill="#37474F"/>
<path d="M131.204 468.6L87.0586 378.635L91.2888 377.017L135.434 466.982L131.204 468.6Z" fill="#37474F"/>
<path d="M118.413 473.474L74.2676 383.509L78.4978 381.903L122.643 471.857L118.413 473.474Z" fill="#37474F"/>
<path d="M236.37 277.947C237.06 281.34 255.327 279.214 281.443 289.789C293.048 294.483 315.285 320.6 324.344 314.673C333.404 308.746 312.966 285.638 292.098 278.072C258.517 265.879 235.737 274.78 236.37 277.947Z" fill="white"/>
<path d="M293.453 444.214C295.715 450.152 304.944 446.646 302.682 440.696C300.42 434.747 291.179 438.264 293.453 444.214Z" fill="white"/>
<path d="M212.934 441.59C211.701 445.786 232.252 456.011 252.317 456.509C268.967 456.916 287.573 450.989 287.12 446.623C286.668 442.257 260.687 449.202 249.671 447.935C235.759 446.34 214.257 437.111 212.934 441.59Z" fill="white"/>
<path d="M365.55 393.938C359.488 417.159 345.474 436.432 328.824 450.231L314.177 434.283L293.094 430.415L295.096 409.309L272.803 403.269V392.988L259.762 391.687L277.565 389.222L282.587 394.741L306.407 389.244L317.186 405.079L339.502 391.744L346.288 398.756L365.55 393.938Z" fill="white"/>
<path opacity="0.4" d="M434.463 408.812C440.537 432.021 437.744 455.694 429.939 475.873L409.365 469.086L389.096 476.054L380.523 456.633L358.117 462.289L353.083 453.331L341.105 458.692L355.425 447.822L362.505 450.186L380.602 433.707L397.738 442.212L410.677 419.67L420.02 422.464L434.463 408.812Z" fill="#FDB839"/>
<path d="M236.561 32.0995C236.562 37.938 234.94 43.6619 231.877 48.6323C228.814 53.6027 224.429 57.6239 219.213 60.2472C213.997 62.8704 208.155 63.9924 202.338 63.4879C196.522 62.9834 190.96 60.8722 186.273 57.3901L170.846 61.3375L177.27 46.9843C175.008 42.7603 173.739 38.0761 173.56 33.2879C173.38 28.4996 174.295 23.7336 176.235 19.3521C178.175 14.9707 181.088 11.0893 184.753 8.00317C188.419 4.91702 192.739 2.70739 197.387 1.54234C202.035 0.377294 206.887 0.287511 211.575 1.27982C216.263 2.27214 220.662 4.32041 224.439 7.26886C228.216 10.2173 231.271 13.9883 233.372 18.2949C235.472 22.6016 236.563 27.3306 236.561 32.1222V32.0995Z" fill="white"/>
<path d="M236.56 32.0996C236.391 58.6909 206.123 72.7388 186.375 57.7861L170.959 61.8127L169.975 62.0728L170.393 61.134L176.772 46.7356V47.2219C169.533 34.3391 173.051 16.9321 184.486 7.63471C205.185 -9.44435 236.515 5.22555 236.515 32.0544L236.56 32.0996ZM236.56 32.0996C236.673 11.9554 216.948 -3.44971 197.471 1.86629C178.028 6.70724 168.142 29.419 177.869 46.9844L177.768 47.2219L171.298 61.5865L170.721 60.8965L186.183 57.0509C207.232 72.2863 236.074 58.3969 236.56 32.1675V32.0996Z" fill="#263238"/>
<path d="M209.258 13.0975H201.895L202.381 40.2656H208.771L209.258 13.0975Z" fill="#FDB839"/>
<path d="M202.379 50.0385H208.758V43.6593H202.379V50.0385Z" fill="#FDB839"/>
</svg>
