<svg width="562" height="560" viewBox="0 0 562 560" fill="none" xmlns="http://www.w3.org/2000/svg">
<g opacity="0.5">
<path d="M549.983 284.158H388.914C388.914 284.158 404.892 240.532 429.476 240.532C454.059 240.532 461.754 270.642 461.754 270.642C461.754 270.642 478.347 254.289 491.971 254.289C505.594 254.289 517.397 275.901 517.397 275.901C517.397 275.901 536.694 264.232 549.983 284.158Z" fill="#EBEBEB"/>
<path d="M358.684 57.1155H283.396C283.396 57.1155 300.217 32.7197 313.479 32.7197C326.741 32.7197 330.648 48.9925 330.648 48.9925C330.648 48.9925 340.016 41.4182 348.661 42.7698C357.306 44.1214 358.684 57.1155 358.684 57.1155Z" fill="#EBEBEB"/>
<path d="M501.806 108.022H426.504C426.504 108.022 443.325 83.6392 456.574 83.6392C469.822 83.6392 473.703 99.8986 473.703 99.8986C473.703 99.8986 483.071 92.3108 491.715 93.6624C500.36 95.014 501.806 108.022 501.806 108.022Z" fill="#EBEBEB"/>
<path d="M395.873 229.826H320.585C320.585 229.826 337.406 205.444 350.655 205.444C363.903 205.444 367.824 221.703 367.824 221.703C367.824 221.703 377.192 214.116 385.85 215.467C394.508 216.819 395.873 229.826 395.873 229.826Z" fill="#EBEBEB"/>
<path d="M87.2649 281.843H12.0166C12.0166 281.843 28.7979 257.541 42.0463 257.541C55.2947 257.541 59.2291 273.787 59.2291 273.787C59.2291 273.787 68.5967 266.199 77.2416 267.564C85.8865 268.929 87.2649 281.843 87.2649 281.843Z" fill="#EBEBEB"/>
<path d="M187.205 130.771H40.5488C40.5488 130.771 60.6222 85.9407 82.114 83.1304C103.606 80.3202 113.87 116.452 113.87 116.452C113.87 116.452 127.734 103.686 138.627 103.686C149.52 103.686 157.884 120.494 157.884 120.494C157.884 120.494 179.724 108.998 187.205 130.771Z" fill="#EBEBEB"/>
<path d="M443.233 317.226H398.857V549.876H443.233V317.226Z" fill="#DBDBDB"/>
<path d="M414.367 324.787H405.735V333.672H414.367V324.787Z" fill="#EBEBEB"/>
<path d="M425.408 324.787H416.776V333.672H425.408V324.787Z" fill="#EBEBEB"/>
<path d="M414.367 339.855H405.735V348.741H414.367V339.855Z" fill="#EBEBEB"/>
<path d="M425.408 339.855H416.776V348.741H425.408V339.855Z" fill="#EBEBEB"/>
<path d="M414.367 354.937H405.735V363.823H414.367V354.937Z" fill="#EBEBEB"/>
<path d="M425.408 354.937H416.776V363.823H425.408V354.937Z" fill="#EBEBEB"/>
<path d="M414.367 370.019H405.735V378.904H414.367V370.019Z" fill="#EBEBEB"/>
<path d="M425.408 370.019H416.776V378.904H425.408V370.019Z" fill="#EBEBEB"/>
<path d="M414.367 385.1H405.735V393.986H414.367V385.1Z" fill="#EBEBEB"/>
<path d="M425.408 385.1H416.776V393.986H425.408V385.1Z" fill="#EBEBEB"/>
<path d="M414.367 400.183H405.735V409.068H414.367V400.183Z" fill="#EBEBEB"/>
<path d="M425.408 400.183H416.776V409.068H425.408V400.183Z" fill="#EBEBEB"/>
<path d="M414.367 415.264H405.735V424.15H414.367V415.264Z" fill="#EBEBEB"/>
<path d="M425.408 415.264H416.776V424.15H425.408V415.264Z" fill="#EBEBEB"/>
<path d="M414.367 430.346H405.735V439.231H414.367V430.346Z" fill="#EBEBEB"/>
<path d="M425.408 430.346H416.776V439.231H425.408V430.346Z" fill="#EBEBEB"/>
<path d="M414.367 445.427H405.735V454.313H414.367V445.427Z" fill="#EBEBEB"/>
<path d="M425.408 445.427H416.776V454.313H425.408V445.427Z" fill="#EBEBEB"/>
<path d="M414.367 460.51H405.735V469.396H414.367V460.51Z" fill="#EBEBEB"/>
<path d="M425.408 460.51H416.776V469.396H425.408V460.51Z" fill="#EBEBEB"/>
<path d="M414.367 475.591H405.735V484.477H414.367V475.591Z" fill="#EBEBEB"/>
<path d="M425.408 475.591H416.776V484.477H425.408V475.591Z" fill="#EBEBEB"/>
<path d="M414.367 490.673H405.735V499.559H414.367V490.673Z" fill="#EBEBEB"/>
<path d="M425.408 490.673H416.776V499.559H425.408V490.673Z" fill="#EBEBEB"/>
<path d="M414.367 505.754H405.735V514.64H414.367V505.754Z" fill="#EBEBEB"/>
<path d="M425.408 505.754H416.776V514.64H425.408V505.754Z" fill="#EBEBEB"/>
<path d="M414.367 520.837H405.735V529.723H414.367V520.837Z" fill="#EBEBEB"/>
<path d="M427.71 529.722H436.342V520.836H427.71V529.722Z" fill="#EBEBEB"/>
<path d="M427.71 514.64H436.342V505.754H427.71V514.64Z" fill="#EBEBEB"/>
<path d="M427.71 499.559H436.342V490.673H427.71V499.559Z" fill="#EBEBEB"/>
<path d="M427.71 484.477H436.342V475.591H427.71V484.477Z" fill="#EBEBEB"/>
<path d="M427.71 469.396H436.342V460.51H427.71V469.396Z" fill="#EBEBEB"/>
<path d="M427.71 454.327H436.342V445.441H427.71V454.327Z" fill="#EBEBEB"/>
<path d="M427.71 439.245H436.342V430.359H427.71V439.245Z" fill="#EBEBEB"/>
<path d="M427.71 424.163H436.342V415.277H427.71V424.163Z" fill="#EBEBEB"/>
<path d="M427.71 409.082H436.342V400.196H427.71V409.082Z" fill="#EBEBEB"/>
<path d="M427.71 394H436.342V385.114H427.71V394Z" fill="#EBEBEB"/>
<path d="M427.71 378.917H436.342V370.032H427.71V378.917Z" fill="#EBEBEB"/>
<path d="M427.71 363.836H436.342V354.95H427.71V363.836Z" fill="#EBEBEB"/>
<path d="M427.71 348.754H436.342V339.869H427.71V348.754Z" fill="#EBEBEB"/>
<path d="M427.71 333.66H436.342V324.774H427.71V333.66Z" fill="#EBEBEB"/>
<path d="M425.408 520.837H416.776V529.723H425.408V520.837Z" fill="#EBEBEB"/>
<path d="M478.228 317.226H443.233V549.876H478.228V317.226Z" fill="#A6A6A6"/>
<path d="M467.496 529.722H474.615V520.836H467.496V529.722Z" fill="#C7C7C7" fill-opacity="0.2"/>
<path d="M458.382 529.722H465.501V520.836H458.382V529.722Z" fill="#C7C7C7" fill-opacity="0.2"/>
<path d="M467.496 514.64H474.615V505.754H467.496V514.64Z" fill="#C7C7C7" fill-opacity="0.2"/>
<path d="M458.382 514.64H465.501V505.754H458.382V514.64Z" fill="#C7C7C7" fill-opacity="0.2"/>
<path d="M467.496 499.559H474.615V490.673H467.496V499.559Z" fill="#C7C7C7" fill-opacity="0.2"/>
<path d="M458.382 499.559H465.501V490.673H458.382V499.559Z" fill="#C7C7C7" fill-opacity="0.2"/>
<path d="M467.496 484.477H474.615V475.591H467.496V484.477Z" fill="#C7C7C7" fill-opacity="0.2"/>
<path d="M458.382 484.477H465.501V475.591H458.382V484.477Z" fill="#C7C7C7" fill-opacity="0.2"/>
<path d="M467.496 469.396H474.615V460.51H467.496V469.396Z" fill="#C7C7C7" fill-opacity="0.2"/>
<path d="M458.382 469.396H465.501V460.51H458.382V469.396Z" fill="#C7C7C7" fill-opacity="0.2"/>
<path d="M467.496 454.327H474.615V445.441H467.496V454.327Z" fill="#C7C7C7" fill-opacity="0.2"/>
<path d="M458.382 454.327H465.501V445.441H458.382V454.327Z" fill="#C7C7C7" fill-opacity="0.2"/>
<path d="M467.496 439.245H474.615V430.359H467.496V439.245Z" fill="#C7C7C7" fill-opacity="0.2"/>
<path d="M458.382 439.245H465.501V430.359H458.382V439.245Z" fill="#C7C7C7" fill-opacity="0.2"/>
<path d="M467.496 424.163H474.615V415.277H467.496V424.163Z" fill="#C7C7C7" fill-opacity="0.2"/>
<path d="M458.382 424.163H465.501V415.277H458.382V424.163Z" fill="#C7C7C7" fill-opacity="0.2"/>
<path d="M467.496 409.082H474.615V400.196H467.496V409.082Z" fill="#C7C7C7" fill-opacity="0.2"/>
<path d="M458.382 409.082H465.501V400.196H458.382V409.082Z" fill="#C7C7C7" fill-opacity="0.2"/>
<path d="M467.496 394H474.615V385.114H467.496V394Z" fill="#C7C7C7" fill-opacity="0.2"/>
<path d="M458.382 394H465.501V385.114H458.382V394Z" fill="#C7C7C7" fill-opacity="0.2"/>
<path d="M467.496 378.917H474.615V370.032H467.496V378.917Z" fill="#C7C7C7" fill-opacity="0.2"/>
<path d="M458.382 378.917H465.501V370.032H458.382V378.917Z" fill="#C7C7C7" fill-opacity="0.2"/>
<path d="M467.496 363.836H474.615V354.95H467.496V363.836Z" fill="#C7C7C7" fill-opacity="0.2"/>
<path d="M458.382 363.836H465.501V354.95H458.382V363.836Z" fill="#C7C7C7" fill-opacity="0.2"/>
<path d="M467.496 348.754H474.615V339.869H467.496V348.754Z" fill="#C7C7C7" fill-opacity="0.2"/>
<path d="M458.382 348.754H465.501V339.869H458.382V348.754Z" fill="#C7C7C7" fill-opacity="0.2"/>
<path d="M467.496 333.66H474.615V324.774H467.496V333.66Z" fill="#C7C7C7" fill-opacity="0.2"/>
<path d="M456.467 324.787H449.348V333.672H456.467V324.787Z" fill="#C7C7C7" fill-opacity="0.2"/>
<path d="M456.467 339.855H449.348V348.741H456.467V339.855Z" fill="#C7C7C7" fill-opacity="0.2"/>
<path d="M456.467 354.937H449.348V363.823H456.467V354.937Z" fill="#C7C7C7" fill-opacity="0.2"/>
<path d="M456.467 370.019H449.348V378.904H456.467V370.019Z" fill="#C7C7C7" fill-opacity="0.2"/>
<path d="M456.467 385.1H449.348V393.986H456.467V385.1Z" fill="#C7C7C7" fill-opacity="0.2"/>
<path d="M456.467 400.183H449.348V409.068H456.467V400.183Z" fill="#C7C7C7" fill-opacity="0.2"/>
<path d="M456.467 415.264H449.348V424.15H456.467V415.264Z" fill="#C7C7C7" fill-opacity="0.2"/>
<path d="M456.467 430.346H449.348V439.231H456.467V430.346Z" fill="#C7C7C7" fill-opacity="0.2"/>
<path d="M456.467 445.427H449.348V454.313H456.467V445.427Z" fill="#C7C7C7" fill-opacity="0.2"/>
<path d="M456.467 460.51H449.348V469.396H456.467V460.51Z" fill="#C7C7C7" fill-opacity="0.2"/>
<path d="M456.467 475.591H449.348V484.477H456.467V475.591Z" fill="#C7C7C7" fill-opacity="0.2"/>
<path d="M456.467 490.673H449.348V499.559H456.467V490.673Z" fill="#C7C7C7" fill-opacity="0.2"/>
<path d="M456.467 505.754H449.348V514.64H456.467V505.754Z" fill="#C7C7C7" fill-opacity="0.2"/>
<path d="M456.467 520.837H449.348V529.723H456.467V520.837Z" fill="#C7C7C7" fill-opacity="0.2"/>
<path d="M458.382 333.66H465.501V324.774H458.382V333.66Z" fill="#C7C7C7" fill-opacity="0.2"/>
<path d="M128.122 304.673H75.623V549.862H128.122V304.673Z" fill="#EBEBEB"/>
<path d="M128.121 299.307H74.3516V304.673H128.121V299.307Z" fill="#C7C7C7" fill-opacity="0.2"/>
<path d="M85.6731 312.596H80.3604V549.876H85.6731V312.596Z" fill="white"/>
<path d="M95.1077 312.596H89.7949V549.876H95.1077V312.596Z" fill="white"/>
<path d="M104.53 312.596H99.2168V549.876H104.53V312.596Z" fill="white"/>
<path d="M113.964 312.596H108.638V549.876H113.964V312.596Z" fill="white"/>
<path d="M123.371 312.596H118.059V549.876H123.371V312.596Z" fill="white"/>
<path d="M85.6731 319.38H80.3604V329.979H85.6731V319.38Z" fill="#EBEBEB"/>
<path d="M95.1077 319.38H89.7949V329.979H95.1077V319.38Z" fill="#EBEBEB"/>
<path d="M104.53 319.38H99.2168V329.979H104.53V319.38Z" fill="#EBEBEB"/>
<path d="M113.964 319.38H108.638V329.979H113.964V319.38Z" fill="#EBEBEB"/>
<path d="M123.371 319.38H118.059V329.979H123.371V319.38Z" fill="#EBEBEB"/>
<path d="M85.6731 336.59H80.3604V347.189H85.6731V336.59Z" fill="#EBEBEB"/>
<path d="M95.1077 336.59H89.7949V347.189H95.1077V336.59Z" fill="#EBEBEB"/>
<path d="M104.53 336.59H99.2168V347.189H104.53V336.59Z" fill="#EBEBEB"/>
<path d="M113.964 336.59H108.638V347.189H113.964V336.59Z" fill="#EBEBEB"/>
<path d="M123.371 336.59H118.059V347.189H123.371V336.59Z" fill="#EBEBEB"/>
<path d="M85.6731 353.812H80.3604V364.411H85.6731V353.812Z" fill="#EBEBEB"/>
<path d="M95.1077 353.812H89.7949V364.411H95.1077V353.812Z" fill="#EBEBEB"/>
<path d="M104.53 353.812H99.2168V364.411H104.53V353.812Z" fill="#EBEBEB"/>
<path d="M113.964 353.812H108.638V364.411H113.964V353.812Z" fill="#EBEBEB"/>
<path d="M123.371 353.812H118.059V364.411H123.371V353.812Z" fill="#EBEBEB"/>
<path d="M85.6731 371.036H80.3604V381.634H85.6731V371.036Z" fill="#EBEBEB"/>
<path d="M95.1077 371.036H89.7949V381.634H95.1077V371.036Z" fill="#EBEBEB"/>
<path d="M104.53 371.036H99.2168V381.634H104.53V371.036Z" fill="#EBEBEB"/>
<path d="M113.964 371.036H108.638V381.634H113.964V371.036Z" fill="#EBEBEB"/>
<path d="M123.371 371.036H118.059V381.634H123.371V371.036Z" fill="#EBEBEB"/>
<path d="M85.6731 388.259H80.3604V398.858H85.6731V388.259Z" fill="#EBEBEB"/>
<path d="M95.1077 388.259H89.7949V398.858H95.1077V388.259Z" fill="#EBEBEB"/>
<path d="M104.53 388.259H99.2168V398.858H104.53V388.259Z" fill="#EBEBEB"/>
<path d="M113.964 388.259H108.638V398.858H113.964V388.259Z" fill="#EBEBEB"/>
<path d="M123.371 388.259H118.059V398.858H123.371V388.259Z" fill="#EBEBEB"/>
<path d="M85.6731 405.481H80.3604V416.08H85.6731V405.481Z" fill="#EBEBEB"/>
<path d="M95.1077 405.481H89.7949V416.08H95.1077V405.481Z" fill="#EBEBEB"/>
<path d="M104.53 405.481H99.2168V416.08H104.53V405.481Z" fill="#EBEBEB"/>
<path d="M113.964 405.481H108.638V416.08H113.964V405.481Z" fill="#EBEBEB"/>
<path d="M123.371 405.481H118.059V416.08H123.371V405.481Z" fill="#EBEBEB"/>
<path d="M85.6731 422.705H80.3604V433.303H85.6731V422.705Z" fill="#EBEBEB"/>
<path d="M95.1077 422.705H89.7949V433.303H95.1077V422.705Z" fill="#EBEBEB"/>
<path d="M104.53 422.705H99.2168V433.303H104.53V422.705Z" fill="#EBEBEB"/>
<path d="M113.964 422.705H108.638V433.303H113.964V422.705Z" fill="#EBEBEB"/>
<path d="M123.371 422.705H118.059V433.303H123.371V422.705Z" fill="#EBEBEB"/>
<path d="M85.6731 439.928H80.3604V450.526H85.6731V439.928Z" fill="#EBEBEB"/>
<path d="M95.1077 439.928H89.7949V450.526H95.1077V439.928Z" fill="#EBEBEB"/>
<path d="M104.53 439.928H99.2168V450.526H104.53V439.928Z" fill="#EBEBEB"/>
<path d="M113.964 439.928H108.638V450.526H113.964V439.928Z" fill="#EBEBEB"/>
<path d="M123.371 439.928H118.059V450.526H123.371V439.928Z" fill="#EBEBEB"/>
<path d="M85.6731 457.15H80.3604V467.749H85.6731V457.15Z" fill="#EBEBEB"/>
<path d="M95.1077 457.15H89.7949V467.749H95.1077V457.15Z" fill="#EBEBEB"/>
<path d="M104.53 457.15H99.2168V467.749H104.53V457.15Z" fill="#EBEBEB"/>
<path d="M113.964 457.15H108.638V467.749H113.964V457.15Z" fill="#EBEBEB"/>
<path d="M123.371 457.15H118.059V467.749H123.371V457.15Z" fill="#EBEBEB"/>
<path d="M85.6731 474.374H80.3604V484.972H85.6731V474.374Z" fill="#EBEBEB"/>
<path d="M95.1077 474.374H89.7949V484.972H95.1077V474.374Z" fill="#EBEBEB"/>
<path d="M104.53 474.374H99.2168V484.972H104.53V474.374Z" fill="#EBEBEB"/>
<path d="M113.964 474.374H108.638V484.972H113.964V474.374Z" fill="#EBEBEB"/>
<path d="M123.371 474.374H118.059V484.972H123.371V474.374Z" fill="#EBEBEB"/>
<path d="M85.6731 491.596H80.3604V502.194H85.6731V491.596Z" fill="#EBEBEB"/>
<path d="M95.1077 491.596H89.7949V502.194H95.1077V491.596Z" fill="#EBEBEB"/>
<path d="M104.53 491.596H99.2168V502.194H104.53V491.596Z" fill="#EBEBEB"/>
<path d="M113.964 491.596H108.638V502.194H113.964V491.596Z" fill="#EBEBEB"/>
<path d="M123.371 491.596H118.059V502.194H123.371V491.596Z" fill="#EBEBEB"/>
<path d="M85.6731 508.819H80.3604V519.418H85.6731V508.819Z" fill="#EBEBEB"/>
<path d="M95.1077 508.819H89.7949V519.418H95.1077V508.819Z" fill="#EBEBEB"/>
<path d="M104.53 508.819H99.2168V519.418H104.53V508.819Z" fill="#EBEBEB"/>
<path d="M113.964 508.819H108.638V519.418H113.964V508.819Z" fill="#EBEBEB"/>
<path d="M123.371 508.819H118.059V519.418H123.371V508.819Z" fill="#EBEBEB"/>
<path d="M85.6731 526.042H80.3604V536.641H85.6731V526.042Z" fill="#EBEBEB"/>
<path d="M95.1077 526.042H89.7949V536.641H95.1077V526.042Z" fill="#EBEBEB"/>
<path d="M104.53 526.042H99.2168V536.641H104.53V526.042Z" fill="#EBEBEB"/>
<path d="M113.964 526.042H108.638V536.641H113.964V526.042Z" fill="#EBEBEB"/>
<path d="M123.371 526.042H118.059V536.641H123.371V526.042Z" fill="#EBEBEB"/>
<path d="M85.6731 543.265H80.3604V549.875H85.6731V543.265Z" fill="#EBEBEB"/>
<path d="M95.1077 543.265H89.7949V549.875H95.1077V543.265Z" fill="#EBEBEB"/>
<path d="M104.53 543.265H99.2168V549.875H104.53V543.265Z" fill="#EBEBEB"/>
<path d="M113.964 543.265H108.638V549.875H113.964V543.265Z" fill="#EBEBEB"/>
<path d="M123.371 543.265H118.059V549.875H123.371V543.265Z" fill="#EBEBEB"/>
<path d="M161.831 304.673H128.121V549.862H161.831V304.673Z" fill="#DBDBDB"/>
<path d="M163.29 299.307H128.121V304.673H163.29V299.307Z" fill="#C7C7C7" fill-opacity="0.2"/>
<path d="M138.198 312.596H132.872V549.876H138.198V312.596Z" fill="#C7C7C7" fill-opacity="0.2"/>
<path d="M147.606 312.596H142.293V549.876H147.606V312.596Z" fill="#C7C7C7" fill-opacity="0.2"/>
<path d="M157.028 312.596H151.715V549.876H157.028V312.596Z" fill="#C7C7C7" fill-opacity="0.2"/>
<path d="M138.198 319.38H132.872V329.979H138.198V319.38Z" fill="#DBDBDB"/>
<path d="M147.606 319.38H142.293V329.979H147.606V319.38Z" fill="#DBDBDB"/>
<path d="M157.028 319.38H151.715V329.979H157.028V319.38Z" fill="#DBDBDB"/>
<path d="M138.198 336.59H132.872V347.189H138.198V336.59Z" fill="#DBDBDB"/>
<path d="M147.606 336.59H142.293V347.189H147.606V336.59Z" fill="#DBDBDB"/>
<path d="M157.028 336.59H151.715V347.189H157.028V336.59Z" fill="#DBDBDB"/>
<path d="M138.198 353.812H132.872V364.411H138.198V353.812Z" fill="#DBDBDB"/>
<path d="M147.606 353.812H142.293V364.411H147.606V353.812Z" fill="#DBDBDB"/>
<path d="M157.028 353.812H151.715V364.411H157.028V353.812Z" fill="#DBDBDB"/>
<path d="M138.198 371.036H132.872V381.634H138.198V371.036Z" fill="#DBDBDB"/>
<path d="M147.606 371.036H142.293V381.634H147.606V371.036Z" fill="#DBDBDB"/>
<path d="M157.028 371.036H151.715V381.634H157.028V371.036Z" fill="#DBDBDB"/>
<path d="M138.198 388.259H132.872V398.858H138.198V388.259Z" fill="#DBDBDB"/>
<path d="M147.606 388.259H142.293V398.858H147.606V388.259Z" fill="#DBDBDB"/>
<path d="M157.028 388.259H151.715V398.858H157.028V388.259Z" fill="#DBDBDB"/>
<path d="M138.198 405.481H132.872V416.08H138.198V405.481Z" fill="#DBDBDB"/>
<path d="M147.606 405.481H142.293V416.08H147.606V405.481Z" fill="#DBDBDB"/>
<path d="M157.028 405.481H151.715V416.08H157.028V405.481Z" fill="#DBDBDB"/>
<path d="M138.198 422.705H132.872V433.303H138.198V422.705Z" fill="#DBDBDB"/>
<path d="M147.606 422.705H142.293V433.303H147.606V422.705Z" fill="#DBDBDB"/>
<path d="M157.028 422.705H151.715V433.303H157.028V422.705Z" fill="#DBDBDB"/>
<path d="M138.198 439.928H132.872V450.526H138.198V439.928Z" fill="#DBDBDB"/>
<path d="M147.606 439.928H142.293V450.526H147.606V439.928Z" fill="#DBDBDB"/>
<path d="M157.028 439.928H151.715V450.526H157.028V439.928Z" fill="#DBDBDB"/>
<path d="M138.198 457.15H132.872V467.749H138.198V457.15Z" fill="#DBDBDB"/>
<path d="M147.606 457.15H142.293V467.749H147.606V457.15Z" fill="#DBDBDB"/>
<path d="M157.028 457.15H151.715V467.749H157.028V457.15Z" fill="#DBDBDB"/>
<path d="M138.198 474.374H132.872V484.972H138.198V474.374Z" fill="#DBDBDB"/>
<path d="M147.606 474.374H142.293V484.972H147.606V474.374Z" fill="#DBDBDB"/>
<path d="M157.028 474.374H151.715V484.972H157.028V474.374Z" fill="#DBDBDB"/>
<path d="M138.198 491.596H132.872V502.194H138.198V491.596Z" fill="#DBDBDB"/>
<path d="M147.606 491.596H142.293V502.194H147.606V491.596Z" fill="#DBDBDB"/>
<path d="M157.028 491.596H151.715V502.194H157.028V491.596Z" fill="#DBDBDB"/>
<path d="M138.198 508.819H132.872V519.418H138.198V508.819Z" fill="#DBDBDB"/>
<path d="M147.606 508.819H142.293V519.418H147.606V508.819Z" fill="#DBDBDB"/>
<path d="M157.028 508.819H151.715V519.418H157.028V508.819Z" fill="#DBDBDB"/>
<path d="M138.198 526.042H132.872V536.641H138.198V526.042Z" fill="#DBDBDB"/>
<path d="M147.606 526.042H142.293V536.641H147.606V526.042Z" fill="#DBDBDB"/>
<path d="M157.028 526.042H151.715V536.641H157.028V526.042Z" fill="#DBDBDB"/>
<path d="M138.198 543.265H132.872V549.875H138.198V543.265Z" fill="#DBDBDB"/>
<path d="M147.606 543.265H142.293V549.875H147.606V543.265Z" fill="#DBDBDB"/>
<path d="M157.028 543.265H151.715V549.875H157.028V543.265Z" fill="#DBDBDB"/>
<path d="M61.9865 394.789H9.70215V549.876H61.9865V394.789Z" fill="#EBEBEB"/>
<path d="M61.9864 381.634H17.1426V394.789H61.9864V381.634Z" fill="#C7C7C7" fill-opacity="0.2"/>
<path d="M56.2582 401.654H15.4424V549.876H56.2582V401.654Z" fill="#DBDBDB"/>
<path d="M56.2582 415.799H15.4424V419.305H56.2582V415.799Z" fill="white"/>
<path d="M56.2582 430.306H15.4424V433.812H56.2582V430.306Z" fill="white"/>
<path d="M56.2582 444.812H15.4424V448.318H56.2582V444.812Z" fill="white"/>
<path d="M56.2582 459.318H15.4424V462.824H56.2582V459.318Z" fill="white"/>
<path d="M56.2582 473.825H15.4424V477.331H56.2582V473.825Z" fill="white"/>
<path d="M56.2582 488.331H15.4424V491.837H56.2582V488.331Z" fill="white"/>
<path d="M56.2582 502.837H15.4424V506.344H56.2582V502.837Z" fill="white"/>
<path d="M56.2582 517.344H15.4424V520.85H56.2582V517.344Z" fill="white"/>
<path d="M56.2582 531.863H15.4424V535.369H56.2582V531.863Z" fill="white"/>
<path d="M56.2582 546.37H15.4424V549.876H56.2582V546.37Z" fill="white"/>
<path d="M94.7336 394.789H61.9873V549.876H94.7336V394.789Z" fill="#DBDBDB"/>
<path d="M89.8223 381.634H61.9873V394.789H89.8223V381.634Z" fill="#A6A6A6"/>
<path d="M91.669 401.654H66.4971V549.876H91.669V401.654Z" fill="#C7C7C7" fill-opacity="0.2"/>
<path d="M91.669 415.799H66.4971V419.305H91.669V415.799Z" fill="white"/>
<path d="M91.669 430.306H66.4971V433.812H91.669V430.306Z" fill="white"/>
<path d="M91.669 444.812H66.4971V448.318H91.669V444.812Z" fill="white"/>
<path d="M91.669 459.318H66.4971V462.824H91.669V459.318Z" fill="white"/>
<path d="M91.669 473.825H66.4971V477.331H91.669V473.825Z" fill="white"/>
<path d="M91.669 488.331H66.4971V491.837H91.669V488.331Z" fill="white"/>
<path d="M91.669 502.837H66.4971V506.344H91.669V502.837Z" fill="white"/>
<path d="M91.669 517.344H66.4971V520.85H91.669V517.344Z" fill="white"/>
<path d="M91.669 531.863H66.4971V535.369H91.669V531.863Z" fill="white"/>
<path d="M91.669 546.37H66.4971V549.876H91.669V546.37Z" fill="white"/>
<path d="M208.508 459.077H168.094V549.862H208.508V459.077Z" fill="#DBDBDB"/>
<path d="M181.596 466.933H174.45V472.5H181.596V466.933Z" fill="#C7C7C7" fill-opacity="0.2"/>
<path d="M181.596 478.816H174.45V484.383H181.596V478.816Z" fill="#C7C7C7" fill-opacity="0.2"/>
<path d="M181.596 490.7H174.45V496.267H181.596V490.7Z" fill="#C7C7C7" fill-opacity="0.2"/>
<path d="M181.596 502.583H174.45V508.15H181.596V502.583Z" fill="#C7C7C7" fill-opacity="0.2"/>
<path d="M181.596 514.466H174.45V520.033H181.596V514.466Z" fill="#C7C7C7" fill-opacity="0.2"/>
<path d="M181.596 526.336H174.45V531.903H181.596V526.336Z" fill="#C7C7C7" fill-opacity="0.2"/>
<path d="M181.596 538.22H174.45V543.787H181.596V538.22Z" fill="#C7C7C7" fill-opacity="0.2"/>
<path d="M191.887 466.933H184.741V472.5H191.887V466.933Z" fill="#C7C7C7" fill-opacity="0.2"/>
<path d="M191.887 478.816H184.741V484.383H191.887V478.816Z" fill="#C7C7C7" fill-opacity="0.2"/>
<path d="M191.887 490.7H184.741V496.267H191.887V490.7Z" fill="#C7C7C7" fill-opacity="0.2"/>
<path d="M191.887 502.583H184.741V508.15H191.887V502.583Z" fill="#C7C7C7" fill-opacity="0.2"/>
<path d="M191.887 514.466H184.741V520.033H191.887V514.466Z" fill="#C7C7C7" fill-opacity="0.2"/>
<path d="M191.887 526.336H184.741V531.903H191.887V526.336Z" fill="#C7C7C7" fill-opacity="0.2"/>
<path d="M191.887 538.22H184.741V543.787H191.887V538.22Z" fill="#C7C7C7" fill-opacity="0.2"/>
<path d="M202.152 466.933H195.006V472.5H202.152V466.933Z" fill="#C7C7C7" fill-opacity="0.2"/>
<path d="M202.152 478.816H195.006V484.383H202.152V478.816Z" fill="#C7C7C7" fill-opacity="0.2"/>
<path d="M202.152 490.7H195.006V496.267H202.152V490.7Z" fill="#C7C7C7" fill-opacity="0.2"/>
<path d="M202.152 502.583H195.006V508.15H202.152V502.583Z" fill="#C7C7C7" fill-opacity="0.2"/>
<path d="M202.152 514.466H195.006V520.033H202.152V514.466Z" fill="#C7C7C7" fill-opacity="0.2"/>
<path d="M202.152 526.336H195.006V531.903H202.152V526.336Z" fill="#C7C7C7" fill-opacity="0.2"/>
<path d="M202.152 538.22H195.006V543.787H202.152V538.22Z" fill="#C7C7C7" fill-opacity="0.2"/>
<path d="M236.866 459.077H208.509V549.862H236.866V459.077Z" fill="#A6A6A6"/>
<path d="M228.14 542.891H233.961V537.324H228.14V542.891Z" fill="#C7C7C7" fill-opacity="0.2"/>
<path d="M228.14 531.02H233.961V525.453H228.14V531.02Z" fill="#C7C7C7" fill-opacity="0.2"/>
<path d="M228.14 519.137H233.961V513.57H228.14V519.137Z" fill="#C7C7C7" fill-opacity="0.2"/>
<path d="M228.14 507.267H233.961V501.7H228.14V507.267Z" fill="#C7C7C7" fill-opacity="0.2"/>
<path d="M228.14 495.37H233.961V489.803H228.14V495.37Z" fill="#C7C7C7" fill-opacity="0.2"/>
<path d="M228.14 483.486H233.961V477.919H228.14V483.486Z" fill="#C7C7C7" fill-opacity="0.2"/>
<path d="M228.14 471.617H233.961V466.05H228.14V471.617Z" fill="#C7C7C7" fill-opacity="0.2"/>
<path d="M219.763 542.891H225.584V537.324H219.763V542.891Z" fill="#C7C7C7" fill-opacity="0.2"/>
<path d="M219.763 531.02H225.584V525.453H219.763V531.02Z" fill="#C7C7C7" fill-opacity="0.2"/>
<path d="M219.763 519.137H225.584V513.57H219.763V519.137Z" fill="#C7C7C7" fill-opacity="0.2"/>
<path d="M219.763 507.267H225.584V501.7H219.763V507.267Z" fill="#C7C7C7" fill-opacity="0.2"/>
<path d="M219.763 495.37H225.584V489.803H219.763V495.37Z" fill="#C7C7C7" fill-opacity="0.2"/>
<path d="M219.763 483.486H225.584V477.919H219.763V483.486Z" fill="#C7C7C7" fill-opacity="0.2"/>
<path d="M219.763 471.617H225.584V466.05H219.763V471.617Z" fill="#C7C7C7" fill-opacity="0.2"/>
<path d="M211.412 542.891H217.233V537.324H211.412V542.891Z" fill="#C7C7C7" fill-opacity="0.2"/>
<path d="M211.412 531.02H217.233V525.453H211.412V531.02Z" fill="#C7C7C7" fill-opacity="0.2"/>
<path d="M211.412 519.137H217.233V513.57H211.412V519.137Z" fill="#C7C7C7" fill-opacity="0.2"/>
<path d="M211.412 507.267H217.233V501.7H211.412V507.267Z" fill="#C7C7C7" fill-opacity="0.2"/>
<path d="M211.412 495.37H217.233V489.803H211.412V495.37Z" fill="#C7C7C7" fill-opacity="0.2"/>
<path d="M211.412 483.486H217.233V477.919H211.412V483.486Z" fill="#C7C7C7" fill-opacity="0.2"/>
<path d="M211.412 471.617H217.233V466.05H211.412V471.617Z" fill="#C7C7C7" fill-opacity="0.2"/>
<path d="M509.18 354.937H481.265V387.924H509.18V354.937Z" fill="#DBDBDB"/>
<path d="M526.899 354.937H509.194V389.129H526.899V354.937Z" fill="#C7C7C7" fill-opacity="0.2"/>
<path d="M528.076 369.51H510.505V389.142H528.076V369.51Z" fill="#DBDBDB"/>
<path d="M539.036 369.51H528.076V389.142H539.036V369.51Z" fill="#C7C7C7" fill-opacity="0.2"/>
<path d="M515.711 385.783H470.56V549.863H515.711V385.783Z" fill="#EBEBEB"/>
<path d="M489.923 392.835H475.725V398.63H489.923V392.835Z" fill="white"/>
<path d="M508.083 392.835H493.885V398.63H508.083V392.835Z" fill="white"/>
<path d="M489.923 402.685H475.725V408.48H489.923V402.685Z" fill="white"/>
<path d="M508.083 402.685H493.885V408.48H508.083V402.685Z" fill="white"/>
<path d="M489.923 412.534H475.725V418.329H489.923V412.534Z" fill="white"/>
<path d="M508.083 412.534H493.885V418.329H508.083V412.534Z" fill="white"/>
<path d="M489.923 422.383H475.725V428.178H489.923V422.383Z" fill="white"/>
<path d="M508.083 422.383H493.885V428.178H508.083V422.383Z" fill="white"/>
<path d="M489.923 432.233H475.725V438.027H489.923V432.233Z" fill="white"/>
<path d="M508.083 432.233H493.885V438.027H508.083V432.233Z" fill="white"/>
<path d="M489.923 442.082H475.725V447.877H489.923V442.082Z" fill="white"/>
<path d="M508.083 442.082H493.885V447.877H508.083V442.082Z" fill="white"/>
<path d="M489.923 451.931H475.725V457.726H489.923V451.931Z" fill="white"/>
<path d="M508.083 451.931H493.885V457.726H508.083V451.931Z" fill="white"/>
<path d="M489.923 461.781H475.725V467.576H489.923V461.781Z" fill="white"/>
<path d="M508.083 461.781H493.885V467.576H508.083V461.781Z" fill="white"/>
<path d="M489.923 471.63H475.725V477.424H489.923V471.63Z" fill="white"/>
<path d="M508.083 471.63H493.885V477.424H508.083V471.63Z" fill="white"/>
<path d="M489.923 481.479H475.725V487.274H489.923V481.479Z" fill="white"/>
<path d="M508.083 481.479H493.885V487.274H508.083V481.479Z" fill="white"/>
<path d="M489.923 491.328H475.725V497.123H489.923V491.328Z" fill="white"/>
<path d="M508.083 491.328H493.885V497.123H508.083V491.328Z" fill="white"/>
<path d="M489.923 501.178H475.725V506.986H489.923V501.178Z" fill="white"/>
<path d="M508.083 501.178H493.885V506.986H508.083V501.178Z" fill="white"/>
<path d="M489.923 511.027H475.725V516.822H489.923V511.027Z" fill="white"/>
<path d="M508.083 511.027H493.885V516.822H508.083V511.027Z" fill="white"/>
<path d="M489.923 520.876H475.725V526.671H489.923V520.876Z" fill="white"/>
<path d="M508.083 520.876H493.885V526.671H508.083V520.876Z" fill="white"/>
<path d="M552.298 385.783H515.711V549.863H552.298V385.783Z" fill="#C7C7C7" fill-opacity="0.2"/>
<path d="M536.975 526.671H548.631V520.876H536.975V526.671Z" fill="#EBEBEB"/>
<path d="M522.053 526.671H533.709V520.876H522.053V526.671Z" fill="#EBEBEB"/>
<path d="M536.975 516.822H548.631V511.027H536.975V516.822Z" fill="#EBEBEB"/>
<path d="M522.053 516.822H533.709V511.027H522.053V516.822Z" fill="#EBEBEB"/>
<path d="M536.975 506.972H548.631V501.164H536.975V506.972Z" fill="#EBEBEB"/>
<path d="M522.053 506.972H533.709V501.164H522.053V506.972Z" fill="#EBEBEB"/>
<path d="M536.975 497.123H548.631V491.329H536.975V497.123Z" fill="#EBEBEB"/>
<path d="M522.053 497.123H533.709V491.329H522.053V497.123Z" fill="#EBEBEB"/>
<path d="M536.975 487.274H548.631V481.479H536.975V487.274Z" fill="#EBEBEB"/>
<path d="M522.053 487.274H533.709V481.479H522.053V487.274Z" fill="#EBEBEB"/>
<path d="M536.975 477.424H548.631V471.63H536.975V477.424Z" fill="#EBEBEB"/>
<path d="M522.053 477.424H533.709V471.63H522.053V477.424Z" fill="#EBEBEB"/>
<path d="M536.975 467.575H548.631V461.781H536.975V467.575Z" fill="#EBEBEB"/>
<path d="M522.053 467.575H533.709V461.781H522.053V467.575Z" fill="#EBEBEB"/>
<path d="M536.975 457.726H548.631V451.932H536.975V457.726Z" fill="#EBEBEB"/>
<path d="M522.053 457.726H533.709V451.932H522.053V457.726Z" fill="#EBEBEB"/>
<path d="M536.975 447.877H548.631V442.082H536.975V447.877Z" fill="#EBEBEB"/>
<path d="M522.053 447.877H533.709V442.082H522.053V447.877Z" fill="#EBEBEB"/>
<path d="M536.975 438.027H548.631V432.232H536.975V438.027Z" fill="#EBEBEB"/>
<path d="M522.053 438.027H533.709V432.232H522.053V438.027Z" fill="#EBEBEB"/>
<path d="M536.975 428.178H548.631V422.383H536.975V428.178Z" fill="#EBEBEB"/>
<path d="M522.053 428.178H533.709V422.383H522.053V428.178Z" fill="#EBEBEB"/>
<path d="M536.975 418.329H548.631V412.535H536.975V418.329Z" fill="#EBEBEB"/>
<path d="M522.053 418.329H533.709V412.535H522.053V418.329Z" fill="#EBEBEB"/>
<path d="M536.975 408.479H548.631V402.684H536.975V408.479Z" fill="#EBEBEB"/>
<path d="M522.053 408.479H533.709V402.684H522.053V408.479Z" fill="#EBEBEB"/>
<path d="M536.975 398.644H548.631V392.849H536.975V398.644Z" fill="#EBEBEB"/>
<path d="M522.053 398.644H533.709V392.849H522.053V398.644Z" fill="#EBEBEB"/>
<path d="M324.68 442.952H271.432V549.876H324.68V442.952Z" fill="#C7C7C7" fill-opacity="0.2"/>
<path d="M289.23 452.199H279.809V458.743H289.23V452.199Z" fill="#DBDBDB"/>
<path d="M289.23 466.197H279.809V472.754H289.23V466.197Z" fill="#DBDBDB"/>
<path d="M289.23 480.181H279.809V486.738H289.23V480.181Z" fill="#DBDBDB"/>
<path d="M289.23 494.179H279.809V500.737H289.23V494.179Z" fill="#DBDBDB"/>
<path d="M289.23 508.164H279.809V514.721H289.23V508.164Z" fill="#DBDBDB"/>
<path d="M289.23 522.161H279.809V528.718H289.23V522.161Z" fill="#DBDBDB"/>
<path d="M289.23 536.146H279.809V542.703H289.23V536.146Z" fill="#DBDBDB"/>
<path d="M302.787 452.199H293.366V458.743H302.787V452.199Z" fill="#DBDBDB"/>
<path d="M302.787 466.197H293.366V472.754H302.787V466.197Z" fill="#DBDBDB"/>
<path d="M302.787 480.181H293.366V486.738H302.787V480.181Z" fill="#DBDBDB"/>
<path d="M302.787 494.179H293.366V500.737H302.787V494.179Z" fill="#DBDBDB"/>
<path d="M302.787 508.164H293.366V514.721H302.787V508.164Z" fill="#DBDBDB"/>
<path d="M302.787 522.161H293.366V528.718H302.787V522.161Z" fill="#DBDBDB"/>
<path d="M302.787 536.146H293.366V542.703H302.787V536.146Z" fill="#DBDBDB"/>
<path d="M316.302 452.199H306.881V458.743H316.302V452.199Z" fill="#DBDBDB"/>
<path d="M316.302 466.197H306.881V472.754H316.302V466.197Z" fill="#DBDBDB"/>
<path d="M316.302 480.181H306.881V486.738H316.302V480.181Z" fill="#DBDBDB"/>
<path d="M316.302 494.179H306.881V500.737H316.302V494.179Z" fill="#DBDBDB"/>
<path d="M316.302 508.164H306.881V514.721H316.302V508.164Z" fill="#DBDBDB"/>
<path d="M316.302 522.161H306.881V528.718H316.302V522.161Z" fill="#DBDBDB"/>
<path d="M316.302 536.146H306.881V542.703H316.302V536.146Z" fill="#DBDBDB"/>
<path d="M324.68 431.804H289.23V442.938H324.68V431.804Z" fill="#DBDBDB"/>
<path d="M324.693 424.913H302.211V431.804H324.693V424.913Z" fill="#EBEBEB"/>
<path d="M362.044 442.952H324.681V549.876H362.044V442.952Z" fill="#A6A6A6"/>
<path d="M350.56 541.659H358.229V535.102H350.56V541.659Z" fill="#C7C7C7" fill-opacity="0.2"/>
<path d="M350.56 527.661H358.229V521.104H350.56V527.661Z" fill="#C7C7C7" fill-opacity="0.2"/>
<path d="M350.56 513.677H358.229V507.119H350.56V513.677Z" fill="#C7C7C7" fill-opacity="0.2"/>
<path d="M350.56 499.679H358.229V493.122H350.56V499.679Z" fill="#C7C7C7" fill-opacity="0.2"/>
<path d="M350.56 485.694H358.229V479.137H350.56V485.694Z" fill="#C7C7C7" fill-opacity="0.2"/>
<path d="M350.56 471.697H358.229V465.14H350.56V471.697Z" fill="#C7C7C7" fill-opacity="0.2"/>
<path d="M350.56 457.712H358.229V451.155H350.56V457.712Z" fill="#C7C7C7" fill-opacity="0.2"/>
<path d="M339.52 541.659H347.188V535.102H339.52V541.659Z" fill="#C7C7C7" fill-opacity="0.2"/>
<path d="M339.52 527.661H347.188V521.104H339.52V527.661Z" fill="#C7C7C7" fill-opacity="0.2"/>
<path d="M339.52 513.677H347.188V507.119H339.52V513.677Z" fill="#C7C7C7" fill-opacity="0.2"/>
<path d="M339.52 499.679H347.188V493.122H339.52V499.679Z" fill="#C7C7C7" fill-opacity="0.2"/>
<path d="M339.52 485.694H347.188V479.137H339.52V485.694Z" fill="#C7C7C7" fill-opacity="0.2"/>
<path d="M339.52 471.697H347.188V465.14H339.52V471.697Z" fill="#C7C7C7" fill-opacity="0.2"/>
<path d="M339.52 457.712H347.188V451.155H339.52V457.712Z" fill="#C7C7C7" fill-opacity="0.2"/>
<path d="M328.519 541.659H336.188V535.102H328.519V541.659Z" fill="#C7C7C7" fill-opacity="0.2"/>
<path d="M328.519 527.661H336.188V521.104H328.519V527.661Z" fill="#C7C7C7" fill-opacity="0.2"/>
<path d="M328.519 513.677H336.188V507.119H328.519V513.677Z" fill="#C7C7C7" fill-opacity="0.2"/>
<path d="M328.519 499.679H336.188V493.122H328.519V499.679Z" fill="#C7C7C7" fill-opacity="0.2"/>
<path d="M328.519 485.694H336.188V479.137H328.519V485.694Z" fill="#C7C7C7" fill-opacity="0.2"/>
<path d="M328.519 471.697H336.188V465.14H328.519V471.697Z" fill="#C7C7C7" fill-opacity="0.2"/>
<path d="M328.519 457.712H336.188V451.155H328.519V457.712Z" fill="#C7C7C7" fill-opacity="0.2"/>
<path d="M356.383 431.804H324.681V442.938H356.383V431.804Z" fill="#C7C7C7" fill-opacity="0.2"/>
<path d="M341.863 424.913H324.681V431.804H341.863V424.913Z" fill="#DBDBDB"/>
</g>
<path d="M562 558.36L491.757 558.681L421.5 558.801L281 559.029L140.5 558.801L70.2567 558.681L0 558.36L70.2567 558.025L140.5 557.918L281 557.69L421.5 557.918L491.757 558.038L562 558.36Z" fill="#263238"/>
<path d="M562 549.862H0V558.012H562V549.862Z" fill="#C7C7C7" fill-opacity="0.2"/>
<path d="M39.3978 549.862C39.8666 551.171 40.0934 552.554 40.0669 553.944C40.0933 555.312 39.8665 556.673 39.3978 557.958C38.5054 555.315 38.5054 552.452 39.3978 549.809V549.862Z" fill="#263238"/>
<path d="M83.3305 549.862C84.2228 552.506 84.2228 555.369 83.3305 558.012C82.8618 556.727 82.6349 555.365 82.6614 553.997C82.6283 552.59 82.8552 551.188 83.3305 549.862Z" fill="#263238"/>
<path d="M127.251 549.862C127.72 551.171 127.947 552.554 127.92 553.944C127.947 555.312 127.72 556.673 127.251 557.958C126.359 555.315 126.359 552.452 127.251 549.809V549.862Z" fill="#263238"/>
<path d="M171.185 549.862C172.077 552.506 172.077 555.369 171.185 558.012C170.716 556.727 170.489 555.365 170.516 553.997C170.483 552.59 170.71 551.188 171.185 549.862Z" fill="#263238"/>
<path d="M215.106 549.862C215.575 551.171 215.801 552.554 215.775 553.944C215.801 555.312 215.574 556.673 215.106 557.958C214.213 555.315 214.213 552.452 215.106 549.809V549.862Z" fill="#263238"/>
<path d="M259.039 549.862C259.932 552.506 259.932 555.369 259.039 558.012C258.571 556.727 258.344 555.365 258.37 553.997C258.337 552.59 258.564 551.188 259.039 549.862Z" fill="#263238"/>
<path d="M302.96 549.862C303.429 551.171 303.656 552.554 303.629 553.944C303.656 555.312 303.429 556.673 302.96 557.958C302.068 555.315 302.068 552.452 302.96 549.809V549.862Z" fill="#263238"/>
<path d="M346.893 549.862C347.785 552.506 347.785 555.369 346.893 558.012C346.424 556.727 346.197 555.365 346.224 553.997C346.191 552.59 346.418 551.188 346.893 549.862Z" fill="#263238"/>
<path d="M390.815 549.862C391.284 551.171 391.51 552.554 391.484 553.944C391.51 555.312 391.283 556.673 390.815 557.958C389.922 555.315 389.922 552.452 390.815 549.809V549.862Z" fill="#263238"/>
<path d="M434.749 549.862C435.642 552.506 435.642 555.369 434.749 558.012C434.281 556.727 434.054 555.365 434.08 553.997C434.047 552.59 434.274 551.188 434.749 549.862Z" fill="#263238"/>
<path d="M478.668 549.862C479.137 551.171 479.364 552.554 479.337 553.944C479.364 555.312 479.137 556.673 478.668 557.958C477.776 555.315 477.776 552.452 478.668 549.809V549.862Z" fill="#263238"/>
<path d="M522.603 549.862C523.495 552.506 523.495 555.369 522.603 558.012C522.134 556.727 521.907 555.365 521.934 553.997C521.901 552.59 522.128 551.188 522.603 549.862Z" fill="#263238"/>
<path d="M460.656 36.9615L460.335 36.0113C461.178 35.7169 462.035 35.4493 462.891 35.1816L463.185 36.1318L460.656 36.9615Z" fill="#263238"/>
<path d="M333.792 145.13L333.578 144.14C335.345 143.778 337.098 143.337 338.797 142.802L339.065 143.765C337.352 144.314 335.572 144.755 333.792 145.13ZM345.502 141.637L345.14 140.701C346.786 140.058 348.446 139.362 350.052 138.559L350.48 139.469C348.847 140.259 347.174 140.982 345.502 141.637ZM356.462 136.284L355.94 135.428C357.452 134.518 358.964 133.528 360.436 132.497L361.012 133.314C359.513 134.317 357.987 135.308 356.462 136.231V136.284ZM366.405 129.192L365.762 128.416C367.101 127.305 368.439 126.101 369.777 124.856L370.46 125.592C369.135 126.796 367.77 128.001 366.405 129.138V129.192ZM375.331 120.815L374.595 120.119C375.799 118.874 377.017 117.536 378.248 116.104L378.997 116.773C377.766 118.152 376.535 119.503 375.331 120.761V120.815ZM383.36 111.634L382.584 110.992C383.721 109.654 384.832 108.195 385.943 106.763L386.732 107.379C385.635 108.771 384.515 110.171 383.373 111.581L383.36 111.634ZM390.827 101.972L390.024 101.384L393.236 97.021L394.039 97.6098L390.827 101.972ZM398.014 92.1231L397.197 91.5343L400.396 87.1449L401.199 87.7337L398.014 92.1231ZM405.227 82.2336L404.424 81.6314C405.508 80.1861 406.605 78.7409 407.716 77.309L408.505 77.9245C407.394 79.3564 406.31 80.7883 405.227 82.2336ZM412.707 72.6386L411.931 71.9962C413.082 70.658 414.246 69.2127 415.437 67.8477L416.187 68.5035C415.009 69.8684 413.845 71.2468 412.707 72.6386ZM420.737 63.4985L420.001 62.816C421.272 61.4778 422.557 60.1396 423.814 58.9352L424.524 59.6578C423.252 60.8221 421.968 62.1603 420.723 63.4985H420.737ZM429.475 55.0945L428.819 54.3317C430.158 53.1273 431.616 51.963 433.008 50.8791L433.637 51.6686C432.218 52.7927 430.88 53.8901 429.462 55.0945H429.475ZM439.07 47.7075L438.508 46.8778C440.007 45.8607 441.546 44.8704 443.085 43.9605L443.607 44.8169C442.068 45.7269 440.542 46.7038 439.057 47.7075H439.07ZM449.495 41.6052L449.053 40.7086C450.659 39.9056 452.332 39.1429 453.991 38.4336L454.379 39.357C452.72 40.0528 451.087 40.8156 449.482 41.6052H449.495Z" fill="#263238"/>
<path d="M324.291 146.549L324.197 145.545C325.089 145.465 325.982 145.371 326.874 145.264L326.994 146.254L324.291 146.549Z" fill="#263238"/>
<path d="M473.288 18.6949L463.037 35.6636L479.149 27.5004L536.358 18.6548L473.288 18.6949Z" fill="#FDB839"/>
<path opacity="0.1" d="M473.288 18.6949L463.037 35.6636L479.149 27.5004L536.358 18.6548L473.288 18.6949Z" fill="black"/>
<path d="M480.113 32.1174L463.037 35.6636L479.149 27.5005L480.113 32.1174Z" fill="#263238"/>
<path d="M479.15 27.5004L536.359 18.6548L484.142 52.7661L479.15 27.5004Z" fill="#FDB839"/>
<path d="M473.289 18.695L453.925 0L536.359 18.6548L473.289 18.695Z" fill="#FDB839"/>
<path d="M154.323 162.26H137.073V549.876H154.323V162.26Z" fill="#37474F"/>
<path d="M154.337 549.862H163.691L163.691 162.246H154.337L154.337 549.862Z" fill="#455A64"/>
<path d="M154.324 157.375H135.481V162.246H154.324V157.375Z" fill="#263238"/>
<path d="M154.324 162.26H165.311V157.389H154.324V162.26Z" fill="#37474F"/>
<path d="M154.323 153.066H139.281V157.389H154.323V153.066Z" fill="#37474F"/>
<path d="M161.845 153.066H154.324V157.389H161.845V153.066Z" fill="#455A64"/>
<path d="M160.359 143.337C160.356 145.261 159.784 147.14 158.713 148.738C157.642 150.337 156.122 151.581 154.344 152.316C152.566 153.05 150.61 153.241 148.724 152.864C146.838 152.487 145.105 151.559 143.746 150.198C142.387 148.837 141.462 147.104 141.087 145.217C140.713 143.33 140.906 141.374 141.643 139.597C142.38 137.82 143.627 136.302 145.227 135.233C146.826 134.165 148.707 133.595 150.63 133.595C151.909 133.595 153.175 133.847 154.356 134.337C155.538 134.826 156.611 135.544 157.514 136.449C158.418 137.354 159.134 138.428 159.622 139.61C160.111 140.792 160.361 142.058 160.359 143.337Z" fill="#37474F"/>
<path d="M80.1592 195.769V237.254H35.4492V196.157C35.4475 193.27 36.0145 190.411 37.118 187.744C38.2215 185.076 39.8398 182.652 41.8804 180.611C43.921 178.569 46.344 176.949 49.0108 175.844C51.6776 174.739 54.5361 174.17 57.4228 174.17H58.5603C64.2887 174.17 69.7825 176.446 73.8331 180.496C77.8836 184.547 80.1592 190.04 80.1592 195.769Z" fill="#FDB839"/>
<path d="M150.63 192.397V237.294H80.1595V195.809C80.1647 192.969 79.61 190.156 78.5269 187.531C77.4438 184.906 75.8537 182.52 73.8475 180.51C71.8413 178.5 69.4585 176.906 66.8354 175.818C64.2123 174.73 61.4003 174.17 58.5605 174.17H132.457C137.282 174.184 141.904 176.111 145.311 179.527C148.717 182.944 150.63 187.572 150.63 192.397Z" fill="#FDB839"/>
<path opacity="0.1" d="M150.63 192.397V237.294H80.1595V195.809C80.1647 192.969 79.61 190.156 78.5269 187.531C77.4438 184.906 75.8537 182.52 73.8475 180.51C71.8413 178.5 69.4585 176.906 66.8354 175.818C64.2123 174.73 61.4003 174.17 58.5605 174.17H132.457C137.282 174.184 141.904 176.111 145.311 179.527C148.717 182.944 150.63 187.572 150.63 192.397Z" fill="#020100"/>
<path opacity="0.1" d="M92.3904 194.966V237.294H89.5133V195.809C89.5185 192.97 88.9642 190.158 87.882 187.534C86.7997 184.91 85.2108 182.525 83.206 180.515C81.2013 178.505 78.82 176.91 76.1985 175.822C73.5769 174.733 70.7664 174.172 67.9277 174.17H71.5945C77.1099 174.17 82.3994 176.361 86.2994 180.261C90.1994 184.161 92.3904 189.45 92.3904 194.966Z" fill="#020100"/>
<path opacity="0.1" d="M144.087 194.965V237.293H141.21V195.808C141.21 190.082 138.936 184.591 134.888 180.54C130.84 176.49 125.35 174.213 119.624 174.209H123.291C128.799 174.209 134.083 176.395 137.982 180.286C141.88 184.178 144.076 189.457 144.087 194.965Z" fill="#020100"/>
<g opacity="0.1">
<path opacity="0.1" d="M108.035 226.159V219.468L105.612 224.339H104.274L101.852 219.468V226.159H99.2559V214.972H102.066L104.97 220.806L107.874 214.972H110.671V226.159H108.035Z" fill="#020100"/>
<path opacity="0.1" d="M115.796 214.972H118.138L122.152 226.159H119.476L118.606 223.643H115.127L114.27 226.159H111.594L115.796 214.972ZM118.271 221.864L116.933 217.849L115.595 221.864H118.271Z" fill="#020100"/>
<path opacity="0.1" d="M123.317 226.159V214.972H125.9V226.159H123.317Z" fill="#020100"/>
<path opacity="0.1" d="M128.041 226.159V214.972H130.624V223.884H136.044V226.159H128.041Z" fill="#020100"/>
</g>
<path opacity="0.3" d="M77.8713 196.785V234.068H37.7246V197.133C37.7246 194.537 38.2369 191.966 39.2322 189.567C40.2276 187.169 41.6863 184.991 43.5249 183.157C45.3635 181.323 47.5458 179.871 49.9468 178.882C52.3478 177.893 54.9203 177.388 57.5169 177.395H58.534C63.6675 177.409 68.5859 179.458 72.2108 183.093C75.8357 186.728 77.8713 191.652 77.8713 196.785Z" fill="#020100"/>
<path d="M30.4835 241.482L35.4483 237.333H80.1583L75.6619 241.094C61.1957 253.232 41.4034 263.081 29.2657 263.081H26.3484C14.4248 263.041 12.6985 255.172 30.4835 241.482Z" fill="#37474F"/>
<path d="M80.1456 237.293L75.6626 241.054C61.1964 253.192 41.4041 263.041 29.2664 263.041H26.0948C14.3987 262.92 12.8196 255.012 30.4842 241.442L35.4356 237.293H80.1456Z" fill="#37474F"/>
<path d="M76.8402 237.293L72.3571 241.054C57.9445 253.098 38.2459 262.961 26.0948 263.041C14.3987 262.92 12.8196 255.012 30.4842 241.442L35.4356 237.293H76.8402Z" fill="#455A64"/>
<path d="M143.711 255.707V267.122L119.984 237.293H129.071L143.711 255.707Z" fill="#455A64"/>
<path d="M143.712 267.122H140.366L116.64 237.293H119.999L143.712 267.122Z" fill="#37474F"/>
<path d="M107.031 154.859V165.431H97.3552V205.136C97.3552 206.023 97.0027 206.874 96.3753 207.502C95.7479 208.129 94.8969 208.482 94.0096 208.482C93.1223 208.482 92.2714 208.129 91.644 207.502C91.0165 206.874 90.6641 206.023 90.6641 205.136V152.209L97.3552 153.293L107.031 154.859Z" fill="#455A64"/>
<path d="M107.031 154.859V165.431H97.3556V205.136C97.3526 205.905 97.0849 206.65 96.5975 207.244C96.11 207.839 95.4325 208.248 94.6791 208.401C94.4511 208.455 94.2176 208.482 93.9833 208.482C93.7965 208.503 93.608 208.503 93.4212 208.482C92.7353 208.376 92.1018 208.052 91.6146 207.558C90.99 206.928 90.639 206.077 90.6377 205.19V152.209L97.3288 153.293L107.031 154.859Z" fill="#455A64"/>
<path d="M93.9691 208.482H91.3596C90.6282 208.49 89.9217 208.217 89.3861 207.719C88.8506 207.22 88.527 206.535 88.4824 205.805V152.209H90.6236V205.136C90.6249 206.024 90.9759 206.875 91.6005 207.505C92.2578 208.087 93.0922 208.432 93.9691 208.482Z" fill="#37474F"/>
<path d="M77.8715 196.786V223.002L71.1804 220.205L67.2728 218.559L65.5465 217.836L64.4224 217.354L63.2314 216.859L62.87 216.712L62.4017 216.511L52.5791 212.363L54.6534 207.425L55.0548 206.488L56.8346 202.286L57.5439 200.573L57.8383 199.904L59.0695 196.96L60.4077 193.641L65.7606 180.848L72.7729 183.805C74.8484 186.092 76.3405 188.847 77.1221 191.834C77.585 193.446 77.8369 195.11 77.8715 196.786Z" fill="#EBEBEB"/>
<path d="M77.8712 203.611V206.528L77.7106 206.194V206.046L77.5902 205.792C77.5404 205.71 77.4957 205.625 77.4564 205.538L75.8639 202.259C75.8639 202.125 75.7301 201.991 75.6632 201.844L74.258 198.9C73.9636 198.311 73.6826 197.723 73.4016 197.12L73.3213 196.933L71.1935 192.45C70.6716 191.312 70.1363 190.175 69.6144 189.024C68.3832 186.348 67.1119 183.591 65.9209 180.821C67.3662 183.377 68.7178 185.973 70.1229 188.556C70.792 189.894 71.4611 191.085 72.1303 192.356L74.2446 196.371L74.5257 196.92L75.4223 198.659L76.5196 200.814C76.5196 200.921 76.6401 201.028 76.6936 201.135L77.8712 203.611Z" fill="#DBDBDB"/>
<path d="M77.8711 206.02V206.14H77.7105L77.309 206.261C75.6095 206.783 73.91 207.251 72.197 207.693L71.635 207.826L70.3904 208.134H70.2432L68.7712 208.482L65.894 209.124C63.8599 209.553 61.8793 209.954 59.7783 210.302H59.5374L58.2929 210.503C56.5666 210.797 54.8403 211.038 53.1006 211.225C54.5994 210.73 56.0982 210.302 57.6104 209.887L58.9486 209.539L59.3635 209.419C61.4511 208.884 63.5655 208.415 65.6665 207.947L67.5534 207.545C68.1154 207.452 68.6641 207.331 69.2262 207.224C69.7882 207.117 70.5644 206.956 71.2603 206.849L72.0364 206.716L72.4647 206.635C74.017 206.368 75.5827 206.127 77.1752 205.939H77.657L77.8711 206.02Z" fill="#DBDBDB"/>
<path d="M77.8832 199.382H43.25V233.587H77.8832V199.382Z" fill="white"/>
<path d="M77.8695 215.173V216.846L77.5484 217.127L76.9328 217.676C76.8581 217.734 76.7867 217.797 76.7187 217.863L76.5313 218.037L76.3975 218.157L71.2186 222.654L70.5093 223.256L70.2015 223.51L69.8937 223.256L67.2976 220.994L65.9593 219.884C65.6917 219.643 65.4107 219.415 65.143 219.161C65.0717 219.119 65.0083 219.064 64.9557 219L64.0189 218.197L63.8985 218.09L63.6844 217.903L63.4702 217.729C61.686 216.221 59.9552 214.696 58.2779 213.152L57.5821 212.537L56.4713 211.546L54.6246 209.9C53.2864 208.75 52.0418 207.585 50.7705 206.408L50.3155 206.006L49.8204 205.565C47.6257 203.517 45.4042 201.55 43.2363 199.436C45.5515 201.215 47.8264 203.102 50.1148 204.922C50.2888 205.069 50.4761 205.203 50.6501 205.364L51.2255 205.832L55.0261 208.95L56.9531 210.543L58.9203 212.189L59.7634 212.898C61.3514 214.227 62.935 215.566 64.5141 216.913L64.862 217.207L65.7854 217.997L66.2002 218.345L66.9764 219.014L70.1747 221.69C72.0483 220.084 73.9352 218.465 75.822 216.873L76.3841 216.391C76.7454 216.083 77.0934 215.775 77.4681 215.481L77.8695 215.173Z" fill="#DBDBDB"/>
<path d="M64.6221 217.635L63.7657 218.357C62.4275 219.495 61.0892 220.592 59.6172 221.649C57.9043 222.988 56.1512 224.219 54.3847 225.463C52.6183 226.708 50.8251 227.899 49.0319 229.063C47.2386 230.227 45.3651 231.378 43.4648 232.422C45.0975 230.99 46.8104 229.652 48.5233 228.341C50.2362 227.029 52.0027 225.771 53.7558 224.527C55.5088 223.282 57.3288 222.078 59.1087 220.913C60.5539 219.99 62.026 219.067 63.5382 218.237L64.5954 217.648L64.6221 217.635Z" fill="#DBDBDB"/>
<path d="M77.8706 218.826V219.388L76.7197 218.424L76.3986 218.157L75.8633 217.702H75.957L76.5993 218.063L77.0008 218.304L77.8706 218.826Z" fill="#DBDBDB"/>
<path d="M200.558 406.083C200.558 406.083 158.136 442.042 158.096 442.055C149.946 448.893 142.921 455.036 139.588 458.542C138.725 459.27 138.038 460.185 137.581 461.218C137.581 461.218 137.581 461.285 137.581 461.312C137.969 465.112 190.682 531.836 193.305 533.576C195.928 535.316 200.999 527.955 201.013 523.727C201.026 519.498 192.274 484.918 192.274 484.918L234.335 448.572L200.558 406.083Z" fill="#EB9481"/>
<path d="M166.808 434.655C166.808 434.655 158.136 442.015 158.096 442.028C149.946 448.867 142.921 455.009 139.588 458.515C138.816 459.325 138.142 460.223 137.581 461.192C137.581 461.192 137.581 461.259 137.581 461.285C137.969 465.086 190.682 531.81 193.305 533.549C195.928 535.289 200.999 527.929 201.013 523.7C201.026 519.471 192.274 484.892 192.274 484.892L201.214 477.518L166.808 434.655Z" fill="#EBEBEB"/>
<path d="M193.239 533.603C190.562 531.904 137.903 465.18 137.515 461.339C137.341 459.881 146.615 451.637 158.097 442.002L158.472 441.694L192.944 484.357L192.208 484.919C192.208 484.919 200.96 519.485 200.947 523.727C200.933 527.97 195.848 535.33 193.239 533.603Z" fill="#FDB839"/>
<path d="M195.22 530.806C186.616 519.351 150.818 473.918 141.437 463.239C141.357 463.159 141.29 463.239 141.37 463.239C149.654 474.788 185.813 519.926 195.046 530.9C195.234 531.181 195.354 531.047 195.22 530.806Z" fill="#263238"/>
<path d="M194.938 488.679C192.261 483.607 187.31 478.723 181.488 477.839C181.261 477.839 181.207 478.12 181.368 478.227C186.075 481.381 190.431 485.028 194.362 489.107C194.423 489.171 194.505 489.21 194.593 489.218C194.681 489.225 194.769 489.2 194.839 489.148C194.91 489.095 194.959 489.018 194.977 488.932C194.995 488.846 194.981 488.756 194.938 488.679Z" fill="#263238"/>
<path d="M195.528 493.389C192.851 488.318 187.9 483.446 182.146 482.55C181.918 482.55 181.878 482.831 182.039 482.938C186.741 486.091 191.093 489.738 195.019 493.818C195.083 493.85 195.154 493.862 195.224 493.854C195.295 493.846 195.361 493.817 195.415 493.772C195.469 493.726 195.509 493.665 195.529 493.597C195.549 493.529 195.549 493.457 195.528 493.389Z" fill="#263238"/>
<path d="M196.13 498.113C193.454 493.028 188.502 488.157 182.681 487.26C182.453 487.26 182.413 487.555 182.574 487.662C187.276 490.81 191.628 494.453 195.555 498.528C195.616 498.586 195.695 498.62 195.779 498.625C195.862 498.631 195.945 498.607 196.013 498.558C196.081 498.509 196.13 498.438 196.151 498.356C196.173 498.275 196.165 498.189 196.13 498.113Z" fill="#263238"/>
<path d="M222.974 363.863C220.298 379.065 158.9 440.904 158.9 440.904L203.838 490.418C203.838 490.418 290.822 399.419 285.469 366.071C280.746 337.085 234.483 221.168 234.483 221.168L184.26 222.346C184.26 222.346 225.638 348.915 222.974 363.863Z" fill="#1D3C58"/>
<path d="M208.536 478.267C202.554 471.161 204.374 473.115 198.312 466.076C195.341 462.637 175.83 440.034 172.497 437.304C172.417 437.304 172.297 437.304 172.35 437.438C174.625 441.091 194.538 463.346 197.562 466.732C203.758 473.65 202.059 471.603 208.268 478.441C208.279 478.459 208.294 478.474 208.312 478.486C208.329 478.498 208.348 478.506 208.369 478.51C208.389 478.515 208.41 478.515 208.431 478.511C208.452 478.507 208.471 478.499 208.489 478.488C208.506 478.477 208.522 478.462 208.533 478.445C208.545 478.427 208.554 478.408 208.558 478.387C208.562 478.367 208.563 478.346 208.559 478.325C208.555 478.304 208.547 478.285 208.536 478.267Z" fill="#263238"/>
<path d="M231.485 358.684C230.682 354.923 229.772 351.176 228.889 347.443C227.105 339.806 225.2 332.187 223.175 324.586C219.196 309.518 214.909 294.543 210.315 279.662C205.684 264.741 200.813 249.833 195.26 235.22C194.564 233.413 193.854 231.62 193.159 229.867C193.148 229.836 193.126 229.812 193.097 229.798C193.068 229.784 193.035 229.782 193.005 229.793C192.974 229.804 192.95 229.826 192.936 229.855C192.922 229.884 192.92 229.917 192.931 229.947C197.789 244.6 202.794 259.214 207.37 273.961C211.947 288.708 216.176 303.402 220.204 318.27C222.225 325.724 224.112 333.204 225.972 340.698C226.864 344.383 227.756 348.072 228.648 351.765C229.717 355.503 230.508 359.313 231.017 363.167C231.239 366.828 230.302 370.466 228.34 373.565C226.534 376.683 224.326 379.64 222.318 382.585C218.157 388.513 178.344 435.016 177.06 436.274C176.953 436.381 177.06 436.528 177.22 436.421C182.573 431.376 216.403 393.023 220.672 387.108C222.773 384.19 224.834 381.22 226.855 378.235C228.874 375.514 230.484 372.511 231.632 369.323C232.51 365.824 232.46 362.157 231.485 358.684Z" fill="#263238"/>
<path d="M224.151 221.409L222.264 354.602C216.617 321.361 184.259 222.346 184.259 222.346L224.151 221.409Z" fill="#263238"/>
<path d="M209.994 468.218C209.994 468.218 222.038 520.756 222.038 520.783C222.426 531.489 222.962 540.722 223.698 545.513C223.691 545.54 223.691 545.567 223.698 545.594C223.742 546.732 224.049 547.845 224.594 548.845L224.661 548.912C227.9 550.946 312.984 550.251 315.888 549.26C318.792 548.27 316.169 539.719 312.85 537.123C309.531 534.526 276.852 520.207 276.852 520.207L264.246 467.709L209.994 468.218Z" fill="#EB9481"/>
<path d="M315.927 549.274C312.969 550.304 227.939 550.973 224.7 548.939L224.633 548.872C224.079 547.875 223.772 546.76 223.737 545.62C223.731 545.608 223.728 545.594 223.728 545.58C223.728 545.566 223.731 545.553 223.737 545.54C223.014 540.749 222.492 531.449 222.091 520.823L220.003 511.67L274.549 510.398L276.904 520.221C276.904 520.221 309.57 534.54 312.916 537.149C316.261 539.759 318.898 548.243 315.927 549.274Z" fill="#EBEBEB"/>
<path d="M315.927 549.274C312.969 550.291 227.952 550.96 224.7 548.926C223.442 548.176 222.626 535.798 222.023 520.823C222.023 520.676 222.023 520.515 222.023 520.355L276.891 519.324V520.248C276.891 520.248 309.543 534.553 312.889 537.163C316.234 539.772 318.884 548.243 315.927 549.274Z" fill="#FDB839"/>
<path d="M314.937 545.968C300.605 545.727 242.767 546.115 228.582 546.958C228.461 546.958 228.461 547.052 228.582 547.052C242.78 547.601 300.618 546.744 314.937 546.209C315.245 546.196 315.245 545.968 314.937 545.968Z" fill="#263238"/>
<path d="M281.494 520.342C275.846 519.325 268.955 520.248 264.686 524.356C264.512 524.517 264.686 524.744 264.927 524.691C270.299 522.901 275.849 521.699 281.48 521.105C281.53 521.105 281.58 521.096 281.627 521.078C281.673 521.06 281.716 521.032 281.752 520.998C281.788 520.963 281.817 520.921 281.837 520.875C281.857 520.829 281.868 520.78 281.868 520.73C281.869 520.68 281.86 520.63 281.842 520.583C281.824 520.537 281.796 520.494 281.762 520.458C281.727 520.422 281.685 520.393 281.639 520.373C281.593 520.353 281.544 520.343 281.494 520.342Z" fill="#263238"/>
<path d="M285.589 522.764C279.942 521.747 273.05 522.67 268.768 526.778C268.607 526.939 268.768 527.166 269.009 527.113C274.386 525.324 279.94 524.122 285.576 523.526C285.626 523.527 285.676 523.518 285.722 523.5C285.769 523.482 285.811 523.454 285.847 523.419C285.884 523.385 285.912 523.343 285.932 523.297C285.952 523.251 285.963 523.202 285.964 523.152C285.965 523.102 285.956 523.052 285.937 523.005C285.919 522.959 285.892 522.916 285.857 522.88C285.822 522.844 285.781 522.815 285.735 522.795C285.689 522.775 285.639 522.764 285.589 522.764Z" fill="#263238"/>
<path d="M289.672 525.185C284.024 524.168 277.132 525.092 272.863 529.2C272.689 529.361 272.863 529.588 273.104 529.535C278.477 527.746 284.027 526.544 289.658 525.948C289.759 525.95 289.857 525.912 289.93 525.841C290.003 525.771 290.044 525.675 290.046 525.574C290.048 525.472 290.01 525.375 289.939 525.302C289.869 525.229 289.773 525.187 289.672 525.185Z" fill="#263238"/>
<path d="M229.626 221.262C229.626 222.319 225.544 265.423 224.179 266.641C222.815 267.859 213.929 274.095 211.292 275.794C211.292 275.794 237.12 350.226 244.079 375.077C254.182 411.116 278.873 519.351 278.873 519.351L219.79 520.689C219.79 520.689 199.409 417.579 190.751 383.254C183.337 353.813 155.475 265.664 155.475 265.664C151.757 251.609 152.133 236.783 156.559 222.935C156.559 222.935 229.639 221.222 229.626 221.262Z" fill="#1D3C58"/>
<path d="M276.49 507.909C267.203 508.07 269.866 507.909 260.578 508.163C256.042 508.297 226.186 509.194 221.971 510.064C221.877 510.064 221.89 510.238 221.971 510.251C226.24 510.786 256.069 509.368 260.605 509.154C269.879 508.699 267.216 508.726 276.49 508.177C276.525 508.177 276.559 508.163 276.584 508.138C276.61 508.113 276.624 508.079 276.624 508.043C276.624 508.008 276.61 507.973 276.584 507.948C276.559 507.923 276.525 507.909 276.49 507.909Z" fill="#263238"/>
<path d="M226.748 264.406C221.076 267.695 215.702 271.475 210.689 275.701C210.667 275.716 210.648 275.735 210.634 275.757C210.619 275.779 210.609 275.804 210.604 275.83C210.599 275.856 210.599 275.883 210.605 275.909C210.61 275.935 210.621 275.96 210.636 275.982C210.651 276.004 210.67 276.022 210.692 276.037C210.714 276.052 210.739 276.062 210.765 276.067C210.791 276.072 210.818 276.071 210.844 276.066C210.87 276.061 210.895 276.05 210.917 276.035C216.35 272.435 221.93 268.943 227.176 265.062C227.239 264.996 227.279 264.911 227.287 264.821C227.296 264.73 227.274 264.639 227.224 264.563C227.174 264.487 227.1 264.429 227.013 264.401C226.927 264.373 226.833 264.374 226.748 264.406Z" fill="#263238"/>
<path d="M221.274 223.697C221.274 223.497 220.859 223.523 220.899 223.697C222.086 230.292 222.939 236.943 223.455 243.623C223.723 246.701 224.285 263.924 218.812 263.697C217.888 263.697 217.286 262.867 216.898 261.569C216.612 259.827 216.54 258.056 216.684 256.296C216.684 252.67 216.47 249.07 216.135 245.457C215.569 238.737 214.305 232.095 212.362 225.638C212.346 225.599 212.317 225.567 212.28 225.548C212.243 225.529 212.2 225.524 212.16 225.534C212.119 225.544 212.084 225.568 212.059 225.601C212.035 225.635 212.023 225.677 212.027 225.718C213.829 234.855 214.934 244.115 215.332 253.419C215.466 257.902 214.436 264.874 219.133 264.727C223.83 264.58 224.941 253.031 224.968 249.913C224.882 241.051 223.64 232.238 221.274 223.697Z" fill="#263238"/>
<path d="M219.012 264.072C218.752 265.291 218.564 266.524 218.45 267.765C218.263 268.742 218.263 269.746 218.45 270.723C218.45 270.897 218.745 270.87 218.825 270.723C219.222 269.768 219.466 268.756 219.548 267.725C219.762 266.574 219.989 265.437 220.163 264.286C220.156 264.151 220.104 264.022 220.015 263.921C219.925 263.819 219.805 263.751 219.672 263.726C219.539 263.701 219.402 263.722 219.282 263.785C219.163 263.847 219.068 263.948 219.012 264.072Z" fill="#263238"/>
<path d="M211.92 476.849C211.732 475.51 211.518 474.172 211.291 472.767C210.863 470.158 210.354 467.561 209.953 464.952C209.016 459.719 207.999 454.5 206.942 449.295C204.841 438.91 202.458 428.552 199.969 418.261C198.551 412.44 196.932 406.686 195.232 400.945C195.112 400.543 194.55 400.757 194.63 401.145C195.7 406.405 196.744 411.677 197.949 416.923C199.153 422.169 200.344 427.375 201.522 432.607C203.823 442.952 205.991 453.336 208.28 463.681C208.935 466.598 209.524 469.529 210.167 472.446C210.488 473.909 210.822 475.368 211.17 476.822C211.518 478.267 212 479.686 212.281 481.144C212.281 481.278 212.509 481.211 212.482 481.144C212.174 479.686 212.12 478.254 211.92 476.849Z" fill="#263238"/>
<path d="M250.823 397.399C248.628 387.643 245.751 378.035 242.861 368.466C237.039 349.209 230.268 330.247 223.523 311.297L217.689 294.917C216.712 292.241 211.907 277.454 211.332 276.062C211.321 276.032 211.299 276.007 211.27 275.993C211.241 275.979 211.208 275.978 211.178 275.988C211.148 275.999 211.123 276.021 211.109 276.05C211.096 276.079 211.094 276.112 211.105 276.142C212.443 281.161 214.423 288.481 216.002 293.459C217.582 298.437 219.281 303.228 220.94 308.179C224.179 317.774 227.471 327.356 230.629 336.991C236.865 356.021 243.061 375.05 248.227 394.414C249.659 399.834 251.104 405.254 252.429 410.714C253.754 416.174 254.918 421.634 256.189 427.094C256.189 427.241 256.47 427.187 256.457 427.094C255.077 417.107 253.197 407.196 250.823 397.399Z" fill="#263238"/>
<path d="M215.294 449.536C211.614 430.908 207.264 412.401 202.527 394.027C197.79 375.653 192.504 357.199 186.75 339.012C180.995 320.826 174.705 302.814 167.934 284.962C164.554 276.57 161.672 267.986 159.303 259.254C157.161 250.556 155.944 241.135 157.777 232.276C158.233 230.028 158.86 227.818 159.651 225.665C159.651 225.518 159.477 225.397 159.423 225.545C152.732 242.272 157.737 260.271 163.531 276.397C166.703 285.269 170.062 294.075 173.193 302.961C176.423 312.078 179.514 321.241 182.467 330.448C188.355 348.701 193.842 367.062 198.807 385.583C203.772 404.104 208.255 422.732 212.189 441.48C216.123 460.229 219.643 479.191 223.122 498.1C223.577 500.563 223.952 503.038 224.327 505.514C224.327 505.648 224.568 505.648 224.554 505.514C221.891 486.819 218.974 468.138 215.294 449.536Z" fill="#263238"/>
<path d="M203.382 144.742C209.498 167.331 223.857 202.286 235.821 201.858C246.727 201.429 270.614 181.503 280.691 174.919C290.768 168.335 267.309 143.872 261.528 148.061C252.602 154.538 239.3 166.047 236.985 165.364C234.108 164.508 230.294 157.576 213.539 137.262C206.607 128.911 200.706 135.12 203.382 144.742Z" fill="#EB9481"/>
<path d="M272.208 138.172C276.972 136.352 282.298 133.89 287.651 133.863C293.004 133.836 297.594 140.795 297.647 142.816C297.701 144.836 295.961 157.536 290.621 157.616C285.282 157.697 288.28 147.981 288.052 146.911C287.825 145.84 287.584 144.395 286.58 144.529C285.576 144.662 268.126 153.428 268.126 153.428L272.208 138.172Z" fill="#EB9481"/>
<path d="M272.556 138.894C272.863 138.894 287.049 132.913 292.401 132.886C297.754 132.859 302.411 139.778 302.411 141.825C302.411 143.873 300.725 156.546 295.386 156.626C290.046 156.706 293.044 146.991 292.816 145.92C292.589 144.85 292.348 143.391 291.344 143.525C290.341 143.659 272.89 152.437 272.89 152.437L272.556 138.894Z" fill="#EB9481"/>
<path d="M293.539 155.997C292.955 155.048 292.623 153.966 292.575 152.852C292.441 151.715 292.482 150.564 292.696 149.44C292.967 148.471 293.16 147.482 293.271 146.482C293.242 145.493 292.966 144.527 292.468 143.672C292.04 142.936 291.251 143.204 290.581 143.458C289.599 143.853 288.639 144.299 287.704 144.796L284.707 146.469C283.65 146.999 282.626 147.594 281.642 148.249C281.623 148.258 281.607 148.274 281.6 148.294C281.592 148.314 281.593 148.336 281.602 148.356C281.611 148.375 281.627 148.391 281.647 148.398C281.667 148.406 281.69 148.405 281.709 148.396C282.624 147.996 283.517 147.55 284.385 147.058L287.41 145.586C288.36 145.144 289.283 144.636 290.247 144.247C290.581 144.1 291.251 143.712 291.585 143.792C291.92 143.873 292.214 144.876 292.321 145.198C292.562 146.152 292.521 147.157 292.201 148.088C291.941 149.051 291.779 150.037 291.719 151.032C291.644 151.969 291.739 152.912 292 153.816C292.355 154.62 292.804 155.379 293.338 156.077C293.445 156.198 293.619 156.077 293.539 155.997Z" fill="#263238"/>
<path d="M255.935 153.321C255.935 153.321 270.428 139.47 273.452 136.727C279.514 131.2 305.315 119.945 308.942 119.477C312.568 119.009 314.04 126.422 296.536 134.572C287.316 138.855 285.83 144.234 286.031 147.192C286.232 150.149 289.23 155.596 294.194 155.341C299.159 155.087 302.224 147.754 306.787 146.844C311.35 145.934 308.513 154.378 305.449 159.289C302.17 164.03 297.613 167.742 292.307 169.995C288.039 171.708 274.911 177.757 274.911 177.757L255.935 153.321Z" fill="#EB9481"/>
<path d="M300.297 151.701C298.45 153.2 296.375 155.127 293.913 155.274C291.451 155.421 289.671 153.816 288.44 151.768C287.089 149.757 286.562 147.305 286.968 144.916C287.499 142.756 288.637 140.792 290.246 139.256C292.244 137.397 294.497 135.833 296.938 134.612C297.045 134.612 296.938 134.398 296.83 134.451C294.569 135.535 287.463 138.613 286.245 144.93C285.85 147.369 286.4 149.868 287.784 151.915C288.935 153.869 290.581 155.743 293.003 155.93C295.947 156.104 298.423 153.655 300.497 151.822C300.524 151.688 300.39 151.621 300.297 151.701Z" fill="#263238"/>
<path d="M255.894 151.433L278.845 185.277C278.845 185.277 244.158 205.819 234.162 202.875C224.165 199.931 208.454 171.774 201.683 146.91C194.912 122.046 210.502 131.253 216.644 138.881C222.787 146.509 236.129 164.039 236.838 163.785C237.547 163.531 255.894 151.433 255.894 151.433Z" fill="#FDB839"/>
<path d="M268.874 190.831C266.72 191.981 264.351 193.199 261.862 194.417L241.855 160.587C243.863 159.248 246.191 157.776 248.373 156.358C254.676 166.93 262.33 179.79 268.874 190.831Z" fill="#EBEBEB"/>
<path d="M259.16 195.729L256.858 196.786L237.159 163.558C237.587 163.317 238.31 162.862 239.247 162.22C245.443 172.658 252.816 185.05 259.16 195.729Z" fill="#EBEBEB"/>
<path d="M254.355 197.897C246.419 201.349 238.617 203.905 234.495 202.969L234.134 202.875C224.124 199.931 208.44 171.788 201.655 146.91C200.646 143.583 200.084 140.136 199.983 136.66C199.983 136.526 199.983 136.419 199.983 136.285C199.983 136.151 199.983 135.897 199.983 135.696C199.976 135.616 199.976 135.535 199.983 135.455C199.968 135.277 199.968 135.098 199.983 134.92L254.355 197.897Z" fill="#263238"/>
<path d="M266.399 182.213C265.676 181.008 264.927 179.804 264.191 178.613C262.706 176.217 253.793 162.019 250.3 157.723C250.207 157.603 250.033 157.723 250.086 157.87C252.575 162.848 261.796 176.779 263.335 179.081C264.124 180.245 264.9 181.423 265.703 182.587C266.506 183.751 267.443 184.835 268.246 186.013C268.326 186.12 268.514 186.013 268.447 185.906C267.711 184.702 267.122 183.417 266.399 182.213Z" fill="#263238"/>
<path d="M151.593 244.788C151.808 245.016 240.331 234.457 241.107 233.507C242.205 232.169 219.575 143.953 210.007 132.311C207.959 129.821 201.469 129.326 195.996 130.196C194.568 130.406 193.162 130.742 191.794 131.2H191.66C190.552 131.558 189.515 132.106 188.595 132.819C173.714 145.546 162.272 188.65 159.703 201.577C155.421 222.908 150.831 243.972 151.593 244.788Z" fill="#FDB839"/>
<path d="M239.288 223.938C217.876 226.708 171.426 232.73 152.959 234.938C153.601 231.66 154.377 227.752 155.261 223.443L236.665 213.259C237.695 217.274 238.592 220.914 239.288 223.938Z" fill="#EBEBEB"/>
<path d="M235.566 208.91C214.422 211.653 175.346 216.698 156.156 219.04L156.906 215.374L234.697 205.564C234.991 206.689 235.285 207.813 235.566 208.91Z" fill="#EBEBEB"/>
<path d="M182.574 155.957C187.057 179.041 207.518 221.918 220.285 225.705C235.072 230.081 285.617 212.617 295.44 205.056C299.347 202.059 277.547 176.953 272.69 178.827C252.135 186.937 233.881 191.286 231.138 189.533C226.963 186.856 209.726 163.263 198.459 148.65C184.314 130.29 180.553 145.612 182.574 155.957Z" fill="#EB9481"/>
<path d="M294.141 205.792C296.389 204.922 311.725 193.24 316.195 187.82C321.053 182.204 324.959 175.83 327.757 168.951C332.133 158.058 334.127 150.122 332.936 146.616C331.598 142.534 331.156 141.879 320.785 159.998C314.923 170.262 309.129 171.534 304.084 171.547C291.663 171.605 279.437 174.643 268.434 180.406C268.434 180.406 285.509 209.098 294.141 205.792Z" fill="#EB9481"/>
<path d="M340.362 133.086L314.214 167.706C313.839 168.181 313.337 168.541 312.766 168.742C312.195 168.943 311.579 168.979 310.989 168.843L292.053 163.036C291.809 162.986 291.584 162.869 291.403 162.698C291.222 162.527 291.092 162.309 291.028 162.069C290.964 161.828 290.969 161.575 291.041 161.336C291.113 161.098 291.25 160.885 291.437 160.72L317.586 126.101C317.959 125.623 318.46 125.262 319.032 125.06C319.604 124.858 320.221 124.825 320.811 124.963L339.747 130.771C339.991 130.821 340.216 130.938 340.397 131.109C340.578 131.28 340.707 131.498 340.771 131.738C340.835 131.979 340.831 132.232 340.759 132.47C340.686 132.708 340.549 132.922 340.362 133.086Z" fill="#37474F"/>
<path d="M338.049 130.196L319.113 124.388C318.521 124.255 317.904 124.292 317.333 124.496C316.762 124.699 316.261 125.061 315.888 125.539L289.752 160.159C289.549 160.32 289.397 160.537 289.315 160.782C289.233 161.028 289.224 161.293 289.289 161.544C289.354 161.794 289.491 162.021 289.682 162.196C289.874 162.37 290.112 162.486 290.368 162.527L309.304 168.335C309.894 168.467 310.509 168.43 311.079 168.229C311.65 168.028 312.152 167.671 312.529 167.198L338.664 132.578C338.872 132.418 339.027 132.201 339.112 131.953C339.197 131.705 339.208 131.438 339.142 131.184C339.076 130.93 338.938 130.702 338.744 130.526C338.549 130.35 338.308 130.236 338.049 130.196ZM312.127 165.699C311.788 166.147 311.329 166.49 310.804 166.689C310.278 166.888 309.707 166.935 309.156 166.823L292.228 161.631C291.278 161.336 291.064 160.293 291.76 159.45L316.102 127.212C317.44 125.365 318.337 125.499 319.287 125.793L322.673 126.837C322.873 126.837 322.887 127.145 322.673 127.386L322.592 127.493C322.151 128.082 322.512 128.189 322.954 128.323L330.795 130.731C331.004 130.848 331.249 130.879 331.48 130.816C331.71 130.753 331.906 130.603 332.027 130.397L332.107 130.29C332.179 130.174 332.283 130.081 332.406 130.022C332.53 129.962 332.667 129.939 332.803 129.955L336.202 130.999C337.139 131.28 337.727 131.762 336.443 133.461L312.127 165.699Z" fill="#263238"/>
<path d="M328.506 129.139L326.379 128.47C326.367 128.461 326.358 128.45 326.352 128.437C326.346 128.424 326.343 128.41 326.343 128.396C326.343 128.382 326.346 128.368 326.352 128.355C326.358 128.342 326.367 128.331 326.379 128.322C326.404 128.288 326.439 128.261 326.48 128.247C326.52 128.233 326.564 128.231 326.606 128.242L328.747 128.898C328.761 128.906 328.772 128.918 328.78 128.932C328.788 128.946 328.793 128.962 328.793 128.978C328.793 128.994 328.788 129.01 328.78 129.024C328.772 129.038 328.761 129.05 328.747 129.058C328.718 129.093 328.681 129.119 328.638 129.133C328.596 129.147 328.55 129.149 328.506 129.139Z" fill="white"/>
<path d="M336.468 133.461L312.126 165.699C311.787 166.147 311.328 166.49 310.802 166.689C310.277 166.888 309.706 166.935 309.155 166.823L292.226 161.631C291.276 161.337 291.062 160.293 291.758 159.45L316.1 127.212C317.439 125.365 318.335 125.499 319.285 125.793L322.671 126.837C322.872 126.837 322.885 127.145 322.671 127.386L322.591 127.493C322.149 128.082 322.51 128.189 322.952 128.323L330.794 130.731C331.002 130.848 331.248 130.879 331.478 130.816C331.708 130.753 331.905 130.603 332.025 130.397L332.105 130.29C332.178 130.174 332.282 130.081 332.405 130.022C332.528 129.963 332.666 129.939 332.801 129.955L336.2 130.999C337.204 131.28 337.753 131.748 336.468 133.461Z" fill="white"/>
<path d="M336.469 133.461L334.649 135.87L314.281 129.621L316.101 127.212C317.439 125.365 318.336 125.499 319.286 125.793L322.672 126.837C322.873 126.837 322.886 127.145 322.672 127.386L322.592 127.493C322.15 128.082 322.511 128.189 322.953 128.323L330.795 130.731C331.003 130.848 331.249 130.879 331.479 130.816C331.709 130.753 331.906 130.603 332.026 130.397L332.106 130.29C332.179 130.174 332.283 130.081 332.406 130.022C332.529 129.963 332.666 129.939 332.802 129.955L336.188 130.999C337.205 131.28 337.754 131.748 336.469 133.461Z" fill="#FDB839"/>
<path d="M317.225 129.072L317.011 128.389L317.988 128.082L318.014 128.189L317.211 128.456L317.385 129.018L317.225 129.072Z" fill="white"/>
<path d="M334.61 133.542C334.582 133.56 334.549 133.569 334.516 133.569C334.482 133.569 334.45 133.56 334.422 133.542C334.411 133.534 334.402 133.524 334.395 133.513C334.389 133.501 334.386 133.488 334.386 133.475C334.386 133.461 334.389 133.448 334.395 133.437C334.402 133.425 334.411 133.415 334.422 133.408C334.442 133.377 334.471 133.354 334.504 133.339C334.537 133.325 334.574 133.321 334.61 133.327C334.637 133.421 334.664 133.488 334.61 133.542Z" fill="white"/>
<path d="M334.327 133.916C334.296 133.935 334.262 133.945 334.226 133.945C334.191 133.945 334.156 133.935 334.126 133.916C334.115 133.909 334.106 133.899 334.099 133.887C334.093 133.875 334.09 133.862 334.09 133.849C334.09 133.836 334.093 133.823 334.099 133.811C334.106 133.8 334.115 133.79 334.126 133.782C334.145 133.751 334.173 133.726 334.206 133.712C334.24 133.697 334.277 133.694 334.313 133.702C334.342 133.7 334.369 133.71 334.391 133.729C334.412 133.747 334.425 133.774 334.427 133.802C334.429 133.831 334.419 133.859 334.4 133.88C334.381 133.901 334.355 133.914 334.327 133.916Z" fill="white"/>
<path d="M334.046 134.291C334.016 134.31 333.981 134.32 333.946 134.32C333.91 134.32 333.875 134.31 333.845 134.291C333.778 134.291 333.765 134.211 333.845 134.144C333.871 134.117 333.903 134.097 333.937 134.085C333.972 134.074 334.01 134.071 334.046 134.077C334.075 134.077 334.102 134.088 334.122 134.108C334.142 134.128 334.153 134.155 334.153 134.184C334.153 134.212 334.142 134.239 334.122 134.259C334.102 134.28 334.075 134.291 334.046 134.291Z" fill="white"/>
<path d="M321.547 127.386H321.453C321.439 127.332 321.41 127.284 321.37 127.246C321.33 127.208 321.28 127.182 321.226 127.172C321.095 127.132 320.955 127.132 320.824 127.172H320.891H321.025H321.252H321.346V127.252L321.547 127.386Z" fill="white"/>
<path d="M320.864 127.345C320.956 127.319 321.053 127.319 321.145 127.345C321.2 127.346 321.254 127.365 321.297 127.399C321.34 127.433 321.372 127.48 321.386 127.533H321.306C321.291 127.5 321.269 127.471 321.241 127.448C321.213 127.424 321.18 127.408 321.145 127.399C321.062 127.345 320.961 127.325 320.864 127.345Z" fill="white"/>
<path d="M321.146 127.506H321.065C321.06 127.487 321.049 127.47 321.035 127.456C321.021 127.442 321.004 127.432 320.985 127.426C320.937 127.414 320.886 127.414 320.838 127.426C321.025 127.346 321.146 127.386 321.146 127.506Z" fill="white"/>
<path d="M321.026 127.546C321.026 127.546 321.026 127.546 320.945 127.546C320.864 127.546 320.945 127.546 320.945 127.546H321.012C321.012 127.546 321.039 127.533 321.026 127.546Z" fill="white"/>
<path d="M318.282 126.489C318.303 126.459 318.331 126.435 318.363 126.418C318.396 126.402 318.433 126.394 318.469 126.396C318.483 126.404 318.495 126.416 318.503 126.43C318.511 126.444 318.515 126.46 318.515 126.476C318.515 126.492 318.511 126.508 318.503 126.522C318.495 126.536 318.483 126.548 318.469 126.556C318.444 126.591 318.409 126.617 318.368 126.632C318.327 126.646 318.283 126.648 318.242 126.637C318.232 126.625 318.226 126.611 318.223 126.597C318.22 126.582 318.22 126.567 318.224 126.553C318.228 126.538 318.235 126.525 318.245 126.514C318.255 126.503 318.268 126.495 318.282 126.489Z" fill="white"/>
<path d="M318.71 126.623C318.736 126.588 318.771 126.562 318.812 126.548C318.852 126.534 318.896 126.532 318.938 126.543C318.952 126.551 318.963 126.563 318.971 126.577C318.979 126.591 318.983 126.607 318.983 126.623C318.983 126.639 318.979 126.655 318.971 126.669C318.963 126.683 318.952 126.695 318.938 126.703C318.91 126.736 318.875 126.76 318.835 126.774C318.795 126.788 318.752 126.791 318.71 126.784C318.697 126.775 318.685 126.764 318.677 126.75C318.669 126.735 318.665 126.72 318.665 126.703C318.665 126.687 318.669 126.671 318.677 126.657C318.685 126.643 318.697 126.631 318.71 126.623Z" fill="white"/>
<path d="M319.138 126.744C319.162 126.711 319.196 126.687 319.234 126.675C319.273 126.662 319.314 126.663 319.352 126.677C319.433 126.677 319.446 126.77 319.352 126.837C319.318 126.859 319.279 126.87 319.239 126.87C319.199 126.87 319.159 126.859 319.125 126.837C319.098 126.891 319.085 126.811 319.138 126.744Z" fill="white"/>
<path d="M319.553 126.877C319.582 126.846 319.617 126.822 319.657 126.808C319.697 126.794 319.739 126.79 319.781 126.797C319.795 126.805 319.806 126.817 319.814 126.831C319.822 126.845 319.826 126.861 319.826 126.877C319.826 126.893 319.822 126.909 319.814 126.923C319.806 126.937 319.795 126.949 319.781 126.957C319.754 126.99 319.719 127.016 319.678 127.03C319.638 127.044 319.595 127.047 319.553 127.037C319.539 127.029 319.528 127.017 319.52 127.003C319.512 126.989 319.508 126.973 319.508 126.957C319.508 126.941 319.512 126.925 319.52 126.911C319.528 126.897 319.539 126.885 319.553 126.877Z" fill="white"/>
<path d="M319.982 127.011C320.007 126.976 320.043 126.95 320.083 126.936C320.124 126.921 320.168 126.919 320.209 126.93C320.29 126.93 320.303 127.024 320.209 127.091C320.184 127.126 320.149 127.152 320.108 127.166C320.067 127.181 320.024 127.182 319.982 127.171C319.968 127.163 319.957 127.151 319.949 127.137C319.941 127.123 319.937 127.107 319.937 127.091C319.937 127.075 319.941 127.059 319.949 127.045C319.957 127.031 319.968 127.019 319.982 127.011Z" fill="white"/>
<path d="M335.719 132.485L333.993 131.949L334.729 130.986L336.455 131.508L335.719 132.485Z" fill="white"/>
<path d="M335.586 131.655L334.877 131.441L334.649 131.735L335.359 131.963L335.586 131.655Z" fill="white"/>
<path d="M335.772 132.043L335.679 132.016L335.866 131.775L335.96 131.802L335.772 132.043Z" fill="white"/>
<path d="M295.092 160.079L294.944 160.025L294.463 160.667L294.168 160.574L294.409 160.253L293.901 160.092L293.66 160.413L293.365 160.333L293.847 159.691L293.686 159.65L294.877 159.222L295.092 160.079Z" fill="#EBEBEB"/>
<path d="M311.003 164.428L309.304 163.906L309.464 163.705L311.164 164.214L311.003 164.428Z" fill="#EBEBEB"/>
<path d="M310.6 164.963L308.914 164.441L309.075 164.227L310.761 164.749L310.6 164.963Z" fill="#EBEBEB"/>
<path d="M310.199 165.498L308.513 164.976L308.673 164.762L310.359 165.284L310.199 165.498Z" fill="#EBEBEB"/>
<path d="M302.732 162.313L301.902 162.621L301.769 162.019L301.902 161.965L302.023 162.474L302.692 162.206L302.732 162.313Z" fill="#EBEBEB"/>
<path d="M301.889 163.745C301.725 163.772 301.558 163.772 301.394 163.745C301.2 163.686 301.021 163.582 300.873 163.443C300.725 163.304 300.61 163.133 300.538 162.943C300.478 162.734 300.47 162.514 300.515 162.302C300.559 162.09 300.654 161.892 300.792 161.725C301.035 161.418 301.361 161.189 301.731 161.063C302.101 160.937 302.5 160.921 302.879 161.015C303.075 161.07 303.254 161.172 303.401 161.312C303.548 161.452 303.658 161.626 303.723 161.818C303.784 162.026 303.794 162.245 303.752 162.457C303.71 162.669 303.617 162.868 303.482 163.036C303.285 163.264 303.04 163.446 302.765 163.569C302.489 163.691 302.19 163.752 301.889 163.745ZM302.358 162.22C302.194 162.234 302.04 162.3 301.916 162.407C302.097 162.402 302.271 162.336 302.411 162.22H302.358Z" fill="#EBEBEB"/>
<path d="M323.823 130.678C323.931 130.547 324.073 130.448 324.233 130.391C324.393 130.335 324.566 130.323 324.733 130.357C324.79 130.371 324.844 130.397 324.89 130.434C324.937 130.471 324.974 130.518 325 130.571C325 130.571 325 130.665 324.933 130.678C324.866 130.691 324.826 130.678 324.813 130.678C324.795 130.641 324.769 130.608 324.736 130.582C324.704 130.557 324.666 130.539 324.626 130.531C324.513 130.491 324.39 130.491 324.278 130.531C324.17 130.569 324.073 130.634 323.997 130.718C323.965 130.755 323.943 130.798 323.931 130.844C323.92 130.891 323.919 130.939 323.93 130.986C323.946 131.03 323.973 131.071 324.008 131.103C324.043 131.136 324.085 131.16 324.13 131.173C324.227 131.2 324.328 131.2 324.425 131.173H324.532C324.529 131.197 324.518 131.219 324.501 131.236C324.484 131.253 324.462 131.264 324.438 131.267C324.298 131.307 324.15 131.307 324.01 131.267C323.954 131.247 323.903 131.214 323.861 131.171C323.819 131.128 323.788 131.076 323.77 131.019C323.752 130.962 323.747 130.901 323.756 130.842C323.766 130.783 323.788 130.727 323.823 130.678Z" fill="white"/>
<path d="M324.653 131.441L325.241 130.664C325.264 130.653 325.289 130.646 325.315 130.646C325.341 130.646 325.366 130.653 325.389 130.664C325.397 130.671 325.404 130.679 325.408 130.688C325.413 130.697 325.415 130.707 325.415 130.718C325.415 130.728 325.413 130.739 325.408 130.748C325.404 130.757 325.397 130.765 325.389 130.771L325.148 131.079L325.536 131.2L325.777 130.878C325.797 130.867 325.82 130.861 325.844 130.861C325.867 130.861 325.89 130.867 325.91 130.878C325.91 130.878 325.977 130.878 325.91 130.972L325.322 131.762C325.301 131.773 325.278 131.78 325.255 131.78C325.231 131.78 325.208 131.773 325.188 131.762C325.188 131.762 325.121 131.762 325.188 131.655L325.429 131.333L325.041 131.213L324.8 131.534C324.777 131.546 324.752 131.552 324.726 131.552C324.701 131.552 324.675 131.546 324.653 131.534C324.653 131.534 324.626 131.494 324.653 131.441Z" fill="white"/>
<path d="M326.271 131.748L325.897 131.641L325.696 131.788C325.68 131.797 325.661 131.802 325.642 131.802C325.624 131.802 325.605 131.797 325.589 131.788C325.589 131.788 325.589 131.708 325.589 131.668L326.512 130.985C326.531 130.976 326.552 130.971 326.572 130.971C326.593 130.971 326.614 130.976 326.633 130.985C326.633 130.985 326.633 130.985 326.633 131.052L326.378 131.935C326.368 131.959 326.351 131.979 326.33 131.993C326.309 132.007 326.284 132.015 326.258 132.015C326.258 132.015 326.258 132.015 326.258 131.949L326.271 131.748ZM326.271 131.587L326.365 131.253L326.03 131.507L326.271 131.587Z" fill="white"/>
<path d="M327.61 131.481L327.383 131.401L326.847 132.123C326.825 132.136 326.8 132.143 326.774 132.143C326.748 132.143 326.723 132.136 326.7 132.123V132.03L327.235 131.32L327.008 131.24C327.008 131.24 326.941 131.24 327.008 131.146C327.028 131.135 327.051 131.128 327.075 131.128C327.098 131.128 327.121 131.135 327.142 131.146L327.784 131.347V131.441C327.764 131.466 327.735 131.483 327.704 131.49C327.673 131.497 327.64 131.494 327.61 131.481Z" fill="white"/>
<path d="M306.346 143.765L320.906 148.235L323.983 144.166L309.41 139.697L306.346 143.765Z" fill="#455A64"/>
<path d="M322.257 148.65L320.905 148.235L321.855 146.977L322.257 148.65Z" fill="#455A64"/>
<path d="M322.565 144.689L309.664 140.728L309.718 140.661L322.618 144.609L322.565 144.689Z" fill="white"/>
<path d="M319.566 144.287L309.342 141.156L309.395 141.076L319.619 144.207L319.566 144.287Z" fill="white"/>
<path d="M320.557 145.613L308.714 141.986L308.767 141.906L320.611 145.546L320.557 145.613Z" fill="white"/>
<path d="M321.292 146.362L308.405 142.401L308.459 142.32L321.359 146.281L321.292 146.362Z" fill="white"/>
<path d="M320.985 146.776L308.085 142.815L308.139 142.735L321.039 146.696L320.985 146.776Z" fill="white"/>
<path d="M317.092 146.094L307.765 143.23L307.832 143.163L317.159 146.014L317.092 146.094Z" fill="white"/>
<path d="M299.092 153.361L313.665 157.83L316.73 153.762L302.17 149.292L299.092 153.361Z" fill="#455A64"/>
<path d="M315.018 158.245L313.666 157.83L314.603 156.585L315.018 158.245Z" fill="#455A64"/>
<path d="M315.311 154.284L302.41 150.323L302.464 150.256L315.364 154.204L315.311 154.284Z" fill="white"/>
<path d="M312.314 153.882L302.09 150.751L302.157 150.67L312.381 153.802L312.314 153.882Z" fill="white"/>
<path d="M313.304 155.207L301.474 151.581L301.527 151.5L313.357 155.14L313.304 155.207Z" fill="white"/>
<path d="M314.054 155.956L301.153 151.995L301.207 151.915L314.107 155.876L314.054 155.956Z" fill="white"/>
<path d="M313.732 156.372L300.832 152.411L300.899 152.331L313.799 156.292L313.732 156.372Z" fill="white"/>
<path d="M309.851 155.689L300.523 152.825L300.577 152.758L309.904 155.622L309.851 155.689Z" fill="white"/>
<path d="M328.371 140.554L313.812 136.084L316.394 132.645L330.968 137.115L328.371 140.554Z" fill="#FDB839"/>
<path d="M312.461 135.669L313.813 136.084L314.749 134.826L312.461 135.669Z" fill="#FDB839"/>
<path d="M327.449 136.914L316.717 133.622L316.77 133.542L327.516 136.847L327.449 136.914Z" fill="white"/>
<path d="M329.295 137.998L316.395 134.037L316.461 133.957L329.349 137.918L329.295 137.998Z" fill="white"/>
<path d="M328.975 138.413L316.088 134.452L316.141 134.385L329.042 138.333L328.975 138.413Z" fill="white"/>
<path d="M327.65 138.52L315.767 134.88L315.82 134.799L327.704 138.439L327.65 138.52Z" fill="white"/>
<path d="M328.345 139.243L315.458 135.295L315.512 135.215L328.412 139.176L328.345 139.243Z" fill="white"/>
<path d="M324.666 138.627L315.138 135.71L315.191 135.629L324.733 138.56L324.666 138.627Z" fill="white"/>
<path d="M326.031 143.645L311.471 139.175L313.384 136.633L327.958 141.102L326.031 143.645Z" fill="#FDB839"/>
<path d="M310.119 138.761L311.471 139.176L312.407 137.931L310.119 138.761Z" fill="#FDB839"/>
<path d="M326.58 141.557L313.706 137.61L313.76 137.529L326.633 141.477L326.58 141.557Z" fill="white"/>
<path d="M323.982 141.277L313.384 138.025L313.451 137.945L324.049 141.197L323.982 141.277Z" fill="white"/>
<path d="M324.732 142.013L313.076 138.44L313.13 138.359L324.799 141.946L324.732 142.013Z" fill="white"/>
<path d="M321.749 141.611L312.756 138.854L312.823 138.774L321.816 141.544L321.749 141.611Z" fill="white"/>
<path d="M318.805 153.227L304.231 148.757L306.948 145.17L321.508 149.64L318.805 153.227Z" fill="#DBDBDB"/>
<path d="M302.892 148.342L304.23 148.757L305.18 147.499L302.892 148.342Z" fill="#DBDBDB"/>
<path d="M318.497 151.112L306.319 147.379L306.386 147.298L318.564 151.045L318.497 151.112Z" fill="white"/>
<path d="M317.198 151.232L306.011 147.793L306.064 147.713L317.252 151.152L317.198 151.232Z" fill="white"/>
<path d="M318.429 150.069L306.947 146.549L307.014 146.469L318.483 149.988L318.429 150.069Z" fill="white"/>
<path d="M320.009 150.042L307.27 146.134L307.323 146.054L320.063 149.962L320.009 150.042Z" fill="white"/>
<path d="M317.278 151.768L305.689 148.208L305.756 148.141L317.332 151.687L317.278 151.768Z" fill="white"/>
<path d="M311.967 162.286L297.394 157.816L299.655 154.832L314.215 159.302L311.967 162.286Z" fill="#FDB839"/>
<path d="M296.041 157.402L297.393 157.817L298.329 156.559L296.041 157.402Z" fill="#FDB839"/>
<path d="M312.875 159.731L299.988 155.77L300.042 155.703L312.942 159.65L312.875 159.731Z" fill="white"/>
<path d="M312.568 160.145L299.668 156.184L299.721 156.117L312.622 160.065L312.568 160.145Z" fill="white"/>
<path d="M311.23 160.252L299.347 156.613L299.414 156.532L311.284 160.172L311.23 160.252Z" fill="white"/>
<path d="M311.939 160.975L299.038 157.028L299.092 156.947L311.992 160.908L311.939 160.975Z" fill="white"/>
<path d="M308.259 160.359L298.718 157.442L298.785 157.362L308.313 160.293L308.259 160.359Z" fill="white"/>
<path d="M306.6 171.44C301.394 171.641 318.082 160.734 318.202 154.726C318.323 148.717 312.582 150.791 308.099 154.244C292.562 166.288 280.612 165.953 272.85 177.248C265.088 188.542 306.6 171.44 306.6 171.44Z" fill="#EB9481"/>
<path d="M290.675 164.575C287.298 165.499 284.051 166.848 281.013 168.589C278.312 170.362 275.973 172.632 274.121 175.28C274.041 175.401 274.202 175.548 274.295 175.428C278.444 170.075 284.707 167.305 290.715 164.628C290.713 164.617 290.708 164.606 290.701 164.597C290.694 164.588 290.685 164.58 290.675 164.575Z" fill="#263238"/>
<path d="M232.154 188.074C236.236 189.078 264.272 180.687 264.272 180.687L281 218.733C281 218.733 232.101 231.312 220.539 227.605C208.976 223.898 190.241 185.277 183.938 162.755C178.01 141.584 184.929 127.52 200.653 149.226C200.706 149.226 230.027 187.552 232.154 188.074Z" fill="#FDB839"/>
<path d="M272.115 220.847C268.956 221.57 265.183 222.426 261.101 223.296L245.778 185.826C249.445 184.929 253.286 183.885 256.484 182.989C261.208 194.364 266.936 208.241 272.115 220.847Z" fill="#EBEBEB"/>
<path d="M256.817 224.166L253.271 224.875L237.988 187.526C239.059 187.325 240.223 187.084 241.428 186.816C246.058 198.004 251.692 211.654 256.817 224.166Z" fill="#EBEBEB"/>
<path d="M219.949 226.388C210.22 221.691 197.762 196.197 195.366 191.192C193.827 187.994 192.422 184.729 191.03 181.464C188.26 174.906 185.677 168.282 183.229 161.618C183.234 161.604 183.236 161.588 183.235 161.573C183.233 161.558 183.228 161.543 183.219 161.53C183.21 161.518 183.199 161.507 183.185 161.5C183.172 161.493 183.157 161.489 183.142 161.489C183.126 161.489 183.111 161.493 183.098 161.5C183.084 161.507 183.073 161.518 183.064 161.53C183.055 161.543 183.05 161.558 183.048 161.573C183.047 161.588 183.049 161.604 183.055 161.618C184.437 166.783 186.074 171.877 187.966 176.9C186.759 175.04 185.664 173.11 184.687 171.119C184.687 171.025 184.473 171.119 184.513 171.199C185.512 173.575 186.792 175.821 188.327 177.89C190.254 182.936 192.409 187.887 194.791 192.705C195.473 194.043 209.926 225.344 220.739 228.02C224.499 228.957 237.266 227.739 239.969 227.057C240.076 227.057 240.103 226.883 239.969 226.883C236.289 226.936 223.455 228.101 219.949 226.388Z" fill="#263238"/>
<path d="M270.293 214.276C269.785 212.938 269.276 211.6 268.754 210.342C267.71 207.732 261.421 192.182 258.744 187.338C258.744 187.204 258.477 187.338 258.517 187.445C260.083 192.798 266.72 208.12 267.884 210.65C268.446 211.988 269.008 213.232 269.597 214.517C270.186 215.802 270.936 217.046 271.498 218.344C271.498 218.465 271.765 218.344 271.712 218.264C271.176 216.966 270.828 215.588 270.293 214.276Z" fill="#263238"/>
<path d="M264.298 180.74C261.956 180.901 240.946 186.307 236.302 187.431C235.2 187.83 234.034 188.021 232.863 187.993C231.717 187.68 230.721 186.968 230.053 185.986C228.5 184.287 211.465 162.835 210.233 161.791C209.778 161.39 209.417 161.323 209.859 162.005C210.622 163.169 227.189 184.354 228.688 186.093C230.186 187.833 231.364 189.265 233.679 189.118C234.669 189.051 263.026 181.998 264.458 181.383C264.699 181.262 264.659 180.714 264.298 180.74Z" fill="#263238"/>
<path d="M208.735 145.023C204.506 145.799 193.706 140.834 191.03 134.719C190.842 134.29 191.833 130.142 192.796 125.03C193.358 121.925 193.92 118.446 194.135 115.247C194.135 114.592 213.793 121.939 213.793 121.939C212.292 125.846 211.276 129.922 210.769 134.076C210.72 134.521 210.72 134.97 210.769 135.415C210.775 135.486 210.775 135.557 210.769 135.629C211.076 138.118 213.284 144.18 208.735 145.023Z" fill="#EB9481"/>
<path d="M210.89 135.362V135.576C210.202 135.605 209.514 135.583 208.829 135.509C197.026 134.17 195.206 119.115 194.938 115.315C198.471 116.145 213.888 121.899 213.888 121.899C212.387 125.806 211.371 129.882 210.863 134.037C210.831 134.478 210.84 134.922 210.89 135.362Z" fill="#263238"/>
<path d="M186.093 94.2777C185.357 101.718 193.105 121.23 199.007 124.749C207.544 129.861 219.508 128.108 223.322 118.312C227.029 108.811 216.484 83.5184 210.087 80.5609C200.706 76.1448 187.177 83.2775 186.093 94.2777Z" fill="#EB9481"/>
<path d="M208.28 102.441C208.28 102.441 208.2 102.548 208.28 102.589C208.828 103.927 209.257 105.479 208.28 106.389C209.591 105.68 209.016 103.646 208.28 102.441Z" fill="#263238"/>
<path d="M206.567 101.518C204.386 102.187 205.885 106.509 207.906 105.88C209.926 105.251 208.387 100.969 206.567 101.518Z" fill="#263238"/>
<path d="M216.082 99.9658C216.082 99.9658 216.216 99.9658 216.229 100.046C216.657 101.384 217.367 102.883 218.732 102.91C217.193 103.285 216.269 101.317 216.082 99.9658Z" fill="#263238"/>
<path d="M216.764 98.1591C218.865 97.2491 220.525 101.505 218.584 102.348C216.644 103.191 215.038 98.9219 216.764 98.1591Z" fill="#263238"/>
<path d="M204.172 100.139C204.683 99.7779 205.174 99.3892 205.644 98.9752C206.215 98.6341 206.661 98.1178 206.915 97.5032C206.952 97.2928 206.919 97.0762 206.823 96.8857C206.726 96.6951 206.571 96.5409 206.38 96.446C205.973 96.3206 205.54 96.3065 205.125 96.4054C204.711 96.5042 204.331 96.7123 204.024 97.008C203.304 97.505 202.798 98.2552 202.606 99.109C202.569 99.3058 202.592 99.5089 202.67 99.6929C202.749 99.877 202.88 100.034 203.047 100.144C203.214 100.254 203.41 100.312 203.61 100.311C203.81 100.31 204.005 100.251 204.172 100.139Z" fill="#263238"/>
<path d="M217.715 95.4156C217.073 95.5226 216.484 95.5093 215.841 95.5628C215.188 95.7019 214.508 95.6268 213.901 95.3487C213.729 95.2242 213.603 95.0466 213.543 94.8434C213.482 94.6402 213.491 94.4226 213.566 94.2246C213.78 93.8526 214.088 93.5439 214.459 93.33C214.831 93.1161 215.252 93.0045 215.681 93.0068C216.544 92.8908 217.42 93.0955 218.143 93.5822C218.302 93.7025 218.422 93.8663 218.49 94.0536C218.558 94.241 218.57 94.444 218.524 94.638C218.479 94.832 218.378 95.0087 218.235 95.1467C218.091 95.2847 217.911 95.3781 217.715 95.4156Z" fill="#263238"/>
<path d="M215.975 110.952C215.665 111.882 215.121 112.716 214.396 113.375C213.989 113.721 213.483 113.931 212.951 113.977C211.786 114.07 211.425 113.094 211.331 112.197C211.276 111.712 211.276 111.223 211.331 110.738C212.816 111.307 214.444 111.382 215.975 110.952Z" fill="#263238"/>
<path d="M214.397 113.375C213.989 113.721 213.484 113.931 212.951 113.977C211.787 114.07 211.426 113.093 211.332 112.197C211.901 112.025 212.511 112.047 213.066 112.261C213.621 112.474 214.089 112.866 214.397 113.375Z" fill="#FF9BBC"/>
<path d="M192.864 112.331C196.691 110.752 191.86 100.153 191.86 100.153C193.429 99.3683 194.744 98.1547 195.651 96.6528C196.559 95.151 197.021 93.4227 196.985 91.6685C196.985 91.6685 213.405 90.3302 215.72 83.9335C218.036 77.5368 213.499 69.3603 211.478 69.4673C209.458 69.5744 207.464 73.0806 207.464 73.0806C207.464 73.0806 205.336 70.4844 203.676 70.6718C201.12 70.9528 200.719 74.3519 199.662 75.4626C196.771 78.3665 186.815 81.5783 184.66 84.4287C184.043 85.1309 183.609 85.9748 183.396 86.8854C183.184 87.7959 183.2 88.7448 183.443 89.6477C182.541 90.2401 181.799 91.0459 181.283 91.9937C180.767 92.9414 180.493 94.0019 180.485 95.0809C180.164 99.9119 189.01 113.936 192.864 112.331Z" fill="#263238"/>
<path d="M193.199 111.407C195.996 107.393 193.28 101.919 190.63 98.4802C190.63 98.4802 190.63 98.3731 190.724 98.4802C193.4 101.625 196.585 107.848 193.4 111.595C193.375 111.621 193.341 111.637 193.304 111.638C193.268 111.64 193.233 111.626 193.206 111.601C193.179 111.577 193.164 111.542 193.162 111.506C193.161 111.469 193.174 111.434 193.199 111.407Z" fill="#263238"/>
<path d="M194.309 91.0799C198.067 91.5755 201.879 91.5079 205.617 90.8792C207.315 90.5235 208.967 89.9758 210.542 89.2465C212.107 88.5239 214.891 87.2793 215.506 85.4995C214.883 86.9086 213.771 88.0447 212.375 88.6979C210.567 89.8083 208.599 90.6343 206.54 91.1468C202.504 92.1961 198.277 92.2786 194.202 91.3877C194.015 91.3609 194.108 91.0665 194.309 91.0799Z" fill="#263238"/>
<path d="M186.267 81.9798C188.091 80.9164 189.982 79.9732 191.928 79.1561C194.31 77.9919 197.2 76.8544 199.087 74.9541H199.154C197.828 76.3104 196.269 77.4165 194.551 78.2194C192.865 79.1427 191.138 79.9992 189.399 80.8155C187.418 81.7523 185.237 82.8229 184.046 84.8302C182.855 86.8375 183.256 88.8449 183.51 90.8656C183.51 90.9058 183.496 90.9448 183.471 90.9759C183.445 91.007 183.41 91.0283 183.371 91.0362C183.331 91.0441 183.29 91.038 183.255 91.0191C183.219 91.0002 183.191 90.9696 183.176 90.9325C182.604 89.3104 182.599 87.5426 183.16 85.917C183.721 84.2914 184.817 82.9037 186.267 81.9798Z" fill="#263238"/>
<path d="M182.532 90.6113C178.33 93.6625 180.471 99.8718 182.626 103.525C184.51 107.107 187.486 109.994 191.124 111.769C191.297 111.836 191.124 112.103 190.99 112.036C186.627 110.323 183.415 106.148 181.408 102.053C179.909 98.9618 178.223 92.4447 182.532 90.6113Z" fill="#263238"/>
<path d="M194.564 109.975C194.564 109.975 188.555 104.462 185.959 106.75C183.363 109.038 188.877 117.723 192.65 118.245C193.128 118.346 193.622 118.349 194.101 118.254C194.58 118.159 195.035 117.969 195.439 117.694C195.842 117.419 196.186 117.065 196.45 116.654C196.713 116.243 196.891 115.783 196.973 115.301L194.564 109.975Z" fill="#EB9481"/>
<path d="M187.605 109.199V109.293C190.282 109.748 192.048 111.715 193.453 113.869C193.26 113.656 193.022 113.487 192.757 113.375C192.491 113.263 192.204 113.211 191.916 113.221C191.628 113.231 191.346 113.304 191.089 113.434C190.832 113.565 190.607 113.75 190.429 113.977C190.429 113.977 190.429 114.124 190.523 114.097C190.919 113.862 191.379 113.757 191.838 113.798C192.296 113.839 192.73 114.023 193.079 114.324C193.661 114.822 194.186 115.383 194.645 115.997C194.818 116.198 195.18 115.997 195.046 115.756C194.39 112.585 191.005 108.771 187.605 109.199Z" fill="#263238"/>
<path d="M212.321 134.853H212.254C213.592 138.707 216.429 147.7 210.354 148.784C207.822 148.999 205.282 148.468 203.047 147.258C200.747 146.195 198.566 144.89 196.543 143.364C194.204 141.717 192.002 139.882 189.959 137.877C189.866 137.784 189.758 137.877 189.839 138.011C191.913 140.019 193.853 142.186 196.048 143.993C198.195 145.758 200.572 147.221 203.114 148.342C205.477 149.565 208.158 150.032 210.795 149.681C211.924 149.416 212.925 148.763 213.622 147.836C214.319 146.909 214.668 145.767 214.609 144.609C214.552 141.231 213.771 137.904 212.321 134.853Z" fill="#263238"/>
</svg>
