<svg width="113" height="114" viewBox="0 0 113 114" fill="none" xmlns="http://www.w3.org/2000/svg">
<g clip-path="url(#clip0_643_9874)">
<path d="M66.5071 1.91043C66.6797 2.04075 66.7773 2.4441 66.4397 2.49642L65.9669 1.94985L66.5071 1.91043Z" fill="#D8D8D8"/>
<path d="M64.9919 3.99101C64.6977 3.93357 64.4283 3.78688 64.2203 3.57092C64.0124 3.35495 63.876 3.08018 63.8297 2.78397C64.4498 3.24303 64.414 2.94947 65.1116 3.52126C65.1802 3.50768 65.2445 3.4777 65.2991 3.43386C65.3536 3.39003 65.3966 3.33363 65.4246 3.26952C65.4526 3.20541 65.4646 3.1355 65.4597 3.06572C65.4548 2.99595 65.433 2.92839 65.3963 2.86885C65.5719 2.98332 65.8378 2.56522 66.1361 2.85817C66.1089 3.00367 66.049 3.14112 65.9611 3.2602C65.8731 3.37927 65.7593 3.47688 65.6283 3.54571C65.4972 3.61455 65.3523 3.65281 65.2044 3.65763C65.0564 3.66245 64.9093 3.63371 64.774 3.57356C64.71 3.74209 64.905 3.88475 64.9919 3.99101Z" fill="#D8D8D8"/>
<path d="M42.4316 24.8468C42.4208 24.774 42.4262 24.6997 42.4474 24.6292C42.451 24.7021 42.4457 24.7752 42.4316 24.8468V24.8468Z" fill="#D8D8D8"/>
<path d="M38.9901 43.3202C39.0101 43.1681 39.0788 43.1071 39.1387 43.0936C39.1058 43.2268 39.0224 43.3672 38.9901 43.3202Z" fill="#D8D8D8"/>
<path d="M40.0997 46.4033C40.0602 46.3571 40.0256 46.3069 39.9967 46.2535C40.095 46.2962 40.1494 46.3553 40.0997 46.4033Z" fill="#D8D8D8"/>
<path d="M42.4333 24.8468L42.4128 25.4005C42.1938 25.3436 42.3705 25.0975 42.4333 24.8468Z" fill="#D8D8D8"/>
<path d="M60.2601 4.3535C60.3735 4.33081 60.4911 4.34118 60.5989 4.38338C60.5053 4.39427 60.4133 4.41574 60.3247 4.44741L60.2601 4.3535Z" fill="#D8D8D8"/>
<path d="M47.5909 18.2832L47.713 18.1992L48.0178 18.2802L47.5909 18.2832Z" fill="#D8D8D8"/>
<path d="M52.1294 13.7777C52.0073 13.8617 51.6098 13.4848 51.4019 13.3233C51.4749 13.3741 51.558 13.4087 51.6454 13.4249C51.7329 13.441 51.8228 13.4384 51.9092 13.4172C51.9956 13.5289 52.0695 13.6498 52.1294 13.7777V13.7777Z" fill="#D8D8D8"/>
<path d="M60.0573 7.17753L60.2556 7.16521C60.1905 7.17899 60.1237 7.18314 60.0573 7.17753V7.17753Z" fill="#D8D8D8"/>
<path d="M44.9277 21.9558C44.9784 22.0027 45.0179 22.0603 45.0436 22.1243C44.9917 22.0786 44.9519 22.0207 44.9277 21.9558Z" fill="#D8D8D8"/>
<path d="M47.111 98.2428L47.1962 98.1842C47.1779 98.2386 47.1625 98.2771 47.111 98.2428Z" fill="#D8D8D8"/>
<path d="M55.0586 100.886L54.994 100.792C55.043 100.694 55.0987 100.601 55.1607 100.511L55.0586 100.886Z" fill="#D8D8D8"/>
<path d="M42.0918 51.8548C42.1237 51.6377 42.1409 51.7235 42.0918 51.8548V51.8548Z" fill="#D8D8D8"/>
<path d="M73.8975 58.3048C74.5523 58.7538 74.3448 57.3053 75.0888 58.0251C74.8986 57.9899 74.3708 58.8924 73.8975 58.3048Z" fill="#D8D8D8"/>
<path d="M60.1317 4.51028L59.9062 4.66534C59.9642 4.59233 60.0428 4.53832 60.1317 4.51028V4.51028Z" fill="#D8D8D8"/>
<path d="M47.9797 63.4133C47.894 63.4541 47.8005 63.476 47.7055 63.4774C47.7892 63.4309 47.8842 63.4087 47.9797 63.4133V63.4133Z" fill="#D8D8D8"/>
<path d="M42.1882 55.4142L42.3368 55.6302C42.276 55.5666 42.2258 55.4937 42.1882 55.4142V55.4142Z" fill="#D8D8D8"/>
<path d="M51.0066 67.5312C51.137 67.5799 51.2186 67.5376 51.319 67.7038L51.2439 67.7555C51.2262 67.6292 51.1745 67.5541 51.0066 67.5312Z" fill="#D8D8D8"/>
<path d="M55.4783 70.2115C55.4415 70.2507 55.3966 70.2815 55.3468 70.3019L55.2158 70.2121L55.4783 70.2115Z" fill="#D8D8D8"/>
<path d="M36.1065 83.8522C36.304 83.8882 36.5063 83.8895 36.7042 83.8562C36.2915 83.9602 36.5729 84.8321 36.1065 83.8522Z" fill="#D8D8D8"/>
<path d="M60.4092 4.65173C60.3188 4.52022 60.2331 4.49617 60.1321 4.51028L60.324 4.44742C60.3517 4.47366 60.3736 4.5054 60.3882 4.54058C60.4029 4.57577 60.4101 4.61362 60.4092 4.65173V4.65173Z" fill="#D8D8D8"/>
<path d="M48.3068 71.3523L49.187 71.8677C48.878 71.7241 48.5833 71.5516 48.3068 71.3523V71.3523Z" fill="#D8D8D8"/>
<path d="M44.4359 43.9752L44.248 44.1044C44.2631 44.0667 44.289 44.0343 44.3224 44.0113C44.3558 43.9883 44.3953 43.9758 44.4359 43.9752Z" fill="#D8D8D8"/>
<path d="M51.7093 73.5642C51.9338 73.48 52.1753 73.4516 52.4133 73.4813C52.4338 73.5447 52.4465 73.6104 52.4509 73.6768L51.7093 73.5642Z" fill="#D8D8D8"/>
<path d="M38.8797 89.9565C38.3564 89.1957 39.2477 89.1638 39.4508 88.7751C39.0032 87.7822 38.6939 88.7006 38.152 88.6168C37.9363 87.921 38.2533 87.0942 37.9567 86.7032C37.8534 86.7743 37.7318 86.678 37.6843 86.8906C37.8573 85.9552 36.5889 85.0564 36.9111 83.9355C36.8416 83.908 36.7653 83.9024 36.6926 83.9196C37.0475 83.8619 37.3868 83.7322 37.6896 83.5384C37.5198 83.1709 37.7939 82.6641 37.2673 82.7634C37.4029 82.9607 37.218 83.0741 37.1353 83.2555L37.141 82.7811C36.3061 82.7742 37.1817 83.4034 36.692 83.6572C36.5028 82.8187 36.7011 81.6585 36.2266 81.2099C35.5144 81.3815 36.6079 82.6496 35.6836 82.1507C35.8774 82.4325 36.1117 82.6726 36.3525 82.9221C34.9903 82.7521 36.7014 83.4294 35.271 83.3615C34.5022 82.2437 34.9584 81.8608 34.2589 80.7229C34.5248 80.3048 34.8484 80.5943 35.0949 80.148C35.1363 78.1962 32.8641 79.3991 33.3653 77.7538C33.7281 77.2552 34.5489 76.9398 33.8089 76.065L33.0856 76.5625C32.7102 75.3125 34.0549 75.5776 33.2315 74.4005C32.9638 74.6953 33.1864 75.4416 33.0543 75.2695C32.2374 74.5445 33.3383 74.576 33.2372 73.9261L32.5097 73.9145C32.4733 73.1859 32.4987 72.4556 32.5857 71.7314C32.7029 70.9823 32.7796 70.2274 32.8155 69.4701C32.6276 69.5993 32.3969 69.8272 32.1673 69.4732C32.3555 67.4631 32.3538 65.4398 32.1622 63.4301L32.903 62.8375C32.9324 62.679 32.6705 62.4993 32.5396 62.6309C32.4431 61.867 32.9324 62.679 33.2318 62.39C33.3368 61.9995 33.008 61.7829 32.7643 61.992C33.2635 61.318 33.6938 60.5956 34.0487 59.8357C34.483 59.1155 34.7096 58.2892 34.7036 57.4482L34.4499 57.6226C34.583 56.5487 36.0546 57.0587 35.9282 55.9695L35.7497 56.0922C35.9396 55.5607 36.1591 55.0403 36.4071 54.5332C36.6624 54.0394 36.9782 53.5731 37.2465 53.098C37.5115 52.6412 37.7445 52.1666 37.9438 51.6776C38.1616 51.2357 38.3024 50.7599 38.3598 50.2706C38.8202 50.3968 39.0626 49.8842 39.3215 49.4156C39.5803 48.947 39.9385 48.5623 40.4523 48.8869C40.8408 47.5405 40.3323 47.5858 41.3877 46.002C41.7206 45.6209 42.4764 46.0559 43.0001 45.751L42.5848 45.2479L43.6406 45.2137L43.5077 44.3364L44.096 44.1256C43.8988 44.2612 43.8695 44.6411 44.0169 44.775C44.4029 44.5975 44.7361 44.3228 44.9839 43.9777C45.2317 43.6326 45.3856 43.229 45.4304 42.8066L47.604 42.2249C47.4554 42.0089 47.0932 42.1058 46.7579 42.1011C48.0931 42.1514 46.6268 41.3473 47.8869 41.4492C47.8106 41.6401 48.113 41.778 48.1905 41.8907C48.445 41.5533 48.7884 41.2932 49.1821 41.1396C49.4063 41.0282 49.6399 40.937 49.8802 40.867C50.1219 40.8178 50.3665 40.7836 50.6124 40.7647L50.3346 40.3608C52.0618 39.8522 53.8614 39.6338 55.6601 39.7146C55.5316 39.7386 55.4162 39.8088 55.3358 39.9119C55.2554 40.015 55.2155 40.144 55.2236 40.2745C55.2318 40.4051 55.2873 40.5281 55.3798 40.6205C55.4724 40.7129 55.5955 40.7683 55.726 40.7762L55.9279 40.0839C56.2316 40.5254 55.3784 40.3511 56.0719 40.8566C56.7283 40.7649 56.538 40.0656 56.1428 39.8531C56.4158 39.9282 56.6918 39.9875 56.9619 40.0784C57.0159 39.8753 56.8245 39.7578 56.7827 39.496C57.0864 39.9375 58.2893 38.9303 58.7275 39.7082L58.7973 39.508C60.1782 39.7237 61.528 40.1055 62.8172 40.6453C62.677 41.226 63.2436 41.2652 63.505 41.8465C64.6945 41.9255 65.8595 42.2217 66.9424 42.7202C67.6066 43.3841 66.9378 43.2768 67.1252 43.7706C67.4445 43.3296 68.4922 44.0481 68.1345 43.367C69.244 44.0719 70.2109 44.9795 70.9844 46.0423C70.6909 46.0782 70.4401 46.0154 70.4243 46.2338C70.6181 46.5156 71.1501 46.5648 71.2828 46.3352L71.2246 46.2507C71.5131 46.7531 71.9225 47.1754 72.4156 47.4794C72.9156 47.8441 73.4368 48.1787 73.9765 48.4815C74.9983 49.1624 76.0312 49.9602 76.012 51.0388L76.0102 50.9155C76.1881 51.5339 76.3292 52.1622 76.4327 52.7973C76.9108 53.4924 76.5594 52.1567 77.1408 52.5594C77.1653 53.0328 77.2583 53.5001 77.417 53.9468C77.5294 54.3217 77.67 54.6875 77.8376 55.0412C78.2399 55.7192 78.4183 56.5066 78.3476 57.2917C78.5739 57.421 78.768 57.5997 78.9156 57.8143C79.0633 58.029 79.1606 58.2742 79.2004 58.5317C79.3479 59.1316 79.372 59.7553 79.2712 60.3648C79.1892 61.6942 78.7238 62.969 79.014 64.0147L78.6822 63.8139C78.175 64.1628 78.6912 64.4304 78.6525 64.8168C78.3941 64.6624 78.5108 64.2085 78.2167 64.4247C77.3738 66.2982 76.333 68.0762 75.1121 69.7284C74.4851 70.5409 73.8008 71.3075 73.0644 72.0223L71.9472 73.0535C71.5339 73.3378 71.1394 73.6091 70.726 73.8934C70.1343 74.3004 69.7244 73.9458 69.3321 73.7175C68.9398 73.4891 68.5805 73.3488 67.9365 74.0823L68.6893 74.5331C67.9439 74.6156 67.2087 74.7735 66.4951 75.0044L64.298 75.4915C63.5757 75.6725 62.8324 75.7556 62.088 75.7385C61.7177 75.7494 61.3471 75.7411 60.9776 75.7135C60.6165 75.6629 60.262 75.5726 59.9207 75.4441C60.0499 75.632 60.0717 75.8246 60.3535 75.8522C59.7053 76.2979 58.077 75.6605 58.1533 75.2483C57.7288 75.1944 57.9907 75.5954 57.686 75.7358C57.0178 75.8909 56.3594 74.7525 55.9132 75.17C55.8287 75.2282 56.0424 75.3579 56.107 75.4518C55.9714 75.2545 55.4805 75.2047 55.1652 75.048C54.8498 74.8913 54.6102 74.724 54.8856 74.5208C53.8052 74.3783 53.1046 73.601 52.2584 73.4772C52.1009 72.6446 50.5456 72.898 50.8807 72.0172C50.4316 72.8933 48.9841 71.6335 48.7332 70.9066C48.7415 71.2607 48.1026 70.8145 48.0651 71.2831C47.4984 70.8011 47.1167 70.2058 47.53 69.9216C47.185 69.8989 46.8544 69.7748 46.5797 69.565C46.3049 69.3552 46.0983 69.069 45.9855 68.7422C45.7054 68.1739 45.4804 67.7059 44.6772 67.9262C44.0781 66.9546 43.6599 66.0246 43.1918 65.1427C42.7237 64.2609 42.3283 63.3843 41.9019 62.543C41.1222 63.0792 42.9491 64.3272 42.0996 64.8423C41.407 63.0909 41.4432 61.8761 40.4548 60.4389C40.1306 60.1083 40.2206 60.8628 40.1543 61.0883C39.8655 60.2663 39.5114 59.4688 39.0952 58.7034C38.7211 57.9743 38.4704 57.1882 38.3532 56.3772C38.2781 56.4289 38.2523 56.6126 38.2452 56.7835C38.143 56.494 37.8253 56.1729 38.2598 56.0401C38.2483 56.1484 38.2446 56.2573 38.2487 56.366C39.0044 56.5796 39.0476 54.7512 39.3488 54.5856C38.3596 55.5011 38.5518 53.2657 37.3595 54.57C37.3539 54.4427 37.3911 54.3171 37.4653 54.2134C37.5395 54.1098 37.6463 54.0339 37.7686 53.9981C37.5877 53.735 37.3975 53.6998 37.185 54.095C37.0327 52.9683 37.6117 53.2066 37.3103 52.2654C37.1025 52.3254 37.0773 52.5502 36.8741 52.7176C37.056 52.4253 37.1627 52.0926 37.1848 51.7491C37.2069 51.4056 37.1436 51.062 37.0006 50.7488C36.8879 50.8264 36.71 50.7688 36.7799 51.0113C36.667 50.3374 36.6915 49.6475 36.8518 48.9832C36.9954 48.2928 36.9221 47.5748 36.6418 46.9276C35.7964 47.509 36.2994 46.4297 35.4968 46.4698L35.6387 45.5697L36.0574 45.8767C35.958 45.1286 36.4476 44.4322 36.1352 43.8169L35.881 44.3929C35.8606 43.9199 35.877 43.446 35.9301 42.9755C36.0851 43.2009 36.121 43.4945 36.2543 43.7487C36.6194 42.9719 37.2443 43.7597 36.9934 42.8115C36.9236 43.0117 36.9704 42.094 36.5259 41.7494C36.7736 41.3853 37.0307 41.0148 36.8269 40.477C36.5685 40.3226 35.9555 40.5781 35.7864 40.473C36.4487 40.1283 36.065 38.7455 36.7895 38.3303C36.6905 38.3873 36.5804 38.4228 36.4667 38.4342C36.3529 38.4457 36.238 38.4329 36.1296 38.3967L36.6791 38.1295C36.5223 37.7807 36.4142 37.7443 36.1171 37.755C36.0893 36.7086 37.0749 38.1617 36.7564 36.914C36.6719 36.9722 36.6437 36.9915 36.4934 37.0949C36.4439 35.856 37.1782 34.8113 37.0952 33.6646C36.3671 33.1692 36.7419 34.5994 36.1464 34.0957C36.4065 33.277 36.7557 32.4894 37.1877 31.7469C37.5776 31.0193 37.8898 30.2527 38.1191 29.4597L38.1045 29.7604C39.2419 29.9052 37.9563 28.4786 38.7454 27.9359C38.5763 28.0522 38.0848 27.9613 38.2175 27.953C38.3659 26.8409 39.3275 25.9858 40.3014 24.6657L39.9638 24.718C39.9696 24.0222 40.5801 23.1596 40.8237 22.5078C41.1771 22.4584 41.3591 22.1396 41.5764 22.5159C41.5122 21.9797 41.6024 21.4364 41.8362 20.9496C42.07 20.4628 42.4378 20.0528 42.8965 19.7677C43.3298 19.5184 43.6988 19.1712 43.974 18.7537C44.2491 18.3363 44.4227 17.8602 44.4808 17.3636C44.293 17.4929 43.9536 17.6432 44.0557 17.49C44.452 17.1206 44.89 16.7917 45.315 16.444C45.5993 16.8573 45.3897 16.7939 45.4631 17.283C45.6644 17.2918 45.8651 17.257 46.0518 17.1812C46.2384 17.1054 46.4065 16.9903 46.5446 16.8437C45.8313 17.1544 45.9521 16.3241 45.8986 15.9043C45.989 16.0358 46.1793 16.071 46.2633 16.1931C46.1732 14.9959 47.0872 16.7472 47.3888 15.5159L47.1656 15.3927C47.5226 15.1472 48.0569 15.1394 48.3299 14.7718C48.0661 14.2475 47.8226 14.8993 47.4702 14.5882C47.9669 14.1636 49.1289 14.4851 49.1523 13.6942C48.8529 13.7618 48.5658 14.0284 48.2663 14.096C48.2597 13.2012 48.4377 13.2587 48.7071 12.8658L49.3064 11.8863L49.2225 12.207C50.7545 12.7445 50.6298 11.3359 52.0889 11.4255C50.6715 11.3764 51.6197 11.1256 51.1611 10.68C51.2673 10.3717 51.4921 9.95417 51.2825 9.89079C52.0047 9.97522 51.7192 9.03698 52.7491 9.18653C52.6328 9.01745 53.1677 8.82947 52.7736 8.47782C53.4083 8.19353 52.8583 8.86241 53.0538 9.04616C54.2804 9.01895 54.6054 6.99671 56.3698 6.98702C57.6421 6.62393 58.19 7.11883 59.3855 6.90548C59.5715 6.43161 58.7489 6.40236 58.7489 6.40236C58.9165 6.15772 59.1393 5.95589 59.3992 5.81316C59.6592 5.67043 59.949 5.5908 60.2454 5.58067C60.0511 5.47912 60.0581 5.30828 60.1485 4.99707C60.6011 4.81027 60.7756 5.5066 61.2007 4.93756C60.9651 4.72492 60.694 4.55542 60.3997 4.43685C61.0212 4.37263 61.6456 4.34038 62.2704 4.34024C62.268 3.95447 61.7119 3.99098 61.416 3.86244C62.1035 3.7355 63.1369 3.46757 63.5574 3.8979L63.2527 4.25962C63.4887 4.18032 63.1728 3.76115 62.9637 3.73887C62.2497 3.56578 62.2686 4.21694 62.3573 4.44651L62.7929 4.39593C62.8559 5.03065 62.4496 5.14405 61.944 5.1735C61.4464 5.1476 60.9489 5.22587 60.4832 5.40332L61.1973 6.01913L60.1028 5.77562C60.05 6.061 60.1804 6.55243 60.5873 6.48014C60.268 7.14252 59.9767 6.45737 59.7554 7.12149C59.7472 7.21016 59.82 7.21541 59.8394 7.24359L59.2076 7.29067C59.3926 7.39868 59.4185 7.87898 59.6674 7.59709C59.0135 8.51729 57.8743 7.80643 57.8985 8.60615L57.9965 8.6079C56.6443 9.13657 57.5437 8.1306 56.2496 8.07974L56.4959 9.80596L56.0244 9.3416C55.9023 9.42558 55.658 9.59357 55.8859 9.82429C55.1765 9.75865 55.806 9.54713 55.3039 9.38046C55.1007 9.76982 54.7654 10.074 54.3581 10.2385C54.0011 10.484 53.7487 10.7406 53.9989 11.205C53.5022 10.9655 54.3141 10.4763 53.5074 10.6714C54.0125 11.7076 52.6972 11.0625 52.4906 11.8687C53.0044 12.1934 53.2897 11.5821 53.1019 12.3754C52.1964 11.8635 52.2489 13.308 51.7141 13.4959C51.1808 12.9218 50.6344 14.0586 49.7995 14.4944C50.0391 14.6617 48.7957 15.932 48.4822 16.784L48.5469 16.878C47.8674 16.4735 47.4072 17.2328 46.8624 17.6075C46.9846 17.7304 47.1401 17.815 47.3097 17.8508C47.4794 17.8865 47.6557 17.8719 47.8172 17.8087L47.425 18.2445C47.2793 18.2152 47.1288 18.2211 46.9858 18.2617C46.8429 18.3023 46.7116 18.3763 46.603 18.4777L47.1474 18.726C46.5891 19.2622 45.635 19.5447 45.3433 20.5894C44.8747 20.3305 44.6156 19.0282 43.6739 19.7312C43.8917 19.9273 44.2664 20.2508 44.5424 20.0887C44.4578 20.1468 44.149 20.2208 44.1331 20.4393L44.7931 20.3728C44.6928 20.8707 44.3087 20.3324 44.1238 20.6671C44.475 20.896 44.2149 21.0611 44.4985 21.2119C44.583 21.1538 44.5472 20.8602 44.765 20.8349C44.6621 21.0219 44.5996 21.2285 44.5814 21.4412C44.5633 21.6538 44.5899 21.868 44.6595 22.0697C44.4834 21.9142 44.1774 21.751 43.9719 21.9753C43.5516 22.6518 44.3014 22.4544 44.2111 22.987C43.8729 22.9982 43.8783 23.5895 43.3363 23.2842C43.2253 23.485 43.4555 23.6588 43.5559 23.825C43.1162 24.0306 42.5416 25.4081 42.2127 24.7488L42.2173 24.6349L42.161 24.6737C41.6412 25.1599 41.3016 25.8081 41.1978 26.5122C41.0734 27.1927 40.8574 27.8533 40.5557 28.4758L40.7465 28.5521C40.2628 29.2169 40.0393 30.1593 39.3847 30.5957C39.3712 30.6655 39.3717 30.7373 39.3862 30.8069C39.4008 30.8765 39.429 30.9425 39.4693 31.001C39.5096 31.0596 39.5611 31.1096 39.6209 31.1481C39.6807 31.1865 39.7475 31.2127 39.8175 31.2251C39.5187 31.7765 39.2786 31.7894 39.4402 32.6883C39.9421 32.1909 39.7068 32.9754 39.85 32.1575C39.8331 32.9578 40.1179 33.1908 39.3594 33.8785C39.9389 33.7152 39.8504 34.5925 39.6843 34.9143L39.3876 34.3019C39.2718 34.6717 39.2197 35.0585 39.2334 35.4457L39.9533 35.3657C40.2564 36.2088 39.8102 36.8478 39.4017 37.4609C38.9931 38.0739 38.8564 38.6799 39.4954 39.3474C38.9599 39.7156 39.2075 38.4661 38.6051 38.7973C38.654 39.5524 39.6453 40.3097 39.6077 40.5569C40.0171 41.5345 38.6091 41.479 38.8899 42.5311C38.7792 42.4722 38.6558 42.441 38.5304 42.4402C38.405 42.4395 38.2812 42.4692 38.1698 42.5268C38.0584 42.5844 37.9626 42.6681 37.8907 42.7709C37.8187 42.8736 37.7728 42.9923 37.7568 43.1167C37.8561 43.8647 38.8632 43.9609 39.0081 43.4876C39.0245 43.3103 38.9411 43.2293 38.8466 43.2528C38.9317 43.0144 39.0315 42.6967 39.2881 42.9491L39.0398 43.0507C39.2788 43.3983 39.3817 44.3929 39.7698 44.1122C39.6008 44.6712 39.3846 44.3771 39.2272 43.9872C39.6765 44.882 39.3778 45.4334 39.749 46.3957C39.6392 46.236 39.2933 46.1556 39.3051 46.3136C39.8432 47.6593 38.9482 47.0018 39.0505 47.9553C39.5221 48.4197 39.9054 47.5888 39.7746 48.6058C40.1364 49.1318 40.4416 48.5898 40.6054 48.325C40.265 49.2786 41.2627 49.8239 41.4683 50.2637L41.5499 49.7786C41.5142 50.0179 41.5394 50.2622 41.6233 50.4891L41.0714 50.3706C41.2329 50.6054 41.2834 50.8197 41.4913 50.7598C41.2371 51.1145 40.6281 50.7723 40.3405 51.4405C40.6764 51.7076 40.373 52.5943 41.0641 52.4926C40.5026 51.4951 41.7176 52.4168 41.5619 51.4861C41.5503 51.5984 41.5617 51.7118 41.5953 51.8194C41.629 51.9271 41.6841 52.0269 41.7575 52.1126C41.8432 52.1366 41.8702 52.0351 41.9172 52.0028C42.8074 52.7742 41.3642 52.6875 41.7337 53.7479C42.0625 53.5218 42.4958 53.7495 42.4765 53.9427C42.3155 53.5276 41.8189 53.9522 41.7062 54.4724C42.1984 55.0472 41.7939 55.2839 41.9953 55.6573L41.6899 55.3138C41.4093 55.5898 41.5973 55.9034 41.706 56.4236C41.9831 56.3437 41.6924 55.921 41.8932 56.0319C41.5252 56.8247 43.016 56.9201 42.9592 57.8032C43.348 58.0063 43.5939 57.5189 43.894 57.7138C43.8859 58.6879 44.7906 58.2732 44.8713 59.2556C44.3088 59.2827 44.3862 59.174 44.2778 59.9819L43.8641 58.4953L43.6917 59.6932C43.4333 59.3174 43.5066 58.6997 43.2981 58.4972C43.1614 59.1032 43.2454 59.0039 42.7774 59.0075C43.7445 59.1864 42.9643 60.3456 43.8076 60.7066L44.8314 60.0024C45.0532 60.1452 45.2387 60.3378 45.3732 60.5647C45.5076 60.7917 45.5874 61.0468 45.6061 61.3099C45.6633 61.5931 45.7435 61.8711 45.8458 62.1413C45.9845 62.43 46.1872 62.6834 46.4384 62.8822L45.9798 62.658C45.7016 63.0984 46.4708 63.3719 46.5854 63.8604C46.8848 63.5715 47.1743 63.6906 47.4872 63.6829C47.2148 63.8703 48.1556 64.4132 47.6431 65.0563L48.4569 65.1331C49.3612 65.7841 48.5077 66.8969 49.4496 67.5221C49.5018 66.9743 50.079 67.0892 49.7459 66.3635C50.0084 66.5843 50.2985 66.7445 50.1465 66.9459C50.4647 66.8655 50.5201 68.0726 51.0397 67.9228C51.0556 68.1471 50.8302 68.5236 51.1843 68.7366C51.2439 68.6982 51.287 68.6389 51.3052 68.5704C51.1843 68.7366 51.6993 69.1435 51.1075 69.3291C51.9459 69.1399 52.5472 69.6119 53.2073 69.9881C53.8673 70.3644 54.4816 70.8552 55.1497 70.4787C55.8008 70.9442 56.5182 71.309 57.2778 71.5611C57.2602 71.4348 57.3224 71.3644 57.1615 71.392C58.1743 71.235 57.4653 72.7189 58.6643 72.5308C59.3324 71.933 58.1392 72.0894 58.5379 71.8844C58.7374 71.249 59.0322 71.2954 59.4045 71.4544C59.7768 71.6135 60.2354 71.8377 60.597 71.4783L60.4344 71.3826C60.7068 71.1953 61.0086 71.2921 61.3903 71.4447C61.775 71.649 62.2085 71.7434 62.6434 71.7175C62.6094 71.656 62.5993 71.584 62.6151 71.5155C62.9927 71.8131 63.4569 71.9796 63.9375 71.9898C64.4469 72.0517 64.9621 72.0506 65.4712 71.9866C65.0449 71.5879 65.0044 71.851 64.9931 71.2914C65.3842 71.2162 65.126 72.1686 65.9585 72.0111C66.1111 71.6294 66.5632 71.1802 66.394 70.6324L65.6953 70.8639C65.7685 70.0248 66.5824 70.5443 66.9012 70.2835L66.7139 70.0111C67.7889 69.5624 68.1631 70.2875 69.2386 69.6584L69.2616 69.9332C70.2939 70.2472 69.4758 69.2186 70.3912 69.3224L70.0699 68.5332C70.4536 68.4809 70.8329 68.4004 71.2048 68.2923C71.655 68.1484 72.0872 67.9533 72.493 67.7108C71.688 67.5865 70.8689 68.0252 70.1767 68.0447C70.5336 67.7992 71.2452 67.1438 71.7249 67.2982C71.5423 67.3546 71.2546 67.3587 71.2164 67.5648C71.6175 67.6336 72.0297 67.5938 72.4101 67.4495C72.7894 67.2785 73.1147 67.007 73.3507 66.6643C73.216 66.6121 73.1002 66.5206 73.0184 66.4016C72.9366 66.2827 72.8925 66.1418 72.892 65.9974C72.9571 65.7257 73.0552 65.4631 73.1842 65.2153C73.4448 64.6486 73.7553 64.0338 73.2638 63.5001C73.5133 63.2607 73.6982 62.9622 73.8015 62.6322C73.8599 62.2911 73.8909 61.9459 73.8941 61.5999C73.8689 61.2402 73.8257 60.882 73.7647 60.5266C73.7471 60.179 73.6689 59.8038 73.6506 59.4151C74.973 59.8893 73.6312 58.9442 74.9235 58.8718C74.9775 58.4473 74.8835 58.2905 74.8043 58.2758C74.4448 57.9142 74.1048 57.5807 73.7683 57.2725C73.4318 56.9643 73.5817 57.7053 73.2945 57.7506C73.002 56.9832 72.6721 57.5698 72.1924 57.1941C72.6597 57.1494 72.7008 56.7061 72.3918 56.3374L73.1693 56.7436C73.3957 55.3426 71.7865 56.2418 71.8772 54.8649L71.6918 55.3799C71.5722 54.9222 71.3947 54.4816 71.1637 54.0688C70.8887 53.5608 70.8169 52.9673 70.9626 52.4083C70.7759 52.3984 70.4107 52.5112 70.5064 52.7912C70.0086 52.1394 69.5779 51.4389 69.2208 50.7006C69.0633 50.3553 68.8384 50.045 68.5593 49.7879C68.2803 49.5307 67.9528 49.3319 67.5959 49.203L67.4961 49.5207C67.3281 49.2764 67.4501 48.7497 66.9857 48.7786C66.9241 48.8901 66.8859 49.0962 66.7744 49.0346C66.6628 48.973 66.4859 48.1122 66.0426 48.0712L66.119 48.5444C64.6704 48.0878 64.5985 46.6152 63.4616 45.8474C63.0754 46.6942 61.887 46.5153 61.3016 46.489L61.2781 46.6158C60.5504 46.3956 59.8594 46.0689 59.2275 45.6461C58.9022 45.4548 58.5734 45.2382 58.2322 45.0439C57.8696 44.8753 57.4968 44.7296 57.1159 44.6078C56.4479 45.0336 55.6722 45.2598 54.8801 45.2599C53.9986 45.3231 53.1428 45.5852 52.3771 46.0266C52.5667 45.7993 52.168 45.3402 51.8797 45.3033C51.7106 45.4196 51.4282 45.3509 51.2097 45.3351C50.9913 45.3193 50.8469 45.3909 51.0202 45.7837L51.1329 45.7062C51.1395 46.601 50.4067 46.6623 49.8789 46.9007L49.308 45.9097C49.1641 46.3993 48.8537 46.8232 48.4304 47.1082C48.2291 47.2341 48.0194 47.346 47.8028 47.443L47.1593 47.7749C46.752 47.9511 46.365 48.1709 46.005 48.4304C45.8668 48.5594 45.7629 48.7207 45.7025 48.8999C45.6422 49.0791 45.6273 49.2705 45.6594 49.4568C45.192 49.5015 44.8456 49.8227 44.3659 49.8897L44.7987 50.2977C44.2898 51.1277 43.6829 51.8934 42.9912 52.5786L43.4756 52.619C43.0988 53.238 41.5526 52.378 41.0994 52.9664L41.7131 53.6375C41.3641 54.2417 41.098 54.8901 40.9219 55.5653C40.6837 56.2234 40.2494 56.7926 39.6774 57.196C39.8013 57.2354 40.0491 57.314 40.173 57.132C39.9318 57.7268 39.6672 59.5553 38.6302 58.9125C39.3495 59.2342 38.2159 60.2214 37.6141 60.8151L38.2131 60.9013C37.2819 61.2373 37.114 61.2145 36.6537 61.9737C36.6696 62.198 37.0566 62.2778 36.9825 61.969C37.0977 62.7199 36.2892 62.349 36.3844 63.252L37.1718 62.8074C37.0521 63.4985 36.8894 63.4029 36.3939 63.6883C36.2437 63.9476 36.2017 64.2557 36.2769 64.5458C36.3521 64.8359 36.5385 65.0847 36.7958 65.2384C36.4676 65.2842 35.9949 65.6231 36.1025 66.0611C36.1758 66.0823 36.2538 66.0813 36.3266 66.0583C36.3994 66.0353 36.4638 65.9913 36.5117 65.9318C36.5994 66.4183 36.5066 66.92 36.2507 67.3429C36.0887 67.731 35.9578 68.0839 36.242 68.4972C36.3699 68.4976 36.4927 68.5467 36.5856 68.6346C36.569 67.7051 36.577 66.9523 36.5559 67.0222C37.0814 67.062 37.0986 67.8113 37.9129 67.2651C37.4873 67.793 36.585 68.8148 36.8359 69.5417C36.8966 69.5807 36.9632 69.6096 37.0331 69.6274L37.1083 69.5757C37.1336 69.6525 37.142 69.734 37.1328 69.8144C37.1236 69.8948 37.097 69.9722 37.055 70.0413C37.1566 70.2223 37.2228 70.4209 37.25 70.6267C37.7156 70.6801 37.5272 71.4323 37.6048 71.7663C37.0141 71.8128 37.1821 72.2784 36.6231 71.8881C36.6683 71.9538 36.7076 71.8299 36.6753 71.5616C36.6708 71.5005 36.6879 71.4399 36.7234 71.3901L36.6671 71.4289L36.644 70.49C36.364 70.8071 36.1286 71.1489 36.4915 71.5358C36.1826 71.7231 35.8846 71.928 35.5991 72.1495C36.5034 72.5792 37.0825 73.4815 37.6239 73.5243C37.5911 74.1003 37.6828 74.7567 37.6765 75.4114C37.7501 76.0427 37.5856 76.6788 37.2153 77.1953C37.1731 77.5565 37.6334 77.4612 37.8365 77.5152C37.8682 77.2997 37.8018 77.0825 37.9263 76.9416C37.8418 77.6638 38.5003 78.8022 37.8175 79.2579C38.4593 79.9096 38.2847 78.5492 38.636 79.6636L38.7875 79.421C39.814 80.2094 39.7337 81.2194 39.7996 82.2809C39.7388 82.858 39.8585 83.4398 40.1422 83.946C40.426 84.4522 40.8597 84.858 41.3837 85.1073C41.1958 85.0151 41.1159 84.9594 40.9774 84.9993C41.9879 86.1058 42.8769 87.3174 43.629 88.6135C44.3888 89.9264 45.4881 91.0105 46.8114 91.7519C47.5419 92.1904 47.2378 92.5933 47.326 93.2245L47.8937 92.9032L47.989 94.0276C48.5071 95.304 50.5838 94.3601 51.0262 96.0898L50.5959 96.2889C51.0651 96.5889 51.7822 97.6316 52.0287 97.1853C52.0176 97.2898 51.8773 97.6492 52.1961 97.6098L52.4139 97.3631C52.6917 97.767 52.8914 98.2385 53.1316 98.6683C54.1217 99.122 53.8173 97.5326 55.0534 98.3844C55.4298 98.8311 55.7959 100.088 55.4964 100.155C55.3697 100.084 55.2234 100.056 55.0795 100.076C54.9355 100.095 54.8017 100.16 54.6979 100.262L55.0144 100.722C54.5589 101.589 54.3695 102.701 52.8099 102.446L52.3612 101.371L51.8327 101.568L52.4693 102.071C51.8287 102.166 51.831 101.666 51.7106 101.209C51.6214 101.282 51.5175 101.335 51.406 101.364C51.2945 101.393 51.178 101.397 51.0647 101.377L50.9259 100.088C50.5971 100.315 50.7769 100.938 50.1539 100.716C50.088 100.097 51.0175 100.302 50.6346 99.6246C50.0093 99.6811 49.8754 100.05 49.7051 99.4199C49.6589 99.4479 49.6187 99.4847 49.5868 99.5283C49.5549 99.5719 49.5319 99.6213 49.5192 99.6738C49.5064 99.7263 49.5042 99.7807 49.5125 99.8341C49.5208 99.8875 49.5396 99.9386 49.5678 99.9847C49.3892 99.4434 48.6786 99.0742 48.8477 98.5151C48.1249 98.611 47.743 97.3516 47.1524 98.0622C47.1673 97.5531 47.0253 97.0518 46.7459 96.626C46.5506 97.9918 45.5285 95.54 44.8505 96.5459C45.141 95.4191 43.66 94.6942 43.368 93.5252C43.3504 93.6203 43.3058 93.817 43.4138 93.8534C42.9528 93.4648 42.6029 93.5394 42.2054 93.3839C42.7848 92.7778 42.3108 91.9277 42.4117 91.2495C41.3295 91.205 41.948 92.2049 41.2158 92.5285C41.7607 92.1538 40.9109 91.1194 41.5091 90.9431C40.7799 90.8082 41.0282 90.7066 40.3102 90.9098C41.0651 90.1969 40.1286 90.3844 40.3487 89.638C39.4708 89.2871 39.4533 90.0463 39.1872 89.1362C38.6652 89.1216 38.8797 89.9565 38.8797 89.9565ZM33.0938 69.4725C33.0839 69.6592 33.0892 69.8077 33.0781 69.9122C33.0669 70.0167 33.0968 69.678 33.122 69.4531L33.0938 69.4725ZM33.1311 67.6757C33.1491 67.9356 33.1529 68.1963 33.1424 68.4566C33.3426 68.5265 33.5599 68.4601 33.5446 68.2769C33.4318 68.3544 33.3214 67.9323 33.1593 67.6563L33.1311 67.6757ZM37.2906 71.0277C37.3627 70.7705 37.2353 70.706 37.1179 70.6761C37.1126 70.8217 37.0967 70.9667 37.0704 71.11L37.0047 71.1552C37.1071 71.1309 37.204 71.0877 37.2906 71.0277V71.0277Z" fill="#D8D8D8"/>
<path d="M36.605 71.582C36.605 71.582 36.5582 71.6142 36.5781 71.6832C36.5236 71.644 36.4714 71.6016 36.4218 71.5563L36.5903 71.4405L36.605 71.582Z" fill="#D8D8D8"/>
<path d="M42.4473 24.5873C42.4323 24.556 42.4125 24.5273 42.3887 24.5021C42.3887 24.5021 42.4473 24.5873 42.4473 24.5873Z" fill="#D8D8D8"/>
<path d="M42.6231 45.0837L42.7161 45.1989L42.502 45.2083L42.6231 45.0837Z" fill="#D8D8D8"/>
<path d="M46.1289 15.8156C46.1045 15.7548 46.097 15.6885 46.1072 15.6237C46.1322 15.6844 46.1397 15.7509 46.1289 15.8156V15.8156Z" fill="#D8D8D8"/>
<path d="M48.9375 12.7771L49.2204 12.2228C49.1478 12.4178 49.0528 12.6039 48.9375 12.7771V12.7771Z" fill="#D8D8D8"/>
<path d="M51.1508 10.4651C51.2268 10.5097 51.2967 10.564 51.3587 10.6265V10.6265L51.1508 10.4651Z" fill="#D8D8D8"/>
<path d="M38.44 56.7459C38.4675 56.7776 38.4913 56.8122 38.5111 56.8492C38.4812 57.188 38.4371 56.9831 38.44 56.7459Z" fill="#D8D8D8"/>
<path d="M36.7071 41.6519C36.6065 41.8058 36.5189 41.9678 36.4453 42.1364C36.3877 41.8716 36.3689 41.6631 36.7071 41.6519Z" fill="#D8D8D8"/>
<path d="M36.4727 42.838C36.4189 42.7295 36.3888 42.6109 36.3843 42.4899C36.3799 42.369 36.4011 42.2485 36.4467 42.1363C36.5168 42.3639 36.5257 42.6059 36.4727 42.838V42.838Z" fill="#D8D8D8"/>
<path d="M62.778 3.06514L62.909 2.97504C62.9185 3.00872 62.9389 3.03835 62.9669 3.05929L62.778 3.06514Z" fill="#D8D8D8"/>
<path d="M62.9675 3.05925L63.1564 3.05334C63.078 3.07968 63.0154 3.10896 62.9675 3.05925Z" fill="#D8D8D8"/>
<path d="M63.5365 3.04122L63.1572 3.05303C63.264 3.00721 63.3955 2.91676 63.5365 3.04122Z" fill="#D8D8D8"/>
<path d="M59.1523 5.19803L59.0231 5.01015C59.0787 5.06323 59.1226 5.1272 59.1523 5.19803V5.19803Z" fill="#D8D8D8"/>
<path d="M57.9939 5.74602C58.2475 5.57159 58.4383 4.98382 58.8798 4.90154L58.9767 5.04244C58.6702 4.83815 58.4202 5.92328 57.9939 5.74602Z" fill="#D8D8D8"/>
<path d="M55.007 10.7603L55.7655 10.0727C55.7379 10.3545 55.7245 10.7373 56.1014 10.5611C55.4487 11.7849 56.0737 9.9575 55.007 10.7603Z" fill="#D8D8D8"/>
<path d="M52.7119 12.9755C53.2015 12.7218 52.8992 13.2479 53.0173 13.319C52.6256 13.3531 52.5247 13.3672 52.7119 12.9755Z" fill="#D8D8D8"/>
<path d="M40.274 31.326L40.8065 31.4163C40.6381 31.7951 40.6163 31.3811 40.274 31.326Z" fill="#D8D8D8"/>
<path d="M36.6191 35.085L36.3654 34.5954L36.8792 34.4773L36.6191 35.085Z" fill="#D8D8D8"/>
<path d="M40.1166 38.1177L40.2123 37.9551L39.9688 38.6069L40.1166 38.1177Z" fill="#D8D8D8"/>
<path d="M54.872 69.3696L54.4688 69.9098C54.329 69.6462 54.5819 68.988 54.872 69.3696Z" fill="#D8D8D8"/>
<path d="M69.215 69.1622C69.2132 68.8175 69.4122 68.3625 69.8156 68.4863C69.5502 68.7241 69.427 69.1686 69.215 69.1622Z" fill="#D8D8D8"/>
<path d="M49.3128 46.8615L49.6645 46.9102L49.1032 47.0195L49.3128 46.8615Z" fill="#D8D8D8"/>
<path d="M49.8687 80.3645C49.9909 80.2805 50.3385 80.2628 50.2892 80.3521L49.7507 80.5148L49.8687 80.3645Z" fill="#D8D8D8"/>
<path d="M51.0192 80.7084C50.643 80.9074 50.233 81.0345 49.8102 81.0832C50.3134 80.8893 50.0827 80.8958 50.7027 80.6908C50.7684 80.6456 50.5054 80.6051 50.3069 80.6586C50.4196 80.5811 50.1601 80.5658 50.5001 80.4566C50.84 80.3473 50.9763 80.5857 50.6534 80.7801C50.7778 80.7717 50.9007 80.7476 51.0192 80.7084V80.7084Z" fill="#D8D8D8"/>
<path d="M53.293 87.6959L53.2541 87.6393C53.2643 87.6453 53.2732 87.6534 53.2799 87.6632C53.2866 87.673 53.2911 87.6841 53.293 87.6959Z" fill="#D8D8D8"/>
<path d="M54.481 91.9984C54.4905 91.9785 54.5051 91.9614 54.5233 91.9489C54.5415 91.9364 54.5627 91.9289 54.5847 91.9271C54.5731 91.9454 54.5579 91.9611 54.5401 91.9734C54.5223 91.9856 54.5022 91.9941 54.481 91.9984V91.9984Z" fill="#D8D8D8"/>
<path d="M55.1866 92.6618C55.1866 92.6618 55.2307 92.6453 55.1866 92.6618V92.6618Z" fill="#D8D8D8"/>
<path d="M53.2931 87.6965L53.4896 87.7818C53.2913 87.7941 53.3024 87.69 53.2931 87.6965Z" fill="#D8D8D8"/>
<path d="M53.329 85.6367L53.5398 85.5609L53.329 85.6367Z" fill="#D8D8D8"/>
<path d="M53.1182 84.1218C52.9127 84.2011 52.701 84.2634 52.4853 84.308C52.596 84.2844 52.7001 84.2365 52.79 84.1677L53.1182 84.1218Z" fill="#D8D8D8"/>
<path d="M53.6073 86.7049L53.774 86.6868L53.6073 86.7049Z" fill="#D8D8D8"/>
<path d="M33.633 90.6174L33.643 90.652L33.5039 90.8722L33.633 90.6174Z" fill="#D8D8D8"/>
<path d="M56.0508 93.9205C56.0842 93.8704 56.0877 93.8952 56.0508 93.9205V93.9205Z" fill="#D8D8D8"/>
<path d="M55.1621 106.57C55.0622 106.002 54.492 105.495 54.4361 104.911C54.7403 105.435 54.9838 105.991 55.1621 106.57V106.57Z" fill="#D8D8D8"/>
<path d="M56.4036 97.1509L56.196 97.1696C56.2636 97.1516 56.3338 97.1452 56.4036 97.1509V97.1509Z" fill="#D8D8D8"/>
<path d="M55.2848 94.9178L55.3304 94.984C55.3304 94.984 55.2819 94.9337 55.2848 94.9178Z" fill="#D8D8D8"/>
<path d="M56.0218 98.6862C56.0607 98.7427 56.1432 98.7416 56.0996 98.7993C56.0896 98.7646 56.1114 98.7357 56.0218 98.6862Z" fill="#D8D8D8"/>
<path d="M39.6042 91.9352C39.5028 92.0334 39.4091 92.1394 39.3242 92.2523C39.5132 91.9839 39.4281 91.7796 39.6042 91.9352Z" fill="#D8D8D8"/>
<path d="M50.1493 81.9009C50.0863 81.92 50.0306 81.9582 49.9902 82.0103V82.0103C50.0378 81.9665 50.0914 81.9296 50.1493 81.9009V81.9009Z" fill="#D8D8D8"/>
<path d="M47.4473 97.0428L47.4084 96.9862C47.4084 96.9862 47.4655 96.9886 47.4473 97.0428Z" fill="#D8D8D8"/>
<path d="M52.2988 99.0471C52.421 99.0735 52.5402 99.112 52.6547 99.1622L52.5307 99.1228L52.2988 99.0471Z" fill="#D8D8D8"/>
<path d="M38.7726 90.5842C38.9446 90.6734 38.5213 91.1444 38.3646 91.4598C38.4698 91.7334 38.711 91.1385 38.9417 90.9107C38.9829 91.1314 38.7692 91.6658 38.8679 91.7086C38.9363 91.6498 38.9895 91.5752 39.0228 91.4914C38.8908 91.9834 39.3999 91.7579 39.2191 92.3803L39.3412 92.2963C39.1667 92.5221 39.0054 92.7578 38.8581 93.0022C38.9098 93.0773 38.7883 93.4238 39.0366 93.1008C39.0366 93.1008 39.0753 92.9358 39.1147 92.8119L39.1018 93.0145C39.4875 92.5693 39.1047 92.7772 39.3365 92.4102C39.3877 92.6656 39.3067 93.1918 39.5081 93.1224C39.8398 92.6591 39.2949 92.8124 39.7705 92.4577L39.471 92.5253C40.0939 91.8617 39.3254 92.5147 39.9694 91.7813C40.2953 91.7924 40.0799 92.2034 40.4057 92.2145C40.293 92.5134 40.1392 92.5915 40.0172 92.8969C40.0525 93.5921 41.0551 91.851 40.899 92.6501C40.7494 93.016 40.3884 93.6378 40.7712 93.4299L41.06 92.8439C41.3207 92.9413 40.6931 93.7188 41.1675 93.5032C41.262 93.2584 41.0999 93.2038 41.1815 93.1615C41.623 92.8578 41.0859 93.5455 41.2104 93.6259L41.5421 93.1626C41.71 93.4068 41.79 93.9053 42.0284 94.2118C42.0796 94.0384 42.1794 93.8833 42.316 93.7649C42.4999 94.2334 43.0841 94.1776 43.5985 94.1005L43.4571 94.5991C43.5492 94.542 43.6159 94.4515 43.6432 94.3466C43.8792 94.2673 43.4794 94.6114 43.4412 94.8175C43.4031 95.0236 43.6949 94.6431 43.7242 94.4845C43.7313 94.9777 43.8929 95.6553 44.4266 95.3851L44.4559 95.2266C44.7524 95.1749 44.1255 96.2148 44.5453 95.94L44.5629 95.8448C45.0731 95.9229 45.2852 96.5934 45.9874 96.1658C45.6646 96.8029 46.5564 96.1481 46.0533 97.006C46.5459 96.7364 46.5811 96.5462 47.0767 96.4821C47.1877 96.5026 46.8671 97.0828 46.92 97.2402L47.2047 96.8091L47.0545 97.3552L47.4684 96.8907L47.4931 97.0675C47.3642 97.1011 47.2512 97.1788 47.1737 97.2871C47.2096 97.5807 47.7579 97.2312 47.9064 97.0045L48.0386 97.6193C48.1466 97.4343 48.1167 97.3304 48.1431 97.1877C48.0533 97.7614 48.4689 96.7561 48.3973 97.2757C48.3134 97.3876 48.2439 97.5098 48.1907 97.6392C48.2267 97.5937 48.2745 97.5589 48.3288 97.5385C48.3831 97.5181 48.442 97.5129 48.4991 97.5235C48.5561 97.534 48.6092 97.5599 48.6527 97.5984C48.6961 97.6369 48.7282 97.6865 48.7456 97.7419L48.9117 97.4201C49.2294 97.5199 49.3903 97.935 49.7063 98.1328C49.5849 98.2127 49.4819 98.3175 49.4041 98.4402C49.3263 98.5629 49.2754 98.7006 49.2549 98.8445L49.5901 98.4064C49.465 98.7276 49.4022 98.5356 49.2848 98.9484C49.4305 98.959 49.6922 98.4745 49.721 98.2749L49.7562 98.5273C49.8391 98.3986 49.9133 98.2644 49.9781 98.1257C49.8531 98.4469 50.4854 97.7768 50.2788 98.3617L50.3686 98.2307C50.6845 98.4285 50.6916 98.7004 50.9659 98.8577C50.7187 99.2629 50.8702 99.2417 50.7364 99.6105C51.0018 99.594 51.4263 99.4266 51.6025 99.5822C51.5268 99.8141 51.4052 99.9392 51.292 100.197C51.5174 99.8206 51.5661 99.9116 51.6629 99.6097C51.7275 99.7037 51.7276 99.7037 51.747 100.175C51.7053 100.355 51.6684 100.422 51.639 100.581C51.6097 100.739 51.78 100.484 51.7823 100.206C51.8228 100.607 51.9866 100.342 52.0265 100.038C52.0664 99.7336 52.0205 99.4053 52.175 100.032C52.2416 100.276 52.3232 100.516 52.4194 100.75C52.4758 100.711 52.2702 100.271 52.205 99.915C52.3836 100.456 52.4405 100.459 52.4522 100.395C52.464 100.332 52.4211 100.209 52.6202 100.639C52.2166 99.6302 52.2266 99.6649 52.3206 99.8216C52.4146 99.9784 52.6243 100.263 52.2119 99.5228L52.5268 100.081C52.895 100.617 52.3265 99.7899 52.2425 99.6678L52.7224 100.486C52.9743 100.853 53.0048 100.776 52.8457 100.484C52.5729 100.018 52.2663 99.5722 51.9283 99.1505C51.8443 99.0284 53.9744 101.562 53.0147 100.368L52.2947 99.5627C52.7252 100.028 52.6952 99.9237 52.6624 99.8356C52.6295 99.7476 52.5719 99.7041 52.9031 99.8638C52.7498 99.7616 52.5484 99.6096 52.5613 99.6284C52.0722 99.2591 52.5096 99.5532 52.9048 99.7657C52.8661 99.7094 52.5601 99.5462 52.3622 99.4194C52.1643 99.2926 52.9353 99.6894 52.4826 99.4335L52.2947 99.3413C52.5208 99.4487 52.243 99.2662 52.7527 99.5244C52.4944 99.37 52.9576 99.4804 52.6364 99.3553C53.1849 99.4486 52.3593 99.2139 53.1261 99.323C52.3276 99.208 52.4791 99.1868 52.8261 99.1281C52.6018 99.144 52.5759 99.1064 52.2665 99.1393C52.4362 99.0743 52.6147 99.0354 52.7961 99.0242C52.3452 99.1129 52.4772 98.8422 52.5958 98.733C52.7144 98.6237 52.813 98.4452 52.2317 98.4852C52.4982 98.0455 52.697 97.5683 52.8216 97.0695C52.0871 97.2287 52.8375 97.5151 52.0231 97.6186C52.2603 97.1788 52.8656 96.8317 52.6265 96.4841C52.5021 96.4037 52.3089 96.6057 52.1927 96.658C52.4204 96.2246 51.9735 95.937 52.3123 95.5242C52.244 95.5505 52.1828 95.5926 52.1338 95.6469C52.1015 95.5999 52.024 95.4872 52.3593 95.4918L52.2653 95.5565C52.7808 95.5616 53.2452 95.0901 53.4941 95.0295C52.553 95.3309 53.1864 94.7431 51.994 95.1619C52.1193 95.0642 52.2697 95.004 52.4278 94.988C52.3762 94.9129 52.2153 94.9405 51.9734 95.0515C52.1055 94.7808 52.4883 94.7943 52.4377 94.58C52.2992 94.6224 52.1637 94.674 52.032 94.7344C52.3139 94.5406 52.5957 94.3468 52.4518 94.2382C52.3767 94.2899 52.2246 94.27 52.2316 94.3205C52.2175 93.9981 52.9837 93.6234 52.6096 93.341C51.9174 93.5818 52.3524 93.2688 51.7277 93.3664L51.8733 93.1556L52.1833 93.1637C52.1463 93.0093 52.5666 92.7756 52.3376 92.684L52.2343 92.7551L52.293 92.438L52.5666 92.5542C52.8578 92.3539 53.3457 92.4196 53.1249 92.2394C53.0686 92.2782 53.0879 92.085 52.7145 92.0651C52.8836 91.9488 53.0714 91.8196 52.9058 91.7398C52.7402 91.6599 52.2283 91.9013 52.0891 91.9002C52.5894 91.7222 52.1624 91.5038 52.6938 91.2906C52.5255 91.3544 52.3497 91.3963 52.1707 91.4152L52.5828 91.2701C52.4366 91.2184 52.3703 91.2225 52.1119 91.2895C51.9698 91.0829 52.9075 91.199 52.5252 91.0053C52.5252 91.0053 52.4407 91.0634 52.3843 91.1022C52.2034 90.8392 52.5469 90.5338 52.2908 90.3224C51.6561 90.3854 52.1869 90.5738 51.6432 90.5879C51.679 90.2174 52.2408 89.7065 52.0276 89.3965L52.0793 89.4717C52.9489 89.2472 51.5961 89.2921 51.9783 89.0431C51.8552 89.0988 51.7265 89.1409 51.5943 89.1688C51.4328 88.9339 51.7163 88.6421 51.9159 88.2281L51.728 88.3573C51.5019 88.2499 51.5084 88.0379 51.405 87.8876C51.5929 87.7584 51.5929 87.7584 51.9052 87.7096C50.533 87.5049 52.4124 86.6967 51.2615 86.4919C51.2615 86.4919 51.0736 86.6211 51.083 86.6147L51.2227 86.2142C51.6078 86.1707 51.4599 86.2171 51.7764 86.2347C52.0929 86.2522 52.1334 85.9892 52.1292 85.9228C51.8756 86.0973 51.5174 86.0392 51.2925 86.014C51.4094 86.0028 51.5321 85.9599 51.6583 85.9423C50.9367 85.899 52.4146 85.7542 51.9096 85.6034L51.7111 85.6569C51.8238 85.5794 52.0493 85.4243 51.9624 85.3181C51.5202 85.3592 51.7745 85.4473 51.4152 85.5284C51.4163 85.3892 52.1931 85.0902 51.7339 85.0463C51.6212 85.1238 51.6353 85.2248 51.5226 85.3023C50.9812 85.2595 51.1104 85.226 51.0047 85.1327L50.7205 84.9407L50.8696 84.9765C51.9769 84.5747 51.0093 84.576 51.712 84.1896C51.0533 84.5596 51.3057 84.303 50.8172 84.4175C50.6587 84.3882 50.4902 84.3243 50.3581 84.3736C50.7056 84.1346 50.0022 84.2586 50.5547 83.9755C50.3938 84.0031 50.4901 83.8815 50.1214 83.9691C50.22 83.7906 50.412 83.9491 50.6105 83.8956C51.1084 83.5532 49.8395 83.4988 50.5252 83.0272C50.7858 82.6819 51.2955 82.4974 51.5285 82.2126C51.325 82.2108 51.1263 82.2747 50.962 82.3947C50.6918 82.3038 50.7218 82.1863 50.8744 82.026C50.7308 82.0667 50.5809 82.0806 50.4323 82.0672C50.4463 81.9468 50.9988 81.8851 50.7381 81.7876C50.5233 81.8516 50.3122 81.9275 50.1058 82.015C50.2655 81.9052 50.5379 81.7178 50.6236 81.5205C50.4135 81.5534 50.2148 81.6377 50.0453 81.766C50.095 81.6307 50.1766 81.5093 50.283 81.412C50.3895 81.3147 50.5177 81.2444 50.657 81.2069L50.8349 81.2645C50.8349 81.2645 50.4498 81.308 50.3811 81.3691C50.0711 81.5823 50.5666 81.5182 50.7275 81.4905L50.8402 81.413C51.7973 81.3359 50.764 81.8252 50.855 81.9978L51.5255 81.7858L51.0183 82.1346C51.205 82.1446 51.5995 82.0946 51.6864 81.9795C52.0511 82.047 51.4516 82.141 51.8415 82.2049L51.9354 82.1403L51.7382 82.276C51.8603 82.192 52.2272 82.2025 52.1157 82.1409C52.5543 82.2958 51.6736 82.6248 52.2015 82.6077L52.2485 82.5754C52.08 82.9541 51.7476 82.7123 51.2057 83.0711L52.5198 82.9699L52.0283 83.1003C52.0283 83.1003 52.0929 83.1943 52.3008 83.1343C51.9908 83.3475 52.0671 83.1567 51.7624 83.2971C52.2503 83.3628 51.6398 83.7827 52.4412 83.6604C52.0731 83.7891 52.1142 83.5671 51.8928 83.7885C52.7606 83.6621 51.776 84.0211 52.207 84.0844C52.638 84.1477 52.3714 83.8607 52.8024 83.924C52.069 84.1655 52.9962 84.2058 52.9064 84.3368C52.301 84.4625 52.7085 84.6527 52.5542 84.9111C52.7526 84.8576 52.9605 85.2404 53.2125 85.3854L53.2876 85.3337C52.6923 85.4941 52.8273 85.6503 52.751 85.8411C52.9825 85.8077 53.2044 85.7258 53.4021 85.6009L53.4732 85.7042C53.3346 85.7349 53.2133 85.8183 53.135 85.9367L53.576 85.8134C53.5978 86.0059 53.1181 86.2944 53.4716 86.4663C53.0524 86.5609 52.2579 86.5123 52.0219 86.813C52.2662 86.7958 52.5053 86.7344 52.7277 86.632C52.7277 86.632 52.5586 86.7483 52.6537 86.7659L53.0213 86.5962C53.2056 86.6631 52.713 86.7113 52.7582 86.7771C53.0894 86.7153 53.0084 86.7987 53.2573 86.7382C53.2573 86.7382 53.1111 86.6866 53.1992 86.6537C53.3547 86.773 53.5506 86.8268 53.7452 86.8039C53.5591 86.835 53.3037 86.8862 53.2797 86.9719C53.2556 87.0576 53.6842 86.9566 53.8592 87.0299C53.6713 87.1591 53.9027 87.1937 53.4365 87.3206C53.4365 87.3206 53.6802 87.3329 53.8193 87.3341C53.6221 87.4698 53.8417 87.7891 53.3103 87.781C52.8923 88.1792 53.7173 88.3728 53.5706 88.7228L53.7344 88.6793C53.5859 88.906 53.7028 89.1161 53.3799 89.3106C53.4122 89.3575 53.7034 89.3786 53.886 89.3222C53.7968 89.4943 53.6042 89.516 53.926 89.6822C54.189 89.5013 54.1791 89.688 54.1327 89.54C54.2619 89.7279 54.5807 89.6885 54.1674 89.9727C54.5731 89.8183 54.7181 90.0091 54.6089 90.1118L54.2854 90.0438C54.2748 90.091 54.276 90.1401 54.2888 90.1868C54.3016 90.2334 54.3257 90.2763 54.3589 90.3115L54.8943 90.1646C55.6377 90.4005 53.8922 91.0614 55.063 91.1141C54.7019 91.2932 54.7541 90.9667 54.3267 91.15C54.4301 91.3003 55.2527 91.3295 55.2597 91.38C55.6132 91.552 54.5094 91.7577 54.7654 91.969C54.5599 91.972 54.0297 92.0461 53.8906 92.2663C53.994 92.4166 54.7514 92.3107 54.8823 92.1792C55.0132 92.0477 54.8371 92.1135 54.7584 92.1399C54.7968 92.0848 54.8511 92.0426 54.914 92.0191C54.977 91.9956 55.0456 91.9918 55.1107 92.0083L54.9604 92.1117C55.173 92.1592 55.1736 92.4217 55.5036 92.2777C55.4801 92.3108 55.4498 92.3385 55.4148 92.359C55.3797 92.3795 55.3408 92.3922 55.3004 92.3964C55.2601 92.4005 55.2193 92.3961 55.1808 92.3832C55.1423 92.3704 55.107 92.3495 55.0773 92.3219C55.3991 92.488 55.1519 92.6718 55.4261 92.8291C55.3058 92.815 55.075 92.8215 55.085 92.8562C55.3927 93.1427 54.7468 93.0887 54.7028 93.3266C55.0264 93.3946 55.4021 93.1362 55.2037 93.411C55.4298 93.5184 55.7245 93.3434 55.8719 93.2559C55.5149 93.5014 56.2025 93.5958 56.2894 93.7021L56.4491 93.5922C56.4221 93.6158 56.4022 93.6464 56.3915 93.6806C56.3808 93.7148 56.3798 93.7513 56.3887 93.786L55.9935 93.7949C56.0452 93.87 56.0775 93.917 56.2507 93.8671C56.0253 94.0221 55.5878 93.9494 55.2649 94.1438C55.4775 94.1913 55.1017 94.4497 55.6225 94.3821C55.3947 94.1514 56.1527 94.3081 56.1579 94.0139C56.0922 94.0591 56.1216 94.1219 56.2014 94.1777C56.2248 94.1739 56.247 94.165 56.2665 94.1516C56.286 94.1382 56.3023 94.1207 56.3142 94.1002C56.8321 94.2698 55.7546 94.3328 55.8187 94.607C56.1081 94.5048 56.3871 94.5482 56.3342 94.6122C56.2814 94.6762 55.8351 94.651 55.6285 94.7932C55.8927 94.9158 55.4987 95.0069 55.5475 95.0979L55.4136 95.0239C55.1271 95.1103 55.1788 95.1855 55.1207 95.3223C55.3479 95.2905 55.271 95.2189 55.3367 95.1737C54.8435 95.4022 55.9245 95.3644 55.6339 95.6058C55.8465 95.6533 56.1858 95.5029 56.332 95.5546C55.9751 95.8001 56.7736 95.6937 56.5088 95.9726C56.1042 95.9879 56.1988 95.9644 55.8383 96.1847L56.0537 95.7736L55.5371 96.129C55.4789 96.0444 55.7355 95.8541 55.6556 95.7984C55.3644 95.9987 55.449 95.9405 55.1108 95.9517C55.7279 95.9839 54.8219 96.3164 55.2565 96.405L56.2276 96.2075C56.7203 96.3806 55.8214 96.7637 56.1291 97.0502L55.9382 96.9738C55.5636 97.0931 55.9318 97.1858 55.7915 97.3238C56.0113 97.2804 56.2369 97.275 56.4585 97.3078C56.2219 97.346 56.522 97.5409 55.8855 97.7019L56.3418 97.7617C56.5291 98.0342 55.4758 98.2328 55.6379 98.5087C55.9773 98.3584 56.2344 98.4305 56.4428 98.1904C56.4816 98.2467 56.585 98.397 56.3231 98.4387C56.558 98.4986 55.9526 98.8457 56.2891 98.9326C56.167 99.0165 55.8065 99.0154 55.8558 99.1475L56.0202 99.1452C55.8558 99.1475 55.8365 99.3407 55.4331 99.2169C55.9986 99.3953 56.0374 99.673 56.0374 99.8944C56.0374 100.116 56.031 100.328 56.5607 100.655C56.4878 100.885 56.4518 101.124 56.4539 101.365C56.5684 101.411 56.6483 101.467 56.5937 101.407C56.9813 101.971 55.5408 100.983 55.9977 101.527C56.4546 102.07 56.3019 101.567 56.5585 101.819C57.1939 102.24 57.1828 102.344 57.1018 102.428C57.0207 102.511 56.8951 102.57 57.2897 102.963L57.3367 102.93C57.8289 103.505 56.9339 103.069 57.0943 103.443C57.1644 103.499 57.2298 103.56 57.2899 103.627C56.6551 103.247 56.4925 103.373 56.351 103.428C56.654 103.672 56.9332 103.943 57.1849 104.239C57.1191 104.284 56.2857 103.293 56.1695 103.346C56.4537 103.759 56.7703 104.219 57.4034 104.919L57.3811 104.685C58.1892 105.679 57.4269 105.013 57.5861 105.305L57.9267 105.679C57.9062 106.012 57.0176 104.921 57.1639 105.415L56.8926 105.021C56.044 104.069 57.4546 105.838 56.8128 105.186L57.7108 106.492C57.5193 106.375 56.9197 105.805 56.7829 105.747C57.1577 106.268 57.6041 106.734 58.109 107.131C58.1495 107.311 58.1507 107.615 57.7026 107.023C57.7607 107.108 57.9886 107.339 57.833 107.072C57.5705 106.722 57.2768 106.396 56.9556 106.098C56.8533 105.98 56.7383 105.874 56.6126 105.781C57.53 107.115 57.4613 107.176 57.3057 107.13C57.1501 107.085 56.9428 106.965 57.3951 107.844C56.8548 107.219 56.6675 107.168 56.4872 107.168C56.3587 107.188 56.2272 107.18 56.1021 107.144C55.977 107.108 55.8613 107.045 55.7632 106.96C55.2192 105.424 55.5647 106.792 54.8416 105.117C54.6995 104.91 54.6461 104.933 54.6854 105.031C54.6982 105.276 54.6964 105.522 54.6802 105.767C54.7555 106.158 54.971 106.19 55.0838 106.555C54.7884 106.468 55.2031 107.151 55.0992 107.403C54.9429 106.874 54.6945 106.533 54.5565 106.614C54.5729 106.436 54.5893 106.259 54.5899 106.079C53.8534 105.008 54.576 107.084 53.8453 105.982L54.1191 106.541C53.4923 106.08 53.019 105.441 52.7612 104.707C52.7189 104.914 52.7454 105.129 52.8365 105.32C52.4592 105.059 52.1418 104.721 51.9051 104.328C51.6337 103.933 51.427 103.632 51.1223 103.773L51.1077 104.073C51.0043 103.923 51.0482 103.464 50.8234 103.66C50.7964 103.762 50.7894 103.933 50.7354 103.914C50.6813 103.896 50.5938 103.306 50.3736 103.388L50.3912 103.736C50.2323 103.705 50.0878 103.623 49.9798 103.503C49.8719 103.382 49.8064 103.229 49.7934 103.068C49.6935 102.721 49.8162 102.457 49.7029 102.272C49.6168 102.453 49.4846 102.608 49.3197 102.721C49.1548 102.835 48.963 102.903 48.7635 102.918L48.679 102.976C48.2591 102.809 48.3682 102.042 48.1749 101.58C47.5186 102.114 47.2519 101.384 46.6565 101.545C46.8072 101.378 46.9054 101.171 46.9389 100.949C46.798 101.046 46.9875 100.376 46.6353 100.95C46.2191 101.472 46.1427 101.22 46.0088 101.146L46.4531 100.384C45.4158 101.25 45.8071 99.4446 44.9905 100.269C45.028 100.022 44.9165 99.9602 44.9605 99.7224L44.7133 100.128C44.5812 100.126 44.4513 100.093 44.3344 100.032C44.2175 99.9703 44.1169 99.8818 44.041 99.7737L43.9066 100.101C43.7316 100.028 44.4195 98.8353 44.3226 98.6944L43.8976 99.2634C43.6293 99.0744 43.0016 99.4092 43.0767 98.6934C42.9921 98.7516 42.9194 98.9677 42.9517 99.0147C42.8084 98.9472 42.1748 99.0923 42.7548 98.306C42.402 98.8392 42.4272 98.1716 42.4318 97.8363L42.1107 98.154C42.3014 97.5662 42.3912 97.4353 42.299 97.1805C42.2333 97.2257 42.0565 97.4717 42.1757 97.4036C41.9086 97.5181 42.3148 96.962 41.9625 97.0936L41.8687 97.3796C41.7001 97.3156 41.8058 97.1876 41.902 96.8447C41.9983 96.5017 41.572 96.7672 41.3208 97.1061C41.444 96.8829 41.5403 96.54 41.3923 96.5864C41.327 96.6674 41.2838 96.7639 41.2667 96.8665C40.851 96.9863 41.1967 96.1813 40.7769 96.4561C40.7295 96.5392 40.6686 96.6138 40.5967 96.6769C40.7976 96.7879 40.9725 96.8613 40.9784 96.8296C40.7465 97.1966 40.5275 97.1397 40.3432 97.7368C40.3919 97.3851 40.568 96.6552 40.3002 96.7287L40.1875 96.8062C40.1405 96.8385 40.1487 96.7498 40.1164 96.7029C40.0543 96.7349 39.983 96.7449 39.9144 96.7311C39.7131 97.0218 39.6367 96.7699 39.551 96.7458C39.8046 96.35 39.6654 96.3489 39.9778 96.0787C39.9778 96.0787 39.9778 96.0787 40.0359 96.1633C40.094 96.2478 40.0359 96.1633 40.0682 96.2102C40.1193 96.265 40.1762 96.314 40.2379 96.3564C40.3071 96.1151 40.3547 95.9025 40.1263 96.0734L40.4292 95.367C39.9713 95.848 39.5368 95.9807 39.3237 96.3348C39.2267 95.9726 38.858 95.8387 39.2131 95.0272C39.2048 94.8945 38.9876 95.1823 38.8749 95.2598C38.7622 95.3373 38.9395 95.3538 38.872 95.497C38.8585 95.2158 38.5161 95.1606 38.812 94.6251C38.5008 94.7561 38.6048 95.1688 38.4081 94.9029L38.3412 95.0873C37.3307 95.63 38.4665 93.2576 37.2441 94.0153C37.318 93.9914 37.3833 93.9465 37.432 93.8861C36.5448 93.9843 36.5164 92.6755 35.4719 93.0479C35.2165 93.0991 35.4044 92.7485 35.4789 92.4344L35.1654 92.8437L35.3115 92.2312C35.2979 91.7286 34.203 92.9935 34.352 92.1439L34.5728 91.8814C34.4301 91.855 34.3144 91.5057 34.1482 91.8274C34.1482 91.8274 34.2985 91.5027 34.1611 91.6249L34.0126 91.8516L33.992 91.2984C33.6761 91.322 33.4549 92.2075 33.1237 92.0478C33.1006 91.7074 33.1805 91.368 33.3531 91.0737C33.3531 91.0737 33.5545 91.0043 33.7288 90.8152L33.6977 90.6291C33.9904 89.9706 34.4377 89.3925 35.0015 88.9437L34.9235 89.454L35.1818 89.1656L35.0849 89.0247C35.3855 88.818 35.247 89.0793 35.1806 89.3048C35.2635 89.1869 35.3657 89.0838 35.483 89L35.2565 89.737C35.4396 89.5003 35.5077 89.1768 35.7155 89.1168C35.6034 89.4568 35.2676 89.6324 35.2812 89.9137C35.5817 89.7069 35.685 89.4145 35.6005 89.694C35.6935 89.584 35.7549 89.4509 35.7784 89.3088C35.7379 89.5719 35.9464 89.5531 35.7779 89.9318C36.099 89.6141 35.9846 90.2324 36.3991 89.5876C36.3351 89.7561 36.2494 90.1748 36.317 90.2529C36.6368 89.4103 36.6417 90.4032 37.1136 89.5805C36.7955 90.325 37.3239 90.1277 37.2806 90.6279C37.3275 90.5956 37.3475 90.4435 37.3099 90.4694C37.2723 90.4952 37.6011 90.2691 37.7743 90.2192C37.4315 90.787 37.5202 91.0166 37.3964 91.42C37.8643 90.9737 37.7309 90.7195 38.1002 90.2303C37.7967 90.6742 38.0457 90.8351 37.7533 91.1745C37.9673 91.0332 38.1534 90.8536 38.3022 90.6448C37.8696 91.3436 38.3175 90.828 38.1315 91.3019C38.4978 91.0499 38.5841 90.6723 38.6012 90.9788C38.6979 90.8683 38.7578 90.7304 38.7726 90.5842ZM42.2158 94.4842C42.1615 94.4681 42.1107 94.442 42.066 94.4073C41.9345 94.4977 41.8835 94.6851 41.9216 94.7003C41.9598 94.7156 42.0936 94.5682 42.2158 94.4842ZM39.7636 96.7934C39.8088 96.8591 39.8493 96.8174 39.8857 96.7094C39.8582 96.6777 39.8343 96.643 39.8146 96.606V96.606L39.7636 96.7934Z" fill="#D8D8D8"/>
<path d="M40.0012 96.2141L40.0954 96.1493L40.0371 96.2866L40.0012 96.2141Z" fill="#D8D8D8"/>
<path d="M53.1897 87.6277C53.1717 87.6347 53.1556 87.6458 53.1426 87.6601L53.1897 87.6277Z" fill="#D8D8D8"/>
<path d="M47.2109 96.5968L47.1426 96.6993L47.1697 96.5974L47.2109 96.5968Z" fill="#D8D8D8"/>
<path d="M51.1848 85.838C51.1443 85.85 51.1013 85.8506 51.0606 85.8398L51.1848 85.838Z" fill="#D8D8D8"/>
<path d="M50.8967 84.9573L50.7095 84.8655C50.7766 84.8854 50.8399 84.9165 50.8967 84.9573V84.9573Z" fill="#D8D8D8"/>
<path d="M50.561 84.2886L50.7587 84.2353L50.561 84.2886Z" fill="#D8D8D8"/>
<path d="M52.1727 95.4814C52.0787 95.5879 52.1035 95.543 52.1727 95.4814V95.4814Z" fill="#D8D8D8"/>
<path d="M52.6075 91.9717L52.4008 92.1139C52.3591 92.0733 52.3427 92.0293 52.6075 91.9717Z" fill="#D8D8D8"/>
<path d="M52.4452 92.2777C52.3469 92.2351 52.3679 92.1654 52.4083 92.1239C52.4486 92.0824 52.5072 92.2075 52.4452 92.2777Z" fill="#D8D8D8"/>
<path d="M49.7725 81.2893L49.8482 81.2372C49.8482 81.2372 49.8547 81.2467 49.7725 81.2893Z" fill="#D8D8D8"/>
<path d="M49.9302 81.1387L49.8086 81.2224C49.8086 81.2224 49.8015 81.1721 49.9302 81.1387Z" fill="#D8D8D8"/>
<path d="M50.1384 82.5047C50.0931 82.4389 49.7385 82.4061 49.8254 82.291L49.9287 82.2199C49.7156 82.3527 50.3991 82.3808 50.1384 82.5047Z" fill="#D8D8D8"/>
<path d="M52.4416 83.2588L52.2866 83.0334C52.4733 83.0433 52.7264 83.0491 52.7469 82.9382C53.3065 83.1483 52.3077 82.9635 52.4416 83.2588Z" fill="#D8D8D8"/>
<path d="M52.8399 83.9392C52.898 83.8024 53.0953 83.8881 53.1992 83.8582C53.093 83.9451 53.0178 83.9968 52.8399 83.9392Z" fill="#D8D8D8"/>
<path d="M53.9141 89.1637L54.3333 89.0691C54.25 89.2094 54.1319 89.1384 53.9141 89.1637Z" fill="#D8D8D8"/>
<path d="M51.8992 90.619L51.6109 90.5821L51.9949 90.4564L51.8992 90.619Z" fill="#D8D8D8"/>
<path d="M55.021 90.6313L55.0642 90.574L54.9473 90.7647L55.021 90.6313Z" fill="#D8D8D8"/>
<path d="M56.7814 100.393L56.206 100.18C56.2905 100.122 56.9217 100.255 56.7814 100.393Z" fill="#D8D8D8"/>
<path d="M57.2716 105.714C57.6269 106.231 57.9176 106.654 57.5653 106.342C57.5218 106.179 57.2434 105.734 57.2716 105.714Z" fill="#D8D8D8"/>
<path d="M45.7903 100.729L45.7617 100.928L45.7178 100.724L45.7903 100.729Z" fill="#D8D8D8"/>
</g>
<defs>
<clipPath id="clip0_643_9874">
<rect width="78.6649" height="84.1828" fill="white" transform="matrix(0.823947 -0.566667 -0.566667 -0.823947 48.1094 113.939)"/>
</clipPath>
</defs>
</svg>
