<svg width="16" height="16" viewBox="0 0 16 16" fill="none" xmlns="http://www.w3.org/2000/svg">
<path d="M6.66604 15.1515C6.66604 14.9986 6.72585 14.8519 6.83239 14.7436C6.93892 14.6353 7.08351 14.5741 7.23448 14.5735H11.9518C12.229 14.5993 12.5082 14.555 12.7643 14.4446C13.0204 14.3341 13.2454 14.1609 13.4189 13.9405C13.701 13.5641 13.8653 13.1107 13.8907 12.6389C13.9143 12.2138 14.0322 10.8715 14.0322 10.8715C14.0378 10.7201 14.1026 10.5772 14.2123 10.4741C14.322 10.3711 14.4676 10.3165 14.6172 10.3222C14.7667 10.3279 14.9078 10.3935 15.0096 10.5045C15.1113 10.6156 15.1653 10.7631 15.1597 10.9145C15.1597 10.9336 15.0512 12.2902 15.0276 12.7105C14.9857 13.4279 14.7272 14.1149 14.2869 14.6785C14.0056 15.0279 13.647 15.3051 13.24 15.4877C12.833 15.6703 12.3893 15.7531 11.9448 15.7294H7.24156C7.16671 15.7297 7.09254 15.7151 7.0233 15.6863C6.95407 15.6575 6.89112 15.6152 6.83808 15.5617C6.78505 15.5082 6.74297 15.4447 6.71425 15.3747C6.68554 15.3047 6.67075 15.2296 6.67075 15.1538L6.66604 15.1515ZM3.2318 15.727C2.78729 15.7507 2.34353 15.6679 1.93657 15.4853C1.52961 15.3027 1.17093 15.0255 0.889629 14.6761C0.449413 14.1125 0.190867 13.4255 0.148999 12.7081C0.125412 12.2878 0.0192742 10.9336 0.0192742 10.9121C0.0214193 10.7659 0.0788734 10.6261 0.179792 10.5216C0.280711 10.417 0.417404 10.3557 0.561682 10.3501C0.70596 10.3446 0.846826 10.3954 0.955239 10.492C1.06365 10.5885 1.13134 10.7235 1.14436 10.8691C1.14436 10.8691 1.2623 12.2138 1.28825 12.6389C1.31281 13.1102 1.47722 13.563 1.75998 13.9381C1.93345 14.1588 2.15832 14.3323 2.41439 14.4432C2.67046 14.5541 2.94971 14.5989 3.22708 14.5735H4.09036C4.16825 14.5684 4.24633 14.5795 4.3198 14.6062C4.39326 14.6329 4.46054 14.6746 4.51747 14.7286C4.5744 14.7827 4.61978 14.848 4.6508 14.9205C4.68182 14.993 4.69783 15.0712 4.69783 15.1503C4.69783 15.2293 4.68182 15.3075 4.6508 15.38C4.61978 15.4525 4.5744 15.5178 4.51747 15.5719C4.46054 15.6259 4.39326 15.6676 4.3198 15.6943C4.24633 15.721 4.16825 15.7321 4.09036 15.727H3.2318ZM7.01748 11.8388V10.838C7.01247 10.7592 7.02348 10.6801 7.04984 10.6057C7.07619 10.5313 7.11734 10.4632 7.17072 10.4056C7.22411 10.3479 7.2886 10.302 7.36022 10.2705C7.43184 10.2391 7.50906 10.2229 7.5871 10.2229C7.66515 10.2229 7.74237 10.2391 7.81399 10.2705C7.88561 10.302 7.9501 10.3479 8.00349 10.4056C8.05687 10.4632 8.09802 10.5313 8.12437 10.6057C8.15073 10.6801 8.16174 10.7592 8.15673 10.838V11.8316C8.16174 11.9105 8.15073 11.9895 8.12437 12.0639C8.09802 12.1383 8.05687 12.2065 8.00349 12.2641C7.9501 12.3218 7.88561 12.3677 7.81399 12.3991C7.74237 12.4305 7.66515 12.4467 7.5871 12.4467C7.50906 12.4467 7.43184 12.4305 7.36022 12.3991C7.2886 12.3677 7.22411 12.3218 7.17072 12.2641C7.11734 12.2065 7.07619 12.1383 7.04984 12.0639C7.02348 11.9895 7.01247 11.9105 7.01748 11.8316V11.8388ZM8.91622 10.2051C8.84043 9.90621 8.66807 9.64155 8.42658 9.45328C8.18509 9.26501 7.88834 9.16396 7.58357 9.16619C7.27628 9.16396 6.97692 9.26497 6.73237 9.45339C6.48782 9.64182 6.31186 9.90703 6.23204 10.2075C6.20047 10.3292 6.13025 10.4369 6.03222 10.5142C5.93418 10.5915 5.81377 10.6339 5.68955 10.635C5.66129 10.6374 5.63289 10.6374 5.60463 10.635C3.69539 10.3722 1.86752 9.68374 0.252781 8.61924C0.174792 8.56698 0.110742 8.49606 0.0663067 8.41274C0.0218713 8.32941 -0.00157326 8.23626 -0.00195312 8.14157V5.46421C-7.86895e-05 4.68718 0.30623 3.94268 0.849729 3.39413C1.39323 2.84558 2.12949 2.53783 2.89686 2.53846H4.37811C4.44895 1.9907 4.71371 1.48758 5.12321 1.12255C5.53272 0.757528 6.05914 0.555398 6.60471 0.553711H8.56478C9.11116 0.554241 9.63872 0.755847 10.0492 1.12098C10.4597 1.48611 10.7252 1.98989 10.7961 2.53846H12.2868C13.0529 2.53972 13.7874 2.84829 14.3293 3.39664C14.8713 3.94498 15.1767 4.68843 15.1785 5.46421V8.13203C15.1779 8.22695 15.1541 8.32021 15.1092 8.40355C15.0644 8.4869 14.9999 8.55772 14.9214 8.60971C13.3008 9.67942 11.4654 10.3704 9.54835 10.6327H9.47052C9.34374 10.6321 9.22069 10.5892 9.12046 10.5106C9.02023 10.432 8.94844 10.3221 8.91622 10.198V10.2051ZM9.83611 9.42173C11.3244 9.15922 12.7504 8.61471 14.0393 7.81675V5.46421C14.038 4.99396 13.853 4.54334 13.5246 4.21082C13.1962 3.87829 12.7512 3.6909 12.2868 3.68964H7.59065C7.43989 3.68964 7.2953 3.62901 7.1887 3.52107C7.08209 3.41312 7.0222 3.26672 7.0222 3.11407C7.0222 2.96141 7.08209 2.81501 7.1887 2.70706C7.2953 2.59912 7.43989 2.53846 7.59065 2.53846H9.6427C9.57881 2.29934 9.43876 2.08824 9.24429 1.93796C9.04981 1.78767 8.81178 1.70661 8.56714 1.70731H6.60471C6.31151 1.70794 6.0305 1.82616 5.82318 2.03609C5.61586 2.24602 5.49911 2.53056 5.49849 2.82744V3.11168C5.49911 3.18735 5.48493 3.2624 5.45676 3.33249C5.42859 3.40259 5.38699 3.46634 5.33436 3.52008C5.28174 3.57381 5.21913 3.61646 5.15014 3.64556C5.08115 3.67466 5.00714 3.68965 4.93241 3.68964H2.89686C2.43123 3.68901 1.98438 3.87555 1.65447 4.20828C1.32455 4.54101 1.13854 4.99272 1.13729 5.46421V7.81675C2.42 8.61192 3.83975 9.15409 5.32159 9.41459C5.53366 8.99191 5.85736 8.63707 6.2567 8.38956C6.65604 8.14205 7.11536 8.01157 7.58357 8.01262C8.05223 8.00914 8.51237 8.13947 8.9112 8.38871C9.31003 8.63795 9.63142 8.99598 9.83847 9.42173H9.83611Z" fill="#949494"/>
</svg>
