<svg width="15" height="17" viewBox="0 0 15 17" fill="none" xmlns="http://www.w3.org/2000/svg">
<path d="M12.3721 15.3906C12.3721 15.9379 11.9285 16.3815 11.3813 16.3815H2.99013C2.44291 16.3815 1.99929 15.9379 1.99929 15.3906V7.50724C1.99929 7.09209 2.33584 6.75555 2.75099 6.75555C3.16614 6.75555 3.50269 7.09209 3.50269 7.50724V13.5857C3.50269 14.133 3.9463 14.5766 4.49353 14.5766H9.87789C10.4251 14.5766 10.8687 14.133 10.8687 13.5857V7.50724C10.8687 7.09209 11.2053 6.75555 11.6204 6.75555C12.0356 6.75555 12.3721 7.09209 12.3721 7.50724V15.3906ZM9.36557 11.8697C9.36557 12.2848 9.02902 12.6213 8.61387 12.6213C8.19872 12.6213 7.86217 12.2848 7.86217 11.8697V7.50724C7.86217 7.09209 8.19872 6.75555 8.61387 6.75555C9.02902 6.75555 9.36557 7.09209 9.36557 7.50724V11.8697ZM6.53925 12.0362C6.52244 12.3641 6.25166 12.6213 5.92332 12.6213C5.5827 12.6213 5.30658 12.3452 5.30658 12.0046V7.48799C5.30658 7.08347 5.63451 6.75555 6.03902 6.75555C6.45827 6.75555 6.79197 7.10679 6.7705 7.52549L6.53925 12.0362ZM14.3265 4.34906C14.3265 4.76439 13.9898 5.10108 13.5745 5.10108H0.796938C0.381611 5.10108 0.0449219 4.76439 0.0449219 4.34906C0.0449219 3.93373 0.381611 3.59705 0.796938 3.59705H1.02211C1.56179 3.59705 1.99929 3.15954 1.99929 2.61986V1.57971C1.99929 1.03248 2.4429 0.588867 2.99013 0.588867H11.3813C11.9285 0.588867 12.3721 1.03248 12.3721 1.57971V2.61986C12.3721 3.15954 12.8096 3.59705 13.3493 3.59705H13.5745C13.9898 3.59705 14.3265 3.93373 14.3265 4.34906ZM3.50269 2.84503C3.50269 3.26036 3.83938 3.59705 4.2547 3.59705H10.1167C10.532 3.59705 10.8687 3.26036 10.8687 2.84503C10.8687 2.4297 10.532 2.09301 10.1167 2.09301H4.2547C3.83938 2.09301 3.50269 2.4297 3.50269 2.84503Z" fill="white"/>
</svg>
