<svg width="17" height="17" viewBox="0 0 17 17" fill="none" xmlns="http://www.w3.org/2000/svg">
    <path d="M7.05707 8.05937C7.75583 7.34236 8.90595 7.33509 9.61371 8.04321C10.3147 8.74456 10.3147 9.88129 9.61371 10.5826L5.54925 14.6491C5.21033 14.9882 4.75057 15.1787 4.27115 15.1787H4.17481C3.23001 15.1787 2.4641 14.4128 2.4641 13.468C2.4641 13.0219 2.63834 12.5935 2.94967 12.2741L7.05707 8.05937ZM10.6585 6.98281C9.37113 5.69484 7.28327 5.69483 5.99593 6.98279L1.92613 11.0546C1.30811 11.6729 0.960938 12.512 0.960938 13.3863C0.960938 15.206 2.43612 16.6829 4.25586 16.6829C5.13001 16.6829 5.96834 16.3355 6.5863 15.7172L10.6585 11.643C11.9449 10.356 11.9449 8.26989 10.6585 6.98281Z" fill="white"/>
    <path d="M12.3873 2.09403L14.9429 4.6509L13.8907 5.70373L11.3351 3.14687L12.3873 2.09403ZM12.3873 0.589887C12.0459 0.475243 11.6765 0.475243 11.3351 0.589887L9.23047 2.69567L13.8907 7.3582L15.9953 5.25253C16.2707 4.97138 16.4249 4.59339 16.4249 4.1997C16.4249 3.80601 16.2707 3.42802 15.9953 3.14687L13.4397 0.589887C13.2732 0.519564 13.0942 0.483398 12.9135 0.483398C12.7328 0.483398 12.5538 0.519564 12.3873 0.589887Z" fill="white"/>
</svg>
