<svg width="25" height="27" viewBox="0 0 25 27" fill="none" xmlns="http://www.w3.org/2000/svg">
<path d="M12.5001 0C10.0239 5.555e-05 7.60361 0.728095 5.54604 2.09178C3.48848 3.45547 1.88637 5.39337 0.942929 7.65969C-0.000515461 9.92601 -0.242798 12.4187 0.246809 14.8215C0.736416 17.2243 1.93586 19.4291 3.693 21.1561L8.1738 25.2521C9.32552 26.3682 10.8719 26.995 12.4835 26.9992C14.0952 27.0034 15.6448 26.3847 16.8024 25.2746L21.3389 21.1246C23.0871 19.394 24.2775 17.1891 24.7598 14.7887C25.2421 12.3883 24.9946 9.90024 24.0485 7.63912C23.1024 5.378 21.5003 3.44537 19.4447 2.08563C17.3891 0.725879 14.9723 7.76891e-05 12.5001 0ZM19.7639 19.5035L15.2365 23.6446C14.4921 24.3389 13.5068 24.7239 12.484 24.7201C11.4613 24.7163 10.4789 24.3241 9.73976 23.6243L5.26804 19.5339C4.07875 18.3566 3.20112 16.907 2.71289 15.3137C2.22466 13.7204 2.1409 12.0325 2.46903 10.3995C2.79717 8.76645 3.52706 7.23875 4.59406 5.95168C5.66106 4.66461 7.03224 3.6579 8.58613 3.02072C10.14 2.38355 11.8287 2.13558 13.5025 2.29877C15.1763 2.46197 16.7837 3.03129 18.1821 3.95631C19.5806 4.88134 20.727 6.13351 21.5199 7.60191C22.3128 9.07031 22.7276 10.7096 22.7276 12.3746C22.7326 13.6976 22.4733 15.0086 21.9647 16.232C21.4561 17.4554 20.7081 18.5673 19.7639 19.5035ZM17.8525 8.62062L14.4433 6.27956C13.8721 5.88886 13.1943 5.67958 12.5001 5.67958C11.8058 5.67958 11.128 5.88886 10.5568 6.27956L7.14764 8.62062C6.69525 8.9313 6.32561 9.34583 6.07031 9.82874C5.81502 10.3117 5.68168 10.8486 5.68169 11.3937V15.1871C5.68169 15.933 5.98101 16.6483 6.5138 17.1757C7.04659 17.7032 7.7692 17.9995 8.52268 17.9995H16.4774C17.2309 17.9995 17.9535 17.7032 18.4863 17.1757C19.0191 16.6483 19.3184 15.933 19.3184 15.1871V11.3937C19.3184 10.8486 19.1851 10.3117 18.9298 9.82874C18.6745 9.34583 18.3049 8.9313 17.8525 8.62062ZM17.0456 15.1871C17.0456 15.3362 16.9858 15.4793 16.8792 15.5848C16.7727 15.6903 16.6281 15.7495 16.4774 15.7495H14.7728V13.4996C14.7728 13.2012 14.6531 12.9151 14.44 12.7041C14.2269 12.4932 13.9378 12.3746 13.6365 12.3746H11.3637C11.0623 12.3746 10.7732 12.4932 10.5601 12.7041C10.347 12.9151 10.2273 13.2012 10.2273 13.4996V15.7495H8.52268C8.37198 15.7495 8.22746 15.6903 8.1209 15.5848C8.01434 15.4793 7.95448 15.3362 7.95448 15.1871V11.3937C7.95441 11.2119 7.99883 11.0329 8.08393 10.8718C8.16903 10.7108 8.29228 10.5725 8.44313 10.4689L11.8523 8.12788C12.0429 7.99815 12.2688 7.92869 12.5001 7.92869C12.7314 7.92869 12.9572 7.99815 13.1478 8.12788L16.557 10.4689C16.7078 10.5725 16.8311 10.7108 16.9162 10.8718C17.0013 11.0329 17.0457 11.2119 17.0456 11.3937V15.1871Z" fill="#737373"/>
</svg>
