<svg width="58" height="58" viewBox="0 0 58 58" fill="none" xmlns="http://www.w3.org/2000/svg">
<g clip-path="url(#clip0_813_701)">
<path d="M45.8096 28.8878C45.8096 31.5737 45.7917 34.2622 45.8096 36.9507C45.8372 37.2665 45.7605 37.5826 45.591 37.8506C45.4216 38.1185 45.1689 38.3234 44.8718 38.4338C39.7751 40.8598 34.6895 43.3011 29.6149 45.7577C29.4251 45.8588 29.2133 45.9116 28.9982 45.9116C28.7832 45.9116 28.5714 45.8588 28.3815 45.7577C23.2849 43.2994 18.1814 40.8454 13.0712 38.3956C12.8034 38.292 12.5761 38.1049 12.4229 37.8622C12.2696 37.6194 12.1985 37.3338 12.22 37.0475C12.2319 31.5686 12.2319 26.0897 12.22 20.6108C12.1967 20.3659 12.2524 20.12 12.379 19.9091C12.5056 19.6981 12.6963 19.5332 12.9234 19.4386C17.9809 17.0041 23.03 14.5662 28.0706 12.1249C28.3628 11.9611 28.6916 11.8736 29.0265 11.8704C29.3615 11.8673 29.6918 11.9487 29.987 12.107C34.9511 14.5194 39.9255 16.9098 44.91 19.278C45.2062 19.3879 45.4572 19.5934 45.6233 19.8621C45.7895 20.1307 45.8613 20.4471 45.8274 20.7611C45.7892 23.4675 45.8096 26.1789 45.8096 28.8878ZM29.9309 35.9339V42.766C29.9309 43.5534 29.9309 43.5585 30.6725 43.2068C34.8645 41.1682 39.0514 39.1473 43.2536 37.1444C43.4717 37.069 43.6578 36.9218 43.7814 36.7269C43.905 36.532 43.9588 36.301 43.934 36.0715C43.9111 31.5992 43.9213 27.1269 43.9213 22.6571C43.9213 21.8365 43.9213 21.834 43.1568 22.2035C38.9469 24.2422 34.7345 26.2689 30.5196 28.2838C30.3295 28.351 30.1676 28.4804 30.0603 28.6511C29.953 28.8218 29.9065 29.0237 29.9284 29.2241C29.9437 31.4616 29.9309 33.6965 29.9309 35.9339ZM28.114 36.0205C28.114 33.727 28.114 31.4336 28.114 29.1273C28.139 28.9673 28.1097 28.8035 28.0307 28.6622C27.9517 28.5208 27.8276 28.41 27.6782 28.3475C23.3341 26.2715 18.9926 24.1827 14.6537 22.0812C14.2358 21.8773 14.1185 21.9691 14.1185 22.415C14.1185 27.053 14.1185 31.6892 14.1185 36.3238C14.1065 36.4857 14.1482 36.6471 14.2371 36.783C14.326 36.9189 14.4572 37.0217 14.6104 37.0756C18.9374 39.1516 23.2602 41.2353 27.5788 43.3266C28.035 43.5483 28.1191 43.4413 28.1165 42.9749C28.1063 40.656 28.114 38.337 28.114 36.0205ZM15.329 20.3152C17.1459 21.1842 18.8126 21.964 20.4588 22.7871C20.6605 22.9012 20.8883 22.9612 21.1201 22.9612C21.3518 22.9612 21.5796 22.9012 21.7814 22.7871C25.7287 20.8682 29.6812 18.9773 33.6438 17.0763C33.9853 16.9106 34.3242 16.7322 34.6632 16.5666C34.5358 16.3118 34.3395 16.2888 34.1815 16.2124C32.6296 15.4632 31.07 14.7343 29.5257 13.9698C29.3697 13.8837 29.1943 13.8386 29.0161 13.8386C28.8378 13.8386 28.6625 13.8837 28.5064 13.9698C25.5376 15.4122 22.5586 16.8367 19.5872 18.2663L15.329 20.3152ZM42.7006 20.3152C40.7384 19.3774 38.9469 18.5314 37.1554 17.6598C37.0503 17.6191 36.9366 17.6055 36.8249 17.6202C36.7131 17.6349 36.6068 17.6774 36.5158 17.7439L23.6595 23.9415C23.5601 23.9899 23.4046 23.9975 23.4352 24.2167C25.0789 25.0092 26.7481 25.7966 28.3968 26.6198C28.5905 26.7316 28.8102 26.7905 29.0339 26.7905C29.2576 26.7905 29.4773 26.7316 29.671 26.6198C33.3635 24.8359 37.0611 23.0648 40.7639 21.2886C41.3576 20.9879 41.9539 20.6847 42.7108 20.3126L42.7006 20.3152Z" fill="#FF6E41"/>
<path d="M9.44653 47.7354C10.9589 49.325 12.6652 50.718 14.5254 51.8815C19.515 55.0258 25.3935 56.4581 31.2703 55.9614C37.147 55.4648 42.7018 53.0663 47.093 49.1293C51.5536 45.1955 54.5614 39.8756 55.6325 34.0254C56.6143 29.0411 56.1582 23.8805 54.3175 19.1457C54.2513 18.9724 54.1774 18.8016 54.1239 18.636C54.034 18.4153 54.0323 18.1686 54.1191 17.9467C54.2059 17.7248 54.3745 17.5446 54.5902 17.4434C54.7032 17.3907 54.826 17.3622 54.9506 17.3596C55.0753 17.357 55.1991 17.3804 55.3142 17.4284C55.4293 17.4763 55.5332 17.5478 55.6191 17.6381C55.7051 17.7284 55.7712 17.8357 55.8134 17.9531C56.3106 19.0797 56.7104 20.2469 57.0086 21.4417C57.7478 24.117 58.0803 26.8884 57.9948 29.6626C57.6304 38.2123 54.3175 45.3858 47.8499 51.0355C43.5392 54.8557 38.1334 57.2188 32.4019 57.7886C23.1846 58.7518 15.1905 55.9894 8.51894 49.509C8.38642 49.3791 8.26411 49.2389 8.12904 49.1166C8.05514 49.0529 7.95066 48.9611 7.87421 48.9739C7.72386 48.9994 7.74934 49.1574 7.7366 49.2771C7.56671 50.8673 7.39682 52.4566 7.22693 54.0451C7.20414 54.2695 7.1684 54.4924 7.1199 54.7127C7.09118 54.9418 6.97352 55.1503 6.79234 55.2934C6.61116 55.4364 6.38099 55.5024 6.15154 55.4772C6.03266 55.468 5.91681 55.4351 5.81079 55.3805C5.70476 55.326 5.61067 55.2508 5.53403 55.1595C5.45739 55.0681 5.39973 54.9624 5.36443 54.8485C5.32913 54.7346 5.31689 54.6148 5.32843 54.4961C5.3794 53.6169 5.48388 52.7403 5.58326 51.8662C5.77439 50.1334 5.96551 48.4005 6.17447 46.6727C6.2815 45.8573 6.60514 45.6024 7.42825 45.6789C9.93751 45.932 12.4459 46.1937 14.9535 46.4638C15.6517 46.5377 16.0544 46.9734 15.9728 47.529C15.8913 48.0845 15.3969 48.398 14.7114 48.3241C13.0142 48.1508 11.3272 47.9469 9.44653 47.7354Z" fill="#FF6E41"/>
<path d="M48.6702 10.2977C44.7916 6.31723 40.2811 3.74597 35.0162 2.57628C28.7014 1.17216 22.5804 1.85256 16.8262 4.82646C8.67156 9.04904 3.79406 15.797 2.24213 24.841C1.45631 29.4628 1.94075 34.2112 3.64371 38.5791C3.69977 38.732 3.76093 38.8874 3.8119 39.0429C4.00302 39.6367 3.8119 40.1234 3.30223 40.3171C2.79257 40.5107 2.33132 40.3018 2.07649 39.7182C1.38999 38.0678 0.877549 36.3503 0.547488 34.5935C-0.496165 29.3911 -0.0681494 24.0008 1.78343 19.0283C4.25786 12.3593 8.6104 7.25502 14.7927 3.73832C19.4115 1.07446 24.6948 -0.215422 30.0215 0.0203082C36.7579 0.230674 43.204 2.81164 48.2242 7.30853C48.7619 7.78252 49.2665 8.29474 49.794 8.78402C49.9061 8.88595 49.9927 9.08982 50.189 8.99808C50.3419 8.92672 50.2782 8.74325 50.2934 8.60563C50.4922 6.89571 50.6782 5.18577 50.8923 3.47585C50.9739 2.82857 51.3714 2.45651 51.8632 2.49983C52.4009 2.54061 52.7577 2.97637 52.6965 3.65423C52.5385 5.43806 52.3372 7.2015 52.1537 8.97514C52.0773 9.70906 52.0161 10.4455 51.9142 11.1769C51.7689 12.2294 51.5039 12.4638 50.4616 12.3644C48.767 12.2064 47.0774 12.0051 45.3854 11.8191C44.5903 11.7324 43.7952 11.656 43.0052 11.5362C42.3681 11.4419 42.0139 11.0265 42.0802 10.5169C42.1464 10.0072 42.5695 9.66574 43.2091 9.72435C44.9878 9.89509 46.7564 10.0964 48.6702 10.2977Z" fill="#FF6E41"/>
<path d="M24.1198 31.5457C24.127 31.7048 24.093 31.8632 24.0211 32.0053C23.9492 32.1475 23.8417 32.2686 23.7092 32.3571C23.5767 32.4455 23.4235 32.4982 23.2647 32.5101C23.1058 32.522 22.9465 32.4926 22.8023 32.4249C21.9537 32.0579 21.1332 31.6349 20.3024 31.2348C19.6169 30.9086 18.9263 30.5952 18.251 30.2486C17.6853 29.9581 17.5018 29.4713 17.7414 28.9744C17.9809 28.4775 18.4804 28.3195 19.0512 28.5845C20.519 29.2675 21.9792 29.9683 23.4394 30.6691C23.8166 30.8602 24.1096 31.1303 24.1198 31.5457Z" fill="#FF6E41"/>
</g>
<defs>
<clipPath id="clip0_813_701">
<rect width="58" height="57.9771" fill="white"/>
</clipPath>
</defs>
</svg>
