<svg width="24" height="24" viewBox="0 0 24 24" fill="none" xmlns="http://www.w3.org/2000/svg">
<path d="M11.4269 16.3365C11.4996 17.6377 11.3976 18.9427 11.1235 20.217C10.7057 21.3796 9.91995 22.3759 8.88419 23.0563C7.84843 23.7366 6.61866 24.0642 5.37969 23.9899C4.20636 23.8932 3.08898 23.4493 2.17152 22.7155C1.25405 21.9816 0.57852 20.9912 0.231929 19.872C-0.00659941 19.0165 -0.0419618 18.1175 0.128658 17.246C0.299279 16.3745 0.671208 15.5544 1.21508 14.8504C1.75894 14.1463 2.45987 13.5777 3.26255 13.1892C4.06522 12.8008 4.94767 12.6032 5.84026 12.6121C7.46587 12.6552 9.09148 12.6121 10.7171 12.6121C11.259 12.6121 11.4378 12.79 11.4215 13.3074" fill="#737373"/>
<path d="M12.5973 16.3363C12.5219 17.6375 12.624 18.9429 12.9007 20.2169C13.318 21.3776 14.1021 22.3725 15.1357 23.0527C16.1692 23.7328 17.3965 24.0616 18.6337 23.9897C19.8071 23.893 20.9244 23.4492 21.8419 22.7153C22.7593 21.9814 23.4349 20.991 23.7815 19.8719C24.0234 19.0139 24.0609 18.1117 23.8908 17.2369C23.7207 16.362 23.3478 15.5387 22.8018 14.8323C22.2557 14.1259 21.5516 13.556 20.7452 13.1677C19.9389 12.7795 19.0526 12.5836 18.1569 12.5957C16.5313 12.6389 14.9057 12.5957 13.2801 12.5957C12.7382 12.5957 12.5594 12.7736 12.5756 13.291" fill="#737373"/>
<path d="M5.46648 11.3669C4.09345 11.3024 2.78899 10.7512 1.78911 9.813C0.78924 8.87483 0.16 7.61167 0.0152731 6.25206C-0.0830818 4.89781 0.295849 3.55183 1.08694 2.44531C1.87803 1.33878 3.03188 0.540822 4.35023 0.188625C5.08281 0.0098996 5.84363 -0.0235328 6.58921 0.0901997C7.33479 0.203932 8.05055 0.462674 8.69562 0.85155C9.34069 1.24042 9.90243 1.7518 10.3488 2.35662C10.7951 2.96143 11.1173 3.64777 11.297 4.37644C11.4 4.80563 11.4545 5.24502 11.4596 5.68624C11.4108 7.33549 11.4596 8.98471 11.4596 10.634C11.4596 11.1729 11.2753 11.3938 10.7064 11.3723" fill="#737373"/>
<path d="M13.2799 11.3669C12.7922 11.3669 12.608 11.189 12.6134 10.7039C12.6134 8.86604 12.5592 7.02816 12.6405 5.19027C12.7442 3.84905 13.3276 2.58925 14.2849 1.63906C15.2422 0.688861 16.5101 0.111228 17.8587 0.0108247C19.2349 -0.0731787 20.5962 0.333836 21.6977 1.15877C22.7992 1.98371 23.5688 3.17237 23.868 4.51116C24.1905 5.97626 23.9151 7.50877 23.1022 8.77201C22.2894 10.0352 21.0057 10.9259 19.5331 11.2483C19.0956 11.3449 18.648 11.3883 18.2001 11.3777" fill="#737373"/>
</svg>
